/* XPM */
static char *dynamicaActivate_Y[] = {
/* columns rows colors chars-per-pixel */
"32 32 256 2 ",
"   c black",
".  c #09000C",
"X  c #1C0005",
"o  c #15000B",
"O  c #04001C",
"+  c #0A001B",
"@  c #15001C",
"#  c #1C0015",
"$  c #101010",
"%  c #2B000C",
"&  c #27000D",
"*  c #350406",
"=  c #2C1B00",
"-  c #250018",
";  c #300018",
":  c #3B0014",
">  c #3D2000",
",  c #1E1D2A",
"<  c #150038",
"1  c #1A183D",
"2  c #2B002E",
"3  c #310024",
"4  c #26003D",
"5  c #36003A",
"6  c #202020",
"7  c #2C2B3E",
"8  c gray19",
"9  c #4A0009",
"0  c #430002",
"q  c #53000A",
"w  c #59000A",
"e  c #431000",
"r  c #481100",
"t  c #4C001A",
"y  c #590018",
"u  c #6E0004",
"i  c #7B0004",
"p  c #7B000E",
"a  c #77000E",
"s  c #671800",
"d  c #741100",
"f  c #7A1D00",
"g  c #701B00",
"h  c #6B0016",
"j  c #76001A",
"k  c #5B2F00",
"l  c #523700",
"z  c #742700",
"x  c #7C2900",
"c  c #643400",
"v  c #4C0027",
"b  c #53002A",
"n  c #59002D",
"m  c #440032",
"M  c #4E0039",
"N  c #52003C",
"B  c #760029",
"V  c #690035",
"C  c #504F1E",
"Z  c #7C4D00",
"A  c #764500",
"S  c #625000",
"D  c #735D00",
"F  c #6C6100",
"G  c #5D5D34",
"H  c #685434",
"J  c #676620",
"K  c #79782D",
"L  c #75643A",
"P  c #100050",
"I  c #13005D",
"U  c #3D0041",
"Y  c #33094C",
"T  c #350056",
"R  c #3B005E",
"E  c #050065",
"W  c #16006E",
"Q  c #16126B",
"!  c #180079",
"~  c #2A006E",
"^  c #260063",
"/  c #2C0072",
"(  c #201C73",
")  c #400045",
"_  c #46004A",
"`  c #48004D",
"'  c #5C0043",
"]  c #500056",
"[  c #600046",
"{  c #790059",
"}  c #400067",
"|  c #5A0060",
" . c #460071",
".. c #543866",
"X. c gray27",
"o. c #4C4C4C",
"O. c #515151",
"+. c #727272",
"@. c #797979",
"#. c #8A000C",
"$. c #940403",
"%. c #861400",
"&. c #9A1700",
"*. c #8C0010",
"=. c #84001C",
"-. c #8D001E",
";. c #90001F",
":. c #A80006",
">. c #B50006",
",. c #BD0006",
"<. c #BE0A00",
"1. c #B20900",
"2. c #A41800",
"3. c #AB1900",
"4. c #8B2100",
"5. c #872000",
"6. c #902200",
"7. c #9C3400",
"8. c #A72800",
"9. c #A73800",
"0. c #B33C00",
"q. c #B93E00",
"w. c #87002E",
"e. c #8D0030",
"r. c #930032",
"t. c #A40023",
"y. c #C20006",
"u. c #C50A00",
"i. c #CA0A00",
"p. c #D40B00",
"a. c #C71E00",
"s. c #E80604",
"d. c #FD0D00",
"f. c #F40008",
"g. c #D82000",
"h. c #D73300",
"j. c #F02400",
"k. c #8B4800",
"l. c #954100",
"z. c #904B00",
"x. c #8A5600",
"c. c #895500",
"v. c #9B5100",
"b. c #985E00",
"n. c #935B00",
"m. c #A64800",
"M. c #B24D00",
"N. c #AE5B00",
"B. c #B95800",
"V. c #896200",
"C. c #9B6F00",
"Z. c #986500",
"A. c #807300",
"S. c #9E7100",
"D. c #9B7E00",
"F. c #AB6A00",
"G. c #BD6300",
"H. c #A37400",
"J. c #A87800",
"K. c #B97B00",
"L. c #C25400",
"P. c #CB5800",
"I. c #D25B00",
"U. c #D85D00",
"Y. c #EB4E00",
"T. c #F95300",
"R. c #CB6A00",
"E. c #C37900",
"W. c #FE6D00",
"Q. c #830042",
"!. c #8A5545",
"~. c #A55F52",
"^. c #99664C",
"/. c #BC635E",
"(. c #A27451",
"). c #AA5E6A",
"_. c #BA5F62",
"`. c #AA657C",
"'. c #8C8703",
"]. c #928A00",
"[. c #939200",
"{. c #9D9B00",
"}. c #918F12",
"|. c #A98900",
" X c #BD8700",
".X c #B68200",
"XX c #AC9B00",
"oX c #BD9A00",
"OX c #B69400",
"+X c #AFAD00",
"@X c #BDAB00",
"#X c #B0AE00",
"$X c #BBB900",
"%X c #948A2E",
"&X c #9B9926",
"*X c #C28A00",
"=X c #CC9100",
"-X c #C19D00",
";X c #E68F00",
":X c #FE8400",
">X c #C0AD00",
",X c #C9A300",
"<X c #C4B100",
"1X c #E2A100",
"2X c #C3C100",
"3X c #ECC000",
"4X c #FFCF00",
"5X c #EBD400",
"6X c #ECE900",
"7X c #FFE600",
"8X c #FFFC00",
"9X c #AE8457",
"0X c #A29A51",
"qX c #A09150",
"wX c #A9A84A",
"eX c #A8A754",
"rX c #B9B85C",
"tX c #9F9E6D",
"yX c #A8A769",
"uX c #070083",
"iX c #07008A",
"pX c #190080",
"aX c #08009C",
"sX c #370090",
"dX c #0900B2",
"fX c #2000A1",
"gX c #504C91",
"hX c #7C669F",
"jX c #6C69AA",
"kX c #7366A6",
"lX c #99668B",
"zX c #8A6695",
"xX c #A26684",
"cX c #827FB5",
"vX c #828282",
"bX c #898989",
"nX c gray60",
"mX c #909090",
"MX c #B2AE85",
"NX c gray68",
"BX c gray65",
"VX c #AEADBF",
"CX c #B3B3B3",
"ZX c #BCBCBC",
"AX c #C8C789",
"SX c #CAC997",
"DX c #C5C5A0",
"FX c #CACABD",
"GX c #A6A5C0",
"HX c #C3C3C3",
"JX c #CCCCCC",
"KX c #D0D0D0",
"LX c gray88",
"PX c gray94",
"IX c gray100",
"UX c None",
/* pixels */
"UX+.o.X.X.X.X.X.X.X.X.X.X.X.X.X.X.X.X.X.X.X.X.X.X.X.X.X.X.O.+.UX",
"+.o.bXCXJXJXJXJXJXJXJXJXJXKXJXJXKXJXJXKXJXJXJXJXJXKXJXJXCXvXX.+.",
"o.bXJXJXJXJXJXJXJXJXJXJXJXJXJXJXJXJXJXJXJXJXJXJXJXJXJXJXJXJX@.O.",
"X.ZXJXJXJXJXJXJXJXJXJXJXJXJXJXJXJXJXJXSXrXJ C tXJXHXJXJXJXJXCXX.",
"X.JXJXJXJXJXJXKXJXJXJXJXJXHXFXAXwX&X[.[.{.'.$X6X2XG JXJXJXJXJXX.",
"X.JXJXJXJXJXJXJXJXHXDXyXK }.].[.{.+X$X<X2X#X6X8X8XeXJXJXJXJXJXX.",
"X.JXJXJXJXZXMX0X%X'.].A.F @X<X<X>X>X@X@X@XXX5X7X7X0XJXJXJXJXJXX.",
"X.JXJXJXJXS D |.OX,X=X-X].,X-X-X-X-XoXoX@X|.1X7X4XqXJXJXJXJXJXX.",
"X.JXJXJXJXS.*X=X*X X XJ.V.*X.XJ.H.H.H.C.C.l C.1X=XL JXJXJXJXJXX.",
"X.KXJXJXJXZ b.F.x.n.Z.A l x.c.Z = Z c.x.Z.A E.;XE.H JXJXJXJXJXX.",
"X.JXJXJXJXk c z.e A v.v.v.N.G.G.k.R.R.R.R.G.:X:X:X9XJXJXJXJXJXX.",
"X.JXJXJXKX7.M.U.m.P.P.I.I.P.L.L.7.L.L.L.B.M.W.W.W.(.JXJXJXJXJXX.",
"X.KXJXJXJXx 9.M.z 9.0.0.0.0.0.0.z M.q.q.M.8.T.T.Y.^.JXJXJXJXJXX.",
"X.JXJXJXJXr g 6.e x 4.g s 4.4.f = %.6.%.6.e 8.h.8.!.JXJXJXJXJXX.",
"X.JXJXKXJXd &.3.2.2.3.%.d 3.3.2.&.&.2.2.2.d g.j.a.~.JXJXJXJXJXX.",
"X.JXJXJXJX$.u.i.s.p.p.<.1.i.i.i.p.i.i.i.i.<.d.d.d./.JXJXJXJXJXX.",
"X.JXJXJXJX0 u $.i $.:.i i >.>.,.y.,.y.,.,.:.f.f.f._.JXJXJXJXJXX.",
"X.JXJXJXJX9 a #.9 a p q 9 a *   X q *.*.#.*   w *.).JXJXJXJXJXX.",
"X.KXJXJXJXj t.t.h ;.;.=.=.y O.IXHXX h h & vXIXmX* ).JXJXJXJXJXX.",
"X.JXJXJXJX% b B t w.e.r.e.w.% CXIX+.: t 8 IXLX$ B `.JXJXJXJXJXX.",
"X.JXJXJXJX; v b & v b n V V b $ PXPX6 o KXIXX.v Q.xXJXJXJXJXKXX.",
"X.KXJXJXJXM [ ' N N N 3 3 m m # +.IXZXvXIXCX2 Q.{ lXJXJXJXJXJXX.",
"X.JXJXJXJX@ U ] _ U U 2 5 ` ) 5 . HXIXIXPX$ ` | 5 zXJXJXJXJXJXX.",
"X.JXJXJXJX..Y @ X.X.8 X.6 T R R 4 $ PXIXo.. }  .T zXJXJXJXJXJXX.",
"X.KXJXJXJXJXJX  IXIXIXIXvX< ~ ~ ~ O HXIX  ^ sXsX/ kXJXJXJXJXJXX.",
"X.JXJXJXJXJXJXO.8 X.X.8 6 P I W ! O FXIX  ! fXfXpXkXJXJXJXJXJXX.",
"X.JXJXJXJXJXJXJXnXnXnXnXCXVXjX( E O GXIX  iXdXdXuXjXJXJXJXJXJXX.",
"X.JXJXJXJXJXJXJXJXJXJXJXJXJXJXJXVX, HXIX  E aXuXQ cXJXJXJXJXHXX.",
"X.CXJXJXJXKXJXJXJXJXJXJXJXJXJXJXJXvX8 X.7 1 gXGXJXJXJXJXJXJXCXX.",
"O.vXJXJXJXJXJXJXJXJXJXJXJXJXJXJXJXJXBXnXJXJXJXJXJXJXJXKXJXJX+.o.",
"+.X.`.NXJXJXJXJXJXJXJXJXJXJXJXJXJXJXJXJXJXJXJXJXJXJXJXHXNX@.X.+.",
"UX+.o.X.X.X.X.X.X.X.X.X.X.X.X.X.X.X.X.X.X.X.X.X.X.X.X.X.X.o.+.UX"
};
