/* XPM */
static char *dynamicaBakeAll[] = {
/* columns rows colors chars-per-pixel */
"32 32 242 2 ",
"   c #0D0704",
".  c #0B0A09",
"X  c #141211",
"o  c #1C1411",
"O  c #250000",
"+  c #2D0000",
"@  c #320000",
"#  c #3C0000",
"$  c #3A2713",
"%  c #252525",
"&  c #2A2A2A",
"*  c #302620",
"=  c #362B23",
"-  c #3E3126",
";  c #3C3128",
":  c #3E3D3C",
">  c #420000",
",  c #4C0000",
"<  c #420F09",
"1  c #540100",
"2  c #5C0100",
"3  c #5B0C09",
"4  c #630000",
"5  c #6B0000",
"6  c #720101",
"7  c #7B0000",
"8  c #7C0D0B",
"9  c #75120F",
"0  c #791311",
"q  c #442C13",
"w  c #432F18",
"e  c #4A2F1A",
"r  c #4B341D",
"t  c #7C2B1D",
"y  c #4C3724",
"u  c #42342B",
"i  c #563E24",
"p  c #5A3E24",
"a  c #59422E",
"s  c #534336",
"d  c #554A3F",
"f  c #604731",
"g  c #684E34",
"h  c #624D3B",
"j  c #774339",
"k  c #6C5037",
"l  c #6F583E",
"z  c #454545",
"x  c #4C4C4C",
"c  c #5D5147",
"v  c #59524F",
"b  c gray32",
"n  c #6A5341",
"m  c #6D5842",
"M  c #60574E",
"N  c #6F5A49",
"B  c #745B42",
"V  c #735E4A",
"C  c #705F50",
"Z  c #7D644E",
"A  c #7B6653",
"S  c #6F6F6F",
"D  c #706860",
"F  c #737373",
"G  c #7E7873",
"H  c gray48",
"J  c #820000",
"K  c #8C0000",
"L  c #860B06",
"P  c #830E0C",
"I  c #930000",
"U  c #9A0000",
"Y  c #8A130D",
"T  c #8F1614",
"R  c #981611",
"E  c #951917",
"W  c #A40000",
"Q  c #AC0000",
"!  c #B30000",
"~  c #BB0000",
"^  c #BD0B09",
"/  c #B2120E",
"(  c #B9110A",
")  c #A01110",
"_  c #AE1B17",
"`  c #B11312",
"'  c #BE301D",
"]  c #962B27",
"[  c #903727",
"{  c #903E36",
"}  c #B0342E",
"|  c #C40000",
" . c #CB0000",
".. c #C90906",
"X. c #D40000",
"o. c #DC0000",
"O. c #C0130F",
"+. c #D81106",
"@. c #D11D13",
"#. c #D81E17",
"$. c #E30000",
"%. c #EB0000",
"&. c #F30000",
"*. c #FB0000",
"=. c #ED1A16",
"-. c #E21B1A",
";. c #E91B1B",
":. c #F51E1F",
">. c #FF1F1F",
",. c #D42019",
"<. c #E1231B",
"1. c #C92423",
"2. c #C83627",
"3. c #DE3A22",
"4. c #EF2723",
"5. c #FE2C2A",
"6. c #954037",
"7. c #9C4339",
"8. c #B34129",
"9. c #A7453A",
"0. c #87674C",
"q. c #8B6B4E",
"w. c #846C52",
"e. c #806B58",
"r. c #946F5E",
"t. c #997454",
"y. c #95765D",
"u. c #9C775B",
"i. c #B6615F",
"p. c #A07551",
"a. c #A27858",
"s. c #807166",
"d. c #9D7C60",
"f. c #947F6F",
"g. c #837B74",
"h. c #AD6B6A",
"j. c #A17F66",
"k. c #BE7468",
"l. c #DA4C48",
"z. c #C1584F",
"x. c #C55B55",
"c. c #D85753",
"v. c #EC5452",
"b. c #EC5F56",
"n. c #E8615E",
"m. c #EB685B",
"M. c #DE6D6E",
"N. c #FF6E6C",
"B. c #EC7271",
"V. c #F67775",
"C. c #F97674",
"Z. c #F97C79",
"A. c #8F8175",
"S. c #8C837D",
"D. c #9C8675",
"F. c #9D8C7C",
"G. c #A78162",
"H. c #A5836A",
"J. c #A9866C",
"K. c #AA886F",
"L. c #AB8C74",
"P. c #A78D79",
"I. c #AC8F7A",
"U. c #B18E73",
"Y. c #AF9177",
"T. c #AE907A",
"R. c gray51",
"E. c #908C87",
"W. c #929292",
"Q. c #9B9692",
"!. c gray60",
"~. c #AE9383",
"^. c #A2968B",
"/. c #A69B8F",
"(. c #AB988D",
"). c #B19487",
"_. c #B59C85",
"`. c #BC9A86",
"'. c #B19C8F",
"]. c #A29E9B",
"[. c #BAA188",
"{. c #BDA88F",
"}. c #B7A393",
"|. c #BBA592",
" X c #B7A895",
".X c #BCA894",
"XX c #BDAD9C",
"oX c #A6A4A3",
"OX c gray68",
"+X c #BFAFA2",
"@X c #B2B0AD",
"#X c #B5B5B5",
"$X c #BBBABA",
"%X c #E18E8B",
"&X c #C1A98F",
"*X c #CEAA8D",
"=X c #CFAB90",
"-X c #C3AE9B",
";X c #C4B19B",
":X c #CDB49D",
">X c #E7A39F",
",X c #C4B0A4",
"<X c #CBB7A6",
"1X c #C4B5AB",
"2X c #C9B5AC",
"3X c #C4B9AE",
"4X c #CAB8A8",
"5X c #D3B9A3",
"6X c #D1B9AC",
"7X c #CBBBB3",
"8X c #DAC3AD",
"9X c #D3C3B6",
"0X c #DCC5B3",
"qX c #DEC9B7",
"wX c #D9C9BE",
"eX c #EED8BD",
"rX c #C5C4C4",
"tX c #CCCCCC",
"yX c #DFD1C6",
"uX c #DDD1CA",
"iX c #E6CFC1",
"pX c #F2CDC7",
"aX c #E2D1C4",
"sX c #E3D5CB",
"dX c #E3D8CA",
"fX c #EADBCE",
"gX c #FFD4CE",
"hX c #E5D9D3",
"jX c #EADED7",
"kX c #E5DDDA",
"lX c #ECDFDB",
"zX c #ECE1DC",
"xX c #F2E4DD",
"cX c #EDE8E5",
"vX c #EFE7EA",
"bX c #F4EAE3",
"nX c #F3EBEC",
"mX c #FBEDEA",
"MX c #F3F1EF",
"NX c #FFFAF3",
"BX c #FEFEFE",
"VX c None",
/* pixels */
" . .~ | Q U 6 > i.*.&.%.%.$.$.%.$.%.%.$.| 4 7 J 5 1 2 M.=.! $.$.",
", 6 ! W 7 2 1 j :.&.%.*.$.%.&.%.&.*.%.o.o.6 1 5 7 J 1.NXX.$.%.| ",
"O # 1 4 9 { y.}.*.%.&.&.*.%.%.&.$.! ~ ~ K I U K ` B.BXeX$.%.%.%.",
"p 0.U.*X=X).7XNX*.$.&.&.%.$.%.o. .~ X.! 7 ~ BXBXBXBXBXfX+.%.&.$.",
"#.&.*.*.$.@.m.mX>.X.%.*.$.o.$.o.|  . .I > ^ 5.%.$.$.o.,.3. .X.%.",
"%.$.$.$.%.&.$...Z.Q U Q X.$.$.X.~ W 7 , U &.*.| | %.$.$.%.X.7 7 ",
"$.X.%.&.&.%.%.X.o.x.2 4 K W W K 7 6 J  .*.*.o. .X.$.$.$.X.X.K < ",
"%.$.%.&.&.%.$.| U O.).t R W W Q Q _ ^ &.*. .W &.%.$.&.%. .! Q L ",
" .$.&.$.$.X.~ U J W BX+Xy.H.J.P.P.1X&.&.$.| %.%.%.&.$.$.| Q K U ",
"o.%.%.%.o. .W W K U BXBXMXkXuXuXcXBX&.&.o.X.*.%.%.$.X.| W W 7 W ",
"o.o.$.o.X.~ Q I 4 8 BXBXBXBXBXBXBXBX-.X.*.o.%.o. .|  .! ! K , ) ",
" .$.$.X. .Q J 1 # h.N.4.%.o.o.$.<.n.%X! %.&.%. .X.o.X.W 6 # 6 >X",
"6 J Q ! K 1 > 2 ] %.&.%.&.Q  .&.%.$.$.2.W ! Q Q ! U 5 , , 6 M.zX",
"3 2 4 5 4 9 6.} $.*.&.$.%.$. .&.%.$.$.&.2.[ Y U J 7 7 T 7.`.8X;X",
"w.q.u.K.L.Y.9. .&.%.$.X.%.o.| %.$.$.$.$.| 8.t.a.K.T.Y.~.:X8X:X8X",
"2X_.t.G.J.H./ %.%.$.%.&.o.X.X.$.&.%.| X. .( K.u.H.T..X8X0X9X8X X",
"3XhX4XP.~.2X$.%.%.$.*. .$.&.%.o.$.$. .X.U ~ nXuXuXuXaXqXiX6XV $ ",
"F.XXhXhXhXnX$.| $.$.$.X.&.$.%.%.o. . .| J Q BXcXjXyXsXiXF.y y h ",
"S. X}.wXhXcX;.I  .o.$.&.$.%.$.~ o.X.! W 2 P NXsXsXfX-Xh q h - . ",
": D  X{.4XsXB.K 6 !  .o.X.X. . .| W I 4 , x.lXjX9Xe.q f h X z : ",
"z tXG ^.;X.XaXv.W 4 J ! Q ~ | ~ K 5 + 2 l.mXyXD.r i m = % W.tXz ",
"z tXtX].g.;X[.wXV. .4 @ 2 7 4 2 , # I C.xX'.a r B s X S tXtXtXz ",
"z tXtXtXrXg. X&X<XpXn.E , # > 1 9 c.gX,Xn r l n o x #XtXtXtXtXz ",
"z tXtXtXtXtXQ.F.;X-XdXxXsX7X9XsXbX9XA e k V * & !.tXtXtXtXtXtXz ",
"z tXtXtXtXtXtX$Xg.-X;X9XwXwX7X(.A p g A ; X H tXtXtXtXtXtXtXtXz ",
"z tXtXtXtXtXtXtXtXE./.9X|.A.A N Z w.s   b $XtXtXtXtXtXtXtXtXtXz ",
"z tXtXtXtXtXtXtXtXtX@Xg.A.f.G V s ; v oXtXtXtXtXtXtXtXtXtXtXtXz ",
"z tXtXtXtXtXtXtXtXtXtXtXQ.M s M R.$XtXtXtXtXtXtXtXtXtXtXtXtXrXz ",
"z $XtXtXtXtXtXtXtXtXtXtXtXtXtXtXtXtXtXtXtXtXtXtXtXtXtXtXtXtX@Xz ",
"x R.tXtXtXtXtXtXtXtXtXtXtXtXtXtXtXtXtXtXtXtXtXtXtXtXtXtXtXtXF x ",
"F z R.@XtXtXtXtXtXtXtXtXtXtXtXtXtXtXtXtXtXtXtXtXtXtXtXrXOXH z F ",
"VXF x z z z z z z z z z z z z z z z z z z z z z z z z z z x F VX"
};
