/* XPM */
static char *dynamicaCreateSliderConstraint[] = {
/* columns rows colors chars-per-pixel */
"32 32 249 2 ",
"   c #000E1C",
".  c #002952",
"X  c #002A52",
"o  c #002A53",
"O  c #002B54",
"+  c #012B54",
"@  c #002C55",
"#  c #002D56",
"$  c #012D56",
"%  c #022D56",
"&  c #012E57",
"*  c #022E57",
"=  c #002F58",
"-  c #023059",
";  c #02325B",
":  c #02335C",
">  c #00345D",
",  c #01345D",
"<  c #02345D",
"1  c #02355E",
"2  c #01365E",
"3  c #02365F",
"4  c #03365F",
"5  c #04365E",
"6  c #04365F",
"7  c #06365F",
"8  c #013E5E",
"9  c #003760",
"0  c #013760",
"q  c #003962",
"w  c #023A62",
"e  c #033A62",
"r  c #023A63",
"t  c #023B64",
"y  c #063B64",
"u  c #003C65",
"i  c #033D66",
"p  c #023E66",
"a  c #063D66",
"s  c #083961",
"d  c #093A62",
"f  c #0B3D65",
"g  c #0B3E65",
"h  c #0C3D65",
"j  c #07416A",
"k  c #07466E",
"l  c #0A426A",
"z  c #0B446D",
"x  c #16476D",
"c  c #014C72",
"v  c #014F77",
"b  c #0C4871",
"n  c #0C4F78",
"m  c #0E4F78",
"M  c #104E77",
"N  c #124F78",
"B  c #01527B",
"V  c #05527B",
"C  c #03557E",
"Z  c #0A5079",
"A  c #0A517A",
"S  c #0C517A",
"D  c #0E537C",
"F  c #0C567E",
"G  c #0E567F",
"H  c #12557E",
"J  c #15567E",
"K  c #2A4A6B",
"L  c #365472",
"P  c #444444",
"I  c #444545",
"U  c gray27",
"Y  c #464646",
"T  c #484848",
"R  c #494949",
"E  c gray30",
"W  c #4E4E4E",
"Q  c #405C78",
"!  c #45607B",
"~  c #4A647E",
"^  c #727272",
"/  c gray45",
"(  c gray47",
")  c gray48",
"_  c #095A83",
"`  c #0D5C85",
"'  c #0C5E86",
"]  c #145B84",
"[  c #165D86",
"{  c #175E87",
"}  c #195A82",
"|  c #185C85",
" . c #125F88",
".. c #0F618A",
"X. c #11628B",
"o. c #156089",
"O. c #16628B",
"+. c #12638C",
"@. c #14668E",
"#. c #1C618A",
"$. c #1C638C",
"%. c #1A668E",
"&. c #1F658E",
"*. c #166790",
"=. c #1B6790",
"-. c #166891",
";. c #196A93",
":. c #1E6A93",
">. c #1F6A93",
",. c #1A6B94",
"<. c #1A6C95",
"1. c #1B6D96",
"2. c #1C6D96",
"3. c #1D6D96",
"4. c #1C6E96",
"5. c #1E6E96",
"6. c #1E6F98",
"7. c #1F7099",
"8. c #1F719A",
"9. c #226992",
"0. c #206B94",
"q. c #206E97",
"w. c #20729A",
"e. c #277099",
"r. c #22739C",
"t. c #22749D",
"y. c #23749D",
"u. c #23759E",
"i. c #26759E",
"p. c #24769E",
"a. c #25769F",
"s. c #29729B",
"d. c #28769F",
"f. c #2677A0",
"g. c #2B77A0",
"h. c #2678A1",
"j. c #287AA2",
"k. c #297AA3",
"l. c #2D79A2",
"z. c #2D7AA2",
"x. c #2A7BA4",
"c. c #2A7CA5",
"v. c #2B7DA6",
"b. c #2C7EA6",
"n. c #327FA8",
"m. c #566E86",
"M. c #5C7389",
"N. c #5F758B",
"B. c #62788D",
"V. c #64798E",
"C. c #667A8F",
"Z. c #667B8F",
"A. c #6C7F93",
"S. c #2E80A9",
"D. c #3082AA",
"F. c #3282AB",
"G. c #3482AB",
"H. c #3283AC",
"J. c #3284AD",
"K. c #3586AF",
"L. c #3687B0",
"P. c #388AB2",
"I. c #398AB3",
"U. c #3A8BB4",
"Y. c #3D8EB7",
"T. c #3E8FB8",
"R. c #3E90B9",
"E. c #3F91BA",
"W. c #6E8194",
"Q. c #6F8295",
"!. c #718395",
"~. c #768798",
"^. c #768899",
"/. c LightSlateGray",
"(. c #798A9A",
"). c #7F8F9E",
"_. c #4596BF",
"`. c #4697C0",
"'. c #4698C1",
"]. c #4A9CC5",
"[. c #4EA0C9",
"{. c #4FA1CA",
"}. c #54A1C8",
"|. c #808080",
" X c #838383",
".X c #848484",
"XX c #868686",
"oX c #898989",
"OX c #81909F",
"+X c #8392A0",
"@X c #8694A2",
"#X c #8996A4",
"$X c #8A97A4",
"%X c #8C99A6",
"&X c #869EAD",
"*X c #8D9FAC",
"=X c #919DA9",
"-X c #929DA9",
";X c #97A2AC",
":X c #9BA5AF",
">X c #9CA6AF",
",X c #8AA2B1",
"<X c #95A6B0",
"1X c #9DA6B0",
"2X c #9AA9B3",
"3X c gray67",
"4X c #AFAFAF",
"5X c #A4ACB4",
"6X c #A5ADB5",
"7X c #A6ADB5",
"8X c #A2AFB8",
"9X c #A9B0B7",
"0X c #AAB1B8",
"qX c #AAB5BB",
"wX c #AEB4BA",
"eX c #B1B1B1",
"rX c gray70",
"tX c gray71",
"yX c #B6B6B6",
"uX c #B7B7B7",
"iX c #B2B8BD",
"pX c #B5B9BE",
"aX c #B6BBBF",
"sX c gray74",
"dX c #B7BBC0",
"fX c #BABEC1",
"gX c #BDC0C3",
"hX c #BEC0C3",
"jX c #BCC1C4",
"kX c #BEC7CC",
"lX c #C1C3C5",
"zX c #C2C4C6",
"xX c #C5C5C5",
"cX c #C6C6C6",
"vX c gray78",
"bX c #C6C7C8",
"nX c #C6C8C9",
"mX c #C7C8C9",
"MX c #C8C8C8",
"NX c gray79",
"BX c #C8C9CA",
"VX c #C9C9CA",
"CX c #CACACA",
"ZX c #CACACB",
"AX c #CACBCB",
"SX c #CBCBCB",
"DX c #CBCBCC",
"FX c gray80",
"GX c None",
/* pixels */
"GX^ E U U U U T U U T U U T U U T U U T U U T U U T U U U E ^ GX",
"^ E XXtXCXFXFXFXFXFXFXFXFXFXFXFXFXFXFXFXFXFXFXFXFXFXFXmXtX XT ^ ",
"E oXFXDX$XL ! +XCXDXFXFXFXFXFXFXFXFXFXFXFXFXFXFXFXFXFXFXFXFX) E ",
"U sXDX. y 9.[ l . 0XFXFXFXFXFXFXFXFXFXFXFXFXFXFXFXFXFXFXFXFXtXU ",
"U CXfX$ l.X.C 3.} m.DXFXFXFXFXFXFXFXFXFXFXFXFXFXFXFXFXFXFXFXFXU ",
"U FXzXO n.@.c ..s.K FXFXFXFXFXFXFXFXFXFXFXFXFXFXFXFXFXFXFXFXFXU ",
"U FX5X; g.P.y.w.D O zXFXFXFXFXFXFXFXFXFXFXFXFXFXFXFXFXFXFXFXFXU ",
"U FX:X4 H.r.1.,.V t W.FXFXFXFXFXFXFXFXFXFXFXFXFXFXFXFXFXFXFXFXU ",
"T FX(.j S.6.y.v.7.{ . DXFXFXFXFXFXFXFXFXFXFXFXFXFXFXFXFXFXFXFXU ",
"U FX~ n f.f.k.R.kX<Xg W.FXFXFXFXFXFXFXFXFXFXFXFXFXFXFXFXFXFXFXU ",
"U FX1X< n  .` %.8XFX2Xy C.FXFXFXFXFXFXFXFXFXFXFXFXFXFXFXFXFXFXU ",
"U FXFX=X. 4 9 = g ,XFXqXg M.dXDXFXFXFXFXFXFXFXFXFXFXFXFXFXFXFXU ",
"T FXFXFXbX=XOX9X!.s &XFXjXx $ (.mXFXFXFXFXFXFXFXFXFXFXFXFXFXFXU ",
"U FXFXFXFXFXFXFXCX~.d *XFX}.Z t . iXFXFXFXFXFXFXFXFXFXFXFXFXFXU ",
"U FXFXFXFXFXFXFXFXFX~.d G.r._.f.k $ hXFXFXFXFXFXFXFXFXFXFXFXFXU ",
"T FXFXFXFXFXFXFXFXFXjXO _ o.U.Y.7.i !.FXFXFXFXFXFXFXFXFXFXFXFXU ",
"U FXFXFXFXFXFXFXFXFXmX. a q.;.b.'.0.4 W.FXFXFXFXFXFXFXFXFXFXFXU ",
"Y FXFXFXFXFXFXFXFXFXSXCXV.y :.;.P.[.:.4 Z.FXFXFXFXFXFXFXFXFXFXU ",
"Y FXFXFXFXFXFXFXFXFXFXFXFX!.4 [ *.P.].y.2 V.lXFXFXgXSXSXFXFXFXU ",
"Y FXFXFXFXFXFXFXFXFXFXFXFXFX$X; ] 1.K.[.d.q + N.Q $ B.aXFXFXFXU ",
"Y FXFXFXFXFXFXFXFXFXFXFXFXFXFX$X$ H ;.J.'.y.$.m #.e.N $ 6XFXFXU ",
"Y FXFXFXFXFXFXFXFXFXFXFXFXFXFXFX:X$ m -.S.}.v.v.6._ 6.J + mXFXU ",
"Y FXFXFXFXFXFXFXFXFXFXFXFXFXFXFXDX6X$ Z y.v.1.S.' 8 v y.5 >XFXU ",
"Y FXFXFXFXFXFXFXFXFXFXFXFXFXFXFXFXFX@Xa 3...7._.S._ B j.z . SX  ",
"Y FXFXFXFXFXFXFXFXFXFXFXFXFXFXFXFXFXOXq 3.y.P.P.H.v.c.l.; wXCX  ",
"Y FXFXFXFXFXFXFXFXFXFXFXFXFXFXFXFXDX!.i 3.L.U.c.1.7.&.5 A.FXFXI ",
"Y FXFXFXFXFXFXFXFXFXFXFXFXFXFXFXFXFX;X4 o.h.h.r.o.b $ =XFXFXFXI ",
"Y CXFXFXFXFXFXFXFXFXFXFXFXFXFXFXFXFXSX. t F -.&.: . pXFXFXFXxXI ",
"U tXFXSXFXFXFXFXFXFXFXFXFXFXFXFXFXFXFXSX. $ q 4 . CXFXFXFXFX4XI ",
"E XXFXSXFXFXFXFXFXFXFXFXFXFXFXFXFXFXFXDXCXfXOX>XCXFXFXFXFXCX/ E ",
"/ T |.eXCXFXFXFXFXFXFXFXFXFXFXFXFXFXFXFXFXFXFXFXFXFXFXvX3X) Y ^ ",
"GX^ E U U U U U U U U U U U U U U U U U U U U U U U U U U E ^ GX"
};
