/* XPM */
static char *dynamicaActivate_Y[] = {
/* columns rows colors chars-per-pixel */
"32 32 248 2 ",
"   c black",
".  c #050D00",
"X  c #031400",
"o  c #0E1400",
"O  c #041C00",
"+  c #111600",
"@  c #101010",
"#  c #291A00",
"$  c #0C2400",
"%  c #132300",
"&  c #1A2300",
"*  c #162F00",
"=  c #1D2800",
"-  c #0B3B00",
";  c #1B3100",
":  c #1B3B00",
">  c #1D281D",
",  c #183918",
"<  c #202700",
"1  c #292200",
"2  c #262A00",
"3  c #2F2800",
"4  c #362500",
"5  c #322A00",
"6  c #213400",
"7  c #2A3300",
"8  c #2E3800",
"9  c #313C00",
"0  c #202020",
"q  c #2B3B2B",
"w  c gray19",
"e  c #4F3000",
"r  c #483C00",
"t  c #503500",
"y  c #583C00",
"u  c #503C1E",
"i  c #623B00",
"p  c #074C00",
"a  c #184000",
"s  c #144900",
"d  c #1B4B00",
"f  c #005500",
"g  c #005900",
"h  c #085900",
"j  c #1E5200",
"k  c #1F5A09",
"l  c #125F12",
"z  c #2B4300",
"x  c #294A00",
"c  c #334500",
"v  c #3F4500",
"b  c #324D00",
"n  c #265200",
"m  c #2D5300",
"M  c #215C00",
"N  c #2B5E00",
"B  c #305700",
"V  c #3D5300",
"C  c #325B00",
"Z  c #0A6800",
"A  c #1C6700",
"S  c #136900",
"D  c #007200",
"F  c #0B7300",
"G  c #0B7A00",
"H  c #157500",
"J  c #1F7100",
"K  c #177C00",
"L  c #1C671C",
"P  c #246200",
"I  c #2D6300",
"U  c #276A00",
"Y  c #376500",
"T  c #336F00",
"R  c #2C7700",
"E  c #227C00",
"W  c #357300",
"Q  c #3E7100",
"!  c #4D4400",
"~  c #474D00",
"^  c #484F00",
"/  c #504300",
"(  c #594500",
")  c #574900",
"_  c #584900",
"`  c #455500",
"'  c #4E5F00",
"]  c #595000",
"[  c #535A00",
"{  c #5B5900",
"}  c #6C4400",
"|  c #604A00",
" . c #6D4A00",
".. c #734500",
"X. c #744A00",
"o. c #7C4F00",
"O. c #645400",
"+. c #655C00",
"@. c #695F00",
"#. c #7D5500",
"$. c #7A5B00",
"%. c #446300",
"&. c #4C6200",
"*. c #456B00",
"=. c #4C6800",
"-. c #526300",
";. c #5C6500",
":. c #506D00",
">. c #4C7700",
",. c #4F7C00",
"<. c #527000",
"1. c #5C7E00",
"2. c #6D6300",
"3. c #646D00",
"4. c #6C6B00",
"5. c #726500",
"6. c #7C6400",
"7. c #746900",
"8. c #677100",
"9. c #6C7600",
"0. c #6E7900",
"q. c #747200",
"w. c #797700",
"e. c #727D00",
"r. c #7C7A00",
"t. c #5D4D34",
"y. c #674B20",
"u. c #795B2D",
"i. c #645334",
"p. c #745D3A",
"a. c #476F38",
"s. c gray27",
"d. c #4C4C4C",
"f. c #515151",
"g. c #766E45",
"h. c #727272",
"j. c #797979",
"k. c #804D00",
"l. c #825400",
"z. c #8A5300",
"x. c #8B5C00",
"c. c #8E5808",
"v. c #915700",
"b. c #935900",
"n. c #9C5E00",
"m. c #915E12",
"M. c #826500",
"N. c #896400",
"B. c #8B6C00",
"V. c #936B00",
"C. c #9A6800",
"Z. c #847700",
"A. c #807E00",
"S. c #907000",
"D. c #9E7200",
"F. c #A36400",
"G. c #AC6700",
"H. c #A06D00",
"J. c #AF6900",
"K. c #B36C00",
"L. c #B96F00",
"P. c #A37400",
"I. c #A67900",
"U. c #AD7D00",
"Y. c #B57400",
"T. c #BD7200",
"R. c #B37A00",
"E. c #9B6C26",
"W. c #946B2E",
"Q. c #C37500",
"!. c #CA7A00",
"~. c #877A4C",
"^. c #008600",
"/. c #009900",
"(. c #0E9900",
"). c #1C9900",
"_. c #258800",
"`. c #318600",
"'. c #3F8A00",
"]. c #498600",
"[. c #538200",
"{. c #5E8100",
"}. c #469900",
"|. c #4C874C",
" X c #6C9E6C",
".X c #66A366",
"XX c #6BA366",
"oX c #74A366",
"OX c #7CA366",
"+X c #7FAD7F",
"@X c #838100",
"#X c #8F8200",
"$X c #8A8800",
"%X c #9A8100",
"&X c #889400",
"*X c #8C9900",
"=X c #979500",
"-X c #9F9000",
";X c #9B9900",
":X c #B38200",
">X c #B68D00",
",X c #BC9200",
"<X c #D88A00",
"1X c #C59900",
"2X c #D09700",
"3X c #DE9700",
"4X c #D39900",
"5X c #E08800",
"6X c #EC8D00",
"7X c #E19900",
"8X c #FF9900",
"9X c #898452",
"0X c #948151",
"qX c #87965E",
"wX c #8B955D",
"eX c #97965E",
"rX c #93985F",
"tX c #A9834A",
"yX c #A18150",
"uX c #A88654",
"iX c #A48B57",
"pX c #B9945C",
"aX c #9F8B6D",
"sX c #A88F69",
"dX c #84A366",
"fX c #8CA165",
"gX c #828282",
"hX c #898989",
"jX c #909090",
"kX c gray60",
"lX c #B2A085",
"zX c gray65",
"xX c gray68",
"cX c #A5BCA5",
"vX c #ADBCAD",
"bX c #B3B3B3",
"nX c #BCBCBC",
"mX c #C8AF89",
"MX c #CAB697",
"NX c #C5B6A0",
"BX c #CAC4BD",
"VX c #C3C3C3",
"CX c #CCCCCC",
"ZX c #D0D0D0",
"AX c gray88",
"SX c gray94",
"DX c gray100",
"FX c None",
/* pixels */
"FXh.d.s.s.s.s.s.s.s.s.s.s.s.s.s.s.s.s.s.s.s.s.s.s.s.s.s.s.f.h.FX",
"h.d.hXbXCXCXCXCXCXCXCXCXCXCXCXCXZXCXCXZXCXCXCXCXCXZXCXCXbXgXd.h.",
"d.hXCXCXCXCXCXCXCXCXCXCXCXCXCXCXCXCXCXCXCXCXCXCXCXCXCXCXCXCXj.d.",
"s.nXCXCXCXCXCXCXCXCXCXCXCXCXCXCXCXCXCXMXpXy.u aXVXCXCXCXCXCXbXs.",
"s.CXCXCXCXCXCXZXCXCXCXCXCXCXBXmXtXE.b.b.n.z.L.6XQ.t.CXCXCXCXCXs.",
"s.CXCXCXCXCXCXCXCXVXMXsXu.m.z.v.n.J.L.!.Q.J.6X8X8XuXCXCXCXCXCXs.",
"s.CXCXCXCXnXlXyXW.c.v.o.i Q.Q.!.Q.Q.L.L.Q.G.6X8X8X~.CXCXCXCXCXs.",
"s.CXCXCXCXi ..G.K.Q.!.Q.n.!.T.T.Q.L.Q.L.Q.F.6X8X8XuXCXCXCXCXCXs.",
"s.CXCXCXCXC.Q.!.Q.T.T.F.z.T.K.K.n.F.C.n.n.e b.5X!.p.CXCXCXCXCXs.",
"s.CXCXCXCXX.z.F.#.x.x.} e l.#.X.# X.k.l.x.X.Y.<XT.i.CXCXCXCXCXs.",
"s.CXCXCXCXt y #.4  .x.x.x.C.C.P.#.R.R.R.R.P.7X7X3XiXCXCXCXCXCXs.",
"s.CXCXCXCX$.D.:XN.I.U.U.:XI.I.P.#.P.P.D.P.V.4X4X2X0XCXCXCXCXCXs.",
"s.ZXCXCXCX| 6.V.( M.B.B.B.B.B.B.( B.B.B.B.$.,X1X>X~.CXCXCXCXCXs.",
"s.CXCXCXZX5 ! O.5 _ O.! r O.O._ 1 O.O.O.+.5 6.%X6.g.CXCXCXCXCXs.",
"s.CXCXCXCX! 2.7.2.2.5.] ! 7.2.2.+.2.2.2.5.! #X-XZ.9XCXCXCXCXCXs.",
"s.ZXCXCXCX{ q.r.$X@X@Xq.4.r.w.w.r.w.w.w.w.q.;X;X=XeXCXCXCXCXCXs.",
"s.CXCXCXCX2 v [ ^ [ ;.~ ^ 8.8.9.e.0.0.9.9.3.*X*X&XrXCXCXCXCXCXs.",
"d.CXCXCXCX8 ` ' 7 ` ` 9 7 ` &   o 9 -.-.' =   9 -.wXCXCXCXCXCXs.",
"s.CXCXCXCX%.1.{.` <.:.=.&.c f.DXnX+ V V & gXDXhX= qXCXCXCXCXCXs.",
"s.CXCXCXCX% b %.z >.,.[.[.>.% bXDXh.6 z w DXAX@ *.fXCXCXCXCXCXs.",
"s.CXCXCXCX; m m % x N C Y Q m @ SXSX0 o ZXDXs.x ].dXCXCXCXCXCXs.",
"s.CXCXCXCXN W T I I I : : n n % h.DXnXgXDXbX* }.].dXCXCXCXCXCXs.",
"s.CXCXCXCX$ M R P M M : d U U d . nXDXDXSX@ U `.j OXCXCXCXCXCXs.",
"d.CXCXCXCXa.k $ s.s.w s.0 A J J s 0 SXDXf.X E _.A oXCXCXCXCXCXs.",
"s.CXCXCXCXCXCX  DXDXDXDXgX- H H H O nXDX  S ).)._.XXCXCXCXCXCXs.",
"s.CXCXCXCXCXCXf.w s.s.w 0 p h Z F O VXDX  F (.(.G .XCXCXCXCXCXs.",
"s.CXCXCXCXCXCXCXkXkXkXkXbXvX XL f X VXDX  D /./.D .XCXCXCXCXCXs.",
"s.CXCXCXCXCXCXCXCXCXCXCXCXCXCXCXvX> VXDX  g ^.D l +XCXCXCXCXVXs.",
"s.bXCXCXCXCXCXCXCXCXCXCXCXCXCXCXCXhXw w q , |.cXCXCXCXCXCXCXxXs.",
"d.hXCXCXCXCXCXCXCXCXCXCXCXCXCXCXCXCXzXzXCXCXCXCXCXCXCXCXCXCXh.d.",
"h.s.gXxXCXCXCXCXCXCXCXCXCXCXCXCXCXCXCXCXCXCXCXCXCXCXCXVXxXj.d.h.",
"FXh.d.s.s.s.s.s.s.s.s.s.s.s.s.s.s.s.s.s.s.s.s.s.s.s.s.s.s.d.h.FX"
};
