/* XPM */
static char *dynamicaActivateChain[] = {
/* columns rows colors chars-per-pixel */
"32 32 148 2 ",
"   c black",
".  c #0E0E0E",
"X  c #1B1B1B",
"o  c #1C331C",
"O  c #392D1B",
"+  c #33331B",
"@  c gray15",
"#  c gray17",
"$  c #223A22",
"%  c #363026",
"&  c #353535",
"*  c #393939",
"=  c #663D00",
"-  c #005200",
";  c #006500",
":  c #006D00",
">  c #007B00",
",  c #0B7F0B",
"<  c #284828",
"1  c #335933",
"2  c #396239",
"3  c #3E693E",
"4  c #3F713F",
"5  c #525200",
"6  c #444419",
"7  c #7E4C00",
"8  c #656500",
"9  c #6D6D00",
"0  c #7B7B00",
"q  c #7F7F0B",
"w  c #6F6F19",
"e  c #484828",
"r  c #504028",
"t  c #5E4B2F",
"y  c #595933",
"u  c #614E32",
"i  c #635033",
"p  c #6C5839",
"a  c #745E3E",
"s  c #626239",
"d  c #68683D",
"f  c #71713F",
"g  c #454545",
"h  c #4C4C4C",
"j  c #515151",
"k  c gray37",
"l  c #416E41",
"z  c #417341",
"x  c #6F6F42",
"c  c #776140",
"v  c #7D6541",
"b  c #737341",
"n  c #797946",
"m  c #626262",
"M  c #6C6C6C",
"N  c #737373",
"B  c #7B7B7B",
"V  c #885200",
"C  c #975B00",
"Z  c #9C5E00",
"A  c #9D630B",
"S  c #AA6600",
"D  c #AF6900",
"F  c #A66708",
"G  c #B36B00",
"H  c #BE7200",
"J  c #9B702F",
"K  c #A2742F",
"L  c #A8782F",
"P  c #C77700",
"I  c #CB7A00",
"U  c #C37A0B",
"Y  c #D37F00",
"T  c #846B44",
"R  c #008C00",
"E  c #009A00",
"W  c #00A300",
"Q  c #00A900",
"!  c #0BA00B",
"~  c #00B300",
"^  c #00BC00",
"/  c #0BB30B",
"(  c #2F852F",
")  c #2F8B2F",
"_  c #2F902F",
"`  c #2F9A2F",
"'  c #2FA42F",
"]  c #00C400",
"[  c #00CA00",
"{  c #0BC30B",
"}  c #619461",
"|  c #669966",
" . c #699C69",
".. c #8C8C00",
"X. c #9A9A00",
"o. c #A3A300",
"O. c #A9A900",
"+. c #A0A00B",
"@. c #B3B300",
"#. c #BCBC00",
"$. c #B3B30B",
"%. c #8B8B2F",
"&. c #90902F",
"*. c #9A9A2F",
"=. c #B5802F",
"-. c #A4A42F",
";. c #DF8600",
":. c #E28800",
">. c #EB8D00",
",. c #F49200",
"<. c #F99600",
"1. c #FF9900",
"2. c #F1940B",
"3. c #C0862F",
"4. c #C2882F",
"5. c #C4C400",
"6. c #CACA00",
"7. c #C3C30B",
"8. c #949461",
"9. c #999966",
"0. c #9C9C69",
"q. c #A08761",
"w. c #A68D66",
"e. c #A98F69",
"r. c #848484",
"t. c gray54",
"y. c #939393",
"u. c #9D9D9D",
"i. c #86B486",
"p. c #8BB78B",
"a. c #8DB88D",
"s. c #B4B486",
"d. c #B7B78B",
"f. c #B8B88D",
"g. c #ACACAC",
"h. c #B4B4B4",
"j. c gray",
"k. c #C3AD8C",
"l. c #CDBDA5",
"z. c #CDBFAA",
"x. c #A5C5A5",
"c. c #ABC7AB",
"v. c #C5C5A5",
"b. c #C6C6AB",
"n. c #CEC1AD",
"m. c #C4C4C4",
"M. c #CCCCCC",
"N. c None",
/* pixels */
"N.N h g g g g g g g g g g g g g g g g g g g g g g g g g g j N N.",
"N h r.h.M.M.M.M.M.M.M.M.M.M.M.M.M.M.M.M.M.M.M.M.M.M.M.m.h.r.g N ",
"h t.M.M.M.M.M.M.M.M.M.M.M.M.M.M.M.M.M.M.M.M.M.M.M.M.M.M.M.M.B h ",
"g j.M.M.M.M.M.M.M.M.M.M.M.M.M.M.M.M.M.M.M.M.M.M.M.M.M.M.M.M.h.g ",
"g M.M.M.M.M.M.M.M.M.M.M.M.M.M.M.M.M.M.M.M.. M.M.M.M.M.M.M.M.M.g ",
"g M.M.M.M.M.n.e.c u p e.n.M.y.M j m B g.M.* u.M.M.M.M.M.M.M.M.g ",
"g M.M.M.M.k.v 4.1.<.<.4.u % h N t.t.m # j k m M.M.M.M.M.M.M.M.g ",
"g M.M.M.n.T 2.,.>.:.:.:.F u n.M.M.M.M.M.M X & M.M.M.M.M.M.M.M.g ",
"g M.M.M.w.4.>.:.Y I P I Y L e.M.M.M.M.        y s 0.b.M.M.M.M.g ",
"g M.M.M.u ,.:.I H G D G H I v M.M.M.M.f.b -.6.6.5.-.f d.M.M.M.g ",
"g M.M.M.O >.Y H S Z C Z D H u M.M.M.b.b 7.5.#.@.@.@.$.b b.M.M.g ",
"g M.M.M.r :.I G Z V 7 V Z G a M.M.M.9.-.#.@.o.o.X.o.O.*.9.M.M.g ",
"g M.M.M.q.=.P D C 7 = 7 C K w.M.M.M.y 5.@.o.X.......X.o.x M.M.g ",
"g M.M.M.n.T U G Z V 7 V A v l.M.M.M.+ #.O.X...0 0 0 ..X.y M.M.g ",
"g M.M.M.M.k.T L S Z C J v k.M.M.M.M.e @.o...0 9 8 9 0 ..d M.M.g ",
"g M.M.M.M.M.l.w.c u c w.z.M.M.M.M.M.8.*.X...0 8 5 8 0 %.9.M.M.g ",
"g M.M.M.M.M.M.M.M.M.M.M.M.M.M.M.M.M.b.n +...0 9 8 9 q f v.M.M.g ",
"g M.M.M.M.M.M.M.M.M.M.M.M.M.M.M.M.M.M.f.b &...0 0 w b d.M.M.M.g ",
"g M.M.M.M.M.M.M.M.c. .l 1 2  .c.M.M.M.M.v.9.x y 6 n b.M.M.M.M.g ",
"g M.M.M.M.M.M.M.a.z ' [ [ ] ' z i.M.M.M.M.M.M.g.* m.M.M.M.M.M.g ",
"g M.M.M.M.M.M.c.z { ] ^ ~ ~ ~ / z c.M.M.M.M.M.j B M.M.M.M.M.M.g ",
"g M.M.M.M.M.M.| ' ^ ~ Q W E W Q ` | m.g t.m.m h j.M.M.M.M.M.M.g ",
"g M.M.M.M.M.M.1 ] ~ W E R R R E W l M h u.g g m.M.M.M.M.M.M.M.g ",
"h M.M.M.M.M.M.o ~ W E R > > > R E o . @ # B M.M.M.M.M.M.M.M.M.g ",
"g M.M.M.M.M.M.< ~ W R > : ; : > R $ # * m g.M.M.M.M.M.M.M.M.M.g ",
"g M.M.M.M.M.M.} ` W R > ; - ; > )  .M.h.N g.M.M.M.M.M.M.M.M.M.g ",
"g M.M.M.M.M.M.c.z ! R > : ; : , z x.M.M.M.M.M.M.M.M.M.M.M.M.M.g ",
"g M.M.M.M.M.M.M.a.z _ R > > ( z p.M.M.M.M.M.M.M.M.M.M.M.M.M.m.g ",
"g h.M.M.M.M.M.M.m.x. .z 1 3 | c.M.M.M.M.M.M.M.M.M.M.M.M.M.M.g.g ",
"j r.M.M.M.M.M.M.M.M.M.M.M.M.M.M.M.M.M.M.M.M.M.M.M.M.M.M.M.M.N h ",
"N g B h.M.M.M.M.M.M.M.M.M.M.M.M.M.M.M.M.M.M.M.M.M.M.M.m.g.B g N ",
"N.N h g g g g g g g g g g g g g g g g g g g g g g g g g g h N N."
};
