/* XPM */
static char *dynamicaCreatePassivePlane[] = {
/* columns rows colors chars-per-pixel */
"32 32 155 2 ",
"   c #444444",
".  c gray27",
"X  c #464646",
"o  c #484848",
"O  c #494949",
"+  c gray30",
"@  c #4E4E4E",
"#  c #727272",
"$  c gray45",
"%  c gray47",
"&  c gray48",
"*  c #853905",
"=  c #8B3A04",
"-  c #8F3F09",
";  c #973D01",
":  c #8D400C",
">  c #9D4305",
",  c #93440F",
"<  c #98430A",
"1  c #9A450C",
"2  c #99470F",
"3  c #9F4A0F",
"4  c #9E4B13",
"5  c #9B4C17",
"6  c #9C4E19",
"7  c #9F501C",
"8  c #A64301",
"9  c #A44607",
"0  c #AB4501",
"q  c #AE4905",
"w  c #A64A0D",
"e  c #A44C0F",
"r  c #AB4B0A",
"t  c #AD4D0D",
"y  c #AC4F0F",
"u  c #B14801",
"i  c #B64B04",
"p  c #BC4C01",
"a  c #BE4D01",
"s  c #BE5006",
"d  c #A44B10",
"f  c #A34E16",
"g  c #A54E14",
"h  c #AF5213",
"j  c #AE5214",
"k  c #B45516",
"l  c #A55825",
"z  c #AE5F2A",
"x  c #B15B21",
"c  c #B2612A",
"v  c #B8622A",
"b  c #BA642B",
"n  c #B9662E",
"m  c #B96832",
"M  c #B56D3E",
"N  c #B76F3F",
"B  c #BF6E38",
"V  c #C04E01",
"C  c #C24E01",
"Z  c #C34F01",
"A  c #C65406",
"S  c #C95101",
"D  c #CF5401",
"F  c #D25501",
"G  c #D65701",
"H  c #D15706",
"J  c #D85701",
"K  c #DA5801",
"L  c #E35C01",
"P  c #E55D01",
"I  c #E75D01",
"U  c #EB5F01",
"Y  c #EC6001",
"T  c #F06101",
"R  c #F46301",
"E  c #F86401",
"W  c #F96501",
"Q  c #FD6601",
"!  c #FF6C0A",
"~  c #FF6D0C",
"^  c #FF7417",
"/  c #FF7519",
"(  c #FF771B",
")  c #FF791F",
"_  c #C0713B",
"`  c #FF7C24",
"'  c #FF7D26",
"]  c #BA7345",
"[  c #C17441",
"{  c #C27847",
"}  c #C67D4C",
"|  c #C27E51",
" . c #FF8431",
".. c #FF8533",
"X. c #FF8939",
"o. c #FF8D40",
"O. c #FF8E42",
"+. c #FF8F44",
"@. c #FF964F",
"#. c #CA8C62",
"$. c #C88D65",
"%. c #CD8E65",
"&. c #CC9672",
"*. c #CD9772",
"=. c #CC9773",
"-. c #CB9775",
";. c #808080",
":. c #838383",
">. c #848484",
",. c #868686",
"<. c #898989",
"1. c gray67",
"2. c #AFAFAF",
"3. c #B1B1B1",
"4. c gray70",
"5. c gray71",
"6. c #B6B6B6",
"7. c #B7B7B7",
"8. c gray74",
"9. c #CEA386",
"0. c #CFA78C",
"q. c #CFA88D",
"w. c #D1A68A",
"e. c #D0AA91",
"r. c #D0AC94",
"t. c #D1B09A",
"y. c #D1B39F",
"u. c #D1B4A1",
"i. c #D1B5A2",
"p. c #D1B6A4",
"a. c #D1B7A6",
"s. c #D2B7A6",
"d. c #D1B9A9",
"f. c #D1BAAA",
"g. c #D1BDAF",
"h. c #D1BDB0",
"j. c #D0BFB4",
"k. c #CFC5BE",
"l. c #CFC5BF",
"z. c #D0C1B7",
"x. c #D0C2B9",
"c. c #C5C5C5",
"v. c #C6C6C6",
"b. c gray78",
"n. c #CEC7C2",
"m. c #CEC8C3",
"M. c #CEC8C4",
"N. c #CDCAC7",
"B. c #C8C8C8",
"V. c gray79",
"C. c #CACACA",
"Z. c #CBCBCB",
"A. c #CCCBCA",
"S. c gray80",
"D. c None",
/* pixels */
"D.# + . . . . o . . . o . . o . . o . . o . . o . . . . . + # D.",
"# + ,.5.C.S.S.S.S.S.S.S.S.S.S.S.S.S.S.S.S.S.S.S.S.S.S.C.5.,.o # ",
"+ <.S.S.S.S.S.S.S.S.S.S.S.S.S.S.S.S.S.S.S.S.S.S.S.S.S.S.S.S.% + ",
". 8.S.S.S.S.S.S.S.S.S.S.S.S.S.S.S.S.S.S.S.S.S.S.S.S.S.S.S.S.5.. ",
". S.S.S.S.S.S.S.S.S.S.S.S.S.S.S.S.S.S.S.S.S.S.S.S.S.S.S.S.S.S.. ",
". S.S.S.S.S.S.S.S.S.S.S.S.S.S.S.S.S.S.S.S.S.S.S.S.S.S.S.S.S.S.. ",
". S.S.S.S.S.S.S.S.S.S.S.S.S.S.S.S.S.S.S.S.S.S.S.S.S.S.S.S.S.S.. ",
". S.S.S.S.S.S.S.S.S.S.S.S.S.S.S.S.S.S.S.S.S.S.S.S.S.S.S.S.S.S.. ",
". S.S.S.S.S.S.S.S.S.S.S.S.S.A.h.p.q.i.C.S.S.S.S.S.S.S.S.S.S.S.. ",
"o S.S.S.S.S.S.S.s.] M l 5 : * - 2 ; 1 -.S.S.S.S.S.S.S.S.S.S.S.. ",
". S.S.S.S.S.C.A.7 8 u a V S D D D D A > M x.S.S.S.S.S.S.S.S.S.. ",
". S.S.S.S.S.S.a.< K K K K K K K K K K G 0 7 g.S.S.S.S.S.S.S.S.. ",
"o S.S.S.S.S.S.$.u P P P P P P P L P P P P a g w.S.S.S.S.S.S.S.. ",
". S.S.S.S.S.C.c K Y T T T T T T Y T T T T T G w | M.S.S.S.S.S.. ",
". S.S.S.S.S.z.e Q Q Q Q Q Q Q Q Q Q Q Q Q Q Q R q z n.S.S.S.S.. ",
"o S.S.S.S.S.&.a ~ ~ ~ ~ ~ ~ ~ ~ ~ ~ ~ ~ ~ ~ ~ ~ ! S f y.S.S.S.. ",
". S.S.S.S.S.m P / / / / / / / / / / / / / / / / / / U y &.M.S.. ",
". S.S.S.S.x.k ) ' ' ' ' ' ' ' ' ' ' ' ' ' ' ' ( W K V y , z.S.. ",
"o S.S.S.S.9.A .............. ..... . .) W F s e v } e.z.S.S.S.. ",
". S.S.S.S._ E o.+.o.+.o.+.o.o.` Y F r d n #.t.m.S.S.S.S.S.S.S.. ",
". S.S.S.M.j X.@.@.@.@./ Y a = 4 B =.f.S.S.S.S.S.S.S.S.S.S.S.S.. ",
"o S.S.S.r.D +./ L i = x [ w.n.Z.S.S.S.S.S.S.S.S.S.S.S.S.S.S.S.. ",
". S.S.S.{ 9 k v %.u.A.S.S.S.S.S.S.S.S.S.S.S.S.S.S.S.S.S.S.S.S.. ",
". S.S.S.d.d.M.S.S.S.S.S.S.S.S.S.S.S.S.S.S.S.S.S.S.S.S.S.S.S.S.. ",
"o S.S.S.S.S.S.S.S.S.S.S.S.S.S.S.S.S.S.S.S.S.S.S.S.S.S.S.S.S.S.. ",
". S.S.S.S.S.S.S.S.S.S.S.S.S.S.S.S.S.S.S.S.S.S.S.S.S.S.S.S.S.S.. ",
". S.S.S.S.S.S.S.S.S.S.S.S.S.S.S.S.S.S.S.S.S.S.S.S.S.S.S.S.S.S.. ",
"o C.S.S.S.S.S.S.S.S.S.S.S.S.S.S.S.S.S.S.S.S.S.S.S.S.S.S.S.S.c.. ",
". 5.S.S.S.S.S.S.S.S.S.S.S.S.S.S.S.S.S.S.S.S.S.S.S.S.S.S.S.S.2.. ",
"+ ,.S.S.S.S.S.S.S.S.S.S.S.S.S.S.S.S.S.S.S.S.S.S.S.S.S.S.S.C.$ + ",
"$ o & 4.C.S.S.S.S.S.S.S.S.S.S.S.S.S.S.S.S.S.S.S.S.S.S.b.1.% . $ ",
"D.# + . . . . . . . . . . . . . . . . . . . . . . . . . . + # D."
};
