/* XPM */
static char *dynamicaCreateHingeConstraint[] = {
/* columns rows colors chars-per-pixel */
"32 32 144 2 ",
"   c #002A4B",
".  c #002C54",
"X  c #012F58",
"o  c #013250",
"O  c #03345C",
"+  c #013C5D",
"@  c #043760",
"#  c #063B64",
"$  c #0B3B63",
"%  c #103E64",
"&  c #03456C",
"*  c #0B446D",
"=  c #13456A",
"-  c #0D4972",
";  c #144E76",
":  c #124F78",
">  c #07567F",
",  c #0F567E",
"<  c #10517A",
"1  c #255477",
"2  c #265578",
"3  c #26587A",
"4  c #355372",
"5  c #454545",
"6  c #4C4C4C",
"7  c #46617C",
"8  c #727272",
"9  c #797979",
"0  c #0A5780",
"q  c #0A5B84",
"w  c #125A83",
"e  c #1A5A83",
"r  c #255E83",
"t  c #12638C",
"y  c #19648D",
"u  c #166790",
"i  c #176992",
"p  c #1A6C95",
"a  c #1E7099",
"s  c #366585",
"d  c #396786",
"f  c #236C95",
"g  c #2C6B92",
"h  c #246F98",
"j  c #23759E",
"k  c #2D769F",
"l  c #347195",
"z  c #32749B",
"x  c #3D799D",
"c  c #2C77A0",
"v  c #2779A2",
"b  c #2D7DA5",
"n  c #3B7EA4",
"m  c #446E8B",
"M  c #566E86",
"N  c #49728F",
"B  c #5B7289",
"V  c #497592",
"C  c #4F7A96",
"Z  c #5A7C94",
"A  c #557F9A",
"S  c #5A7F99",
"D  c #657A8E",
"F  c #6A7E92",
"G  c #2F81AA",
"H  c #3486AE",
"J  c #3B84AC",
"K  c #3687B0",
"L  c #3F91BA",
"P  c #6E8194",
"I  c #728496",
"U  c #7D8D9D",
"Y  c #4084AA",
"T  c #4886A9",
"R  c #5A88A3",
"E  c #5088A9",
"W  c #508FB2",
"Q  c #4A94BC",
"!  c #5C94B3",
"~  c #628CA5",
"^  c #688FA6",
"/  c #628FAA",
"(  c #6491AC",
")  c #6E92A9",
"_  c #7391A5",
"`  c #7E9DAF",
"'  c #699BB7",
"]  c #639CBB",
"[  c #729DB5",
"{  c #7A9FB5",
"}  c #4698C1",
"|  c #4A9BC4",
" . c #4FA1CA",
".. c #54A4CC",
"X. c #5EA7CC",
"o. c #66A3C4",
"O. c #6CA6C4",
"+. c #64A9CC",
"@. c #6BABCB",
"#. c #72A5C0",
"$. c #75AAC5",
"%. c #7DAAC1",
"&. c #74AECC",
"*. c #7DAEC9",
"=. c #7DB1CB",
"-. c #838383",
";. c #898989",
":. c #81909F",
">. c #8493A1",
",. c #8D9AA6",
"<. c #929EA9",
"1. c #97A2AC",
"2. c #9AA3AE",
"3. c #9EA7B0",
"4. c gray68",
"5. c #A8AFB6",
"6. c #AAB1B7",
"7. c #ADB3BA",
"8. c #B4B4B4",
"9. c #B0B6BB",
"0. c #B4B9BE",
"q. c gray74",
"w. c #91AFC0",
"e. c #86B1C7",
"r. c #8DB1C3",
"t. c #85B4CB",
"y. c #8CB6CC",
"u. c #8FB8CC",
"i. c #90B6CB",
"p. c #94B9CC",
"a. c #9CBBCC",
"s. c #AABCC6",
"d. c #A4BECC",
"f. c #B7BBC0",
"g. c #BBBEC1",
"h. c #AAC1CC",
"j. c #BFC2C4",
"k. c #B2C3CC",
"l. c #BBC6CC",
"z. c #C4C5C6",
"x. c #C6C7C8",
"c. c #C5C9CB",
"v. c #CCCCCC",
"b. c None",
/* pixels */
"b.8 6 5 5 5 5 5 5 5 5 5 5 5 5 5 5 5 5 5 5 5 5 5 5 5 5 5 5 6 8 b.",
"8 6 ;.8.x.v.v.v.v.v.v.v.v.v.v.v.v.v.v.v.v.v.v.v.v.v.v.v.8.-.6 8 ",
"6 ;.v.v.v.v.v.v.v.v.v.v.v.v.v.v.v.v.v.v.v.v.v.v.v.v.v.v.v.v.9 6 ",
"5 q.v.v.v.v.v.v.v.v.v.v.v.v.v.v.v.v.v.v.v.v.v.v.v.v.v.v.v.v.8.5 ",
"5 v.v.v.v.v.v.v.v.v.z.z.v.v.v.0.6.v.v.v.v.v.v.v.v.v.v.v.v.v.v.5 ",
"5 v.v.v.v.v.v.v.v.,.. . 9.2.F X O U v.v.v.v.v.v.v.v.v.v.v.v.v.5 ",
"5 v.v.v.v.v.v.v.F # l r X $ 2 ^ ) O ,.v.v.v.v.v.v.v.v.v.v.v.v.5 ",
"5 v.v.v.v.v.v.1.. c &.u.E 3.} j =.A . g.v.v.v.v.v.v.v.v.v.v.v.5 ",
"5 v.v.v.7.>.7 $ m K | d.p.t.- X J d.3 B v.v.v.v.v.v.v.v.v.v.v.5 ",
"5 v.v.7.O = V $.&. .p | =.&.R d ] a.r.$ F v.v.v.v.v.v.v.v.v.v.5 ",
"5 v.v.F ; r.p.< O W G q } @.=.a.d.a.a.[ O :.v.v.v.v.v.v.v.v.v.5 ",
"5 v.v.0.O E t.; . c i.i t +.a.u.a.p.a.c._ X ,.v.v.v.v.v.v.v.v.5 ",
"5 v.v.v.U # $.w.( %.c.X.q | p.=.t.d.d.&.p.S . 5.v.v.v.v.v.v.v.5 ",
"5 v.v.v.v.B ; t.d.p.p.x.} i ..=.t.s.Q @ h a.s . v.v.v.v.v.v.v.5 ",
"5 v.v.v.v.z.. g p.p.t.l.v.v a =.a.t.Y . * u.d.= F v.v.v.v.v.v.5 ",
"5 v.v.v.v.v.1.X ! p.d.&.X.t.p G @.@.O.R / a.a.{ @ :.v.v.v.v.x.5 ",
"5 v.v.v.v.v.v.P - t.s.p   k +.0 b &.u.p.h.d.a.a.~ O <.v.v.v.v.5 ",
"5 v.v.v.v.v.v.z.. z u.l . < a.Q u =.a.t.a.h.a.k.l.C . q.v.v.v.5 ",
"5 v.v.v.v.v.v.v.,.X ! h.( #.h.l.j v &.t.&.i.k.t.+.h.; D v.v.v.5 ",
"5 v.v.v.v.v.v.v.v.P # =.h.h.y.k.&.& a +...t.a.w O o.h.+ I v.v.5 ",
"5 v.v.v.v.v.v.v.v.v.M e u.a.p.p.l...& H i.p.O.- . k h.` O 5.x.5 ",
"5 v.v.v.v.v.v.v.v.v.6.. n p.a.d.d.k.b q &.y.=._ Z %.e.T $ ,.v.5 ",
"5 v.v.v.v.v.v.v.v.v.v.>.O ] k.t.> u t.w y t.t.@.*.x # . . v.v.5 ",
"5 v.v.v.v.v.v.v.v.v.v.v.D - d.+.O . Q a.t j } G & 4 >.z.v.v.x.5 ",
"5 v.v.v.v.v.v.v.v.v.v.v.z.. z a.V r =.k.y o > * . 0.v.v.v.v.v.5 ",
"5 v.v.v.v.v.v.v.v.v.v.v.v.,.O ' d.y.J - . . O . 2.v.v.v.v.v.v.5 ",
"5 v.v.v.v.v.v.v.v.v.v.v.v.v.F ; l * . P 0.9.<.z.v.v.v.v.v.v.v.5 ",
"5 v.v.v.v.v.v.v.v.v.v.v.v.v.g.. . U 0.v.v.v.v.v.v.v.v.v.v.v.z.5 ",
"5 8.v.v.v.v.v.v.v.v.v.v.v.v.v.j.g.v.v.v.v.v.v.v.v.v.v.v.v.v.4.5 ",
"6 ;.v.x.v.v.v.v.v.v.v.v.v.v.v.v.v.v.v.v.v.v.v.v.v.v.v.v.v.v.8 6 ",
"8 5 -.8.v.v.v.v.v.v.v.v.v.v.x.v.v.v.v.v.v.v.v.v.v.v.v.z.4.9 5 8 ",
"b.8 6 5 5 5 5 5 5 5 5 5 5 5 5 5 5 5 5 5 5 5 5 5 5 5 5 5 5 6 8 b."
};
