/* XPM */
static char *dynamicaCreateActiveCube[] = {
/* columns rows colors chars-per-pixel */
"32 32 152 2 ",
"   c #252525",
".  c #393939",
"X  c #035F02",
"o  c #016701",
"O  c #0A6304",
"+  c #066C06",
"@  c #086B08",
"#  c #0B6B0B",
"$  c #086E08",
"%  c #0D6D0D",
"&  c #0F6E0F",
"*  c #116A0A",
"=  c #0E740E",
"-  c #116F11",
";  c #1A671A",
":  c #137013",
">  c #157115",
",  c #197217",
"<  c #137913",
"1  c #157B15",
"2  c #177D17",
"3  c #177118",
"4  c #187218",
"5  c #19731A",
"6  c #1A731A",
"7  c #267A26",
"8  c #434343",
"9  c #444444",
"0  c gray27",
"q  c #464646",
"w  c #484848",
"e  c #494949",
"r  c gray30",
"t  c #4E4E4E",
"y  c gray32",
"u  c gray35",
"i  c #5A5A5A",
"p  c gray36",
"a  c #626262",
"s  c #646464",
"d  c #6F6F6F",
"f  c gray44",
"g  c #717171",
"h  c #727272",
"j  c gray45",
"k  c #747474",
"l  c #767676",
"z  c gray47",
"x  c gray48",
"c  c gray49",
"v  c #7E7E7E",
"b  c #1D831D",
"n  c #1F851F",
"m  c #208620",
"M  c #258B25",
"N  c #268C26",
"B  c #278D27",
"V  c #288E28",
"C  c #298F29",
"Z  c #2A902A",
"A  c #2C922C",
"S  c #2F952F",
"D  c #338033",
"F  c #319731",
"G  c #339933",
"H  c #389E38",
"J  c #3CA23C",
"K  c #3DA33D",
"L  c #408640",
"P  c #438843",
"I  c #4D8D4D",
"U  c #5D835C",
"Y  c #599359",
"T  c #40A640",
"R  c #44AA44",
"E  c #4CB24C",
"W  c #4FB54F",
"Q  c #52B852",
"!  c #54BA54",
"~  c #56BC56",
"^  c #59BF59",
"/  c #669966",
"(  c #768976",
")  c #729F72",
"_  c #7FA67F",
"`  c #5AC05A",
"'  c #5DC35D",
"]  c #5EC45E",
"[  c #61C761",
"{  c #62C862",
"}  c #63C963",
"|  c #64CA64",
" . c #65CB65",
".. c #69CF69",
"X. c #6BD16B",
"o. c #6ED46E",
"O. c #71D771",
"+. c #74DA74",
"@. c #79DF79",
"#. c #7DE37D",
"$. c #808080",
"%. c gray51",
"&. c #838383",
"*. c #848484",
"=. c gray52",
"-. c #868686",
";. c gray53",
":. c #898989",
">. c gray54",
",. c gray57",
"<. c #959595",
"1. c gray59",
"2. c #9A9A9A",
"3. c #9B9B9B",
"4. c gray61",
"5. c #9D9D9D",
"6. c #8CAC8C",
"7. c #99B299",
"8. c gray63",
"9. c gray64",
"0. c #A5A5A5",
"q. c gray65",
"w. c #A9A9A9",
"e. c #AAAAAA",
"r. c gray67",
"t. c gray68",
"y. c #AFAFAF",
"u. c #A6B9A6",
"i. c #B1B1B1",
"p. c #B2B2B2",
"a. c gray70",
"s. c gray71",
"d. c #B6B6B6",
"f. c #B7B7B7",
"g. c #B2BFB2",
"h. c gray72",
"j. c gray73",
"k. c #BBBBBB",
"l. c gray74",
"z. c #BFC6BF",
"x. c #C1C1C1",
"c. c gray76",
"v. c #C3C3C3",
"b. c #C5C5C5",
"n. c #C6C6C6",
"m. c gray78",
"M. c #C8C8C8",
"N. c gray79",
"B. c #CACACA",
"V. c #CBCBCB",
"C. c gray80",
"Z. c None",
/* pixels */
"Z.h r 0 0 0 0 w 0 q q q q q q q q q q q 0 0 q q q q 0 0 0 r h Z.",
"h r -.s.B.C.C.C.C.C.C.C.C.C.C.C.C.C.C.C.C.C.C.C.C.C.C.B.s.&.w h ",
"r :.C.C.C.C.C.C.C.C.C.C.C.C.C.C.C.B.C.C.C.C.C.C.C.C.C.C.C.C.z r ",
"0 l.C.C.C.C.C.C.C.C.C.C.C.C.C.u.- , P _ 7.C.C.C.C.C.C.C.C.C.f.0 ",
"0 C.C.C.C.C.C.C.C.C.C.C.C.C.C.Y K - W H n o D Y z.C.C.C.C.C.C.0 ",
"0 C.C.C.C.C.C.C.C.C.C.C.C.C.C.5 ] { & +.#.#.] K 7 g.C.C.C.C.C.0 ",
"0 C.C.C.C.C.C.C.C.C.C.C.C.C.u.1 X.X. .- +.#.#.#.R # u.C.C.C.C.0 ",
"0 C.C.C.C.C.C.C.C.C.C.C.C.C.Y K X.X.X. .& +.#.#.#.E & _ C.C.C.0 ",
"0 C.C.C.C.C.C.C.C.C.C.C.C.C.5 ] X.X.X.X.| # O.o.#.#.{ F ) C.C.0 ",
"w C.C.C.C.C.C.C.C.C.C.C.C.u.1 X.X.X.X.X.X.| * , + { ..^ Z P C.0 ",
". C.C.C.C.C.C.C.C.C.C.C.C.Y K X.X.X.X.X.X.Q N M C Z Z Z m > C.0 ",
"  5.C.C.C.C.C.C.C.C.C.C.C.5 ] X.X.X.X.X.{ O B Z C Z Z Z = 6.C.0 ",
"8 h <.B.C.C.C.C.C.C.C.C.C.o { X.X.X.X.X.~ B Z Z Z Z Z 2 D C.C.0 ",
"0 v.l 2.C.C.C.C.C.C.C.C.C./ G X.X.X.X.[ O B Z Z Z Z B + g.C.C.0 ",
"0 C.b.h r.B.C.C.C.C.C.C.C.z.3 ! X.X.X.` B Z Z Z Z Z 1 / C.C.C.0 ",
"0 C.C.s.h v.C.C.C.C.C.C.C.y.U C X.X.[ X B Z Z Z Z n 5 z.C.C.C.0 ",
"q C.C.C.5.-.C.C.C.C.C.C.k.e.p.; T X.] B Z Z Z Z Z = 6.C.C.C.C.0 ",
"q C.C.C.C.c y.C.C.C.C.x.p.2.y ( 1 | & C C V Z n 1 D C.C.C.C.C.0 ",
"q C.C.C.C.p.v C.C.C.n.c.2.i p.C.I G @ b = + o D / z.C.C.C.C.C.0 ",
"q C.C.C.C.M.-.i.C.C.B.w.u k.C.C.c.> - D _ u.C.C.C.C.C.C.C.C.C.0 ",
"q C.C.C.C.C.8.,.C.C.c.i q.C.C.C.C.C.C.C.C.C.C.C.C.C.C.C.C.C.C.0 ",
"q C.C.C.C.C.p.-.M.C.c %.C.C.C.C.C.C.C.C.C.C.C.C.C.C.C.C.C.C.C.0 ",
"q C.C.C.C.C.x.=.k.s.a n.C.C.C.C.C.C.C.C.C.C.C.C.C.C.C.C.C.C.C.0 ",
"q C.C.C.C.C.C.>.s.l 0.C.C.C.C.C.C.C.C.C.C.C.C.C.C.C.C.C.C.C.C.0 ",
"q C.C.C.C.B.C.5.>.v C.C.C.C.C.C.C.C.C.C.C.C.C.C.C.C.C.C.C.C.C.0 ",
"q C.C.C.n.>.k w.( 9.h.C.C.C.C.C.C.C.C.C.C.C.C.C.C.C.C.C.C.C.C.0 ",
"q C.C.C.f.-.p s ;.f s 1.n.C.C.C.C.C.C.C.C.C.C.C.C.C.C.C.C.C.C.0 ",
"q N.C.C.B.B.C.-.4.h.r.r.n.C.C.C.C.C.C.C.C.C.C.C.C.C.C.C.C.C.b.0 ",
"q f.C.C.C.C.C.B.C.C.C.C.C.C.C.C.C.C.C.C.C.C.C.C.C.C.C.C.C.C.y.9 ",
"r *.C.C.C.C.C.C.C.C.C.C.C.C.C.C.C.C.C.C.C.C.C.C.C.C.C.C.C.C.j r ",
"h w $.i.M.C.C.C.C.C.C.C.C.C.C.C.C.C.C.C.C.C.C.C.C.C.C.n.r.x q j ",
"Z.h r 0 0 0 0 q 0 0 0 0 0 0 0 0 0 0 0 0 0 0 0 0 0 0 0 0 0 r j Z."
};
