/* XPM */
static char *dynamicaActivate_Z[] = {
/* columns rows colors chars-per-pixel */
"32 32 256 2 ",
"   c black",
".  c #0F0B00",
"X  c #180B00",
"o  c #12001E",
"O  c #101010",
"+  c #2C0000",
"@  c #2F0009",
"#  c #320401",
"$  c #390100",
"%  c #3F000D",
"&  c #301A00",
"*  c #391F00",
"=  c #38001A",
"-  c #221415",
";  c #020028",
":  c #110022",
">  c #18002B",
",  c #030032",
"<  c #030039",
"1  c #1F003C",
"2  c #3E0025",
"3  c #2D0039",
"4  c #23003A",
"5  c #38003A",
"6  c #202020",
"7  c gray19",
"8  c #4E0008",
"9  c #4C0500",
"0  c #520500",
"q  c #590002",
"w  c #5F1600",
"e  c #41001D",
"r  c #4C001C",
"t  c #420016",
"y  c #650604",
"u  c #730004",
"i  c #74000C",
"p  c #7C0602",
"a  c #6A0014",
"s  c #66001B",
"d  c #6A0019",
"f  c #730013",
"g  c #432100",
"h  c #502600",
"j  c #582000",
"k  c #50391E",
"l  c #6E3100",
"z  c #763A00",
"x  c #4A002A",
"c  c #43002C",
"v  c #550023",
"b  c #58002E",
"n  c #440036",
"m  c #44003E",
"M  c #4A0035",
"N  c #550038",
"B  c #62002B",
"V  c #7F0022",
"C  c #72002B",
"Z  c #6B122D",
"A  c #650039",
"S  c #674800",
"D  c #694100",
"F  c #6D5E0D",
"G  c #785600",
"H  c #5D5634",
"J  c #674020",
"K  c #686034",
"L  c #756C3A",
"P  c #030042",
"I  c #090045",
"U  c #0A004C",
"Y  c #1C004B",
"T  c #040055",
"R  c #0F0057",
"E  c #1B0055",
"W  c #180359",
"Q  c #270048",
"!  c #3C0043",
"~  c #3D004C",
"^  c #350446",
"/  c #2E0057",
"(  c #380058",
")  c #0E0066",
"_  c #06006C",
"`  c #0A006A",
"'  c #1A0066",
"]  c #060070",
"[  c #12007D",
"{  c #180079",
"}  c #220063",
"|  c #280068",
" . c #280068",
".. c #32006A",
"X. c #2A007A",
"o. c #270075",
"O. c #3B3878",
"+. c #430047",
"@. c #510043",
"#. c #560049",
"$. c #4C0054",
"%. c #43005B",
"&. c #4A005F",
"*. c #5B0053",
"=. c #650048",
"-. c #790044",
";. c #650053",
":. c #5C2D42",
">. c #510061",
",. c #410076",
"<. c #472E66",
"1. c #444444",
"2. c #4C4C4C",
"3. c #4D4755",
"4. c gray33",
"5. c #606060",
"6. c #727272",
"7. c #797979",
"8. c #870F00",
"9. c #860106",
"0. c #940200",
"q. c #9D0002",
"w. c #980008",
"e. c #8A1C00",
"r. c #971700",
"t. c #9A1600",
"y. c #80001E",
"u. c #8C0018",
"i. c #930013",
"p. c #940018",
"a. c #9C001C",
"s. c #9F0015",
"d. c #AF0E00",
"f. c #A2000C",
"g. c #AD000D",
"h. c #A20803",
"j. c #BC000A",
"k. c #B60008",
"l. c #A11E00",
"z. c #BB1200",
"x. c #AC0014",
"c. c #A30015",
"v. c #B20010",
"b. c #8C2900",
"n. c #962900",
"m. c #883E00",
"M. c #9B3A00",
"N. c #903A00",
"B. c #A42300",
"V. c #BC2100",
"C. c #B62400",
"Z. c #A43200",
"A. c #BC3400",
"S. c #B63600",
"D. c #830021",
"F. c #8C0025",
"G. c #8B0029",
"H. c #940023",
"J. c #9C0027",
"K. c #870038",
"L. c #8F0033",
"P. c #9B2F26",
"I. c #C10002",
"U. c #D10600",
"Y. c #C21200",
"T. c #C91800",
"R. c #CD1400",
"E. c #C72900",
"W. c #C43C00",
"Q. c #C83800",
"!. c #8F4E00",
"~. c #8B4000",
"^. c #9C4D00",
"/. c #955500",
"(. c #A84900",
"). c #BF4700",
"_. c #B94900",
"`. c #AF5F00",
"'. c #AC5000",
"]. c #B15400",
"[. c #B95C00",
"{. c #8D7400",
"}. c #987A00",
"|. c #A96300",
" X c #B96600",
".X c #BF7B00",
"XX c #C54B00",
"oX c #C85200",
"OX c #C06000",
"+X c #C37000",
"@X c #A74A4B",
"#X c #B97D5C",
"$X c #8A697F",
"%X c #A78700",
"&X c #AF9200",
"*X c #BF9200",
"=X c #CE8200",
"-X c #D88000",
";X c #C49C00",
":X c #C89700",
">X c #D79400",
",X c #ED8400",
"<X c #F38E00",
"1X c #E89600",
"2X c #E49800",
"3X c #FF9300",
"4X c #FF9900",
"5X c #F29800",
"6X c #CDAA00",
"7X c #DFA200",
"8X c #D2AA00",
"9X c #DFB600",
"0X c #E3A600",
"qX c #F0A600",
"wX c #FFA500",
"eX c #FFAC00",
"rX c #EDB400",
"tX c #E6BD00",
"yX c #FFB200",
"uX c #FFBC00",
"iX c #F7C500",
"pX c #FBC200",
"aX c #8A8145",
"sX c #998F4C",
"dX c #A19551",
"fX c #A79B53",
"gX c #AEA257",
"hX c #BCB25E",
"jX c #9F8D6D",
"kX c #CCC366",
"lX c #CCC77F",
"zX c #0E0082",
"xX c #180086",
"cX c #260081",
"vX c #5D5081",
"bX c #818181",
"nX c #898989",
"mX c #979797",
"MX c gray60",
"NX c #8885A4",
"BX c #A0A0A0",
"VX c gray68",
"CX c #B0A0AF",
"ZX c #B3B3B3",
"AX c #BDBDBD",
"SX c #C1898E",
"DX c #CAA497",
"FX c #C0ACB0",
"GX c #C5BBBD",
"HX c #CBC8BE",
"JX c #C6C6C6",
"KX c #CCCCCC",
"LX c #D0D0D0",
"PX c gray94",
"IX c gray100",
"UX c None",
/* pixels */
"UX6.2.1.1.1.1.1.1.1.1.1.1.1.1.1.1.1.1.1.1.1.1.1.1.1.1.1.1.2.6.UX",
"6.2.nXZXKXKXKXLXKXKXLXKXKXLXKXKXLXKXKXLXKXKXKXKXKXLXKXJXZXnX2.6.",
"2.nXKXKXKXKXKXKXKXKXKXKXKXKXKXKXKXKXKXKXKXKXKXKXKXKXKXKXKXKX7.2.",
"1.AXKXKXKXKXKXKXKXKXKXKXKXKXKXKXKXKXKXDX#XJ k jXJXKXKXKXKXKXZX1.",
"1.KXKXKXKXKXKXKXKXKXKXKXKXJXGXSX@XP.n.n.M.m. X1X:XH KXKXKXKXKX1.",
"1.KXKXKXKXKXKXKXJXJXCX$X:.Z f 9.q.d.z.Q.XX'.,XwXuXfXKXKXKXKXKX1.",
"1.KXKXKXKXAXNXvX<.^ 5 x c F.a.v.I.Y.V.A.).'.,XwXuXdXKXKXKXLXKX1.",
"1.KXKXKXKXI U ' ..%.*.=.b F.a.x.I.z.V.A.).(.,XwXpXdXKXKXKXKXKX1.",
"1.KXKXKXKX] zXX.| %.#.N v F.p.w.q.h.l.n.M.h /.2X:XL KXKXKXKXKX1.",
"1.LXKXKXKXT ) ' Q ^ +.2 = B a u + 8.e.b.M.z +X2X:XK KXKXKXKXKX1.",
"1.KXKXKXKX< P W : 3 m N B D.p.g.9.R.E.Q.XX[.3XeXpXgXKXKXKXKXKX1.",
"1.KXKXKXKX_ [ X./ &.*.-.K.H.c.k.0.T.E.A.XX[.3XeXpXdXKXKXKXKXKX1.",
"2.KXKXKXKXT ` o.1 ~ @.A C D.i.f.u z.C.S.).^.<XeXrXsXKXKXKXKXKX1.",
"1.KXKXKXKX< I E : 3 m 2 e s a i $ 8.e.b.N.g |.>X%XaXKXKXKXKXLX1.",
"1.KXKXKXKXT ) } / $.@.x r D.u.w.0.t.B.Z.(.z -XqX;XfXKXKXKXKXKX1.",
"1.LXKXKXKX_ [ o...>.;.A C J.x.j.U.T.E.XXoX X4XyXiXhXKXKXKXKXKX1.",
"1.KXKXKXKX, I W Q ~ N x v F.c.k.U.T.E.XXoX[.4XyXiXhXKXKXKXKXKX1.",
"1.KXKXKXKXP R / > 5 n = % d i +               S ;XhXKXKXKXKXKX1.",
"1.LXKXKXKX] xXX.Q $.#.A C f i 1.IXIXIXIXIXIXIX  }.hXKXKXKXKXKX1.",
"1.KXKXKXKX; R } 4 $.;.-.L.J.i.6 bXbX$XbXVXIXPX. 6XkXKXKXKXKXKX1.",
"1.KXKXKXKX< R Y o 3 x b C u.x.f.9 w w 6 PXIX7 G tXkXKXKXKXKXKX1.",
"2.KXKXKXKX_ { | ( +.N = t a f u q r.O LXIX5.z uXtXkXLXKXKXKXKX1.",
"1.KXKXKXKX; ' o.( ! M c r u.i.p 0 # BXIXBX* 5X7X{.kXKXKXKXKXKX1.",
"1.KXKXKXLXO.W Q 6 1.7 1.1.% c.k.9 6.IXLXX & =X0X%XkXKXKXKXKXKX1.",
"1.LXKXKXKXKXKX3.bXIXIXIXIX  v.q 1.IXPXO l |.wXuX6XkXKXKXKXKXKXH ",
"1.KXKXKXKXKXKXZX6 1.7 1.1.@ 8 - PXIX7 j ~.!..XtX6XkXKXKXKXKXJX1.",
"1.KXKXKXKXKXKXKXZXMXMXMXmXZX- LXIXMX7 1.1.1.7 O &XkXLXLXKXKXKX1.",
"1.KXKXKXKXKXKXKXKXKXKXKXKXKX  IXIXIXIXIXIXIXIX1.F DXHXLXKXKXJX1.",
"1.ZXKXKXKXKXKXKXKXKXKXKXKXKX4.1.1.7 1.1.1.1.1.O AXKXKXKXKXKXVX1.",
"4.bXKXKXKXKXKXKXKXKXKXKXKXKXKXMXmXMXMXMXMXMXmXAXKXKXKXKXKXKX6.2.",
"6.1.bXZXKXKXKXKXKXKXKXKXKXKXKXKXKXLXKXKXKXKXLXKXKXKXKXJXVX7.1.6.",
"UX6.2.1.1.1.1.1.1.1.1.1.1.1.1.1.1.1.1.1.1.1.1.1.1.1.1.1.1.2.7.UX"
};
