/* XPM */
static char *dynamicaActivate_Z[] = {
/* columns rows colors chars-per-pixel */
"32 32 256 2 ",
"   c black",
".  c #07060A",
"X  c #170002",
"o  c #0E0012",
"O  c #101010",
"+  c #260008",
"@  c #33000C",
"#  c #360402",
"$  c #2D1C00",
"%  c #210019",
"&  c #29001D",
"*  c #3D0019",
"=  c #3D2800",
"-  c #3A3300",
";  c #17002B",
":  c #130037",
">  c #280024",
",  c #3A002B",
"<  c #340020",
"1  c #3F003F",
"2  c #341E32",
"3  c #202020",
"4  c #2B263F",
"5  c #313131",
"6  c #48000E",
"7  c #480604",
"8  c #570008",
"9  c #520500",
"0  c #40180C",
"q  c #561600",
"w  c #551A00",
"e  c #450013",
"r  c #5A0019",
"t  c #6E0004",
"y  c #6C000B",
"u  c #65000A",
"i  c #7A0300",
"p  c #700009",
"a  c #780501",
"s  c #641C00",
"d  c #690014",
"f  c #67001C",
"g  c #730014",
"h  c #7B001C",
"j  c #422A00",
"k  c #463F00",
"l  c #413300",
"z  c #543400",
"x  c #672300",
"c  c #722000",
"v  c #712C00",
"b  c #47002F",
"n  c #5C002E",
"m  c #570027",
"M  c #4D003A",
"N  c #5A003D",
"B  c #55003B",
"V  c #600021",
"C  c #62002B",
"Z  c #6A0027",
"A  c #79002C",
"S  c #660036",
"D  c #730037",
"F  c #74003C",
"G  c #452038",
"H  c #484200",
"J  c #524800",
"K  c #5C4100",
"L  c #5C5400",
"P  c #6C4300",
"I  c #7B4500",
"U  c #724A00",
"Y  c #655800",
"T  c #735E00",
"R  c #746600",
"E  c #7C7300",
"W  c #79452D",
"Q  c #1B0057",
"!  c #360047",
"~  c #25005C",
"^  c #31005D",
"/  c #38324E",
"(  c #3C3454",
")  c #270067",
"_  c #330066",
"`  c #290076",
"'  c #320071",
"]  c #440049",
"[  c #5C0042",
"{  c #5D0048",
"}  c #540048",
"|  c #430059",
" . c #56005F",
".. c #510052",
"X. c #433A5E",
"o. c #47006C",
"O. c #51006D",
"+. c #490078",
"@. c #4C0070",
"#. c #53007C",
"$. c #580079",
"%. c #650062",
"&. c #69006D",
"*. c #630069",
"=. c #640071",
"-. c #454545",
";. c #4C4C4C",
":. c gray33",
">. c #4E4570",
",. c #574C7C",
"<. c #606060",
"1. c #727272",
"2. c #7C7C7C",
"3. c #840003",
"4. c #8B0004",
"5. c #8B0E00",
"6. c #890008",
"7. c #950204",
"8. c #930506",
"9. c #841000",
"0. c #8C1B00",
"q. c #8F1400",
"w. c #911600",
"e. c #8E0018",
"r. c #890012",
"t. c #9A0012",
"y. c #93001C",
"u. c #9B001B",
"i. c #941C1F",
"p. c #A60405",
"a. c #B20300",
"s. c #BC0104",
"d. c #BF000C",
"f. c #A81100",
"g. c #A91D00",
"h. c #B51500",
"j. c #BD1800",
"k. c #A50013",
"l. c #AC0014",
"z. c #A70018",
"x. c #802F00",
"c. c #852700",
"v. c #9E2F00",
"b. c #833300",
"n. c #883D00",
"m. c #9A3300",
"M. c #9A3C00",
"N. c #912F12",
"B. c #AF2300",
"V. c #A82C00",
"C. c #B82300",
"Z. c #B33200",
"A. c #BA3000",
"S. c #890020",
"D. c #81002C",
"F. c #89002B",
"G. c #930024",
"H. c #900029",
"J. c #9A0022",
"K. c #820032",
"L. c #890030",
"P. c #8D2631",
"I. c #C60300",
"U. c #C30900",
"Y. c #C60106",
"T. c #C51300",
"R. c #CA1200",
"E. c #C21A00",
"W. c #C62100",
"Q. c #C22B00",
"!. c #C92900",
"~. c #D12700",
"^. c #D43E00",
"/. c #8C4600",
"(. c #904100",
"). c #924800",
"_. c #994A00",
"`. c #895703",
"'. c #955600",
"]. c #AA4E00",
"[. c #A84300",
"{. c #B84500",
"}. c #AB5E00",
"|. c #A55B00",
" X c #B85800",
".X c #816700",
"XX c #8E6800",
"oX c #896700",
"OX c #926B00",
"+X c #8D7200",
"@X c #9C7000",
"#X c #A56B00",
"$X c #BD6C00",
"%X c #AB7A00",
"&X c #B67A00",
"*X c #94732E",
"=X c #C04D00",
"-X c #D25100",
";X c #CA6300",
":X c #D46300",
">X c #C87200",
",X c #D77500",
"<X c #A54A4C",
"1X c #965C76",
"2X c #C0706C",
"3X c #9A8000",
"4X c #988900",
"5X c #9D9300",
"6X c #AB8200",
"7X c #AF8A00",
"8X c #A58900",
"9X c #BA8900",
"0X c #A19000",
"qX c #BE9D00",
"wX c #958938",
"eX c #C48300",
"rX c #CC9700",
"tX c #D79900",
"yX c #E39000",
"uX c #C1A300",
"iX c #D8A100",
"pX c #D2A900",
"aX c #A18E50",
"sX c #A88369",
"dX c #35008C",
"fX c #3C008B",
"gX c #350083",
"hX c #4D0081",
"jX c #420089",
"kX c #450087",
"lX c #5D5183",
"zX c #635689",
"xX c #6B5F9A",
"cX c #7F6D84",
"vX c #68609E",
"bX c #6F66A9",
"nX c #7066A8",
"mX c #818181",
"MX c #898989",
"NX c gray60",
"BX c #B2AB85",
"VX c #BB97A2",
"CX c #A1A1A1",
"ZX c gray68",
"AX c #B4B4B4",
"SX c #BEBEBE",
"DX c #C88D89",
"FX c #C5B1A6",
"GX c #C8BDBB",
"HX c #C2BEC5",
"JX c #C5C5C5",
"KX c #CCCCCC",
"LX c #D0D0D0",
"PX c gray94",
"IX c gray100",
"UX c None",
/* pixels */
"UX1.;.-.-.-.-.-.-.-.-.-.-.-.-.-.-.-.-.-.-.-.-.-.-.-.-.-.-.;.1.UX",
"1.;.MXAXKXKXKXKXKXKXKXKXLXLXKXKXLXKXKXLXKXKXKXKXKXLXKXJXAXMX;.1.",
";.MXKXKXKXKXKXKXKXKXKXKXKXKXKXKXKXKXKXKXKXKXKXKXKXKXKXKXKXKX2.;.",
"-.SXKXKXKXKXKXKXKXKXKXKXKXKXKXKXKXKXKXVX1XG 2 cXJXKXKXKXKXKXAX-.",
"-.KXKXKXKXKXKXKXKXKXKXKXKXJXGXDX<XP.g Z C b } O._ / KXKXKXKXKX-.",
"-.KXKXKXKXKXKXKXKXJXFXsXW N.w.8.7.t.y.F.D N %.$.jXzXKXKXKXKXKX-.",
"-.KXKXKXKXSXBXaX*X`.).b.x Q.E.U.s.k.y.D.D N %.$.jXlXKXKXKXKXKX-.",
"-.KXKXKXKXY R 7X&X>X;X=Xm.!.E.U.s.t.y.D.D B %.$.fXlXKXKXKXKXKX-.",
"-.KXKXKXKX5XuXrXeX$X$X[.c.Q.h.a.7.r.h Z C & ! @.' X.KXKXKXKXKX-.",
"-.LXKXKXKXE @X8X`.'._.v w 0.9.i + y d V n , ..@._ ( KXKXKXKXKX-.",
"-.KXKXKXKXL Y OX= I _.M.V.g.h.s.4.l.J.L.F [ &.#.fXzXKXKXKXKXKX-.",
"-.KXKXKXKX4XqXiX#X>X:X-X-X!.T.I.4.z.G.D.D [ &.#.fXlXKXKXKXKXLX-.",
"-.LXKXKXKXE 8X9XU }. X{.Z.B.h.a.t t.S.A S M *.hXgX,.KXKXKXKXKX-.",
"-.KXKXKXKXk Y OXj I (.v s 0.5.i # g d m m % ] o.~ >.KXKXKXKXKX-.",
"-.LXKXKXKXR 3X%X#X|.].b.c g.f.p.6.r.h Z S , O.+.` lXKXKXKXKXKX-.",
"-.LXKXKXKX4XqXrXyX,X:X{.Z.~.R.I.Y.z.G.K.F { &.+.dXvXKXKXKXKXKX-.",
"-.KXKXKXKXk T OX`.'.].v c.j.j.I.d.z.G.K.F } =.hXdXxXKXKXKXKXKX-.",
"-.KXKXKXKXL +X@Xz /.).s q q.5.3.y @               / KXKXKXKXKX-.",
"-.KXKXKXKX0XpXtX'.}.n.m.V.g.f.4.# -.IXIXIXIXIXIXIX  KXKXKXKXKX-.",
"-.KXKXKXKX- .X%XP O -.3 A.W.R.a.p 3 cXmXmXmXZXIXPX. KXKXKXKXKX-.",
"-.KXKXKXKXJ oXXX$ 5 IXmXq j.U.s.8.e.e * < 3 PXIX5 / KXKXKXKXKX-.",
"-.LXKXKXKX4X7XK z -.IXmX$ 7 a a 8 u.H.C O LXIX<.: nXKXKXKXKXKX-.",
"-.KXKXKXKX- l mXmXNXIXJX2.mX3 t 7 d r + CXIXCX; Q nXKXKXKXKXKX-.",
"-.KXLXKXKXwX  IXIXIXIXIXIXIX-.4.k.y.@ 1.IXLXo ^ ) bXKXKXKXKXKX-.",
"-.LXKXKXKXKX:.    -.IXmX    9 s.l.6 -.IXPXO ! jX` bXKXKXKXKXKX-.",
"-.KXKXKXKXKXKXKXNX-.IX2.0 w.7.p.y O PXIX5 & | ^ Q vXKXKXKXKXKX-.",
"-.KXKXKXKXKXKXKXCX5 SX<.2.FX2Xi.X LXIXCX-.5 -.-.-.O SXKXKXKXKX-.",
"-.KXKXKXKXKXKXKXKXMX5 mXKXKXLXKX  IXIXIXIXIXIXIXIX/ NXKXKXKXJX-.",
"-.AXKXKXKXKXLXKXKXKXKXKXKXKXKXLX:.-.-.5 -.-.-.5 -.O SXKXKXKXZX-.",
";.mXKXKXKXKXKXKXKXKXLXKXKXKXKXKXKXNXNXNXNXNXNXNXNXSXKXKXKXKX1.;.",
"1.;.mXAXKXKXKXKXKXKXKXKXKXKXKXKXKXKXLXLXKXKXKXKXKXKXKXJXZX2.-.1.",
"UX1.;.-.-.-.-.-.-.-.-.-.-.-.-.-.-.-.-.-.-.-.-.-.-.-.-.-.-.:.1.UX"
};
