/* XPM */
static char *dynamica[] = {
/* columns rows colors chars-per-pixel */
"32 32 248 2 ",
"   c black",
".  c #010000",
"X  c #040100",
"o  c #070707",
"O  c #090600",
"+  c #100800",
"@  c #160C00",
"#  c #180B00",
"$  c #1C0C00",
"%  c #1D1000",
"&  c #1C1100",
"*  c #1F1200",
"=  c #111111",
"-  c #211200",
";  c #201300",
":  c #261500",
">  c #2E1A00",
",  c #2F1B00",
"<  c #2E1C00",
"1  c #2F1C00",
"2  c #311D00",
"3  c #341E00",
"4  c #392000",
"5  c #382200",
"6  c #3A2400",
"7  c #272727",
"8  c gray24",
"9  c #452900",
"0  c #492C00",
"q  c #4E2F00",
"w  c #533000",
"e  c #543200",
"r  c #573400",
"t  c #573600",
"y  c #5A3600",
"u  c #5C3700",
"i  c #623900",
"p  c #633D00",
"a  c #663E00",
"s  c #683F01",
"d  c #6B3F00",
"f  c #6A4000",
"g  c #6B4000",
"h  c #6E4200",
"j  c #764703",
"k  c #784A00",
"l  c DimGray",
"z  c gray50",
"x  c #895200",
"c  c #895400",
"v  c #885600",
"b  c #8B5700",
"n  c #8F5600",
"m  c #945B00",
"M  c #955C00",
"N  c #995C00",
"B  c #9D6100",
"V  c #986500",
"C  c #A46400",
"Z  c #A66400",
"A  c #AD6800",
"S  c #B06A00",
"D  c #B36D00",
"F  c #B06E00",
"G  c #B06F00",
"H  c #BC7700",
"J  c #BB7800",
"K  c #BD7800",
"L  c #BE7900",
"P  c #C17705",
"I  c #C27C00",
"U  c #C47C00",
"Y  c #CA7A00",
"T  c #CC8400",
"R  c #D68700",
"E  c #DD8700",
"W  c #D78902",
"Q  c #DB8F00",
"!  c #DA9700",
"~  c #DD9219",
"^  c #E28900",
"/  c #E08F00",
"(  c #E09000",
")  c #E19000",
"_  c #E59500",
"`  c #E89200",
"'  c #E89600",
"]  c #EC9800",
"[  c #ED9900",
"{  c #F39900",
"}  c #F19C00",
"|  c #F89900",
" . c #FA9A00",
".. c #FD9900",
"X. c #FF9800",
"o. c #FF9900",
"O. c #FF9901",
"+. c #FF9A00",
"@. c #FF9B00",
"#. c #FF9A01",
"$. c #FF9B01",
"%. c #FF9B03",
"&. c #F99E00",
"*. c #FB9F00",
"=. c #FC9D00",
"-. c #FF9C00",
";. c #FF9D00",
":. c #FF9E00",
">. c #FF9F00",
",. c #FF9A04",
"<. c #FF9C04",
"1. c #FF9F0B",
"2. c #F2A200",
"3. c #FBA100",
"4. c #FFA000",
"5. c #FEA100",
"6. c #FFA100",
"7. c #FFA200",
"8. c #FFA300",
"9. c orange",
"0. c #FFA600",
"q. c #FEA700",
"w. c #FFA700",
"e. c #F9A800",
"r. c #FFA800",
"t. c #FFA900",
"y. c #FFAA00",
"u. c #FFAB00",
"i. c #FFAF00",
"p. c #FFA20B",
"a. c #FFA10D",
"s. c #FFA70D",
"d. c #FFB200",
"f. c #FFB300",
"g. c #FCB30F",
"h. c #FFA010",
"j. c #FFA011",
"k. c #FFA212",
"l. c #FFA217",
"z. c #FFA419",
"x. c #FFA41A",
"c. c #FFA41B",
"v. c #FFA51E",
"b. c #FFA61F",
"n. c #FFAB1D",
"m. c #FFB417",
"M. c #FFA620",
"N. c #FFA927",
"B. c #FFA92A",
"V. c #FFAB2B",
"C. c #FFAB2C",
"Z. c #FFAC2E",
"A. c #FFAC2F",
"S. c #FEB925",
"D. c #FCBE29",
"F. c #FFAD30",
"G. c #FFAE32",
"H. c #FAC02D",
"J. c #FFB84C",
"K. c #FFB94F",
"L. c #FFBA51",
"P. c #FFBC57",
"I. c #FFBC58",
"U. c #FFBE59",
"Y. c #FFBD5A",
"T. c #FFBE5B",
"R. c #FFBF5C",
"E. c #FFBF5D",
"W. c #FFBF5E",
"Q. c #FFBF62",
"!. c #FFC558",
"~. c #FFC559",
"^. c #FFC060",
"/. c #FFD06D",
"(. c #FFC874",
"). c #FFC975",
"_. c #FFC977",
"`. c #FFCB7C",
"'. c #FEDA71",
"]. c #FDD27C",
"[. c gray67",
"{. c gray70",
"}. c #B4B4B4",
"|. c gray72",
" X c gray75",
".X c #FFCC80",
"XX c #FFE1B5",
"oX c #FFE2B7",
"OX c #FFE4BA",
"+X c #FFE4BB",
"@X c #FFE5BC",
"#X c #FFE5BD",
"$X c #BFC0C2",
"%X c #C0C0C0",
"&X c #C1C1C1",
"*X c #C3C3C3",
"=X c #C1C2C4",
"-X c #C5C5C5",
";X c #C6C6C6",
":X c gray78",
">X c #CFCBC4",
",X c #D2CDC3",
"<X c #D3D4D5",
"1X c #D4D4D5",
"2X c #D5D5D5",
"3X c #D7D7D7",
"4X c #FFE7C0",
"5X c #FFE7C2",
"6X c #FDE7C6",
"7X c #FFE8C8",
"8X c #FFEBCC",
"9X c BlanchedAlmond",
"0X c #FCEACE",
"qX c #FFECCF",
"wX c #FFECD0",
"eX c #FFEDD0",
"rX c #FFEDD2",
"tX c #FFEED3",
"yX c #FFEED4",
"uX c #FFEFD6",
"iX c #FFEFD7",
"pX c #FFEFD8",
"aX c #FFEFD9",
"sX c #FFF2D2",
"dX c #FFF0DA",
"fX c #FFF0DB",
"gX c gray88",
"hX c #E2E2E2",
"jX c gray93",
"kX c #FFF3E0",
"lX c #FFF3E2",
"zX c #FFF4E3",
"xX c #FCF4E9",
"cX c #FFF6EA",
"vX c gray97",
"bX c #FFFBF4",
"nX c #FFFCF9",
"mX c #FFFDF9",
"MX c #FFFDFA",
"NX c #FFFDFB",
"BX c gray99",
"VX c #FDFDFD",
"CX c #FFFEFC",
"ZX c #FFFEFD",
"AX c #FCFEFF",
"SX c #FEFEFE",
"DX c #FFFFFE",
"FX c gray100",
/* pixels */
"FXFXFXFXFXFXFXFXFXFXFXFXFXFXFXFXFXFXFXFXFXFXFXFXFXFXFXFXFXFXFXFX",
"FXFXFXFXFXFXFXFXmXdX).V.s.S./.wXmXFXFXFXFXFXFXFXFXFXFXFXFXFXFXFX",
"FXFXFXFXFXFXFX+XT.c.,.t.G h W m.!.XXmXFXFXFXFXFXFXFXFXFXFXFXFXFX",
"FXFXFXFXFXlXT.$.$.$.6.2.2   @ c ' =.K.pXFXFXFXFXFXFXFXFXFXFXFXFX",
"FXFXFXFXwXV.$.$.$.$.u.m         i *.$.v.#XFXFXFXFXFXFXFXFXFXFXFX",
"FXFXFXlXZ.$.$.$.=.6.) #         B 9.$.$.h.8XFXFXFXFXFXFXFXFXFXFX",
"FXFXFXP.$.$.$.=.6.t.t.V -     0 9.6.$.$.$.Z.bXFXFXFXFXFXFXFXFXFX",
"FXFX+X$.$.$.9.A y x G ! ) p & K t.$.$.$.$.$.`.FXFXFXFXFXFXFXFXFX",
"FXNXT.$.$.=.9.f       $ ! f.R =.$.<.<.,.$.$.l.xXFXFXNXBXFXFXFXFX",
"FXyXl.$.$.=.6.w       - ) 9.6.T.8XyXyXwXyXwX0X>X$X X$X X*X1X=XFX",
"FX(.$.$.$.6._ -       9 6.6.Q.FXFXFXFXFXFXFXFX3X{.{.{.{.{.{.{.FX",
"FXN.X.$.$.=.` y 1 & O f t.a.fXFXFXFXFXFXFXFXFXgX{.{.{.{.{.{.|.FX",
"FX1.$.$.$.X.=.f.9.E c S 6.v.FXFXFXFXFXFXFXFXFXgX{.{.{.{.{.{.|.FX",
"FXN.$.$.$.$.{ b t q 5 f 6.p.fXFXFXFXFXFXFXFXFXgX{.{.{.{.{.{.|.FX",
"FX(.,.$.$.=.} 3       > [ 9.T.mXFXFXFXFXFXFXFX<X{.{.{.{.{.{.}.FX",
"FXyXl.$.$.$.9.d       + T 9.$.J.+X8X8X8X8X8X6X,X=X%X=X=X;X3X;XFX",
"FXFXT.$.$.$.t.n         G u.6.$.$.$.$.$.$.$.j.xXFXFXFXFXFXFXFXFX",
"FXFX+X$.$.$.t.H 3 e k M ^ *.| $.$.$.X.$.$.$..XFXFXFXFXFXFXFXFXFX",
"FXFXFXP.$.$.$.| [ e.Y 6 1 : > U 9.X.$.$.$.G.bXFXFXFXFXFXFXFXFXFX",
"FXFXFXlXC.$.$.$.=.t.Z       X K t.X.$.X.h.8XFXFXFXFXFXFXFXFXFXFX",
"FXFXFXFXwXC.$.$.$.9.Z       + U t.$.$.M.5XFXFXFXFXFXFXFXFXFXFXFX",
"FXFXFXFXFXzXT.$.$.9.N         K 9.$.L.pXFXFXFXFXFXFXFXFXFXFXFXFX",
"FXFXFXFXFXFXFX#X^.n.P u p s j ~ !.XXmXFXFXFXFXFXFXFXFXFXFXFXFXFX",
"FXFXFXFXFXFXFXFXmXpX].H.g.D.'.sXmXFXFXFXFXFXFXFXFXFXFXFXFXFXFXFX",
"FXFXFXFXFXFXFXFXFXFXFXFXFXFXFXFXFXFXFXFXFXFXFXFXFXFXFXFXFXFXFXFX",
"FX3Xz z z FX3Xz FX3Xz FX3Xz FXFXFX[.[.FXFXFX[.z z z 3Xz z z z vX",
"FXz   7   8 z   FXz   FXz   FXFXFX7 7 FXFXFX7   7 7 [.7     7 jX",
"FXz   z o l z   FXz   FXz   FXFXFX7 7 FXFXFX7 o z z FXFX7 7 FXFX",
"FXz   7   8 z   FXz   FXz   FXFXFX7 7 FXFXFX7   7 7 FXFX7 7 FXFX",
"FXz   3X8   [.  =X8 o FXz   3X3XFX7 = 3X3XFX7 = 3X3XFXFX7 7 FXFX",
"FXz       z FX7     [.FXz       3X7       FX7       3XFX7 7 FXFX",
"FXFXFXFXFXFXFXFXFXFXFXFXFXFXFXFXFXFXFXFXFXFXFXFXFXFXFXFXFXFXFXFX"
};
