/* XPM */
static char *dynamicaActivate_Y[] = {
/* columns rows colors chars-per-pixel */
"32 32 256 2 ",
"   c black",
".  c #0F0600",
"X  c #170016",
"o  c #101010",
"O  c #230C00",
"+  c #2A0603",
"@  c #310700",
"#  c #33000C",
"$  c #3C0D00",
"%  c #201300",
"&  c #2B1800",
"*  c #301800",
"=  c #391200",
"-  c #2F2300",
";  c #2F2D00",
":  c #242400",
">  c #312700",
",  c #180029",
"<  c #130039",
"1  c #210026",
"2  c #2C0022",
"3  c #300026",
"4  c #3B002F",
"5  c #2D0034",
"6  c #300037",
"7  c #35003E",
"8  c #202020",
"9  c #313131",
"0  c #460200",
"q  c #550B00",
"w  c #5D0C00",
"e  c #4E1100",
"r  c #4C1800",
"t  c #551B00",
"y  c #5A1C00",
"u  c #4D001C",
"i  c #4B0012",
"p  c #520014",
"a  c #5C0016",
"s  c #52001E",
"d  c #640D00",
"f  c #62000D",
"g  c #6D0E00",
"h  c #71000F",
"j  c #730400",
"k  c #611600",
"l  c #670018",
"z  c #6A0019",
"x  c #7D001E",
"c  c #7D0011",
"v  c #472400",
"b  c #5B2F00",
"n  c #532600",
"m  c #553400",
"M  c #4A3C1C",
"N  c #613100",
"B  c #663E00",
"V  c #743000",
"C  c #783D00",
"Z  c #55002F",
"A  c #440035",
"S  c #4B003A",
"D  c #5E0034",
"F  c #670026",
"G  c #6E0029",
"H  c #76002B",
"J  c #7A002D",
"K  c #650038",
"L  c #6D003C",
"P  c #72003F",
"I  c #4D2B26",
"U  c #48481F",
"Y  c #694000",
"T  c #6B4B00",
"R  c #714F00",
"E  c #7D4C00",
"W  c #6D4D36",
"Q  c #0B0046",
"!  c #170043",
"~  c #0F005E",
"^  c #0A0059",
"/  c #16085F",
"(  c #1E005A",
")  c #280046",
"_  c #2D004E",
"`  c #3A0044",
"'  c #201E41",
"]  c #2F0052",
"[  c #310055",
"{  c #35005C",
"}  c #232052",
"|  c #353451",
" . c #050065",
".. c #06006C",
"X. c #12006F",
"o. c #16126A",
"O. c #06007B",
"+. c #14007C",
"@. c #220062",
"#. c #25006E",
"$. c #390063",
"%. c #3C0069",
"&. c #260072",
"*. c #280075",
"=. c #302D62",
"-. c #2A2678",
";. c #392E70",
":. c #42004C",
">. c #550043",
",. c #5A0047",
"<. c #4A0056",
"1. c #61004C",
"2. c #760041",
"3. c #7A0044",
"4. c #79005F",
"5. c #48344B",
"6. c #4B3A58",
"7. c #580067",
"8. c #420074",
"9. c #7A0060",
"0. c #454545",
"q. c #4C4C4C",
"w. c #515151",
"e. c gray35",
"r. c #7C4958",
"t. c #5F507E",
"y. c #7F516A",
"u. c #606060",
"i. c #727272",
"p. c #797979",
"a. c #810400",
"s. c #8C0006",
"d. c #960500",
"f. c #861100",
"g. c #8C1200",
"h. c #881F00",
"j. c #851E00",
"k. c #901300",
"l. c #9C1400",
"z. c #850012",
"x. c #8B0013",
"c. c #920014",
"v. c #A80008",
"b. c #A80500",
"n. c #BD0600",
"m. c #B40008",
"M. c #BD0009",
"N. c #B60600",
"B. c #AF1700",
"V. c #A80017",
"C. c #B60019",
"Z. c #812900",
"A. c #942100",
"S. c #873800",
"D. c #8B3A00",
"F. c #A32500",
"G. c #AA2600",
"H. c #A93600",
"J. c #B53900",
"K. c #9C0039",
"L. c #A20026",
"P. c #A5003D",
"I. c #C60600",
"U. c #C90600",
"Y. c #C40009",
"T. c #CA0009",
"R. c #D00700",
"E. c #D6000A",
"W. c #CA001B",
"Q. c #E9000B",
"!. c #F70800",
"~. c #FF0800",
"^. c #F0000B",
"/. c #E61E00",
"(. c #D22F00",
"). c #C63F00",
"_. c #D73000",
"`. c #854A00",
"'. c #904900",
"]. c #9C5000",
"[. c #A84600",
"{. c #BD4F00",
"}. c #836900",
"|. c #807518",
" X c #AA7700",
".X c #B57F00",
"XX c #D54400",
"oX c #C15000",
"OX c #CA5400",
"+X c #8F004F",
"@X c #910050",
"#X c #98525C",
"$X c #BE625F",
"%X c #805778",
"&X c #B65E62",
"*X c #8E8C00",
"=X c #938300",
"-X c #969400",
";X c #959317",
":X c #BB8300",
">X c #AE9C00",
",X c #BF9900",
"<X c #AEAC00",
"1X c #BBB900",
"2X c #9C9B30",
"3X c #C19B00",
"4X c #CFA600",
"5X c #C0AC00",
"6X c #C6B100",
"7X c #CBB600",
"8X c #FFCC00",
"9X c #FFE400",
"0X c #FFFC00",
"qX c #84847C",
"wX c #BFBE77",
"eX c #CC9A66",
"rX c #CCA966",
"tX c #C6BB69",
"yX c #CCC666",
"uX c #CCCB7F",
"iX c #070084",
"pX c #070089",
"aX c #150081",
"sX c #190098",
"dX c #2E0089",
"fX c #320093",
"gX c #0800A4",
"hX c #1B00A5",
"jX c #0900B2",
"kX c #4D4A8C",
"lX c #595185",
"zX c #57548E",
"xX c #605C9D",
"cX c #6D6B93",
"vX c #828282",
"bX c #898989",
"nX c #909090",
"mX c gray60",
"MX c #8A85A2",
"NX c #8B89B5",
"BX c #9997BB",
"VX c gray68",
"CX c gray65",
"ZX c #A1A0BA",
"AX c #B3B3B3",
"SX c #BBBBBB",
"DX c #C6C6AD",
"FX c #CBCBA5",
"GX c #BEBDC6",
"HX c #C2C2C2",
"JX c #CCCCCC",
"KX c #D0D0D0",
"LX c gray88",
"PX c gray94",
"IX c gray100",
"UX c None",
/* pixels */
"UXi.q.0.0.0.0.0.0.0.0.0.0.0.0.0.0.0.0.0.| 0.0.0.0.0.0.0.0.w.i.UX",
"i.q.bXAXJXJXJXJXJXJXJXJXJXKXJXJXJXJXJXKXJXJXJXJXJXJXKXHXAXvXq.i.",
"q.bXJXJXJXJXJXJXJXJXJXJXJXJXJXJXJXJXJXJXJXJXJXJXJXJXJXJXJXJXp.q.",
"0.SXJXJXJXJXJXJXJXJXJXJXJXJXJXJXJXJXJXBXxX} 9 cXHXJXJXJXJXJXAX0.",
"0.JXJXJXJXJXJXJXJXJXJXJXJXHXGXNXkX-. . ... .iXgXpX| JXJXJXJXJX0.",
"0.JXJXJXJXJXJXJXJXHXZXcX=.o. . ...O.iXiXiXO.gXjXjXzXJXJXJXJXJX0.",
"0.JXJXJXJXSXMXlX;./ ~ ^ Q +.+.aX+.+.+.+.+.O.sXhXhXlXJXJXJXJXJX0.",
"0.JXJXJXJX< ! @.#.#.*.#.( *.#.&.*.#.#.#.&.[ dXfXfXlXJXJXJXJXJX0.",
"0.JXJXJXJX] $.%.$.$.$.[ ) $.{ { _ [ [ _ _ , _ 8.%.6.JXJXJXJXJX0.",
"0.KXJXJXJX6 ` :.7 ` ` 5 1 7 7 5 X 6 7 7 ` 6 <.7.<.5.JXJXJXJXJX0.",
"0.JXJXJXJX2 3 A X 4 S S S >.>.,.A 1.1.1.1.,.4.4.4.%XJXJXJXJXJX0.",
"0.JXJXJXJXZ L 3.K P 2.2.3.P P L Z L L L P K @X@X+X%XJXJXJXJXJX0.",
"0.KXJXJXJXZ G J u G J H H H H H u J J J J F P.P.K.r.JXJXJXJXJX0.",
"0.JXJXJXJX# p z # a z p i z l a + z l l z # x L.c r.JXJXJXJXJX0.",
"0.JXJXJXJXf z.c.x.x.x.h f c.x.x.c z.x.x.c.f C.W.V.#XJXJXJXJXJX0.",
"0.JXJXJXJXs.N.Y.E.T.T.m.v.Y.M.Y.Y.M.M.M.M.m.^.^.Q.&XJXJXJXJXJX0.",
"0.JXJXJXJX0 j d.a.d.b.j a.n.n.I.U.U.U.U.I.N.~.~.!.$XJXJXJXJXJX0.",
"0.JXJXJXJXw g.l.w g.k.d q g.g.f.@   + g B.l./.d   I VXJXJXJXJX0.",
"0.JXJXJXJXF.(._.A.A.A.G.G.G.F.y w.IXHXO j.$ e vXIXnXe.JXJXJXJX0.",
"0.JXJXJXJX= Z.H.r 9 | y XX).XXJ.+ VXIXi.t t 9 IXLXo VXJXJXJXJX0.",
"0.JXJXJXJXn S.D.. HXIX  [.{.OXoXV o PXPX8 O KXIX0.W JXJXJXJXJX0.",
"0.KXJXJXJX].'.b & HXIX  & n `.C b b i.IXHXvXIXVXv eXJXJXJXJXJX0.",
"0.JXJXJXJX& 0.vXbXKXIXvXvXu.Y `.m E % GXIXIXPXo B rXJXJXJXJXJX0.",
"0.JXJXJXJXM p.IXIXIXIXIXIXHX- :X:X:XR 8 PXIXq.T  XrXJXJXJXJXJX0.",
"0.JXJXJXJXSXe.    HXIX    > }.3X3X3X,X- HXIX  8X4XtXJXJXJXJXJX0.",
"0.JXJXJXJXJXJXJX9 HXIX  R =X=X<X5X5X1X; SXIX  9X7XtXJXJXJXJXJX0.",
"0.JXJXJXJXJXJXJXe.nXGX9 KXDXwX;X=X-X<X; HXIX  0X1XyXJXJXJXJXJX0.",
"0.JXJXJXJXJXJXJXVXe.9 bXKXKXKXJXDXtX2X: HXIX  1X;XuXJXJXJXJXHX0.",
"0.AXJXJXJXJXJXJXJXJXJXJXJXJXJXJXKXJXJXvX9 0.U FXJXJXJXJXJXJXVX0.",
"q.bXJXJXJXJXJXJXJXJXJXJXJXJXJXJXJXJXJXJXCXmXJXJXJXJXJXJXJXJXi.q.",
"i.0.p.AXJXJXJXJXJXJXJXJXJXJXJXJXJXJXJXJXJXJXJXJXJXJXJXHXVXp.0.i.",
"UXi.q.0.0.0.0.0.0.0.0.0.0.0.0.0.0.0.0.0.0.0.0.0.0.0.0.0.0.w.i.UX"
};
