/* XPM */
static char *dynamicaCreateActiveCubeArray[] = {
/* columns rows colors chars-per-pixel */
"32 32 156 2 ",
"   c #313131",
".  c #323232",
"X  c #016701",
"o  c #066906",
"O  c #076A07",
"+  c #086A08",
"@  c #086B08",
"#  c #096B09",
"$  c #0B6A09",
"%  c #0A6A0A",
"&  c #0A6B0A",
"*  c #086E08",
"=  c #0C6D0C",
"-  c #0D6D0D",
";  c #0F6E0F",
":  c #0B710B",
">  c #0E740E",
",  c #116F11",
"<  c #126F12",
"1  c #137013",
"2  c #107610",
"3  c #127812",
"4  c #157B15",
"5  c #167C16",
"6  c #187218",
"7  c #1A731A",
"8  c #197F19",
"9  c #257925",
"0  c #267A26",
"q  c #3A673A",
"w  c #444444",
"e  c gray27",
"r  c #464646",
"t  c #484848",
"y  c #494949",
"u  c gray30",
"i  c #4E4E4E",
"p  c gray36",
"a  c #6A6A6A",
"s  c #6D6D6D",
"d  c #727272",
"f  c gray45",
"g  c gray47",
"h  c gray48",
"j  c #7C7C7C",
"k  c #1A801A",
"l  c #1C821C",
"z  c #1D831D",
"x  c #208620",
"c  c #228822",
"v  c #248A24",
"b  c #288E28",
"n  c #298F29",
"m  c #2A902A",
"M  c #2C922C",
"N  c #2F952F",
"B  c #338033",
"V  c #339933",
"C  c #389E38",
"Z  c #3AA03A",
"A  c #3DA33D",
"S  c #408640",
"D  c #4A8A4A",
"F  c #4B8A4A",
"G  c #4D8D4D",
"H  c #549054",
"J  c #599359",
"K  c #47AD47",
"L  c #4CB24C",
"P  c #4FB54F",
"I  c #53B953",
"U  c #57BD57",
"Y  c #669966",
"T  c #6C976B",
"R  c #709F72",
"E  c #729F72",
"W  c #7FA47D",
"Q  c #7FA67F",
"!  c #5BC15B",
"~  c #5EC45E",
"^  c #5FC55F",
"/  c #60C660",
"(  c #61C761",
")  c #62C862",
"_  c #63C963",
"`  c #64CA64",
"'  c #65CB65",
"]  c #66CC66",
"[  c #67CD67",
"{  c #6AD06A",
"}  c #6BD16B",
"|  c #79DF79",
" . c #808080",
".. c gray51",
"X. c #838383",
"o. c #848484",
"O. c gray52",
"+. c #868686",
"@. c #898989",
"#. c #8D8D8D",
"$. c #8E8E8E",
"%. c gray56",
"&. c #929292",
"*. c #939393",
"=. c #959595",
"-. c #979797",
";. c gray60",
":. c #9A9A9A",
">. c #9B9B9B",
",. c gray61",
"<. c gray62",
"1. c #9F9F9F",
"2. c #8BAB8B",
"3. c #8CAC8C",
"4. c #90AC95",
"5. c #99B299",
"6. c #9DB59D",
"7. c #A0A0A0",
"8. c gray64",
"9. c #A4A4A4",
"0. c gray67",
"q. c #AFAFAF",
"w. c #A6B9A6",
"e. c #A7BAA7",
"r. c #A8B6AA",
"t. c #AEB5AE",
"y. c #B1B1B1",
"u. c #B2B2B2",
"i. c gray70",
"p. c gray71",
"a. c #B6B6B6",
"s. c #B7B7B7",
"d. c #B1BEB2",
"f. c #B2BFB2",
"g. c #B9B9B9",
"h. c gray73",
"j. c #BCBCBC",
"k. c gray74",
"l. c #B3C0B3",
"z. c #BFC6BF",
"x. c #C3C0BE",
"c. c #C0C0C0",
"v. c #C1C1C1",
"b. c gray77",
"n. c #C5C5C5",
"m. c #C6C6C6",
"M. c #C7C7C6",
"N. c gray78",
"B. c #C8C8C8",
"V. c gray79",
"C. c #CACAC9",
"Z. c #C9CACB",
"A. c #CACACA",
"S. c #CBCBCB",
"D. c gray80",
"F. c None",
/* pixels */
"F.d u e e e e t e t e e t e e e t e e t e t e e t e e e t u d F.",
"d u +.p.A.D.D.D.D.D.D.D.D.D.D.S.D.D.D.D.D.D.D.D.D.D.S.B.i.X.t d ",
"u @.D.D.D.D.D.D.D.D.H : B J Q d.D.D.D.D.D.H ; B J Q l.D.D.D.g u ",
"e k.D.D.D.D.D.D.D.D.7 ^ @ K N ; 5.D.D.D.S.7 / O K N = w.D.D.s.e ",
"e D.D.D.D.D.D.D.S.w.3 } } @ | I x Q D.D.w.4 } } @ | L k Q D.D.e ",
"e D.D.D.D.D.D.D.B.W N } } } O ' _ N J D.J A } } } O ' _ N Y D.e ",
"e D.D.D.D.D.D.D.D.0 U } } ' O b m v & l.7 ^ } } / @ b m c & D.e ",
"e D.D.D.D.D.D.D.D.X } } ' * b m m 3 W e.> } } ` ; b m m 2 Q D.e ",
"e D.D.D.D.D.D.D.D.G V } ' ; b m l 0 D.D.S Z } ` ; b m k B S.D.e ",
"t D.D.D.D.D.D.D.D.v.: _ * m m m : 5.D.D.d.; / + b m m : w.S.D.e ",
"e D.D.D.D.D.D.D.D.D.Y M ; z 4 > G D.D.D.D.Y V ; z 4 : J D.D.D.e ",
"e D.D.D.D.D.D.D.D.D.D.1 X B Y 3.z.D.D.D.D.z.7 X B Y 5.z.D.D.D.e ",
"t D.D.D.D.D.D.D.D.D.l.6.D.D.S.S.D.D.D.D.D.l.e.D.D.S.D.S.D.D.D.e ",
"e D.D.D.D.D.D.D.D.D.H ; 0 G R d.D.D.D.D.D.H : 0 G Q l.S.D.D.D.e ",
"e D.D.D.D.D.D.D.D.D.7 ^ 1 P C ; 2.A.D.D.D.7 ^ @ P N ; 5.D.D.D.e ",
"t D.D.D.D.D.D.D.D.w.4 } ' @ | ! b Q x.D.w.4 } } @ | I x Q D.D.e ",
"  Z.D.D.D.D.D.D.D.J A } { { + ] I N F M.J A } } } O ] I N J D.e ",
"  @.V.D.D.D.D.D.D.7 ~ } { ] @ n n v @ r.7 ^ } } _ @ n m x & D.e ",
"t &.$.D.D.D.D.D.D.X } } ' @ n n m 2 T d.> } } ' & b n m : 2.D.e ",
"r D.@.7.D.D.D.D.D.F V } ] $ n n l 0 A.D.G Z } ' * b n k B D.D.e ",
"r D.c...h.D.D.D.A.t.@ U + n n n : 4.D.D.l.; _ @ n m m * w.S.S.t ",
"r D.D.0.&.D.D.S.M.-.q N , v 5 : G D.D.D.A.Y m ; z 4 : J S.S.S.w ",
"t D.D.D.#.g.D.D.8.s j.< ; 0 Y 5.D.D.D.D.D.D.7 = B T 5.D.D.D.S.t ",
"r D.D.D.9.>.D.c.a u.D.D.D.D.D.D.D.D.D.D.D.D.S.D.D.D.D.D.D.S.S.w ",
"r D.D.D.p.&.D. .:.D.D.D.D.D.D.D.D.D.D.D.D.D.D.D.D.D.D.D.D.D.D.t ",
"r D.D.D.N.;.9.o.S.D.D.D.D.D.D.D.D.D.D.D.D.D.D.D.D.D.D.D.D.D.D.t ",
"r D.D.n.c.7.j g.D.D.D.D.D.D.D.D.D.D.D.D.D.D.D.D.D.D.D.D.S.S.D.t ",
"r V.V.=.p o...#.u.D.D.D.D.D.D.D.D.D.D.D.D.D.D.D.D.D.D.D.D.S.M.w ",
"r s.D.g.7.h ,.%.<.A.D.D.D.D.D.D.D.D.D.D.D.D.D.D.D.D.D.D.D.S.t.e ",
"i o.D.D.D.n.D.D.A.D.D.D.D.D.D.D.D.D.D.D.D.D.D.D.D.D.D.D.D.S.d u ",
"d t  .y.V.A.D.D.D.D.D.D.D.D.D.D.D.D.D.D.D.D.D.D.D.D.D.N.0.g e f ",
"F.d y r r r r r e e e e e e e e e e e e e e e e e e e e e u d F."
};
