/* XPM */
static char *dynamicaCreateActiveHullArray[] = {
/* columns rows colors chars-per-pixel */
"32 32 231 2 ",
"   c #013401",
".  c #083F03",
"X  c #0E3E0E",
"o  c #2E3F2E",
"O  c #313131",
"+  c #323232",
"@  c #154E0B",
"#  c #155D00",
"$  c #195E04",
"%  c #164316",
"&  c #1D491D",
"*  c #1F4A1F",
"=  c #265D13",
"-  c #1E6E01",
";  c #247902",
":  c #267905",
">  c #287908",
",  c #2B780D",
"<  c #337F14",
"1  c #397C18",
"2  c #244E24",
"3  c #244F24",
"4  c #385D38",
"5  c #3A5F3A",
"6  c #34602F",
"7  c #3F662B",
"8  c #3A7725",
"9  c #3C7A27",
"0  c #397129",
"q  c #3E623E",
"w  c #3F633F",
"e  c #42533A",
"r  c #43543A",
"t  c #43553A",
"y  c #40612F",
"u  c #444444",
"i  c gray27",
"p  c #464646",
"a  c #454944",
"s  c #464845",
"d  c #484848",
"f  c #494949",
"g  c gray30",
"h  c #4E4E4E",
"j  c gray36",
"k  c #456745",
"l  c #4B6B4B",
"z  c #4A7145",
"x  c #517051",
"c  c #527052",
"v  c #5E795E",
"b  c #6A6A6A",
"n  c #637D63",
"m  c #647E64",
"M  c #727272",
"N  c gray45",
"B  c gray47",
"V  c gray48",
"C  c #7C7C7C",
"Z  c #339900",
"A  c #3C8D17",
"S  c #3F9815",
"D  c #3E8324",
"F  c #44991B",
"G  c #45832E",
"H  c #498A2F",
"J  c #479722",
"K  c #479028",
"L  c #4E9C29",
"P  c #529F2C",
"I  c #4C833A",
"U  c #528D3C",
"Y  c #4E9032",
"T  c #569B37",
"R  c #579B37",
"E  c #569D34",
"W  c #539338",
"Q  c #579A38",
"!  c #56983A",
"~  c #589A3A",
"^  c #58A532",
"/  c #5AA536",
"(  c #5CA538",
")  c #5CA43A",
"_  c #5EA73A",
"`  c #5FA83B",
"'  c #5F9D44",
"]  c #63A345",
"[  c #67AA45",
"{  c #66AA46",
"}  c #67AA46",
"|  c #68AB46",
" . c #74AF56",
".. c #76A95E",
"X. c #7BB15F",
"o. c #6B836B",
"O. c #6E856C",
"+. c #6E866E",
"@. c #77926D",
"#. c #78996B",
"$. c #7CB161",
"%. c #7EB165",
"&. c #7EB264",
"*. c #82B369",
"=. c #82B36A",
"-. c #85B46D",
";. c #87A97A",
":. c #8CAF7C",
">. c #89B176",
",. c #8CB777",
"<. c #8CB27A",
"1. c #92B97E",
"2. c #808080",
"3. c gray51",
"4. c #838383",
"5. c #848484",
"6. c gray52",
"7. c #868686",
"8. c #898989",
"9. c #8D8D8D",
"0. c #8E8E8E",
"q. c gray56",
"w. c #819481",
"e. c #879785",
"r. c #879887",
"t. c #899A89",
"y. c #8A9A8A",
"u. c #929292",
"i. c #939393",
"p. c #959595",
"a. c gray60",
"s. c #9A9A9A",
"d. c #9B9B9B",
"f. c gray61",
"g. c gray62",
"h. c #9F9F9F",
"j. c #93AD89",
"k. c #96B984",
"l. c #98BB86",
"z. c #9AB78D",
"x. c #99BB88",
"c. c #9ABB89",
"v. c #98A895",
"b. c #99A699",
"n. c #9CA99C",
"m. c #9EA99E",
"M. c #9EAA9E",
"N. c #9EB197",
"B. c #A4BF96",
"V. c #A6BF99",
"C. c #A6BF9A",
"Z. c #A0A0A0",
"A. c #A4A4A4",
"S. c gray67",
"D. c #AFAFAF",
"F. c #A7B1A7",
"G. c #A8B3A8",
"H. c #AEB6AE",
"J. c #B1B1B1",
"K. c #B2B2B2",
"L. c gray70",
"P. c gray71",
"I. c #B6B6B6",
"U. c #B7B7B7",
"Y. c #B2B8B2",
"T. c #B3BAB3",
"R. c #B5BAB5",
"E. c #B9B9B9",
"W. c gray73",
"Q. c gray74",
"!. c #A8C09C",
"~. c #AAC09E",
"^. c #ABC1A0",
"/. c #B1C3A8",
"(. c #B2C3A9",
"). c #B3C4AA",
"_. c #B8C1B5",
"`. c #BBC2B9",
"'. c #BDC7B8",
"]. c #BEC7B9",
"[. c #BCC0BC",
"{. c #C0C0C0",
"}. c #C1C1C1",
"|. c gray77",
" X c #C5C5C5",
".X c #C6C6C6",
"XX c gray78",
"oX c #C3C9C0",
"OX c #C5CAC2",
"+X c #C7CAC5",
"@X c #C7CAC6",
"#X c #C8CBC6",
"$X c #C8CBC7",
"%X c #C8C8C8",
"&X c gray79",
"*X c #C9CBC8",
"=X c #CACACA",
"-X c #CBCBCB",
";X c gray80",
":X c #CCCECC",
">X c gray81",
",X c #D0D0D0",
"<X c gray82",
"1X c #D2D2D2",
"2X c LightGray",
"3X c gray83",
"4X c #D5D5D5",
"5X c gray84",
"6X c #D7D7D7",
"7X c gray85",
"8X c #DADADA",
"9X c gray86",
"0X c gainsboro",
"qX c #DDDDDD",
"wX c #DFDFDF",
"eX c gray88",
"rX c #E1E1E1",
"tX c #E2E2E2",
"yX c gray90",
"uX c #E6E6E6",
"iX c #E7E7E7",
"pX c gray91",
"aX c #E9E9E9",
"sX c #EAEAEA",
"dX c #ECECEC",
"fX c #EEEEEE",
"gX c gray95",
"hX c #F3F3F3",
"jX c gray97",
"kX c #F9F9F9",
"lX c None",
/* pixels */
"lXM g i i i i d i p p p p p i s t 7 7 e s i s i i s i i p g N lX",
"M g 7.P.=X;X;X;X;X;X;X;X@X!.=.} / Y ' } ` | $.,.!.].:X.XL.5.d M ",
"g 8.;X;X;X;X;X;X;X;X@X%.^ ( -./.+.v 4 r.oX^.l...] ) &.:X;X;XB g ",
"i Q.;X;X;X;X;X;X;X-Xx.T . X w.c q R.n.5   n.+.& 3 P !.:X;X;XU.i ",
"i ;X;X;X;X;X;X;X;X;XF @ o.t.l F.9XqX8X2XF.x 3 Y.z F ;X;X;X;X-Xi ",
"i ;X;X;X;X;X;X;X;X-.A b.k * ;XeXpXsXuXqX,XR.n.t.8  .;X;X;X;X;Xi ",
"i ;X;X;X;X;X;X;X;X@XZ _.% w 8XuXgXjXfXrX4X-X;Xn K x.;X;X;X;X;Xi ",
"i ;X;X;X;X;X;X;X*X=XH D o.o.8XiXgXkXfXtX4X-X;X4 L '.;X;X;X;X;Xi ",
"i ;X;X;X;X;X;X;X;X;X].J 0 v.6XrXaXdXuXqX,X-XH.; &.:X;X=X/.1.c.e ",
"d ;X;X;X;X;X;X;X;X;X;XC.R : z.6XqXwX9X2X;X`., ! oXC.*.| / Y ' 1 ",
"i ;X;X;X;X;X;X;X;X;X;X;X;Xj.Z N.,X2X,X-X[.> ! $.^ ( -./.+.v 4 o ",
"i ;X;X;X;X;X;X;X;X;X;X;X;X;X;.A ' %.%.W - E k./ . X w.x q R.n.4 ",
"d ;X;X;X;X;X;X;X;X;X*X/.1.c.).>.9 # $ I <.'.F @ o.t.l G.9XqX8X2X",
"i ;X;X;X;X;X=X|.C.*.} / Y ' } ` { %.<.B.'.-.A b.k * :XwXpXsXuX9X",
"i ;X;X;X;X#X&.P ( -./.+.v 4 r.oX~.k...] _ X.Z `.% y 8XuXhXjXfXrX",
"d ;X;X;X;Xc.) @ X w.c q T.n.4   n.o.& 3 P G.H D +.m 8XpXhXkXfXrX",
"O =X;X;X;XF @ o.t.l F.9X9X8X2XF.c 3 T.z S ;X].J 0 v.6XrXsXdXuXqX",
"+ 8.=X;X-.< b.k * ;XwXpXsXuX9X,XR.n.t.8  .;X;XC.T : z.6XqXqX9X2X",
"i i.9.;X@XZ _.% w 8XpXgXjXfXwX6X;X;Xm K c.;X;X;X;Xj.Z N.1X1X,X;X",
"i ;X8.Z.;XH D o.m 8XpXgXkXfXrX6X;X;X6 L ].;X;X;X;X;X;.A U *.&.W ",
"i ;X}.3.E.].J 0 v.6XrXaXsXpX9X2X;XH.: &.;X;X;X;X;X;X;X<.G # $ = ",
"d ;X;XS.u.;X!.T : z.6XqXwX9X2X;X`., ~ *X;X;X;X;X;X;X;X;X-X-X;Xi ",
"i ;X;X;X9.E.;X;X@.Z N.,X2X,X;X[.> ! oX;X;X;X;X;X;X;X;X;X;X;X;Xi ",
"i ;X;X;XA.d.;X{.b #.A U *.&.W - E ;X;X;X;X;X;X;X;X;X;X;X;X;X;Xi ",
"d ;X;X;XP.u.;X2.s.;X<.G # $ I :.].;X;X;X;X;X;X;X;X;X;X;X;X;X;Xi ",
"i ;X;X;XXXs.A.5.-X;X;X;X;X;X;X;X;X;X;X;X;X;X;X;X;X;X;X;X;X;X;Xi ",
"i ;X;X.X{.g.C E.;X;X;X;X;X;X;X;X;X;X;X;X;X;X;X;X;X;X;X;X;X;X;Xi ",
"d =X=Xi.j 7.3.9.K.;X;X;X;X;X;X;X;X;X;X;X;X;X;X;X;X;X;X;X;X-X.Xi ",
"i U.;XE.Z.B g.q.g.=X;X;X;X;X;X;X;X;X;X;X;X;X;X;X;X;X;X;X;X-XD.i ",
"g 5.;X;X;X|.;X;X=X-X;X;X;X;X;X;X;X;X;X;X;X;X;X;X;X;X;X;X;X-XN g ",
"N d 2.K.XX;X;X;X;X;X;X;X;X;X;X;X;X;X;X;X;X;X;X;X;X;X;XXXS.B p N ",
"lXM g i i i i i i i i i i i i i i i i i i i i i i i i i p g M lX"
};
