/* XPM */
static char *dynamicaClearInitialState[] = {
/* columns rows colors chars-per-pixel */
"32 32 139 2 ",
"   c #752C06",
".  c #663300",
"X  c #6A3807",
"o  c #6C3D0D",
"O  c #703900",
"+  c #75300A",
"@  c #78340E",
"#  c #773D16",
"$  c #794000",
"%  c #794D06",
"&  c #6F4112",
"*  c #794F26",
"=  c #7F5932",
"-  c #454545",
";  c #4C4C4C",
":  c #727272",
">  c #797979",
",  c #960501",
"<  c #990202",
"1  c #930B04",
"2  c #9F0D02",
"3  c #9C0B0B",
"4  c #891705",
"5  c #951A00",
"6  c #93160C",
"7  c #9D1313",
"8  c #9F1919",
"9  c #A00C00",
"0  c #A21301",
"q  c #A61B00",
"w  c #A01C1C",
"e  c #85240D",
"r  c #9B231D",
"t  c #A72407",
"y  c #9E2723",
"u  c #923727",
"i  c #A22424",
"p  c #A42D2D",
"a  c #A63434",
"s  c #A83E3E",
"d  c #834600",
"f  c #8C4D00",
"g  c #974D00",
"h  c #8C5900",
"j  c #83590A",
"k  c #965300",
"l  c #A05900",
"z  c #8C660D",
"x  c #966300",
"c  c #967310",
"v  c #AD6200",
"b  c #A06D00",
"n  c #B36600",
"m  c #BC6D00",
"M  c #AA7313",
"N  c #A07E12",
"B  c #904F37",
"V  c #994538",
"C  c #DC6E00",
"Z  c #C27000",
"A  c #E37200",
"S  c #E87700",
"D  c #EA7A00",
"F  c #A94141",
"G  c #AC4A4A",
"H  c #A05247",
"J  c #8C6C4C",
"K  c #927659",
"L  c #997F66",
"P  c #AC6964",
"I  c #B36666",
"U  c #B36C6C",
"Y  c #B67575",
"T  c #B97D7D",
"R  c #A58715",
"E  c #A98D16",
"W  c #B98618",
"Q  c #BCA61D",
"!  c #DD8200",
"~  c #DB8B00",
"^  c #C69300",
"/  c #CB9800",
"(  c #C09B1C",
")  c #E38600",
"_  c #E19700",
"`  c #E69C00",
"'  c #E89E00",
"]  c #F49200",
"[  c #FB9700",
"{  c #FF9900",
"}  c #DFAC00",
"|  c #DCA21B",
" . c #DFBF1E",
".. c #EBA300",
"X. c #F1B200",
"o. c #F1BE00",
"O. c #CBBA22",
"+. c #DBB223",
"@. c #F5C402",
"#. c #FAC700",
"$. c #FFCC00",
"%. c #FAD00A",
"&. c #D9CD26",
"*. c #E7C327",
"=. c #E8C628",
"-. c #FFE526",
";. c #F4F12F",
":. c #FEFE33",
">. c #A58473",
",. c #AD8277",
"<. c #A98578",
"1. c #AA8A7C",
"2. c #A6927F",
"3. c #838383",
"4. c #898989",
"5. c #AE8C81",
"6. c #BA8484",
"7. c #B28881",
"8. c #BC8C8C",
"9. c #AC9C8C",
"0. c #BD9392",
"q. c #BF9999",
"w. c #B2A699",
"e. c gray68",
"r. c #B9AFA6",
"t. c #B4B4B4",
"y. c #BFB9B2",
"u. c gray74",
"i. c #C19D9D",
"p. c #C2A3A3",
"a. c #C3A9A9",
"s. c #C6B5B5",
"d. c #C7BABA",
"f. c #C9BCBC",
"g. c #C6C2BF",
"h. c #C6C6C6",
"j. c #CAC4C4",
"k. c #CCCCCC",
"l. c None",
/* pixels */
"l.: ; - - - - - - - - - - - - - - - - - - - - - - - - - - ; : l.",
": ; 4.t.h.k.k.k.k.k.k.k.k.k.k.k.k.k.k.k.k.k.k.k.k.k.k.h.t.4.- : ",
"; 4.k.k.k.k.k.k.k.k.k.h.k.j.k.k.k.k.k.k.k.k.k.k.k.k.k.k.k.k.> ; ",
"- u.k.k.k.k.k.k.k.k.j.T s w < < < < w a 6.k.k.k.k.k.k.k.k.k.t.- ",
"- k.k.k.k.k.k.k.j.Y w < < < , , < < , < < w 6.k.k.k.k.k.k.k.k.- ",
"- k.k.k.k.k.k.a.y < < < y P s.k.k.s.Y a < < < p p.k.k.k.k.k.k.- ",
"- k.k.k.k.k.p.3 < , 4 ( R j . = K 9.s.k.p.s < < w T k.k.k.k.k.- ",
"- k.k.k.k.p.w < < ~ @.o ;.:.:.&.Q c % K k.k.U < < < s.k.k.k.k.- ",
"- k.k.k.j.p < 7 g $.$.@.o ;.:.:.:.:.:.R J q.3 < < < a j.k.k.k.- ",
"- k.k.k.Y < < B ^ $.$.$.@.X :.:.:.:.:.:.M 1 < 3 U < < 6.k.k.k.- ",
"- k.k.k.7 < G o @.$.$.$.$.%.X :.:.:.:.*.2 < 1 7.k.F < i j.k.k.- ",
"- k.k.6.< < <.x $.$.$.$.$.$.%.X :.:.*.t < 2 W o w.p.< < 0.k.k.- ",
"- k.k.a < a J ^ $.$.$.$.$.$.$.%.X +.0 < t =.:.O.z 5.p < F k.k.- ",
"- k.k.0 < Y o @.$.$.$.$.$.$.$.#.  , < 1 | -.-.-.&.N u < w k.k.- ",
"- k.k.< < 5.x $.$.$.$.$.$.$.$.` , < 2 C { { { { { D   < 3 k.k.- ",
"- k.k.< < J ^ $.$.$.$.$.$.$..., < 0 S { { { { { { k >.< < k.k.- ",
"- k.k.< < & @.$.$.$.$.$.$.` q < < D { { { { { { Z = g.< < k.k.- ",
"- k.k., < & } $.$.$.$.$...0 < 1 D { { { { { { [ d r.p.< 3 k.k.- ",
"- k.k.7 , H b $.$.$.$.' 9 < , A { { { { { { { v K k.I < w k.k.- ",
"- k.k.s < p B / $.$.' q < 9 + ] { { { { { { ! o g.k.i < G k.k.- ",
"- k.k.8.< < 7.h $...9 < q   ] { { { { { { { l 2.k.p.< < i.k.k.- ",
"- k.k.j.w < s J l t < 9 _ o ] { { { { { { Z = k.j.p < i j.k.j.- ",
"- k.k.k.Y < < U < < q ..X.] { { { { { { ] d r.k.6.< < 6.k.k.k.- ",
"- k.k.k.k.p < , < < ' o.& ] { { { { { { v L k.0.7 < a k.k.k.k.- ",
"- k.k.k.k.a.i < < e / X.] { { { ) m k $ * g.Y 3 < i s.k.k.k.k.- ",
"- k.k.k.k.k.p.w < < 5 @ C n f O * K 9.s.i.a < < i p.k.k.k.k.k.- ",
"- k.k.k.k.k.k.d.a < < < 6 V ,.s.f.q.U p 3 < < s f.k.k.k.k.k.k.- ",
"- h.k.k.k.k.k.k.j.6.i < 1 , < < < < < < < i 6.j.k.k.k.k.k.k.h.- ",
"- t.k.k.k.k.k.k.k.k.j.6.F w 3 < < 3 w G 8.j.k.k.k.k.k.k.k.k.t.- ",
"; 3.k.h.k.k.k.k.k.k.k.k.k.k.k.k.k.k.k.k.k.k.k.k.k.k.k.k.k.h.: ; ",
": ; 3.t.j.k.k.k.k.k.k.k.k.k.k.k.k.h.k.k.h.k.k.k.k.k.k.h.e.> - : ",
"l.: ; - - - - - - - - - - - - - - - - - - - - - - - - - - ; : l."
};
