/* XPM */
static char *dynamicaCreatePassiveSphereArray[] = {
/* columns rows colors chars-per-pixel */
"32 32 169 2 ",
"   c #722E01",
".  c #732F01",
"X  c #753001",
"o  c #773101",
"O  c #793101",
"+  c #7D3301",
"@  c #7F3401",
"#  c #7F3A0D",
"$  c #444444",
"%  c gray27",
"&  c #464646",
"*  c #484848",
"=  c #494949",
"-  c gray30",
";  c #4E4E4E",
":  c #727272",
">  c gray45",
",  c gray47",
"<  c gray48",
"1  c #803401",
"2  c #823501",
"3  c #843601",
"4  c #863701",
"5  c #883701",
"6  c #8A3801",
"7  c #8C3901",
"8  c #8F3A01",
"9  c #913B01",
"0  c #933C01",
"q  c #953D01",
"w  c #973D01",
"e  c #993E01",
"r  c #9A3F01",
"t  c #9C4001",
"y  c #9E4001",
"u  c #8C471A",
"i  c #A04101",
"p  c #A24201",
"a  c #A44301",
"s  c #A64301",
"d  c #A84401",
"f  c #A94501",
"g  c #AB4501",
"h  c #AD4601",
"j  c #AF4701",
"k  c #B14801",
"l  c #B34801",
"z  c #B54901",
"x  c #B64A01",
"c  c #B84B01",
"v  c #BA4B01",
"b  c #BC4C01",
"n  c #BE4D01",
"m  c #985326",
"M  c #A36033",
"N  c #C04E01",
"B  c #C24E01",
"V  c #C34F01",
"C  c #C55001",
"Z  c #C75101",
"A  c #C95101",
"S  c #CB5201",
"D  c #CD5301",
"F  c #CF5401",
"G  c #D05401",
"H  c #D25501",
"J  c #D45601",
"K  c #D65701",
"L  c #D85701",
"P  c #DA5801",
"I  c #DD5A01",
"U  c #DF5A01",
"Y  c #E15B01",
"T  c #E35C01",
"R  c #E55D01",
"E  c #E75D01",
"W  c #E95E01",
"Q  c #EB5F01",
"!  c #EC6001",
"~  c #EE6001",
"^  c #F06101",
"/  c #F26201",
"(  c #F46301",
")  c #F66301",
"_  c #F86401",
"`  c #F96501",
"'  c #FB6601",
"]  c #FD6601",
"[  c #FF6600",
"{  c #FF6803",
"}  c #FF6A05",
"|  c #FF6B07",
" . c #FF6C0A",
".. c #FF6D0C",
"X. c #FF6F0E",
"o. c #FF7010",
"O. c #FF7112",
"+. c #FF7314",
"@. c #FF7417",
"#. c #FF7519",
"$. c #FF771B",
"%. c #FF781D",
"&. c #FF791F",
"*. c #FF7A21",
"=. c #FF7C24",
"-. c #FF7D26",
";. c #FF7E28",
":. c #AC6B40",
">. c #B5764D",
",. c #FF802A",
"<. c #FF812C",
"1. c #FF822E",
"2. c #FF8431",
"3. c #FF8533",
"4. c #FF8635",
"5. c #FF8737",
"6. c #FF8939",
"7. c #FF8A3B",
"8. c #FF8B3E",
"9. c #BC8059",
"0. c #FF8E42",
"q. c #FF8F44",
"w. c #FF9046",
"e. c #FF9248",
"r. c #FF934A",
"t. c #FF964F",
"y. c #FF9751",
"u. c #FF9853",
"i. c #FF9A55",
"p. c #FF9C5A",
"a. c #FF9D5C",
"s. c #FF9F5E",
"d. c #C28B66",
"f. c #C79472",
"g. c #CB9E7F",
"h. c #FFA060",
"j. c #FFA162",
"k. c #FFA364",
"l. c #FFA569",
"z. c #FFA76B",
"x. c #FFA96F",
"c. c #FFAA71",
"v. c #FFB07A",
"b. c #808080",
"n. c #838383",
"m. c #848484",
"M. c #868686",
"N. c #898989",
"B. c gray67",
"V. c #AFAFAF",
"C. c #B1B1B1",
"Z. c gray70",
"A. c gray71",
"S. c #B6B6B6",
"D. c #B7B7B7",
"F. c gray74",
"G. c #D0AF99",
"H. c #D1B7A6",
"J. c #D0BEB2",
"K. c #CFC5BF",
"L. c #C5C5C5",
"P. c #C6C6C6",
"I. c gray78",
"U. c #C8C8C8",
"Y. c gray79",
"T. c #CACACA",
"R. c #CBCBCB",
"E. c gray80",
"W. c None",
/* pixels */
"W.: - % % % % * & & & & & & & & & & & & & & & & & & & & & ; : W.",
": - M.A.T.E.E.E.E.E.E.E.E.E.E.E.E.E.E.E.E.E.E.E.E.E.E.I.Z.n.= : ",
"- N.E.E.E.E.E.E.E.E.E.E.E.E.E.E.E.E.E.E.E.E.E.E.E.E.E.E.E.E., ; ",
"% F.E.E.E.K.>.2       :.G.E.E.E.E.E.E.G.:.      # >.J.E.E.E.S.% ",
"% E.E.T.H.# v ] | _ E j 3 >.E.E.E.E.>.q H X.] ) L i # J.E.E.E.% ",
"% E.E.K.# Z &.1.;.$.] T B 1 G.E.L.G.i ..-.2.;.+.( P r 2 J.E.E.% ",
"% E.E.>.x $.7.u.y.5.+.^ G s # E.U.2 E -.q.i.r.;.| E V 6 >.E.E.% ",
"% E.E.2 ) -.r.c.l.q.*._ L z O G.G.8 ..4.p.v.s.5.O.Q A s # E.E.% ",
"% E.E.. ` &.q.s.s.8.$.( H l @ d.d.h | 1.y.j.i.4...W A s . E.E.% ",
"* E.E.. ~ X.,.7.4.=.| W A f O f.f.r _ @.2.6.2.*.` U N i . E.E.% ",
"% E.E.u F / | O.o.| Q L v r   H.H.1 T _ ..@.+.' E F k 7 u E.E.% ",
"% E.E.d.e L E Q Q E J N s 1 m E.E.m g P E ^ ! U G v r . d.E.E.% ",
"& E.E.I.m w A F F V v s 1 1 H.E.E.H.2 p A H A B z r O m P.E.E.% ",
"& E.E.E.K.M 1 e r e 6 O u H.E.E.E.E.J.u 6 p t q 3 . M K.E.E.E.% ",
"& E.E.E.E.E.G.>.M M M G.E.E.E.E.E.E.E.E.g.M M M >.G.E.E.E.E.E.% ",
"& E.E.E.E.E.E.E.E.E.E.E.E.E.E.E.E.E.E.E.E.E.E.E.E.E.E.E.E.E.E.% ",
"% E.E.E.E.E.G.>.M M M G.E.E.E.E.E.E.E.E.G.M M M >.G.E.E.E.E.E.% ",
"% E.E.E.I.M 9 Z L G b 9 u H.E.E.E.E.H.u i G L D k 3 M K.E.E.E.% ",
"% E.E.K.m z +.*.$.o.) U i 2 H.E.E.H.# V $.*.$.| Q L 9 m K.E.E.% ",
"& E.E.d.k +.4.q.w.;.+.! H q m E.E.m V *.8.r.8.=.] T N 5 d.E.E.% ",
"& E.E.u Q =.r.z.k.q.$.( G k . H.H.5 | 2.i.c.p.5.+.W A p u E.E.% ",
"& E.E.. ` =.r.l.k.q.$.( L z + f.f.g X.2.i.x.p.4.O.W A s . E.E.% ",
"= E.E.. ( @.4.q.q.2.o.Q F g + d.d.g _ $.8.r.8.*.] T C p   E.E.% ",
"= E.E.2 L ` +.*.$.o.( U B i . G.G.5 W | @.*.$.| ~ H x 9 1 E.E.% ",
"% E.E.>.y T ~ ) _ Q U A g 4 1 E.E.+ n W ( _ ( W L B p O >.E.E.& ",
"% E.E.J.# p H L L F N k 0 . G.E.E.G.7 Z J L L A b s @ # J.E.E.& ",
"% E.E.E.H.# 9 x z k i 1 . >.E.E.E.E.>.2 r v k h r @ # H.E.E.E.& ",
"= U.E.E.E.J.>.#   . . :.G.E.E.E.E.E.E.G.:..     # >.J.E.E.E.L.& ",
"& S.E.E.E.E.E.E.E.E.E.E.E.E.E.E.E.E.E.E.E.E.E.E.E.E.E.E.E.E.V.& ",
"; m.E.E.E.E.E.E.E.E.E.E.E.E.E.E.E.E.E.E.E.E.E.E.E.E.E.E.E.Y.: = ",
": = b.C.U.E.E.E.E.E.E.E.E.E.E.E.E.E.E.E.E.E.E.E.E.E.E.I.B.< & : ",
"W.: - % % % & & % % % % % % % % % % % % & $ & $ & $ & & & ; : W."
};
