/* XPM */
static char *dynamicaCreateActiveMesh[] = {
/* columns rows colors chars-per-pixel */
"32 32 212 2 ",
"   c #252525",
".  c #393939",
"X  c #016701",
"o  c #026802",
"O  c #036803",
"+  c #056B05",
"@  c #076A07",
"#  c #076D07",
"$  c #0A700A",
"%  c #0B710B",
"&  c #0C720C",
"*  c #0D730D",
"=  c #0E740E",
"-  c #116F11",
";  c #107610",
":  c #117711",
">  c #147A14",
",  c #157B15",
"<  c #167C16",
"1  c #177D17",
"2  c #187E18",
"3  c #197F19",
"4  c #434343",
"5  c #444444",
"6  c gray27",
"7  c #464646",
"8  c #484848",
"9  c #494949",
"0  c gray30",
"q  c #4E4E4E",
"w  c gray35",
"e  c #5A5A5A",
"r  c gray36",
"t  c #626262",
"y  c #646464",
"u  c #6F6F6F",
"i  c gray44",
"p  c #717171",
"a  c #727272",
"s  c gray45",
"d  c #747474",
"f  c #767676",
"g  c gray47",
"h  c gray48",
"j  c gray49",
"k  c #7E7E7E",
"l  c #1A801A",
"z  c #1C821C",
"x  c #1D831D",
"c  c #1E841E",
"v  c #1F851F",
"b  c #228822",
"n  c #248A24",
"m  c #298F29",
"M  c #2C922C",
"N  c #2D932D",
"B  c #2F952F",
"V  c #3E853E",
"C  c #329832",
"Z  c #369C36",
"A  c #379D37",
"S  c #399F39",
"D  c #3AA03A",
"F  c #3BA13B",
"G  c #3FA53F",
"H  c #458247",
"J  c #44814A",
"K  c #498B49",
"L  c #518B51",
"P  c #508E50",
"I  c #559155",
"U  c #569156",
"Y  c #589258",
"T  c #599359",
"R  c #5A935A",
"E  c #5D955D",
"W  c #40A640",
"Q  c #41A741",
"!  c #43A943",
"~  c #47AD47",
"^  c #49AF49",
"/  c #4AB04A",
"(  c #4BB14B",
")  c #4CB24C",
"_  c #4DB34D",
"`  c #4EB44E",
"'  c #4FB54F",
"]  c #50B650",
"[  c #51B751",
"{  c #53B953",
"}  c #54BA54",
"|  c #55BB55",
" . c #57BD57",
".. c #58BE58",
"X. c #59BF59",
"o. c #658865",
"O. c #609660",
"+. c #619761",
"@. c #629762",
"#. c #659665",
"$. c #659965",
"%. c #6D9C6D",
"&. c #6E9D6E",
"*. c #73A073",
"=. c #78A278",
"-. c #7AA37A",
";. c #7FA67F",
":. c #5AC05A",
">. c #5BC15B",
",. c #5CC25C",
"<. c #5DC35D",
"1. c #5EC45E",
"2. c #5FC55F",
"3. c #60C660",
"4. c #61C761",
"5. c #62C862",
"6. c #63C963",
"7. c #64CA64",
"8. c #65CB65",
"9. c #67CD67",
"0. c #68CE68",
"q. c #69CF69",
"w. c #6AD06A",
"e. c #6BD16B",
"r. c #6CD26C",
"t. c #6DD36D",
"y. c #6ED46E",
"u. c #6FD56F",
"i. c #70D670",
"p. c #71D771",
"a. c #73D973",
"s. c #74DA74",
"d. c #75DB75",
"f. c #76DC76",
"g. c #77DD77",
"h. c #78DE78",
"j. c #7BE17B",
"k. c #7CE27C",
"l. c #7EE47E",
"z. c #7FE57F",
"x. c #808080",
"c. c gray51",
"v. c #838383",
"b. c #848484",
"n. c gray52",
"m. c #868686",
"M. c gray53",
"N. c #898989",
"B. c gray54",
"V. c gray57",
"C. c #959595",
"Z. c gray59",
"A. c #9A9A9A",
"S. c #9B9B9B",
"D. c gray61",
"F. c #9D9D9D",
"G. c #86A986",
"H. c #8DAC8D",
"J. c #8EAD8E",
"K. c #8FAE8F",
"L. c #93A593",
"P. c #90AE90",
"I. c #91AE91",
"U. c #92AF92",
"Y. c #94B094",
"T. c #98B298",
"R. c #9CB49C",
"E. c #9DB49D",
"W. c gray63",
"Q. c gray64",
"!. c #A5A5A5",
"~. c gray65",
"^. c #A9A9A9",
"/. c #AAAAAA",
"(. c gray67",
"). c gray68",
"_. c #AFAFAF",
"`. c #A1B6A1",
"'. c #A9BAA9",
"]. c #B1B1B1",
"[. c #B2B2B2",
"{. c gray70",
"}. c gray71",
"|. c #B6B6B6",
" X c #B7B7B7",
".X c #B0BEB0",
"XX c gray72",
"oX c gray73",
"OX c #BBBBBB",
"+X c gray74",
"@X c #82E882",
"#X c #85EB85",
"$X c #B3C0B3",
"%X c #BAC3BA",
"&X c #BCC4BC",
"*X c #C1C1C1",
"=X c gray76",
"-X c #C3C3C3",
";X c #C0C6C0",
":X c #C2C7C2",
">X c #C5C5C5",
",X c #C6C6C6",
"<X c gray78",
"1X c #C6C9C6",
"2X c #C7CAC7",
"3X c #C8C8C8",
"4X c gray79",
"5X c #CACACA",
"6X c #CACBCA",
"7X c #CBCBCB",
"8X c gray80",
"9X c None",
/* pixels */
"9Xa 0 6 6 6 6 8 6 6 6 8 6 6 8 6 6 8 6 6 6 6 8 6 6 8 6 6 6 0 a 9X",
"a 0 m.}.5X8X8X8X8X8X8X8X8X8X8X8X8X8X8X8X8X8X8X8X8X8X8X1X}.v.8 a ",
"0 N.8X8X8X8X8X8X8X8X8X8X8X8X8X8X8X8X8X8X8X8X8X8X8X8X8X8X8X8Xh 0 ",
"6 +X8X8X8X8X8X8X8X8X8X8X8X8X8X8XY.K E.8X8X8X8X8X8X8X8X8X8X8X}.6 ",
"6 8X8X8X8X8X8X8X8X8X8X8X8X8X8XP.1 C @ %X8X8X8X8X8X8X8X5X8X8X5X6 ",
"6 8X8X8X8X8X8X8X8X`.Y.1X8X:X&.# M ' 1 # &.&X8X8X8XY.@.X 8X8X8X6 ",
"6 8X8X8X8X8X8X5X*.; 1 O P.$ W 1.3.1.:.{ D $ P.8XE 1 m 3 K.8X8X6 ",
"6 8X8X8X8X8X$XE b D D C n 1.9.q.e.9.6.,.} ( 1 K.& ( ! , Y.8X8X6 ",
"8 8X8X8X8X8XU m D ; $ W 1.q.y.d.s.a.e.6. .' ( ; S ) 1 &.8X8X8X6 ",
"6 8X8X8X8X8XO ) l G.O.( 6.y.f.l.l.f.y.7.:.{ ) ( ( ( = '.8X8X8X6 ",
". 8X8X8X8X8X@ ( v -.T :.8.r.h.@X#Xj.a.9.1.{ ) ) ) W # %X8X8X8X6 ",
"  F.8X8X8X8XT l D & P ..6.r.d.k.l.f.y.7.:.{ ' ) ) B O 5X8X8X8X6 ",
"4 a C.5X8X8X8X;.x G v } 1.9.y.a.f.y.e.2.:.' ( ) ) 1 K.8X8X8X8X6 ",
"6 -Xf A.8X8X8X8X-.; A ) ..3.8.q.e.9.6.:.{ ) ) ' C # -X8X8X8X8X6 ",
"6 8X-Xa /.8X8X8X8XP.V 3 [  .,.3.1.1.:.{ ' ) ' M + R.8X8X8X8X8X6 ",
"8 8X8X}.a =X8X8X8X8X8X$.b ' { }  .{ ' ' ) ) m J %X8X8X8X8X8X8X6 ",
"7 8X8X8XF.m.8X8X8X8X8X8XL 1 ! ) ) ) ' ) ^ x J 8X8X8X8X8X8X8X8X6 ",
"7 8X8X8X8Xk _.8X8X8X8X=X].o.@ N ' ) ~ M & #.8X8X8X8X8X8X8X8X8X6 ",
"7 8X8X8X8X].k 8X8X8X>X=XS.w L.U X X & T '.8X8X8X8X8X8X8X8X8X8X6 ",
"7 8X8X8X8X2Xm.].8X8X5X/.e XX8X8X8X8X8X8X8X8X8X8X8X8X8X8X8X8X8X6 ",
"7 8X8X8X8X8XW.V.8X8X=Xe ~.8X8X8X8X8X8X8X8X8X8X8X8X8X8X8X8X8X8X6 ",
"7 8X8X8X8X8X].M.2X8Xk c.8X8X8X8X8X8X8X8X8X8X8X8X8X8X8X8X8X8X8X6 ",
"7 8X8X8X8X8X=Xm.OX}.t >X8X8X8X8X8X8X8X8X8X8X8X8X8X8X8X8X8X8X8X6 ",
"7 8X8X8X8X8X5XN.}.f ~.8X8X8X8X8X8X8X8X8X8X8X8X8X8X8X8X8X8X8X8X6 ",
"7 8X8X8X8X5X8XF.N.k 8X8X8X8X8X8X8X8X8X8X8X8X8X8X8X8X8X8X8X8X8X6 ",
"7 8X8X8X<XB.s /.k Q.XX8X8X8X8X8X8X8X8X8X8X8X8X8X8X8X8X8X8X8X8X6 ",
"7 5X8X8X}.M.r y M.i y Z.>X8X8X8X8X8X8X8X8X8X8X8X8X8X8X8X8X8X8X6 ",
"7 5X8X8X5X8X5XM.D.XX).(.<X8X8X8X8X8X8X8X8X8X8X8X8X8X8X8X8X8X>X6 ",
"6  X8X8X8X8X8X5X8X8X8X8X8X8X8X8X8X8X8X8X8X8X8X8X8X8X8X8X8X8X_.6 ",
"0 m.8X5X8X8X8X8X8X8X8X8X8X8X8X8X8X8X8X8X8X8X8X8X8X8X8X8X8X5Xs 0 ",
"s 7 x.].5X8X8X8X8X8X8X8X8X8X8X8X8X8X8X8X8X8X8X8X8X8X8X>X(.h 7 s ",
"9Xs 0 6 6 6 6 6 6 6 6 6 6 6 6 6 6 6 6 6 6 6 6 6 6 6 6 6 6 0 a 9X"
};
