/* XPM */
static char *dynamicaActivate_Y[] = {
/* columns rows colors chars-per-pixel */
"32 32 247 2 ",
"   c black",
".  c #040E00",
"X  c #021400",
"o  c #0D1700",
"O  c #031E00",
"+  c #0C1A00",
"@  c #101010",
"#  c #0B2700",
"$  c #142B00",
"%  c #192C00",
"&  c #093F00",
"*  c #133700",
"=  c #1A3200",
"-  c #173B00",
";  c #1D281D",
":  c #183918",
">  c #242900",
",  c #233400",
"<  c #2F3700",
"1  c #2B3A00",
"2  c #202020",
"3  c #2B3B2B",
"4  c gray19",
"5  c #064F00",
"6  c #174300",
"7  c #1A4200",
"8  c #154900",
"9  c #005500",
"0  c #045A00",
"q  c #115000",
"w  c #185600",
"e  c #195A00",
"r  c #125F12",
"t  c #254200",
"y  c #244F00",
"u  c #2A4C00",
"i  c #275400",
"p  c #2D5700",
"a  c #225B00",
"s  c #2C5F00",
"d  c #3E5500",
"f  c #375B00",
"g  c #086C00",
"h  c #1C6300",
"j  c #1D6D00",
"k  c #1B6209",
"l  c #007200",
"z  c #097700",
"x  c #0A7E00",
"c  c #107000",
"v  c #187000",
"b  c #127D00",
"n  c #1B7C00",
"m  c #1C671C",
"M  c #256000",
"N  c #286400",
"B  c #256C00",
"V  c #2B6A00",
"C  c #3E6600",
"Z  c #356900",
"A  c #3C6C00",
"S  c #247300",
"D  c #287500",
"F  c #227900",
"G  c #307800",
"H  c #3C7A00",
"J  c #454E00",
"K  c #465200",
"L  c #435D00",
"P  c #4D5B00",
"I  c #5A5F00",
"U  c #50501E",
"Y  c #446100",
"T  c #4C6500",
"R  c #4D6C00",
"E  c #536B00",
"W  c #5E6B00",
"Q  c #467400",
"!  c #447C00",
"~  c #4D7A00",
"^  c #567500",
"/  c #5F7000",
"(  c #557B00",
")  c #597900",
"_  c #696D00",
"`  c #657300",
"'  c #6C7C00",
"]  c #7B7E00",
"[  c #5D5D34",
"{  c #5E6434",
"}  c #457538",
"|  c #676720",
" . c #79792D",
".. c #6D723A",
"X. c gray27",
"o. c #4C4C4C",
"O. c #515151",
"+. c #707F45",
"@. c #727272",
"#. c #797979",
"$. c #008600",
"%. c #138400",
"&. c #1D8700",
"*. c #009900",
"=. c #0C9E00",
"-. c #268700",
";. c #2D8300",
":. c #368700",
">. c #3C8200",
",. c #209500",
"<. c #2B9700",
"1. c #18A300",
"2. c #37A000",
"3. c #3DB100",
"4. c #438300",
"5. c #488000",
"6. c #478B00",
"7. c #508500",
"8. c #5B8300",
"9. c #5F8800",
"0. c #439300",
"q. c #409F00",
"w. c #489C00",
"e. c #579000",
"r. c #5B9400",
"t. c #519E00",
"y. c #5F9D00",
"u. c #6C8500",
"i. c #638D00",
"p. c #6F8F00",
"a. c #738100",
"s. c #768C00",
"d. c #7B8D00",
"f. c #659100",
"g. c #699000",
"h. c #639C00",
"j. c #719200",
"k. c #789400",
"l. c #779A00",
"z. c #799C00",
"x. c #4AA000",
"c. c #53A200",
"v. c #64A500",
"b. c #6AA400",
"n. c #6FAA00",
"m. c #73A500",
"M. c #7CA000",
"N. c #72AF00",
"B. c #7DB400",
"V. c #78B800",
"C. c #76C400",
"Z. c #7ACA00",
"A. c #4C874C",
"S. c #6C9E6C",
"D. c #66A366",
"F. c #6DA666",
"G. c #74A966",
"H. c #7CAC66",
"J. c #7FAD7F",
"K. c #818D00",
"L. c #8C8C00",
"P. c #888C08",
"I. c #869200",
"U. c #8B9400",
"Y. c #839E00",
"T. c #8C9B00",
"R. c #939300",
"E. c #929F00",
"W. c #9D9D00",
"Q. c #919112",
"!. c #8AA600",
"~. c #8CAC00",
"^. c #9AA300",
"/. c #91AB00",
"(. c #9CAA00",
"). c #86B700",
"_. c #8FB000",
"`. c #93B400",
"'. c #9DB400",
"]. c #97BA00",
"[. c #9BBA00",
"{. c #A5A900",
"}. c #AFAF00",
"|. c #A5B300",
" X c #ADB600",
".X c #AEBA00",
"XX c #B0B000",
"oX c #B3BB00",
"OX c #B9BC00",
"+X c #9B9B26",
"@X c #90932E",
"#X c #86CD00",
"$X c #8AC800",
"%X c #9CC000",
"&X c #9ECC00",
"*X c #B4C100",
"=X c #BBC200",
"-X c #A3D300",
";X c #ABDD00",
":X c #BCD500",
">X c #B5DF00",
",X c #B8E300",
"<X c #C3C300",
"1X c #C4D600",
"2X c #C3E600",
"3X c #D8E400",
"4X c #E2E700",
"5X c #ECEC00",
"6X c #E9F600",
"7X c #F5FB00",
"8X c yellow",
"9X c #808F4C",
"0X c #829752",
"qX c #8B9951",
"wX c #9C9E50",
"eX c #83A55E",
"rX c #8CAA5F",
"tX c #9DA354",
"yX c #90AA5E",
"uX c #A9A94A",
"iX c #A8A854",
"pX c #B9B95C",
"aX c #9F9F6D",
"sX c #85AF66",
"dX c #A8A869",
"fX c #828282",
"gX c #898989",
"hX c #909090",
"jX c gray60",
"kX c #B0B185",
"lX c gray65",
"zX c gray68",
"xX c #A5BCA5",
"cX c #ADBCAD",
"vX c #B3B3B3",
"bX c #BCBCBC",
"nX c #C8C889",
"mX c #CACA97",
"MX c #C5C5A0",
"NX c #CACABD",
"BX c #C3C3C3",
"VX c #CCCCCC",
"CX c #D0D0D0",
"ZX c gray88",
"AX c gray94",
"SX c gray100",
"DX c None",
/* pixels */
"DX@.o.X.X.X.X.X.X.X.X.X.X.X.X.X.X.X.X.X.X.X.X.X.X.X.X.X.X.O.@.DX",
"@.o.gXvXVXVXVXVXVXVXVXVXVXCXVXVXCXVXVXCXVXVXVXVXVXCXVXBXvXfXo.@.",
"o.gXVXVXVXVXVXVXVXVXCXVXVXVXVXVXVXVXVXVXVXVXVXVXVXVXVXVXVXVX#.o.",
"X.bXVXVXVXVXVXVXVXVXVXVXVXVXVXVXVXVXVXmXpX| U aXVXVXVXVXVXVXvXX.",
"X.VXVXVXVXVXVXCXVXVXVXVXVXVXNXnXuX+XR.R.W.L.OX5X<X[ VXVXVXVXVXX.",
"X.VXVXVXVXVXVXVXBXBXMXdX .Q.L.R.W.}.OX<X<XXX5X8X8XiXVXVXVXVXVXX.",
"X.VXVXVXVXbXkXiX@XP.U.] _ oXOX=XOXOXoXoXOX{.3X7X7XiXVXVXVXVXVXX.",
"X.VXVXVXVXI _ ^.|.oX=X.XU.OXoX.XOX X X X.XW.3X6X6XwXVXVXVXVXVXX.",
"X.VXVXVXVXU.|.*X|.|.|.E.a. X(.(.U.E.T.I.I.K I.1X.X..VXVXVXVXVXX.",
"X.VXVXVXVX` k.T.a.s.d.W J a.' ` > ` ' a.d.W '.:X'.{ VXVXVXVXVXX.",
"X.VXVXVXVXK P a.< / s.s.k.Y.!.~.' [.[.[.[./.2X2X,XtXVXVXVXVXVXX.",
"X.VXVXVXVXu.!.%Xk.`.].].[.`.~._.u./.~.!.~.Y.,X,X>XqXVXVXVXVXVXX.",
"X.VXVXVXVXE p.z.T j.z.l.z.l.l.l.T M.z.z.M.u.-X;X*XqXVXVXVXVXVXX.",
"X.VXVXVXCXt L ) 1 T ) Y d ^ ^ T , ^ ) ^ ) < f.).u.A.VXVXVXVXVXX.",
"X.VXVXVXVXY 8.f.9.9.i.R L f.i.9.( 8.9.9.i.Y B.$Xm.0XVXVXVXVXVXX.",
"X.CXVXVXVX^ h.b.V.N.N.h.r.m.b.b.n.b.b.b.b.h.#X#X#XyXVXVXVXVXVXX.",
"X.VXVXVXVX= f Q Y ! 5.C C r.r.y.v.y.h.y.y.e.Z.Z.C.rXVXVXVXVXVXX.",
"X.VXVXVXVXu A Q t A Q u t A %   o u ! 5.! =   u ! eXVXVXVXVXVXX.",
"X.CXVXVXVXH t.c.Z 0.6.4.4.p O.SXBX+ Z Z $ fXSXhX= eXVXVXVXVXVXX.",
"X.VXVXVXVX$ N H i 0.0.x.w.0.$ vXSX@.- i 4 SXZX@ >.sXVXVXVXVXVXX.",
"X.VXVXVXVX- M N $ a N V G :.V @ AXAX2 + CXSXX.M 2.sXVXVXVXVXVXX.",
"X.VXVXVXVXB ;.;.S D D 7 7 e M # @.SXbXfXSXvX* 3.2.sXVXVXCXVXVXX.",
"X.VXVXVXVX# h -.j B h 8 w F S w . BXSXSXAX@ S <.h H.VXVXVXVXVXX.",
"X.CXVXVXVX} k # X.X.4 X.2 v n n q @ AXSXo.X &.,.j G.VXVXVXVXVXX.",
"X.VXVXVXCXVXVX  SXSXSXSXfX6 b b b O BXSX  c 1.1.%.F.VXVXVXVXVXX.",
"X.VXVXVXVXVXVXO.X.4 X.4 2 5 0 l z O bXSX  z =.=.x F.VXVXVXVXVXX.",
"X.VXVXVXVXVXVXVXjXjXjXjXzXcXS.m 9 X bXSX  l *.*.l D.VXVXVXVXVXX.",
"X.VXVXVXVXVXVXVXVXVXVXVXVXVXVXVXcX; BXSX  0 $.l r J.VXVXVXVXBXX.",
"X.vXVXVXVXVXVXVXVXVXVXVXVXVXVXVXVXgX4 X.3 : A.xXVXVXVXVXVXVXzXX.",
"O.fXVXVXVXVXVXVXVXVXVXVXVXVXVXVXVXVXlXjXVXVXVXVXVXVXVXVXVXVX@.o.",
"@.X.fXvXVXVXVXVXVXVXVXVXVXVXVXVXVXVXVXVXVXVXVXVXVXVXVXBXzX#.X.@.",
"DX@.o.X.X.X.X.X.X.X.X.X.X.X.X.X.X.X.X.X.X.X.X.X.X.X.X.X.X.O.@.DX"
};
