/* XPM */ 
static const unsigned char * dynamicarelink_xpm[] = {
"32 32 15 1",
" 	c None",
"!	c black",
"#	c #737373",
"$	c #4C4C4C",
"%	c #454545",
"&	c #515151",
"'	c #848484",
"(	c #B4B4B4",
")	c #CCCCCC",
"*	c #C4C4C4",
"+	c #8A8A8A",
",	c #7B7B7B",
"-	c #BEBEBE",
".	c #0000FF",
"0	c #ACACAC",
" #$%%%%%%%%%%%%%%%%%%%%%%%%%%&# ",
"#$'()))))))))))))))))))))))*('%#",
"$+)))))))))))))))))))))))))))),$",
"%-))))))))))))))))))))))))))))(%",
"%))))))))))))))))))))))))))))))%",
"%))))))))))))))))))))))))))))))%",
"%))))))))))))))))))))))))))))))%",
"%))))))))))))))))))))))))))))))%",
"%)))))))..)))))))))))))))))))))%",
"%)))))))....)))))))))))))))))))%",
"%)))))))......)))))))))))))))))%",
"%)))))))........)))))))))))))))%",
"%)))))))..........)))))))))))))%",
"%)))))))............)))))))))))%",
"%)))))))..............)))))))))%",
"%..............................%",
"%..............................%",
"%)))))))..............)))))))))%",
"%)))))))............)))))))))))%",
"%)))))))..........)))))))))))))%",
"%)))))))........)))))))))))))))%",
"%)))))))......)))))))))))))))))%",
"%)))))))....)))))))))))))))))))%",
"$)))))))..)))))))))))))))))))))%",
"%))))))))))))))))))))))))))))))%",
"%))))))))))))))))))))))))))))))%",
"%))))))))))))))))))))))))))))))%",
"%)))))))))))))))))))))))))))))*%",
"%())))))))))))))))))))))))))))0%",
"&'))))))))))))))))))))))))))))#$",
"#%,()))))))))))))))))))))))*0,%#",
" #$%%%%%%%%%%%%%%%%%%%%%%%%%%$# "};