/* XPM */
static char *dynamicaCreatePassiveSphere[] = {
/* columns rows colors chars-per-pixel */
"32 32 139 2 ",
"   c #722E01",
".  c #773101",
"X  c #793101",
"o  c #7B3201",
"O  c #7D3301",
"+  c #7F3401",
"@  c #444444",
"#  c gray27",
"$  c #464646",
"%  c #484848",
"&  c #494949",
"*  c gray30",
"=  c #4E4E4E",
"-  c #727272",
";  c gray45",
":  c gray47",
">  c gray48",
",  c #803401",
"<  c #823501",
"1  c #843601",
"2  c #863701",
"3  c #883701",
"4  c #8A3801",
"5  c #8C3901",
"6  c #8D3A01",
"7  c #913B01",
"8  c #933C01",
"9  c #953D01",
"0  c #973D01",
"q  c #9A3F01",
"w  c #8C471A",
"e  c #A04101",
"r  c #A24201",
"t  c #A44301",
"y  c #A64301",
"u  c #A84401",
"i  c #A94501",
"p  c #AB4501",
"a  c #AD4601",
"s  c #AF4701",
"d  c #B14801",
"f  c #B34801",
"g  c #B54901",
"h  c #B64A01",
"j  c #B84B01",
"k  c #BA4B01",
"l  c #BE4D01",
"z  c #C04E01",
"x  c #C55001",
"c  c #C75101",
"v  c #C95101",
"b  c #CB5201",
"n  c #CF5401",
"m  c #D05401",
"M  c #D25501",
"N  c #D45601",
"B  c #D65701",
"V  c #D85701",
"C  c #DC5901",
"Z  c #DD5A01",
"A  c #DF5A01",
"S  c #E15B01",
"D  c #E35C01",
"F  c #E55D01",
"G  c #E95E01",
"H  c #EB5F01",
"J  c #EC6001",
"K  c #EE6001",
"L  c #F06101",
"P  c #F26201",
"I  c #F46301",
"U  c #F86401",
"Y  c #F96501",
"T  c #FB6601",
"R  c #FD6601",
"E  c #FF6600",
"W  c #FF6803",
"Q  c #FF6A05",
"!  c #FF6B07",
"~  c #FF6D0C",
"^  c #FF6F0E",
"/  c #FF7010",
"(  c #FF7112",
")  c #FF7314",
"_  c #FF7417",
"`  c #FF7519",
"'  c #FF781D",
"]  c #FF791F",
"[  c #FF7A21",
"{  c #FF7C24",
"}  c #FF7D26",
"|  c #FF7E28",
" . c #B5764D",
".. c #FF802A",
"X. c #FF812C",
"o. c #FF822E",
"O. c #FF8431",
"+. c #FF8737",
"@. c #FF8939",
"#. c #FF8A3B",
"$. c #FF8B3E",
"%. c #BC8059",
"&. c #FF8D40",
"*. c #FF9248",
"=. c #FF934A",
"-. c #FF9751",
";. c #FF9853",
":. c #FF9B57",
">. c #FF9C5A",
",. c #FF9D5C",
"<. c #FFA162",
"1. c #FFA364",
"2. c #FFA467",
"3. c #FFAC74",
"4. c #FFAD76",
"5. c #808080",
"6. c #838383",
"7. c #848484",
"8. c #868686",
"9. c #898989",
"0. c gray67",
"q. c #AFAFAF",
"w. c #B1B1B1",
"e. c gray70",
"r. c gray71",
"t. c #B6B6B6",
"y. c #B7B7B7",
"u. c gray74",
"i. c #CEA68C",
"p. c #D0AF99",
"a. c #C5C5C5",
"s. c #C6C6C6",
"d. c gray78",
"f. c #C8C8C8",
"g. c gray79",
"h. c #CACACA",
"j. c #CBCBCB",
"k. c gray80",
"l. c None",
/* pixels */
"l.- * # # # # % % $ $ $ $ $ $ $ $ $ $ $ $ $ $ $ $ $ $ $ $ = - l.",
"- * 8.r.h.k.k.k.k.k.k.k.k.k.k.k.k.k.k.k.k.k.k.k.k.k.k.d.e.6.% - ",
"* 9.k.k.k.k.k.k.k.k.k.k.k.k.k.k.k.k.k.k.k.k.k.k.k.k.k.k.k.k.> * ",
"# u.k.k.k.k.k.k.k.k.k.k.k.k.k.k.k.k.k.k.k.k.k.k.k.k.k.k.k.k.t.# ",
"# k.k.k.k.k.k.k.k.k.k.i. .w         w  .i.k.k.k.k.k.k.k.k.k.k.@ ",
"# k.k.k.k.k.k.k.k.p.w 9 z S H G D V c u 4 w p.k.k.k.k.k.k.k.k.# ",
"# k.k.k.k.k.k.k. .e b R R R Y Y P G A N b e + %.k.k.k.k.k.k.k.# ",
"# k.k.k.k.k.k. .i Y ~ ( _ _ ( ~ ! U K A n c g 4  .k.k.k.k.k.k.# ",
"# k.k.k.k.k. .y ~ ( ' [ | | | [ ( ! Y G A n l f < %.k.k.k.k.k.# ",
"% k.k.k.k.p.e Y _ [ o.@.#.#.+.o.{ _ W U D B c g t X p.k.k.k.k.# ",
"# k.k.k.k.w b ~ ' o.@.*.-.-.*.&.o.' / Y G A b j i 4 w k.k.k.k.# ",
"# k.k.k.i.0 R ( { +.*.:.<.<.,.=.@.| ) R K A n l a q X i.k.k.k.# ",
"% k.k.k. .z R _ | #.-.<.3.4.1.;.&...` ! P S N z a q +  .k.k.k.# ",
"# k.k.k.w S R ` ..#.-.<.4.4.2.;.&.o.) ! P S n l a q 2 w k.k.k.# ",
"# k.k.k.  K R ( { +.*.,.1.2.,.=.@.| ) R K A n l a e 2   k.k.k.# ",
"% k.k.k.  G Y ~ [ o.&.*.;.;.*.&.O.[ ( R G A b j i 0 <   k.k.k.# ",
"# k.k.k.  D K W ) { o.@.&.&.@.O.{ ) ! U D V x j r 8 +   k.k.k.@ ",
"# k.k.k.  C J U ! ) ' { o.o.| [ ` ! U J C n l f e 4 .   k.k.k.@ ",
"% k.k.k.w c A J Y W ~ _ ` ` ` / ! U K A N c j i 0 1 . w k.k.k.# ",
"# k.k.k. .u N A K P R R W ! R Y I J D V c l d e 6 +    .k.k.k.# ",
"# k.k.k.i.4 b N A D J K P P K G F A N c l f r 0 <     i.k.k.k.# ",
"% k.k.k.k.w e c n B C A S S A A V n x l f u 0 2 .   w k.k.k.k.# ",
"# k.k.k.k.p.+ g l c b n N n n n x l j d r 0 4 X .   p.k.k.k.k.# ",
"# k.k.k.k.k.%.2 f g k l z l l j f d i e 0 2 o .   %.k.k.k.k.k.# ",
"% k.k.k.k.k.k. .2 e a a a f i i t e 0 6 < .      .k.k.k.k.k.k.@ ",
"# k.k.k.k.k.k.k.%.X 4 q q q e 0 8 6 < +       %.k.k.k.k.k.k.k.@ ",
"# k.k.k.k.k.k.k.k.p.w . + < 2 < + X       w p.k.k.k.k.k.k.k.k.@ ",
"% h.k.k.k.k.k.k.k.k.k.i. .w         w  .i.k.k.k.k.k.k.k.k.k.s.# ",
"% r.k.k.k.k.k.k.k.k.k.k.k.k.k.k.k.k.k.k.k.k.k.k.k.k.k.k.k.k.q.@ ",
"* 7.k.k.k.k.k.k.k.k.k.k.k.k.k.k.k.k.k.k.k.k.k.k.k.k.k.k.k.k.- * ",
"- % 5.w.f.k.k.k.k.k.k.k.k.k.k.k.k.k.k.k.k.k.k.k.k.k.k.d.0.> $ - ",
"l.- * # # # # @ # # # # # # # # # # # # # # # # # # # # # * - l."
};
