/* XPM */
static char *dynamicaCreatePassiveHullArray[] = {
/* columns rows colors chars-per-pixel */
"32 32 179 2 ",
"   c #722E01",
".  c #773101",
"X  c #783101",
"o  c #793101",
"O  c #783203",
"+  c #7D3301",
"@  c #794A2B",
"#  c #624735",
"$  c #6A4A34",
"%  c #444444",
"&  c gray27",
"*  c #464646",
"=  c #484848",
"-  c #494949",
";  c gray30",
":  c #4E4E4E",
">  c #727272",
",  c gray45",
"<  c gray47",
"1  c gray48",
"2  c #843601",
"3  c #883701",
"4  c #893701",
"5  c #8A3801",
"6  c #8C3901",
"7  c #8F3F09",
"8  c #923B01",
"9  c #953D01",
"0  c #973D01",
"q  c #9A3F01",
"w  c #9D3F01",
"e  c #8C4719",
"r  c #A24201",
"t  c #A44301",
"y  c #A64301",
"u  c #A94501",
"i  c #AB4501",
"p  c #A64809",
"a  c #B04701",
"s  c #B34801",
"d  c #B24901",
"f  c #B44801",
"g  c #B44901",
"h  c #B54901",
"j  c #B74A00",
"k  c #B64A01",
"l  c #B84A01",
"z  c #B94A01",
"x  c #B84B01",
"c  c #B94B01",
"v  c #BB4C01",
"b  c #BC4C01",
"n  c #BE4D01",
"m  c #BF4D01",
"M  c #B84D04",
"N  c #BF540B",
"B  c #BC530C",
"V  c #B25110",
"C  c #BA5714",
"Z  c #B3581B",
"A  c #B2591F",
"S  c #BC5A19",
"D  c #BE5B18",
"F  c #955224",
"G  c #BA6226",
"H  c #BC662C",
"J  c #B66835",
"K  c #BB6A33",
"L  c #B56A38",
"P  c #BA6D3B",
"I  c #C34F01",
"U  c #C55001",
"Y  c #C75101",
"T  c #D25501",
"R  c #D45601",
"E  c #DA5801",
"W  c #DC5901",
"Q  c #DD5A01",
"!  c #E35C01",
"~  c #EB5F01",
"^  c #C2611E",
"/  c #C2611F",
"(  c #EC6001",
")  c #EE6001",
"_  c #F06101",
"`  c #F26201",
"'  c #F96501",
"]  c #FB6601",
"[  c #FF6600",
"{  c #FF6B07",
"}  c #FF6C0A",
"|  c #FF6D0C",
" . c #FF6F0E",
".. c #FF7112",
"X. c #FF7314",
"o. c #FF7417",
"O. c #FF781D",
"+. c #FF791F",
"@. c #C26221",
"#. c #C3682A",
"$. c #C5753F",
"%. c #FF7A21",
"&. c #FF7C24",
"*. c #FF7D26",
"=. c #BD7240",
"-. c #BA7344",
";. c #BE7A4D",
":. c #B97C54",
">. c #C67843",
",. c #FF802A",
"<. c #FF812C",
"1. c #FF8635",
"2. c #FF8939",
"3. c #FF8A3B",
"4. c #FF8B3E",
"5. c #C58052",
"6. c #C08359",
"7. c #CA895E",
"8. c #FF8D40",
"9. c #FF8E42",
"0. c #FF9046",
"q. c #FF934A",
"w. c #FF964F",
"e. c #FF9A55",
"r. c #FF9B57",
"t. c #FF9D5C",
"y. c #FF9F5E",
"u. c #C18B66",
"i. c #C5906C",
"p. c #CA916B",
"a. c #C89370",
"s. c #C99877",
"d. c #C79778",
"f. c #CD9D7D",
"g. c #FFA060",
"h. c #FFA569",
"j. c #FFA76B",
"k. c #FFB07A",
"l. c #808080",
"z. c #838383",
"x. c #848484",
"c. c #868686",
"v. c #898989",
"b. c gray67",
"n. c #AFAFAF",
"m. c #B1B1B1",
"M. c gray70",
"N. c gray71",
"B. c #B6B6B6",
"V. c #B7B7B7",
"C. c gray74",
"Z. c #C49B80",
"A. c #CCA082",
"S. c #CDA68B",
"D. c #CCAD97",
"F. c #C6AB99",
"G. c #D0AF9A",
"H. c #D0B09B",
"J. c #C8B4A6",
"K. c #D1B7A6",
"L. c #D1B8A7",
"P. c #D1B8A8",
"I. c #D1BAAA",
"U. c #D1BBAC",
"Y. c #CEBEB3",
"T. c #CFC3BA",
"R. c #CBC4BF",
"E. c #CFC5BF",
"W. c #C5C5C5",
"Q. c #C6C6C6",
"!. c gray78",
"~. c #CEC6C1",
"^. c #C8C8C8",
"/. c gray79",
"(. c #CACACA",
"). c #CBCBCB",
"_. c #CCCBCA",
"`. c gray80",
"'. c None",
/* pixels */
"'.> ; & & & & = = = & = = % = = & = = % = & = = & & = & & : > '.",
"> ; c.N.(.`.`.`.`.`.).).).).`.`.).).).).`.`.).).`.`.`.!.M.z.= > ",
"; v.`.`.`.`.`.`.`.`.).).).`.`.`.`.`.).`.`.`.`.`.`.`.`.`.`.`.< ; ",
"& C.`.`.`.`.`.`.`.`.`.).`.`.`.`.`.`.`.`.`.`.`.`.`.`.`.`.`.`.V.& ",
"& (.`.`.`.`.`.`.`.J.u.G I a @.;.u.F.~.).`.`.`.`.`.`.`.`.`.`.).& ",
"& `.`.`.`.`.J.6.D k k I 2 I i I k k z B #.`.`.`.`.`.`.`.`.`.`.& ",
"& `.`.`.`.R.B x + b k n ] X.~ k k k z 4 5 P.`.`.`.`.`.`.`.`.`.& ",
"& `.`.`.`.>.o x T a | 1.3.2.<.X.) k q ) r A.`.`.`.`.`.`.`.`.`.& ",
"= `.`.`.`.r E u + | 1.w.y.e.8.*.{ ~ ~ I L `.`.`.`.`.`.`.`.`.`.& ",
"& `.`.`.`.O ' 2 d %.8.y.k.j.q.*.| [ [ i a.`.`.`.`.`.`.`.`.`.`.& ",
"& `.`.`.`.-.r U y %.3.r.j.g.q.*.| [ ' 6 P.`.`.`.`.`.`.`.`.`.`.& ",
"= `.`.`.`.`.@.0 T X.<.8.q.9.1.+.[ [ R   `.`.`.).`.`.`.`.`.`.`.& ",
"& `.`.`.`.`.`.7.o E X.*.<.*.+.} [ ! . H.`.J.u.G I a ^ :.u.F.~.% ",
"& `.`.`.`.`.`.`.~.Z E }  . .[ [ Q J S.6.D k k I 2 I a n k k k M ",
"= `.`.`.`.`.`.`.(.R.C q ` [ ( t P Y.B k + x k n [ X.) k k x x 2 ",
"& `.`.`.`.`.`.P.:.P.`.i.e   F d.`.>.o x T a | 1.3.2.*.X._ k w ~ ",
"& `.`.T.J.u.@.2 I V $.u.F.R.U.P.`.r E t + | 1.q.y.e.8.*.} ~ ( Y ",
"& D.H + x k n ] X.~ k k x x 4 5 L.o ] 5 a %.8.y.k.j.q.<.| [ [ u ",
"@ o x T f | 1.8.2.,.X._ k q ( y A.-.r I y %.3.r.j.g.0.*.} [ ] 5 ",
"7 Q u + | 1.q.y.e.8.&.{ ~ ~ Y A `.).@.0 T X.<.8.q.9.1.%.[ [ R   ",
"o ] 2 d %.8.y.k.j.q.<...[ [ u 5.`.`.`.u.+ E X.*.<.,.+.} [ ! . $ ",
"p r I y %.3.e.j.y.9.*.} [ ] 6 H.`.`.`.`.~.Z E }  .| [ [ Q J P.& ",
"# n 0 T ..<.8.q.0.1.+.[ [ T   _.`.`.`.`._.R.C 0 _ [ ( t P ~.`.& ",
"& K n o E o.*.<.,.+.} [ ! o f.`.`.`.`.`.`.`.`.i.e   F d.`.`.`.& ",
"= `.Z.D i E } | | [ [ Q a p.`.`.`.`.`.`.`.`.`.`.`.`.`.`.`.`.`.& ",
"& `.`.`.=.x q _ [ ( t d d.`.`.`.`.`.`.`.`.`.`.`.`.`.`.`.`.`.`.& ",
"& `.`.`.~.G x 4   8 n Z.`.`.`.`.`.`.`.`.`.`.`.`.`.`.`.`.`.`.`.& ",
"= (.`.`.).`.`.`.`.`.`.`.`.`.`.`.`.`.`.`.`.`.`.`.`.`.`.`.`.`.W.& ",
"= V.`.`.).`.`.`.`.`.`.`.`.`.`.`.`.`.`.`.`.`.`.`.`.`.`.`.`.`.n.& ",
"; x.`.`.`.`.`.`.`.`.`.`.`.`.`.`.`.`.`.`.`.`.`.`.`.`.`.`.`.(., ; ",
"> = l.m.^.`.`.`.`.`.`.`.`.`.`.`.`.`.`.`.`.`.`.`.`.`.`.^.b.< & , ",
"'.> ; & & & & & & & & & & & & & & & & & & & & & & & & & & ; > '."
};
