/* XPM */
static char *dynamicaActivateRadialIn[] = {
/* columns rows colors chars-per-pixel */
"32 32 193 2 ",
"   c black",
".  c #040D00",
"X  c #0E0E00",
"o  c #0A1300",
"O  c #041D00",
"+  c #081800",
"@  c #131600",
"#  c #141B00",
"$  c #181E00",
"%  c #101010",
"&  c #181818",
"*  c #0E2700",
"=  c #022A00",
"-  c #0E2A00",
";  c #1D2400",
":  c #102A00",
">  c #053400",
",  c #083200",
"<  c #033800",
"1  c #0E3F00",
"2  c #133400",
"3  c #123800",
"4  c #1E3900",
"5  c #242404",
"6  c #242A00",
"7  c #2C2E00",
"8  c #233300",
"9  c #233800",
"0  c #2D3B00",
"q  c #323800",
"w  c #393A00",
"e  c #212121",
"r  c #303030",
"t  c #044600",
"y  c #0C4100",
"u  c #004E00",
"i  c #0B4800",
"p  c #114900",
"a  c #005000",
"s  c #1E5A00",
"d  c #214200",
"f  c #244E00",
"g  c #2C4C00",
"h  c #354200",
"j  c #3A4200",
"k  c #374C00",
"l  c #3F4B00",
"z  c #245000",
"x  c #295A00",
"c  c #3C5200",
"v  c #345A00",
"b  c #3A5900",
"n  c #006400",
"m  c #006A00",
"M  c #106800",
"N  c #007300",
"B  c #007B00",
"V  c #137900",
"C  c #206600",
"Z  c #326D00",
"A  c #404C00",
"S  c #4B4C00",
"D  c #504F00",
"F  c #4A5B00",
"G  c #515000",
"H  c #535B00",
"J  c #4E4D18",
"K  c #504F1E",
"L  c #4A6800",
"P  c #576700",
"I  c #537700",
"U  c #5B7E00",
"Y  c #626100",
"T  c #616B00",
"R  c #6A6900",
"E  c #607100",
"W  c #6C7300",
"Q  c #607800",
"!  c #6F7A00",
"~  c #737200",
"^  c #7E7E00",
"/  c #4C4C26",
"(  c #5E5E32",
")  c #676620",
"_  c #454545",
"`  c #4C4C4C",
"'  c #525252",
"]  c gray35",
"[  c #7D7C55",
"{  c #626262",
"}  c #6D6D6D",
"|  c #717171",
" . c #7B7B7B",
".. c #638C00",
"X. c #748500",
"o. c #7B8700",
"O. c #768D00",
"+. c #7A8900",
"@. c #729300",
"#. c #7C9300",
"$. c #749A00",
"%. c #848700",
"&. c #888600",
"*. c #838D00",
"=. c #8B8B00",
"-. c #8E8C08",
";. c #918F09",
":. c #839200",
">. c #849A00",
",. c #8A9D00",
"<. c #939200",
"1. c #949900",
"2. c #9E9C00",
"3. c #899213",
"4. c #929012",
"5. c #8DA600",
"6. c #86AD00",
"7. c #8CAD00",
"8. c #97A300",
"9. c #9EA400",
"0. c #91AC00",
"q. c #9AAF00",
"w. c #A4A300",
"e. c #A2AF00",
"r. c #ADAB00",
"t. c #B0AE00",
"y. c #A4B200",
"u. c #AEB400",
"i. c #A3BB00",
"p. c #ACBA00",
"a. c #B6B400",
"s. c #B9B700",
"d. c #B7BA00",
"f. c #BDBB00",
"g. c #9B9926",
"h. c #94932E",
"j. c #9C9B30",
"k. c #959438",
"l. c #C1BF00",
"z. c #9CC200",
"x. c #BCC100",
"c. c #B5CC00",
"v. c #BBCA00",
"b. c #C4C200",
"n. c #CDCB00",
"m. c #C9DE00",
"M. c #D6D300",
"N. c #DFDC00",
"B. c #CCE400",
"V. c #D1EA00",
"C. c #E3E000",
"Z. c #E8E500",
"A. c #E4EB00",
"S. c #ECEB00",
"D. c #FFFC00",
"F. c #8A8945",
"G. c #96954B",
"H. c #99984C",
"J. c #9DA34A",
"K. c #ACAB4B",
"L. c #A3A251",
"P. c #A8A754",
"I. c #B8BB53",
"U. c #BBBA5E",
"Y. c #9F9E6D",
"T. c #A8A769",
"R. c #A9A869",
"E. c #BFBE60",
"W. c #BFBE77",
"Q. c #CCCB66",
"!. c #CCCB7F",
"~. c #818181",
"^. c #8B8B8B",
"/. c #909090",
"(. c #B2B185",
"). c #BFBE8F",
"_. c #A0A0A0",
"`. c gray68",
"'. c #B3B3B3",
"]. c #BBBBBB",
"[. c #CAC997",
"{. c #C0C19E",
"}. c #C5C5A0",
"|. c #CBCBA5",
" X c #C7C7AE",
".X c #CACABD",
"XX c #C1C1C1",
"oX c #CCCCCC",
"OX c #D0D0D0",
"+X c gray88",
"@X c gray94",
"#X c gray100",
"$X c None",
/* pixels */
"$X| ' _ _ _ _ _ _ _ _ _ _ _ _ _ _ _ _ _ _ _ _ _ _ _ _ _ _ ' | $X",
"| ` ~.].oXoXoXoXoXoXOXoXoXOXoXoXoXoXoXoXoXoXoXoXoXOXoXXX'.~.` | ",
"` ^.oXoXoXoXoXoXoXoXoXoXoXOXoXoXoXoXoXoXoXoXoXoXoXoXoXoXoXoX .` ",
"_ ].oXoXoXoXoXoXoXoXoXoX].{ Y.XXoXoXoX XU.) K Y.oXoXoXoXoXoX'._ ",
"_ oXoXoXoXoXoXoXoXoXoXoX' ~.{ [ L.g.<.<.2.&.s.Z.b.( oXoXoXoXoX_ ",
"_ oXoXoXoXoXoXoXoXXX{.R.  #XXX5 2.r.f.b.b.r.S.D.D.P.oXoXoXoXoX_ ",
"_ oXoXoXoX].(.L.h.-.<.^   #XXX7 f.f.f.f.f.r.S.D.D.L.oXoXoXoXoX_ ",
"_ oXoXoXoXY ~ r.a.f.x.y.  #X].5 y.y.u.d.f.w.S.D.S.G.oXoXoXoXoX_ ",
"_ oXoXoX^.<.l.n.d.y.,.l   #XXX; F #.:.:.<.G &.R % % `.oXoXoXoX_ ",
"_ oXoX] ' & G w.W h h ~.].#X@X.X' k F j X.w % ~.@X/.] oXoXoXoX_ ",
"_ oXoX  #XOX' $ % ~.0 % @X#X#XoXo b _ ~.@ { +X#X@X~.{ oXoXoXoX_ ",
"_ oXoX] _ +X#XXXXX@X. f _ #X@Xe d o +X@XOX#X@X~.% / ].oXoXoXOX_ ",
"_ oXoXoX} X | @X#X#X{ f , | _ , : { #X#X#X/.% W M.H.oXoXoXoXoX_ ",
"_ oXoXoXoXj @ XX#X#X`.o 3 , 1 i % @X#X#X#Xr E v.w.F.oXoXoXoXoX_ ",
"_ oXoXoXoXT j ~.{ _ r 1 i m m n - r _ r { _ O.m.b.L.oXoXoXoXoX_ ",
"_ oXoXoXoX+.Q 9 g f s V m B B B B M C Z v c z.V.A.E.oXoXoXoXoX_ ",
"_ oXoXoXoXw $ `./.~.{ , u N m B B < _ _ } ~.e c.A.E.oXoXoXoXoX_ ",
"_ oXoXoXoXq $ _.#X#X].. > t a u = | #X#X#X+X# B.d.U.oXoXoXoXoX_ ",
"_ oXoX_.` r XX#X#X#X{ i < r % < > % #X#X#XXXe H %.U.oXoXoXoXoX_ ",
"_ oXoX` _.#X@X~.' +Xo s % +XXXO i - `.#X+X#X@X~.% ( oXoXoXoXoX_ ",
"_ oXoX} ~.~.% q # e 4 o OX#X#X_.: x { @X% / OX#X@X{  .oXoXoXoX_ ",
"_ OXoX].{ S 8.0.@.I 4 /.#X#X#X#X{ v g | k P 5 { @XOXe oXoXoXoX_ ",
"_ oXoXoXoXw 1.i.z.6...;   #XOX_ r c L h X.#.A.R % %  .oXoXoXoX_ ",
"_ oXoXoXoXk.;.=.+.>.7.@.  #XXX; U $.@.O.W w n.C.2.Q.oXoXoXoXoX_ ",
"_ oXoXoXoXoXoX).I.3.X.l   #XXX6 7.0.q.e.u.t.D.D.n.Q.oXoXoXoXoX_ ",
"_ oXoXoXoXoXoXoXoXoX}.J.  #XXX6 y.p.u.a.f.f.D.D.n.Q.oXoXoXoXoX_ ",
"_ oXoXoXoXoXoXoXoXoXoXoX& +XXX5 =.<.t.l.l.b.D.D.s.Q.oXoXoXoXoX_ ",
"_ oXoXoXoXoXoXoXoXoXoXoX} & r ~. XW.j.<.=.<.N.f.4.!.oXoXoXoXXX_ ",
"_ ].oXoXoXoXoXoXoXoXoXoXoXoXoXoXoXoXoX.XR.J K.|.oXoXoXoXoXoX'._ ",
"` ~.oXoXoXoXoXoXoXoXoXoXoXoXoXoXoXoXoXoXoXoXoXoXoXoXoXoXoXoX| ` ",
"| _ ~.'.oXoXoXoXoXoXoXoXoXoXoXoXoXoXoXoXoXoXoXoXoXoXoXXX`. ._ | ",
"$X| ` _ _ _ _ _ _ _ _ _ _ _ _ _ _ _ _ _ _ _ _ _ _ _ _ _ _ ' | $X"
};
