/* XPM */
static char *dynamicaUnactivate[] = {
/* columns rows colors chars-per-pixel */
"32 32 98 2 ",
"   c #002800",
".  c #003400",
"X  c #003800",
"o  c #004500",
"O  c #004D00",
"+  c #025402",
"@  c #005B00",
"#  c #1E4F1E",
"$  c #006400",
"%  c #006C00",
"&  c #017401",
"*  c #007C00",
"=  c #0A770A",
"-  c #0C7A0C",
";  c #167D16",
":  c #1A7E1A",
">  c #326132",
",  c #3E773E",
"<  c #454545",
"1  c #4C4C4C",
"2  c #467646",
"3  c #427F42",
"4  c #487748",
"5  c #4E7E4E",
"6  c #727272",
"7  c #797979",
"8  c #008400",
"9  c #008C00",
"0  c #0B830B",
"q  c #009300",
"w  c #009B00",
"e  c #1C841C",
"r  c #1E8A1E",
"t  c #159F15",
"y  c #1C9F1C",
"u  c #00A100",
"i  c #00AB00",
"p  c #00B300",
"a  c #01BC01",
"s  c #0EB40E",
"d  c #0EBF0E",
"f  c #18AF18",
"g  c #12B312",
"h  c #2C892C",
"j  c #3C943C",
"k  c #29A629",
"l  c #2AAF2A",
"z  c #2FB82F",
"x  c #3AA03A",
"c  c #38BE38",
"v  c #01C301",
"b  c #00CC00",
"n  c #0CCB0C",
"m  c #1DC11D",
"M  c #488448",
"N  c #429942",
"B  c #4D9E4D",
"V  c #508150",
"C  c #5B8E5B",
"Z  c #5E9C5E",
"A  c #43AC43",
"S  c #4AA74A",
"D  c #44B644",
"F  c #57A757",
"G  c #59AB59",
"H  c #51B951",
"J  c #629562",
"K  c #649C64",
"L  c #64A264",
"P  c #62A962",
"I  c #6CAE6C",
"U  c #6CB26C",
"Y  c #75AB75",
"T  c #79AA79",
"R  c #72B172",
"E  c #7AB37A",
"W  c #7FB87F",
"Q  c #838383",
"!  c #898989",
"~  c #84B784",
"^  c #83B983",
"/  c #8AB78A",
"(  c #89BB89",
")  c #94BE94",
"_  c gray68",
"`  c #B4B4B4",
"'  c gray74",
"]  c #8EC18E",
"[  c #9CC29C",
"{  c #A6C6A6",
"}  c #A9C6A9",
"|  c #AEC9AE",
" . c #B6CBB6",
".. c #BCCBBC",
"X. c #C6C6C6",
"o. c #C5CCC5",
"O. c #CCCCCC",
"+. c None",
/* pixels */
"+.6 1 < < < < < < < < < < < < < < < < < < < < < < < < < < 1 6 +.",
"6 1 ! ` X.O.O.O.O.O.O.O.O.O.O.O.O.O.O.O.O.O.O.O.O.O.O.o.` Q < 6 ",
"1 ! O.O.O.O.O.O.O.O.O.O.O.O.O.O.O.O.O.O.O.O.O.X.O.O.O.O.O.O.7 1 ",
"< ' O.O.O.O.O.O.O.O.O.O.O.O.O.O.O.O.O.O...K V { O.O.O.O.O.O.` < ",
"< O.O.O.O.O.O.O.O.O.O.O.X.o.o.o.| ( P j r = 9 g k M O.O.O.O.O.< ",
"< O.O.O.O.O.O.O.o.o...} T P j ; & 8 9 q q 8 p b b S O.O.O.O.O.< ",
"< O.O.O.O... .] I N e $ + q q q q q 9 9 9 8 i b v G O.O.O.O.O.< ",
"< O.O.O.O.J @ 8 9 q q q & q q 9 q q 9 9 9 * p b v R O.O.O.O.O.< ",
"< O.O.O.O.W 9 q q 9 9 * % q 9 9 & * & & & o & i w K O.O.O.O.O.< ",
"< O.O.O.O.Y = 8 % & & @ o % $ @   $ % % & @ q i q K O.O.O.O.O.< ",
"< O.O.O.O.C + % . $ & & & 8 9 q % w q w q 9 v b n ] O.O.O.O.O.< ",
"< O.O.O.O.E q u * w w w w q q q & q q 9 q 9 a b d ) O.O.O.O.O.< ",
"< O.O.O.O.L 0 9 @ * 8 8 9 8 8 8 @ 9 9 9 9 & p v g ) O.O.O.O.O.< ",
"< O.O.O.O.4 + % X @ % @ + % % $   % % $ % X 8 u 0 / O.O.O.O.O.< ",
"< O.O.O.O.K & 8 * * 8 $ + 8 8 & & & & * * @ u p y { O.O.O.O.O.< ",
"< O.O.O.O.E q w i u w q 8 w q w u q q w w 9 b b m ..O.O.O.O.O.< ",
"< O.O.O.O.4 @ & $ & * $ $ q 9 q w q w q q 9 b b m ..O.O.O.O.O.< ",
"< O.O.O.O.3 % & o % % O o % % $ @ & & * 8 & a p y ..O.O.O.O.O.< ",
"< O.O.O.O.G w u & 9 9 8 * 8 8 % o & & % % . 9 w e ..O.O.O.O.O.< ",
"< O.O.O.O.> $ * @ q w u w q q 8 % q 9 9 8 & p v l O.O.O.O.O.O.< ",
"< O.O.O.O., % % . $ % & * 9 w q & w 9 q q 9 b b z O.O.O.O.O.O.< ",
"< O.O.O.O.F q 9 * * & O O % % @ O q q w q 9 b b c O.O.O.O.O.O.< ",
"1 O.O.O.O.# & q u q q & & 8 8 $ o $ $ % & & p u h O.O.O.O.O.O.< ",
"< O.O.O.O.) E N = 8 q 8 8 q 9 9 9 8 8 & % . w i x O.O.O.O.O.X.< ",
"< O.O.O.O.O.O.o. .W N O % q q q q q 9 9 9 8 v b D O.O.O.O.O.O.< ",
"< O.O.O.O.O.O.X.O.O...} T N = 8 9 q q 9 9 q b b H O.O.O.O.O.O.< ",
"< O.O.O.O.O.O.O.O.O.O.O.O.o. .^ N - 8 9 q q b b A O.O.O.O.O.O.< ",
"< O.O.O.O.O.O.O.O.O.O.O.O.O.O.o.o...( B : & f A ( O.O.O.O.O.X.< ",
"< ` O.O.O.O.O.O.O.O.O.O.O.O.O.O.O.O.O.o.} 5  .O.X.O.O.O.O.O.` < ",
"1 Q O.O.O.O.O.O.O.O.O.O.O.O.O.O.O.O.O.O.O.O.X.O.O.O.O.O.O.X.6 1 ",
"6 < Q ` X.O.O.O.X.O.O.O.O.O.O.O.O.O.O.O.O.O.O.O.O.O.O.X._ 7 < 6 ",
"+.6 1 < < < < < < < < < < < < < < < < < < < < < < < < < < 1 6 +."
};
