/* XPM */
static char *dynamicaCreate6dofConstraint[] = {
/* columns rows colors chars-per-pixel */
"32 32 152 2 ",
"   c #052A4E",
".  c #0A2C4D",
"X  c #1A2C41",
"o  c #122E4A",
"O  c #14324D",
"+  c #1B344B",
"@  c #032B52",
"#  c #092E53",
"$  c #053057",
"%  c #0D3154",
"&  c #063059",
"*  c #0C355B",
"=  c #0E385D",
"-  c #113556",
";  c #163857",
":  c #123658",
">  c #143A5C",
",  c #1B3E5C",
"<  c #253443",
"1  c #2A3642",
"2  c #253A4A",
"3  c #2A3D4C",
"4  c #243C51",
"5  c #123E64",
"6  c #2C4152",
"7  c #21405A",
"8  c #2A465A",
"9  c #2E495E",
"0  c #334552",
"q  c #384650",
"w  c #364957",
"e  c #3B4C55",
"r  c #3A4E59",
"t  c #3E525E",
"y  c #174266",
"u  c #1C4465",
"i  c #194568",
"p  c #1C496E",
"a  c #1E4D72",
"s  c #1B5072",
"d  c #224662",
"f  c #264A66",
"g  c #2B4D65",
"h  c #274869",
"j  c #2C4C6C",
"k  c #324F62",
"l  c #2F5066",
"z  c #29516E",
"x  c #3E5561",
"c  c #32546A",
"v  c #3D5B6B",
"b  c #234F71",
"n  c #265170",
"m  c #2C5674",
"M  c #2E5876",
"N  c #205679",
"B  c #2B5879",
"V  c #345371",
"C  c #355B75",
"Z  c #3B5A74",
"A  c #355E7A",
"S  c #3F6074",
"D  c #36607A",
"F  c #454545",
"G  c #4C4C4C",
"H  c #42555F",
"J  c #425762",
"K  c #435A65",
"L  c #455E6C",
"P  c #425E79",
"I  c #46616E",
"U  c #476574",
"Y  c #486776",
"T  c #43667A",
"R  c #476878",
"E  c #4A6B7D",
"W  c #727272",
"Q  c #797979",
"!  c #275F84",
"~  c #2E6387",
"^  c #376786",
"/  c #3A6581",
"(  c #3D6983",
")  c #32688B",
"_  c #3C6C89",
"`  c #3D708E",
"'  c #326A90",
"]  c #387093",
"[  c #3E7DA0",
"{  c #4D6680",
"}  c #426C85",
"|  c #4A6E81",
" . c #556D85",
".. c #4A7286",
"X. c #45748C",
"o. c #4B758A",
"O. c #4E798E",
"+. c #5C7289",
"@. c #437694",
"#. c #4E7C93",
"$. c #507D95",
"%. c #60768B",
"&. c #63788D",
"*. c #6A7E92",
"=. c #467EA0",
"-. c #518097",
";. c #51839C",
":. c #6E8194",
">. c #738597",
",. c #758698",
"<. c #7B8B9C",
"1. c #4782A2",
"2. c #4D83A2",
"3. c #4686AA",
"4. c #4F89A9",
"5. c #5186A2",
"6. c #548AA5",
"7. c #538DAA",
"8. c #5692AE",
"9. c #4E94B8",
"0. c #5694B2",
"q. c #5895B4",
"w. c #5299BD",
"e. c #5A9BBD",
"r. c #5CA1C4",
"t. c #5EAACC",
"y. c #838383",
"u. c #898989",
"i. c #81909F",
"p. c #8694A2",
"a. c #8A97A4",
"s. c #8C99A6",
"d. c #8F9BA8",
"f. c #929EA9",
"g. c #96A1AB",
"h. c #9AA4AE",
"j. c #9EA7B0",
"k. c gray68",
"l. c #A5ADB5",
"z. c #AAB1B7",
"x. c #ADB3B9",
"c. c #B4B4B4",
"v. c #B1B6BC",
"b. c #B6BBBF",
"n. c gray74",
"m. c #BABDC1",
"M. c #BEC1C4",
"N. c #C4C5C6",
"B. c #C5C6C8",
"V. c #C6C8C9",
"C. c #CCCCCC",
"Z. c None",
/* pixels */
"Z.W G F F F F F F F F F F F F F F F F F F F F F F F F F F G W Z.",
"W G u.c.V.C.C.C.C.C.C.C.C.C.C.C.C.C.C.C.C.C.C.C.C.C.C.C.c.y.G W ",
"G u.C.C.C.C.C.C.C.C.C.C.C.C.C.C.C.C.C.C.C.C.C.C.C.C.C.C.C.C.Q G ",
"F n.C.C.C.C.C.C.C.C.C.C.C.C.C.C.C.C.C.C.C.C.C.C.C.C.C.C.C.C.c.F ",
"F C.C.C.C.C.C.C.C.C.C.C.b.&.j 5 5 j +.x.C.C.C.C.C.C.C.C.C.C.C.F ",
"F C.C.C.C.C.C.C.C.C.C.b.* ~ =.4.7.1.) = v.C.C.C.C.C.C.C.C.C.C.F ",
"F C.C.C.C.C.C.C.C.C.C.f.: T #.;.;.#.T ; a.C.C.C.C.C.C.C.C.C.C.F ",
"F C.C.C.C.C.C.C.C.C.C.m.  6 I E E L 0   v.C.C.C.C.C.C.C.C.C.C.F ",
"F C.C.C.C.C.C.C.C.C.C.C. .4 L E E U 6 @ C.C.C.C.C.C.C.C.C.C.C.F ",
"F C.C.C.C.C.C.C.C.C.C.C.p.O x U U x + ,.C.C.C.C.C.C.C.C.C.C.C.F ",
"F C.C.C.C.C.C.C.C.C.C.C.m.  w I U r . j.V.M.C.C.C.C.C.C.C.C.C.F ",
"F C.C.C.C.C.C.C.l.s.C.C.C.P 6 K K 0 @ g.@ # p.C.C.C.C.C.C.C.C.F ",
"F C.C.C.C.C.C.:.5 i  .l.C.<.+ t x 4  .% ^ 3.N >.C.C.C.C.C.C.C.F ",
"F C.C.C.C.C.g.s w.4.m @ a.l.# e r O @ A 0.t.9.5 z.C.C.C.C.C.C.F ",
"F C.C.C.C.N.& [ t.r.8./ * :.@ 0 q   p 7.r.0.$.5 g.C.C.C.C.C.C.F ",
"F C.C.C.C.N.& _ 7.0.0.7.o.u +.+ < 5 2.7.#.T 7 @ M.C.C.C.C.C.V.F ",
"F C.C.C.C.C.f.; c v } o.#.o.B o 4 ` @.z ; . @ m.C.C.C.C.C.C.C.F ",
"F C.C.C.C.C.C.a.    % - > y j , , g % # @ @ @ <.f.j.l.x.x.C.C.F ",
"F C.C.C.C.C.V.C.M.h.,.@ # - < 8 y X 0 k k g d , > : * % * d.C.F ",
"F C.C.C.C.N.h.:.@ % , g v J 1 b )   4 H U ..o.o.O.o.X.( C Z C.F ",
"F C.C.x. .@ : d c T E | Y e   ! 4.$ { O r U $.;.5.6.0.5.f &.C.F ",
"F C.C. .M C } #.#.$.$...J o V @.7.p a.*.. 0 I #.6.8.e.( @ b.V.F ",
"F C.C.= o.O.-.7.5.-.O.L 3 @ = =.0.B %.V.i.  2 K O.8.5.u ,.C.C.F ",
"F C.C.&.y o.#.;.6.$.R q . i.i 5.q._ # M.C.l.  o H o...% x.C.C.F ",
"F C.C.C.*.n #.#.;...r o *.@ A 8.e.#.; f.C.C.N.+.o t g   B.C.C.F ",
"F C.C.C.m.# D #.O.K 2 @ V.@ / 0.e.5.5 f.C.C.C.C.*.# # x.C.C.C.F ",
"F C.C.C.C.a.= / o.9 @ m.C.f.* ~ ' b @ B.C.C.C.C.C.h.b.C.C.C.C.F ",
"F V.C.C.C.C.s.> A y p.C.C.C.z.@ $ p.V.C.C.C.C.C.C.C.C.C.C.V.N.F ",
"F c.C.C.C.C.C.f.Z p.C.C.C.C.C.N.N.C.C.C.C.C.C.C.C.C.C.C.C.C.k.F ",
"G u.C.C.C.C.C.C.C.C.C.C.C.C.C.C.C.C.C.C.C.C.C.C.C.C.C.C.C.C.W G ",
"W F y.k.V.C.C.C.C.C.C.C.C.C.C.C.C.C.C.C.C.C.C.C.C.C.C.N.k.Q F W ",
"Z.W G F F F F F F F F F F F F F F F F F F F F F F F F F F G W Z."
};
