/* XPM */
static char *dynamicaActivate_Z[] = {
/* columns rows colors chars-per-pixel */
"32 32 236 2 ",
"   c black",
".  c #0D0E00",
"X  c #121500",
"o  c #101010",
"O  c #022400",
"+  c #082700",
"@  c #002B00",
"#  c #082B00",
"$  c #162300",
"%  c #1C2700",
"&  c #172D00",
"*  c #1C2C00",
"=  c #003400",
"-  c #0B3600",
";  c #013B00",
":  c #1C3E00",
">  c #1B2014",
",  c #252B00",
"<  c #2C3300",
"1  c #283D00",
"2  c #323C00",
"3  c #202020",
"4  c gray19",
"5  c #024400",
"6  c #024C00",
"7  c #0E4A00",
"8  c #1C4600",
"9  c #104B00",
"0  c #1F4C00",
"q  c #055500",
"w  c #0C5000",
"e  c #015C00",
"r  c #0B5A00",
"t  c #0F5D09",
"y  c #145300",
"u  c #1E5000",
"i  c #125C00",
"p  c #195D00",
"a  c #244600",
"s  c #2B4100",
"d  c #214E00",
"f  c #2D4800",
"g  c #3B4700",
"h  c #334E00",
"j  c #3C4D00",
"k  c #255300",
"l  c #225B00",
"z  c #295E00",
"x  c #3A5100",
"c  c #345F00",
"v  c #395E00",
"b  c #046200",
"n  c #0D6200",
"m  c #0C6B00",
"M  c #1C6400",
"N  c #146B00",
"B  c #1C6E00",
"V  c #1D6108",
"C  c #047400",
"Z  c #0B7600",
"A  c #0D7E00",
"S  c #127600",
"D  c #1C7000",
"F  c #147E00",
"G  c #1C7C00",
"H  c #226400",
"J  c #2A6200",
"K  c #216900",
"L  c #2B6D00",
"P  c #336500",
"I  c #3B6300",
"U  c #356900",
"Y  c #3A6A00",
"T  c #267300",
"R  c #2B7500",
"E  c #257C00",
"W  c #2D7E00",
"Q  c #317200",
"!  c #357B00",
"~  c #3E6F12",
"^  c #396F2E",
"/  c #386F38",
"(  c #454B1E",
")  c #446500",
"_  c #466F00",
"`  c #4B6E00",
"'  c #536100",
"]  c #586000",
"[  c #576800",
"{  c #596A00",
"}  c #407000",
"|  c #4B7600",
" . c #407E00",
".. c #4E7E00",
"X. c #537300",
"o. c #5A7500",
"O. c #577C00",
"+. c #5B7B00",
"@. c #666A0D",
"#. c #687000",
"$. c #657B00",
"%. c #545F20",
"&. c #5A5B34",
"*. c #44642D",
"=. c #646634",
"-. c #71723A",
";. c #444444",
":. c #4C4C4C",
">. c #4A5747",
",. c gray33",
"<. c #606060",
"1. c #727272",
"2. c #797979",
"3. c #078000",
"4. c #0F8800",
"5. c #108200",
"6. c #1F8100",
"7. c #138900",
"8. c #1C9300",
"9. c #268200",
"0. c #248C00",
"q. c #2B8C00",
"w. c #328600",
"e. c #3A8100",
"r. c #308E00",
"t. c #349300",
"y. c #3E9B00",
"u. c #438300",
"i. c #4A8200",
"p. c #448D00",
"a. c #498A00",
"s. c #508400",
"d. c #598300",
"f. c #518A00",
"g. c #5F8E00",
"h. c #459300",
"j. c #4C9300",
"k. c #449A00",
"l. c #4D9B00",
"z. c #549300",
"x. c #5B9400",
"c. c #569900",
"v. c #5B9B00",
"b. c #628400",
"n. c #6C8500",
"m. c #648900",
"M. c #6B8C00",
"N. c #758700",
"B. c #758B00",
"V. c #679700",
"C. c #629A00",
"Z. c #6D9C00",
"A. c #779400",
"S. c #7A9300",
"D. c #739C00",
"F. c #7A9D00",
"G. c #6BA600",
"H. c #6CA800",
"J. c #72A400",
"K. c #7CA500",
"L. c #7AA900",
"P. c #658426",
"I. c #558250",
"U. c #78954A",
"Y. c #799569",
"T. c #818700",
"R. c #8A9100",
"E. c #849C00",
"W. c #889E00",
"Q. c #939C00",
"!. c #83A400",
"~. c #8BA500",
"^. c #85AA00",
"/. c #8DAD00",
"(. c #90A700",
"). c #9CA300",
"_. c #91AC00",
"`. c #8EB100",
"'. c #9CB100",
"]. c #A2A900",
"[. c #AAB600",
"{. c #A9BD00",
"}. c #B2BB00",
"|. c #ADC500",
" X c #B6C200",
".X c #BDC400",
"XX c #B6C800",
"oX c #BFC800",
"OX c #BAD400",
"+X c #BBD800",
"@X c #C2D400",
"#X c #CCD500",
"$X c #C3DE00",
"%X c #CCDF00",
"&X c #D2DD00",
"*X c #CAE700",
"=X c #CDE900",
"-X c #D1E100",
";X c #D5EC00",
":X c #DCED00",
">X c #E0EE00",
",X c #E0F000",
"<X c #868845",
"1X c #94964C",
"2X c #9C9E51",
"3X c #9BAC5C",
"4X c #A1A353",
"5X c #A8AB57",
"6X c #B5B75D",
"7X c #B7B95E",
"8X c #B9BA5F",
"9X c #979B6D",
"0X c #C5C765",
"qX c #C8C966",
"wX c #CACA7F",
"eX c #818181",
"rX c #898989",
"tX c #979797",
"yX c gray60",
"uX c #86A085",
"iX c #A5BA89",
"pX c #A0A0A0",
"aX c gray68",
"sX c #A7B9A0",
"dX c #B6BFAC",
"fX c #B3B3B3",
"gX c #BDBDBD",
"hX c #B7C297",
"jX c #C0C5BB",
"kX c #C9CABE",
"lX c #C6C6C6",
"zX c #CCCCCC",
"xX c #D0D0D0",
"cX c gray94",
"vX c gray100",
"bX c None",
/* pixels */
"bX1.:.;.;.;.;.;.;.;.;.;.;.;.;.;.;.;.;.;.;.;.;.;.;.;.;.;.;.:.1.bX",
"1.:.rXfXzXzXzXxXzXzXzXzXxXxXzXzXxXzXzXxXzXzXxXzXzXxXzXlXfXrX:.1.",
":.rXzXzXzXzXzXzXzXzXzXzXzXzXzXzXzXzXzXzXzXzXzXzXzXzXzXzXzXzX2.:.",
";.gXzXzXzXzXzXzXzXzXzXzXzXzXzXzXzXzXzXhX3X%.( 9XlXzXzXzXzXzXfX;.",
";.zXzXzXzXzXzXzXzXzXzXzXzXzXjXiXU.P.O.+.M.$.~.@X[.&.zXzXzXzXzX;.",
";.zXzXzXzXzXzXzXlXlXsXY.*.~ Y Y i.m.D.K.^.E.+X;X,X5XzXzXzXzXzX;.",
";.zXzXzXzXgXuXI.^ V M l 0 p.j.v.C.Z.Z.F.!.S.+X;X,X3XzXzXzXzXzX;.",
";.zXzXzXzX; 5 m S G q.w.L h.z.z.v.V.D.J.!.S.+X;X>X1XzXzXzXzXzX;.",
";.zXzXzXzXe C A F G E R J p.a.a.i.d.b.b.n.g B.oX X-.zXzXzXzXzX;.",
";.xXzXzXzX6 e m r M K u : U I I $ ) X.+.M.[ '.@X[.=.zXzXzXzXzX;.",
";.zXzXzXzX; ; r + y K L R ! a.z.` J.L.^.`.~.=X;X>X5XzXzXzXzXzX;.",
";.zXzXzXzXe C 7.N 0.r.t.k.j.z.v.| G.D.K.^.E.=X;X>X2XzXzXzXzXzX;.",
";.xXzXzXzX6 b Z 7 B E ! e.e.a.s.v V.D.A.!.B.$X;X&X1XzXzXzXxXzX;.",
";.zXzXzXzX@ ; r # y M 0 0 U Y v * ` X.o.$.2 E.XXQ.<XzXzXzXzXzX;.",
";.xXzXzXzX5 b m N B T H k e.i.i.| d.m.M.A.{  X%X}.4XzXzXzXzXzX;.",
";.xXzXzXzXe C 5.8.0.t.w.e.l.c.v.G.J.L.^.`./.=X:X>X8XzXzXzXzXzX;.",
";.zXzXzXzX@ 5 t i M T l z p.j.v.G.J.L.^./.~.=X:X:X8XzXzXzXzXzX;.",
";.zXzXzXzX; q n - p M 8 : U Y $               ] }.6XzXzXzXzXzX;.",
";.zXzXzXzXb 3.7.i E W ! !  .I ;.vXvXvXvXvXvXvX  R.8XzXzXzXzXzX;.",
";.zXzXzXzXO 6 N 7 9.q.k.k.j.i.3 eXeX2.eXfXvXcX. .X0XzXzXzXzXzX;.",
";.zXzXzXzX= q r # y H L ! a.c.s.s x j 3 cXvX4 #.#XqXzXzXzXzXzX;.",
";.xXzXzXzXe Z Z N T L 8 8 P Y I h O.o xXvX<.] :X&XqXzXzXzXzXzX;.",
";.zXzXzXzXO n 5.G K M 0 d i.i.Y s % pXvXpX< $X@XT.qXzXzXzXzXzX;.",
";.zXzXxXzX/ t w 3 4 ;.;.;.: z.x.1 1.vXxXX , {.@X).qXzXzXzXzXxX;.",
";.xXzXzXzXzXzX>.eXvXvXvXvX  c.f ;.vXcXo ' E.;X>X@X0XzXzXzXzXzX&.",
";.zXzXzXzXzXzXfX3 ;.4 ;.;.& f 3 cXvX4 j $.N.].&X}.0XzXzXzXzXlX;.",
";.zXzXzXzXzXzXzXfXyXyXyXtXdXo xXvXyX4 ;.;.;.4 o ].qXxXxXzXzXzX;.",
";.zXzXzXzXzXzXzXzXzXzXzXzXzX  vXvXvXvXvXvXvXvX;.@.hXxXkXzXzXlX;.",
";.gXzXzXzXzXzXzXzXzXzXzXzXzX,.;.;.4 ;.;.;.;.;.o gXzXzXzXzXxXaX;.",
":.eXzXzXzXzXzXzXzXzXzXzXzXzXzXyXtXyXyXyXyXpXtXgXzXzXzXzXzXlX1.:.",
"1.;.eXaXzXxXzXzXzXzXzXzXzXzXzXzXzXxXzXzXzXzXzXzXzXzXzXlXaX2.;.1.",
"bX1.:.;.;.;.;.;.;.;.;.;.;.;.;.;.;.;.;.;.;.;.;.;.;.;.;.;.;.:.2.bX"
};
