/* XPM */
static char *dynamicaActivate_X[] = {
/* columns rows colors chars-per-pixel */
"32 32 238 2 ",
"   c #020300",
".  c #150F00",
"X  c #151A00",
"o  c #1B1800",
"O  c #101010",
"+  c #231900",
"@  c #0C2400",
"#  c #0F2800",
"$  c #1A2200",
"%  c #1F2800",
"&  c #093C00",
"*  c #123000",
"=  c #252B00",
"-  c #2B2C00",
";  c #372500",
":  c #3A2400",
">  c #3B2800",
",  c #273300",
"<  c #263900",
"1  c #2D3A00",
"2  c #3B3400",
"3  c #333B00",
"4  c #393C00",
"5  c #253B1B",
"6  c #212121",
"7  c gray19",
"8  c #442B00",
"9  c #492C00",
"0  c #423500",
"q  c #453B00",
"w  c #4E3900",
"e  c #533200",
"r  c #5C3700",
"t  c #5B3A00",
"y  c #643C00",
"u  c #493D22",
"i  c #164400",
"p  c #1B4600",
"a  c #065500",
"s  c #075B00",
"d  c #1D5500",
"f  c #1B5900",
"g  c #155F12",
"h  c #204000",
"j  c #284300",
"k  c #384600",
"l  c #364C00",
"z  c #235400",
"x  c #2C5400",
"c  c #215E00",
"v  c #2B5C00",
"b  c #355300",
"n  c #3D5200",
"m  c #335A00",
"M  c #3C5C00",
"N  c #066500",
"B  c #0A6200",
"V  c #1C6500",
"C  c #1A6D00",
"Z  c #057000",
"A  c #0D7400",
"S  c #077B00",
"D  c #0C7D00",
"F  c #107500",
"G  c #1B7200",
"H  c #157E00",
"J  c #266400",
"K  c #2B6600",
"L  c #256E00",
"P  c #2B6A00",
"I  c #356300",
"U  c #3E6200",
"Y  c #336F00",
"T  c #3A6D00",
"R  c #257400",
"E  c #2A7200",
"W  c #347500",
"Q  c #3D7400",
"!  c #367900",
"~  c #3B7A00",
"^  c #314B20",
"/  c #354D34",
"(  c #355334",
")  c #3B5D3A",
"_  c #4D4200",
"`  c #424B00",
"'  c #4F4F00",
"]  c #554400",
"[  c #5B4D00",
"{  c #445300",
"}  c #435D00",
"|  c #4C5D00",
" . c #525500",
".. c #5A5300",
"X. c #674400",
"o. c #6C4300",
"O. c #644B00",
"+. c #6A4A00",
"@. c #744500",
"#. c #754F00",
"$. c #7D4B00",
"%. c #625100",
"&. c #6D5C00",
"*. c #705500",
"=. c #7D5500",
"-. c #755A00",
";. c #7C5A00",
":. c #7B5808",
">. c #655D12",
",. c #4A6200",
"<. c #446C00",
"1. c #4E6900",
"2. c #576200",
"3. c #526F00",
"4. c #5E6A00",
"5. c #457500",
"6. c #4A7300",
"7. c #437A00",
"8. c #4C7900",
"9. c #537500",
"0. c #587400",
"q. c #557900",
"w. c #597B00",
"e. c #626500",
"r. c #616B00",
"t. c #6C6C00",
"y. c #7E6500",
"u. c #716A00",
"i. c #7B6B00",
"p. c #627300",
"a. c #6A7500",
"s. c #647E00",
"d. c #6B7900",
"f. c #757400",
"g. c #7E7300",
"h. c #757900",
"j. c #625A2D",
"k. c #5B6C26",
"l. c #557130",
"z. c #454545",
"x. c #4C4C4C",
"c. c #525252",
"v. c #456E45",
"b. c #5C654A",
"n. c #4D7A4C",
"m. c #606060",
"M. c #6D6D6D",
"N. c #727272",
"B. c #797979",
"V. c #865400",
"C. c #8C5600",
"Z. c #815C00",
"A. c #8B5800",
"S. c #8E5A09",
"D. c #965A00",
"F. c #9C5E00",
"G. c #866600",
"H. c #8D6400",
"J. c #856B00",
"K. c #8E6B00",
"L. c #946300",
"P. c #827700",
"I. c #8B7100",
"U. c #837B00",
"Y. c #917300",
"T. c #997100",
"R. c #937F00",
"E. c #9D7E00",
"W. c #A46500",
"Q. c #A66D00",
"!. c #AD6F00",
"~. c #A27100",
"^. c #A87500",
"/. c #A57B00",
"(. c #AE7B00",
"). c #B27300",
"_. c #BD7300",
"`. c #8C6B2E",
"'. c #967038",
"]. c #C17400",
"[. c #C37A00",
"{. c #0A8600",
"}. c #0C8C00",
"|. c #148600",
" X c #1A8300",
".X c #1D8A00",
"XX c #0E9500",
"oX c #119700",
"OX c #1A9300",
"+X c #149900",
"@X c #1B9900",
"#X c #238200",
"$X c #2B8E00",
"%X c #249200",
"&X c #299100",
"*X c #239900",
"=X c #2A9900",
"-X c #59874C",
";X c #538252",
":X c #588B57",
">X c #5E965E",
",X c #5F985F",
"<X c #798249",
"1X c #77945C",
"2X c #738A6C",
"3X c #79906A",
"4X c #66A366",
"5X c #7FAD7F",
"6X c #A98100",
"7X c #B58100",
"8X c #BB8000",
"9X c #CF8200",
"0X c #CB8800",
"qX c #9E8150",
"wX c #988E68",
"eX c #828282",
"rX c #898989",
"tX c #909090",
"yX c gray60",
"uX c #ACAF89",
"iX c #B2A085",
"pX c #BBAC8F",
"aX c #A9B697",
"sX c #A2A2A2",
"dX c gray68",
"fX c #A8BCA5",
"gX c #BEB6A0",
"hX c #B3B3B3",
"jX c #BCBCBC",
"kX c #BFC6BE",
"lX c #C2C3BC",
"zX c #C5C5C5",
"xX c #CCCCCC",
"cX c #D0D0D0",
"vX c gray88",
"bX c gray94",
"nX c gray100",
"mX c None",
/* pixels */
"mXN.x.z.z.z.z.z.z.z.z.z.z.z.z.z.z.z.z.z.z.z.z.z.z.z.z.z.z.c.N.mX",
"N.x.rXhXxXxXxXxXxXxXcXxXxXcXxXxXxXxXxXcXxXxXxXxXxXcXxXxXhXeXz.N.",
"x.rXxXxXxXxXxXxXxXxXxXxXxXxXxXxXxXxXxXxXxXxXxXxXxXxXxXxXxXxXB.x.",
"z.jXxXxXxXxXzX2X5 ^ 1XaXxXxXxXxXxXxXxXxXxXxXxXxXxXxXxXxXxXxXjXz.",
"z.xXxXxXxX( F .XL z v m n k.<XuXlXzXxXxXxXxXxXxXxXxXxXxXxXxXxXz.",
"z.xXxXxXxX;X+X*X$XK Q 7.6.3.,. ...>.j.wXgXzXxXxXxXxXxXxXxXxXxXz.",
"z.xXxXxXxX;X+X*X$XJ W 5.6.9.p.d.f.g._ O.-.:.`.qXiXjXxXxXxXxXxXz.",
"z.xXxXxXxX;X+X@X$XJ W T 6.3.p.a.f.P.&.Y./.~.Q.W.@.y xXxXxXxXxXz.",
"z.xXxXxXxX) D .Xf * v m M ,.,.r.t.g...y.T.~.).[._.F.xXxXxXxXxXz.",
"z.xXxXxXxX( A .XR p v x b l o `  ...2 ] ;.;.=.W.F.$.xXxXxXxXxXz.",
"z.xXxXxXxX:XoX*X=XE ~ 7.8.w.{ p.t.u.&.&.;.+.; A.y r xXxXxXxXxXz.",
"z.cXxXxXxX;XoX@X=XP W Q 6.9.| d.f.P.R.6X/.(.L.9X_.D.xXxXxXxXxXz.",
"z.xXxXxXxXn.}.@X&Xc Y T <.3.k 4.t.u.i.J.K.L.X.).W.$.xXxXxXxXxXz.",
"z.xXxXxXxXv.B  XV # z x b n o `  . .q ] *.+.> V.y 9 xXxXxXxXxXz.",
"z.xXxXxXxX;XD .X#Xp K I U } } 2.e.u._ %.G.H.L.W.F.$.xXxXxXxXxXz.",
"z.cXxXxXxX,XoX@X=XE ! 7.8.q.s.d.h.U.i.I.6X(.0X[.].D.xXxXxXxXxXz.",
"z.xXxXxXxX,XXX@X=XP W ~ 8.q.s.a.a.i.[ [ G.;.#.A.@.9 xXxXxXxXxXz.",
"z.xXxXxXxX>XA +X=Xc P I m M $     - 2 q 0 .   : C.r xXxXxXxXxXz.",
"z.xXxXxXxX,Xs H G @ z x m l 6 bXbX6 q &.O cXnXc.C.F.xXxXxXxXxXz.",
"x.xXxXxXxX4XD @X%Xd P T <.q.% c.nXcXo 0 tXnXtX8 V.: xXxXxXxXxXz.",
"z.xXxXxXxX4X{.+X=XR W W 5.9.,.= sXnXtXc.nXxXO o.V.e xXxXxXxXxXz.",
"z.xXxXxXxX4X{.+X*XR W ~ 5.9.1 3 O xXnXbXbX7 t ^._.F.xXxXxXxXxXz.",
"z.xXxXxXxX4Xa D C i p h j l , ` 4 7 nXnXN.w _._.F.: xXxXxXxXxXz.",
"z.xXxXxXxX4XN & z.z.u z.6 } 3.0.- eXnXnXlX+ ;.Z.S.'.xXxXxXxXxXz.",
"z.xXxXxXxX4XS   nXnXnXnXeX< 9.4 7 nXbXhXnXM.u pXxXxXxXxXxXxXxXz.",
"x.xXxXxXxX4XS & / z.z.7 6 ,.n O cXnXz.O bXnX7 M.xXxXxXxXxXxXxXz.",
"z.xXxXxXxX4XZ oXG f d x m M X hXnXeXc.m.z.nXvXO sXxXxXxXxXxXxXz.",
"z.xXxXxXxX5Xg A  Xf z x l.b.m.nXcX6 jXxXc.B.nXyXx.xXxXxXxXxXzXz.",
"z.jXxXxXxXxXxXfX-X5 3XkXxXdX7 z.O B.xXxXjXc.z.z.yXxXxXxXxXxXdXz.",
"x.eXxXxXxXxXxXxXxXxXxXxXxXxXsXyXzXxXxXxXxXxXyXyXxXxXxXcXxXxXN.x.",
"N.x.eXdXxXxXxXxXxXxXxXxXxXxXxXxXxXxXxXxXxXxXxXxXxXxXxXzXdXB.z.N.",
"mXN.x.z.z.z.z.z.z.z.z.z.z.z.z.z.z.z.z.z.z.z.z.z.z.z.z.z.z.x.N.mX"
};
