/* XPM */
static char *dynamicaBakeSelected[] = {
/* columns rows colors chars-per-pixel */
"32 32 256 2 ",
"   c #0C0907",
".  c #181311",
"X  c #2D0000",
"o  c #3B0000",
"O  c #320000",
"+  c #311806",
"@  c #3C2008",
"#  c #3A2713",
"$  c #282828",
"%  c #332922",
"&  c #3D3127",
"*  c #3E3D3C",
"=  c #4C0000",
"-  c #420000",
";  c #5C0000",
":  c #411900",
">  c #620000",
",  c #680000",
"<  c #740000",
"1  c #791311",
"2  c #48280A",
"3  c #573208",
"4  c #472D16",
"5  c #4B341D",
"6  c #53300A",
"7  c #653804",
"8  c #723F00",
"9  c #4A3829",
"0  c #563C24",
"q  c #5B3E26",
"w  c #7D4904",
"e  c #744305",
"r  c #5A422F",
"t  c #534336",
"y  c #5D4535",
"u  c #554A3F",
"i  c #65472B",
"p  c #624D3B",
"a  c #644B33",
"s  c #6D533C",
"d  c #7C5B3D",
"f  c #764F25",
"g  c #454545",
"h  c #4C4C4C",
"j  c #5B524B",
"k  c gray32",
"l  c #6B5746",
"z  c #735E4B",
"x  c #775A42",
"c  c #755E50",
"v  c #7D644E",
"b  c #7B6654",
"n  c #7A6455",
"m  c #6F6F6F",
"M  c #737373",
"N  c #7C7977",
"B  c #706860",
"V  c #840000",
"C  c #8E0000",
"Z  c #830E0C",
"A  c #920000",
"S  c #9B0000",
"D  c #951917",
"F  c #A40000",
"G  c #AC0000",
"H  c #B30000",
"J  c #BB0000",
"K  c #B5120C",
"L  c #BE331F",
"P  c #963F39",
"I  c #B03831",
"U  c #C50000",
"Y  c #CB0000",
"T  c #D30000",
"R  c #DB0000",
"E  c #E40000",
"W  c #EB0000",
"Q  c #F30000",
"!  c #FB0000",
"~  c #E91B1B",
"^  c #E1231B",
"/  c #EF2723",
"(  c #814B04",
")  c #854901",
"_  c #8D5207",
"`  c #955707",
"'  c #995C18",
"]  c #8D591D",
"[  c #A25F09",
"{  c #A76509",
"}  c #B8720C",
"|  c #AC6D1A",
" . c #A76714",
".. c #B26E14",
"X. c #B26D1A",
"o. c #BA7413",
"O. c #B4721D",
"+. c #B46F0F",
"@. c #8B5E29",
"#. c #AD4332",
"$. c #926A3C",
"%. c #A36822",
"&. c #BA7626",
"*. c #A8733B",
"=. c #C77C18",
"-. c #C1780E",
";. c #C84E39",
":. c #C67D23",
">. c #C37E30",
",. c #8A694B",
"<. c #906E4F",
"1. c #826B57",
"2. c #9A765D",
"3. c #997759",
"4. c #997044",
"5. c #A17755",
"6. c #887569",
"7. c #937D6D",
"8. c #977963",
"9. c #837B74",
"0. c #A17F66",
"q. c #D25550",
"w. c #EC5A54",
"e. c #E8615E",
"r. c #F87775",
"t. c #F7706F",
"y. c #CF8117",
"u. c #CE810D",
"i. c #CC8224",
"p. c #CC852B",
"a. c #D68923",
"s. c #DC8D24",
"d. c #D58929",
"f. c #CB8839",
"g. c #D48B33",
"h. c #DA8D31",
"j. c #DD9436",
"k. c #DE953B",
"l. c #E8952D",
"z. c #E39333",
"x. c #E5993C",
"c. c #EB9B3D",
"v. c #E08F28",
"b. c #F3A03D",
"n. c #AF8259",
"m. c #97816B",
"M. c #8C837D",
"N. c #8F8175",
"B. c #9D8C7C",
"V. c #9C8674",
"C. c #A5836B",
"Z. c #A8866A",
"A. c #A68D7A",
"S. c #AB8E7A",
"D. c #A98973",
"F. c #AD927D",
"G. c #AF9177",
"H. c #B18E73",
"J. c #C78A48",
"K. c #DC9542",
"L. c #D99649",
"P. c #D49554",
"I. c #DA9B57",
"U. c #EB9D42",
"Y. c #E29A48",
"T. c #E19C53",
"R. c #EAA248",
"E. c #F4A448",
"W. c #E3A25C",
"Q. c #E9A55B",
"!. c #ECA85C",
"~. c #E6A354",
"^. c #F6AB56",
"/. c #CD9C69",
"(. c #D6A367",
"). c #CCA37D",
"_. c #E2A464",
"`. c #E5A965",
"'. c #E1A66A",
"]. c #EDAD6C",
"[. c #E8AA67",
"{. c #F2AD67",
"}. c #F3B16D",
"|. c #E6AC74",
" X c #E8AF77",
".X c #EBB37C",
"XX c #E9B378",
"oX c #FBBB7A",
"OX c #F3B679",
"+X c #EDB06E",
"@X c gray51",
"#X c #989693",
"$X c #908C87",
"%X c #A78E89",
"&X c #AE9483",
"*X c #A6988D",
"=X c #B59B88",
"-X c #AA9E95",
";X c #BCA18B",
":X c #BDA88F",
">X c #B5A294",
",X c #BBA592",
"<X c #BDAC9B",
"1X c #BAA894",
"2X c #ABAAAA",
"3X c #BBAFA6",
"4X c #B5B5B5",
"5X c #BBBABA",
"6X c #BEB6B0",
"7X c #B2B0AD",
"8X c #C8A78C",
"9X c #C2AD9B",
"0X c #CFAB90",
"qX c #C4B19B",
"wX c #CDB49D",
"eX c #D6AF86",
"rX c #E7B484",
"tX c #F3BD8C",
"yX c #F7BB83",
"uX c #F0BD96",
"iX c #CBB7A6",
"pX c #C6B6AA",
"aX c #D3B9A3",
"sX c #D1B9AC",
"dX c #CBBBB3",
"fX c #E1BEB9",
"gX c #ECC39B",
"hX c #FAC292",
"jX c #FFD09E",
"kX c #D3C3B6",
"lX c #DCC5B3",
"zX c #D9C9BE",
"xX c #DEC9B7",
"cX c #D2C3B5",
"vX c #F5CAA6",
"bX c #EDD4B8",
"nX c #F0D4B9",
"mX c #C5C4C4",
"MX c #CCCCCC",
"NX c #DDD1CA",
"BX c #DFD1C6",
"VX c #DEDBDD",
"CX c #E3D5CB",
"ZX c #E5D6C9",
"AX c #E5DAD4",
"SX c #EADEDA",
"DX c #F2D0C7",
"FX c #ECE1DC",
"GX c #F2E4DD",
"HX c #F7E2C9",
"JX c #ECE6E5",
"KX c #F7ECE7",
"LX c #F6F2EE",
"PX c #FEFEFE",
"IX c #FBF9F6",
"UX c None",
/* pixels */
"p.p.} -.{ [ e @ 7XPXgX}.].W.T.[.'.+XOX_.J.7 w ( 7 0 y VXbX&. X'.",
"2 e +.{ ( 3 0 v IXnX!.yX'. XtXtXvXtX_.I.P.f 0 s c 1.cXIXP.(.].J.",
"+ @ 4 i c 7.8.>XPXXX{.}.oX_.}.}.Y.+.-.o.) $.7.8.>XFXPXnX~.{.Q.!.",
"0 ,.H.0X0X=XpXIXPX!.E.E.U.x.U.s.u.o.d...) <XPXPXPXPXPXAXg.R.!.x.",
").uXhXyX(./.bXIXPX(.l.^.z.h.x.s.=.y.=.` : pXKXgXrX XeXeXI.p.d.U.",
"}.W._.|.yXtX X/.LXG.` ..d.z.s.a.} { e 2 8.vXhX>.&.[.'.|..XP.w w ",
"_.I.+XyXtXtX XP.(.9Xq i @.%.%.] f d b 8XjXhXI.J.L.~._.`.L.p.@.4 ",
"}._.|.OX+XW._.J.' =X=Xd 2.D.D.S.F.F.;XoXoXf.%.OX[.|.yX].f.O.%.@.",
"p.I.{.Q.Q.g.&.' ( Z.PX<X2.8.D.A.A.pXbXE.z.:.Q.{.[.+XQ.z.-. .` 4.",
"j.U.!.R.k.f. .' _ m.PXPXLXSXCXNXJXPXHXb.j.h.E.c.U.v.a.=.{ { w A.",
"j.z.Y.K.g.&.| _ 7 1.PXPXPXPXPXPXPXPXAXK.^.k.l.s.i.=.i.X.+.) 4 %X",
":.h.x.h.i...( 3 @ &Xt./ W R R E ^ w.fXn.U.E.b.=.d.s.:.[ e @ z AX",
"e (  .O.` 3 2 y P W Q W Q H U Q W E E ;.*...X. .+.' e 6 9 z 1XFX",
"y r i i y c N.I E ! Q E W R Y Q W E W W L <.,.5.$.z n 6.V.8XaXwX",
",.,.8.C.H.G.#.U Q W E T W R U W E R E E U #.5.5.0.&XG.&XiXlXaXaX",
"pX=X3.n.Z.C.K E W E W Q R T T W Q W U T T K D.2.0.S.;XlXlXlXlX1X",
"pXAXpXA.&XpXE E W E ! Y E W W R E R Y T S J LXNXNXNXBXxXbXsXz # ",
"%X9XAXCXSXJXE U E E E T Q E W W E Y Y U V F IXJXSXNXZXBXV.9 9 p ",
"M.1X1XzXAXFX~ C Y R E Q E W E U R T H F ; Z IXCXCXAX9Xp 4 j 4   ",
"* B <X:XpXCXt.C < H Y R R T U Y U F A , = q.SXSXkX1.4 a p . g * ",
"g MXN *XqX,XCXw.F > V G G J U J A , X ; q.KXCXV.5 0 l % $ #XMXg ",
"g MXMX#X9.qX;XzXr.Y , O > < > ; = o S r.GX=Xq 5 x t . m mXMXMXg ",
"g MXMXMXmX9.1X:XiXDXe.D = o - = 1 q.HXiXl 4 l l . h 4XMXMXMXMXg ",
"g MXMXMXMXMX#XB.qXqXCXGXCXcXkXZXKXkXn 4 s x % $ #XMXMXMXMXMXMXg ",
"g MXMXMXMXMXMX5X9.qXqXcXzXzXdX*Xn r a c & . M MXMXMXMXMXMXMXMXg ",
"g MXMXMXMXMXMXMXMX$X*XkX1Xm.n z v ,.y   k 5XMXMXMXMXMXMXMXMXMXg ",
"g MXMXMXMXMXMXMXMXMX7XN M.N.B n t & k 2XMXMXMXMXMXMXMXMXMXMXMXg ",
"h MXMXMXMXMXMXMXMXMXMXMX#Xj u l M.5XMXMXMXMXMXMXMXMXMXMXMXMXMXg ",
"g 5XMXMXMXMXMXMXMXMXMXMXMXMXMXMXMXMXMXMXMXMXMXMXMXMXMXMXMXMX2Xg ",
"h @XMXMXMXMXMXMXMXMXMXMXMXMXMXMXMXMXMXMXMXMXMXMXMXMXMXMXMXMXM h ",
"M g @X7XmXMXMXMXMXMXMXMXMXMXMXMXMXMXMXMXMXMXMXMXMXMXMXMX2XN g M ",
"UXM h g g g g g g g g g g g g g g g g g g g g g g g g g g h M UX"
};
