/* XPM */
static char *dynamicaCreatePassiveMeshArray[] = {
/* columns rows colors chars-per-pixel */
"32 32 143 2 ",
"   c #722E01",
".  c #773101",
"X  c #743103",
"o  c #793101",
"O  c #7D3301",
"+  c #793507",
"@  c #5F493A",
"#  c #754A2E",
"$  c #6A4A34",
"%  c #444444",
"&  c gray27",
"*  c #464646",
"=  c #484848",
"-  c #494949",
";  c gray30",
":  c #4E4E4E",
">  c #727272",
",  c gray45",
"<  c gray47",
"1  c gray48",
"2  c #843601",
"3  c #883701",
"4  c #8A3801",
"5  c #8C3901",
"6  c #953D01",
"7  c #973D01",
"8  c #9A3F01",
"9  c #813E12",
"0  c #8C4719",
"q  c #A24201",
"w  c #A44301",
"e  c #A64301",
"r  c #A94501",
"t  c #AB4501",
"y  c #B34801",
"u  c #B64A01",
"i  c #B84B01",
"p  c #BE4D01",
"a  c #814720",
"s  c #955224",
"d  c #A36033",
"f  c #B86B36",
"g  c #C34F01",
"h  c #C55001",
"j  c #C75101",
"k  c #D25501",
"l  c #D45601",
"z  c #DA5801",
"x  c #DC5901",
"c  c #DD5A01",
"v  c #E35C01",
"b  c #EB5F01",
"n  c #EC6001",
"m  c #EE6001",
"M  c #F06101",
"N  c #F26201",
"B  c #F96501",
"V  c #FB6601",
"C  c #FF6600",
"Z  c #FF6B07",
"A  c #FF6C0A",
"S  c #FF6D0C",
"D  c #FF6F0E",
"F  c #FF7112",
"G  c #FF7314",
"H  c #FF7417",
"J  c #FF781D",
"K  c #FF791F",
"L  c #FF7A21",
"P  c #FF7C24",
"I  c #FF7D26",
"U  c #B77A51",
"Y  c #BC7C51",
"T  c #B97C54",
"R  c #B97D55",
"E  c #FF802A",
"W  c #FF812C",
"Q  c #FF8635",
"!  c #FF8939",
"~  c #FF8A3B",
"^  c #FF8B3E",
"/  c #BC825B",
"(  c #BE845D",
")  c #BF8660",
"_  c #BF8661",
"`  c #FF8D40",
"'  c #FF8E42",
"]  c #FF9046",
"[  c #FF934A",
"{  c #FF964F",
"}  c #FF9A55",
"|  c #FF9B57",
" . c #FF9D5C",
".. c #FF9F5E",
"X. c #C28B66",
"o. c #C38D69",
"O. c #C48E6A",
"+. c #C5906C",
"@. c #C89674",
"#. c #C99877",
"$. c #FFA060",
"%. c #FFA569",
"&. c #FFA76B",
"*. c #FFB07A",
"=. c #808080",
"-. c #838383",
";. c #848484",
":. c #868686",
">. c #898989",
",. c gray67",
"<. c #AFAFAF",
"1. c #B1B1B1",
"2. c gray70",
"3. c gray71",
"4. c #B6B6B6",
"5. c #B7B7B7",
"6. c gray74",
"7. c #CCA082",
"8. c #CDA185",
"9. c #CDA386",
"0. c #D0AD96",
"q. c #D0AF9A",
"w. c #D1B5A3",
"e. c #D1B7A6",
"r. c #D1B8A7",
"t. c #D1B8A8",
"y. c #D1BAAA",
"u. c #D1BBAC",
"i. c #CFC2BA",
"p. c #CFC3BA",
"a. c #CFC5BF",
"s. c #C5C5C5",
"d. c #C6C6C6",
"f. c gray78",
"g. c #CEC6C1",
"h. c #CDCAC7",
"j. c #C8C8C8",
"k. c gray79",
"l. c #CACACA",
"z. c #CBCBCB",
"x. c #CCCBCA",
"c. c gray80",
"v. c None",
/* pixels */
"v.> ; & & & & = & * * * * * * * * * * * & = & & = & & & = ; > v.",
"> ; :.3.l.c.c.c.c.c.c.c.c.c.c.c.c.c.c.c.c.c.c.c.c.c.l.l.2.-.= > ",
"; >.c.c.c.c.c.c.c.c.c.c.c.c.c.c.c.c.c.c.c.c.c.c.c.c.c.c.c.c.1 ; ",
"& 6.c.c.c.c.c.c.c.c.c.c.c.c.c.c.c.c.c.c.c.c.c.c.c.c.c.c.c.c.3.& ",
"& z.c.c.c.c.c.c.c.c.c.c.r.T r.c.c.c.c.c.c.c.c.c.c.c.c.c.c.c.c.& ",
"& c.c.c.c.c.c.c.p.c.c.w.2 h T t.c.c.c.t.t.c.c.c.c.c.c.c.c.c.c.& ",
"& c.c.c.c.c.p.X.O @._ p B G n u X.h.o.3 4 t.c.c.c.c.c.c.c.c.c.& ",
"& c.c.c.c.9.o i k y S Q ^ ! E F n Y 8 M w 7.c.c.c.c.c.c.c.c.c.& ",
"= c.c.c.c.d x r O S Q { ..} ^ I Z b n j U c.c.c.c.c.c.c.c.c.c.& ",
"& c.c.c.c.+ B 3 f L ` ..*.%.[ W S C C r #.c.c.c.c.c.c.c.c.c.c.& ",
"& c.c.c.c./ q h e L ~ | &.$.] E A C B 5 r.c.c.c.c.c.c.c.c.c.c.& ",
"= c.c.c.z.z.9.7 k G W ` [ ] Q J C C l   c.c.c.c.c.c.c.c.c.c.c.& ",
"& c.c.c.c.c.c.0.o z H I W I J A C v o q.c.c.c.c.r.T t.c.c.c.c.& ",
"& c.c.c.c.c.c.c.g.T z A F S C C x T u.c.p.c.c.w.2 h T t.c.c.c.@ ",
"= c.c.c.c.c.c.c.z.c.o.8 M C n e ( a.p.X.O @._ p B G n u ( x.o.4 ",
"& c.c.c.c.c.c.t.T t.c.+.0   s #.c.9.o i k y S Q ^ ! E G M U q n ",
"* z.c.p.c.c.w.2 h T r.c.c.c.u.r.c.d x r O S Q { ..} ` I A b n h ",
"* p.X.O @._ p B G n u _ h.o.3 5 t.+ B 3 f L ` ..*.%.[ W S C C t ",
"# o i k y S Q ~ ! E G n Y q n w 7./ q h q L ~ | %.$.[ I A C B 5 ",
"9 x r O S Q { ..} ` P Z b b j U c.c.8.6 k G W ' [ ' Q J C C l   ",
"X B 3 f L ` ..*.%.[ W S C C r #.c.c.c.0.. x G I W E J A C v o $ ",
"a q g e L ~ } &.$.] E A C B 5 r.c.c.c.c.g.R x A D S C C x T u.& ",
"* 9.7 k G W ` [ ] Q J C C l   c.c.c.c.c.c.c.o.7 M C n w ( a.c.& ",
"* c.0.o x H I W E J A C v . q.c.c.c.c.c.c.c.c.+.0 X s #.c.c.c.& ",
"* z.c.g.R z S S S C C x T t.c.c.c.c.c.c.c.c.c.c.z.c.c.c.c.c.c.& ",
"* z.c.c.c.O.8 M C n e ( g.c.c.c.c.c.c.c.c.c.c.c.c.c.c.c.c.c.c.& ",
"* z.z.c.c.c.O.0 X s #.c.c.c.c.c.c.c.c.c.c.c.c.c.c.c.c.c.c.c.c.& ",
"* z.c.c.c.c.c.c.c.c.c.c.c.c.c.c.c.c.c.c.c.c.c.c.c.c.c.c.c.c.s.& ",
"* 5.c.c.c.c.c.c.c.c.c.c.c.c.c.c.c.c.c.c.c.c.c.c.c.c.c.c.c.c.<.& ",
": -.c.z.c.c.c.c.c.c.c.c.c.c.c.c.c.c.c.c.c.c.c.c.c.c.c.c.c.l., ; ",
", * =.1.k.z.c.c.c.c.c.c.c.c.c.c.c.c.c.c.c.c.c.c.c.c.c.s.,.1 & > ",
"v., ; & & & * * & & & & & & & & & & & & & & & & & & & & & ; > v."
};
