/* XPM */
static char *dynamicaTools[] = {
/* columns rows colors chars-per-pixel */
"32 32 206 2 ",
"   c black",
".  c #040404",
"X  c gray2",
"o  c #060606",
"O  c gray4",
"+  c #0B0B0B",
"@  c #0E0E0E",
"#  c gray8",
"$  c #191919",
"%  c #1D1D1D",
"&  c gray12",
"*  c #202020",
"=  c gray13",
"-  c #222222",
";  c #232323",
":  c gray14",
">  c gray16",
",  c gray18",
"<  c #2F2F2F",
"1  c #313131",
"2  c #323232",
"3  c gray20",
"4  c #343434",
"5  c #373737",
"6  c gray22",
"7  c gray24",
"8  c #3F3F3F",
"9  c #444444",
"0  c #484848",
"q  c #494949",
"w  c gray29",
"e  c gray30",
"r  c #4E4E4E",
"t  c #505050",
"y  c #515151",
"u  c #535353",
"i  c gray33",
"p  c #555555",
"a  c #565656",
"s  c #585858",
"d  c #5A5A5A",
"f  c gray36",
"g  c #5D5D5D",
"h  c gray37",
"j  c #5F5F5F",
"k  c #40637E",
"l  c gray38",
"z  c gray39",
"x  c #646464",
"c  c #676767",
"v  c DimGray",
"b  c #6A6A6A",
"n  c gray42",
"m  c #6C6C6C",
"M  c #6F6F6F",
"N  c gray44",
"B  c #717171",
"V  c gray45",
"C  c #747474",
"Z  c gray46",
"A  c #767676",
"S  c #777777",
"D  c gray47",
"F  c gray48",
"G  c #7B7B7B",
"H  c #7C7C7C",
"J  c gray49",
"K  c #5B93C1",
"L  c #5C94C3",
"P  c #5D96C4",
"I  c #5F98C6",
"U  c #6099C8",
"Y  c #619BCA",
"T  c #639DCC",
"R  c #649ECE",
"E  c #65A0D0",
"W  c #67A2D2",
"Q  c #68A3D4",
"!  c #69A5D6",
"~  c #6BA7D8",
"^  c #6CA8D9",
"/  c #6DAADB",
"(  c #6FACDD",
")  c #70ADDF",
"_  c #71AFE1",
"`  c #73B1E3",
"'  c #74B2E5",
"]  c #75B4E7",
"[  c #76B6E9",
"{  c #78B7EB",
"}  c #79B9ED",
"|  c #7ABBEF",
" . c #7CBCF0",
".. c #7DBEF2",
"X. c #7EC0F4",
"o. c #808080",
"O. c #818181",
"+. c gray51",
"@. c #838383",
"#. c #848484",
"$. c #868686",
"%. c gray53",
"&. c #888888",
"*. c #898989",
"=. c gray54",
"-. c #8B8B8B",
";. c gray55",
":. c #8D8D8D",
">. c #8E8E8E",
",. c gray56",
"<. c #909090",
"1. c gray57",
"2. c #929292",
"3. c #959595",
"4. c gray59",
"5. c #989898",
"6. c gray60",
"7. c #9A9A9A",
"8. c #9B9B9B",
"9. c #9D9D9D",
"0. c #9F9F9F",
"q. c #A0A0A0",
"w. c #A2A2A2",
"e. c #A4A4A4",
"r. c #A5A5A5",
"t. c gray65",
"y. c #A7A7A7",
"u. c gray66",
"i. c #A9A9A9",
"p. c #AAAAAA",
"a. c gray67",
"s. c gray68",
"d. c #AEAEAE",
"f. c #AFAFAF",
"g. c gray69",
"h. c #B1B1B1",
"j. c #B2B2B2",
"k. c gray70",
"l. c #B4B4B4",
"z. c gray71",
"x. c #B6B6B6",
"c. c #B7B7B7",
"v. c gray72",
"b. c #B9B9B9",
"n. c gray73",
"m. c #BBBBBB",
"M. c #BCBCBC",
"N. c gray74",
"B. c gray",
"V. c gray75",
"C. c #80C1F6",
"Z. c #C0C0C0",
"A. c #C1C1C1",
"S. c gray76",
"D. c #C3C3C3",
"F. c gray77",
"G. c #C5C5C5",
"H. c #C6C6C6",
"J. c gray78",
"K. c #C8C8C8",
"L. c gray79",
"P. c #CACACA",
"I. c #CBCBCB",
"U. c gray80",
"Y. c #CDCDCD",
"T. c #CECECE",
"R. c gray81",
"E. c #D0D0D0",
"W. c gray82",
"Q. c #D2D2D2",
"!. c LightGray",
"~. c gray83",
"^. c #D5D5D5",
"/. c gray84",
"(. c #D7D7D7",
"). c #D8D8D8",
"_. c gray85",
"`. c #DADADA",
"'. c gray86",
"]. c gainsboro",
"[. c #DDDDDD",
"{. c gray87",
"}. c #DFDFDF",
"|. c gray88",
" X c #E1E1E1",
".X c #E2E2E2",
"XX c gray89",
"oX c #E4E4E4",
"OX c gray90",
"+X c #E6E6E6",
"@X c #E7E7E7",
"#X c gray91",
"$X c #E9E9E9",
"%X c #EAEAEA",
"&X c #ECECEC",
"*X c gray93",
"=X c #EEEEEE",
"-X c #EFEFEF",
";X c gray94",
":X c #F1F1F1",
">X c gray95",
",X c #F4F4F4",
"<X c #F6F6F6",
"1X c gray97",
"2X c #F8F8F8",
"3X c #FDFDFD",
/* pixels */
", , , < < < < < < < < < < < < < < , < < < < < < < < < < < < < , ",
", L K L L U U Y T T E W W ! ~ ^ / ) ) ) ` ] ] ] { } | | C.X.C.< ",
"< K k L k I k Y T E E W W ! ^ ^ / ( ) ` ` ` ] [ { } | ..| X.C.< ",
"< L K L L U U Y Y E E W ! ! ^ ^ / ) ) ) ` ] ] ] { } | | C.X.C.< ",
"< k k k k k k k k k k k k k k k k k k k k k k k k k k k k k k < ",
"< 1X1X1X1X1X1X1X1X1X1X1X1X1X1X1X1X<X1X<X1X1X1X1X1X1X1X1X<X1X1X< ",
"< <X<X<X<X<X<X<X<X<X<X<X=X}.>X<X<X<X<X:X}.@X<X<X<X<X<X<X<X<X<X< ",
"< ,X,X,X,X,X,X,X,X,X,X}.i.m D.>X,X,X,XI.l +.}.,X,X,X,X,X,X,X,X< ",
"< >X>X>X>X>X>X>X>X>X].<.8.F L.:X>X>X,XI.-.#.q.}.>X>X:X:X>X>X>X< ",
"< :X:X:X:X:X:X:X:XXX8.2.3X5.P.:X:X:X:XI.4.oX*.b.=X:X:X:X:X:X:X< ",
"< =X:X=X:X=X=X:X=XI.J _.].<.P.:X:X=X=XI.<.}.R.*.}.:X:X:X=X:X:X, ",
"< =X=X=X=X=X=X=X{.-.x.~.].2.P.=X=X=X:XI.<.~.:X<.D.&X&X=X=X=X&X< ",
"< &X&X&X&X&X&X@XV.-.@XL.+X4.R.&X&X&X&XI.<.R.:Xj.<.oX&X&X&X&X&X< ",
"< %X%X%X%X%X%X`.+.R.L.n.T.B !.`._._._._.#./.+XP.p ~.%X%X%X%X%X< ",
"< @X%X%X@X%X}.i.V o.J V m y =.-.-.*.-.-.h.oX_.Q.8 T.%X%X@X%X@X< ",
"< @X@X@X@XoXD.m $.J !.S.P.Q.J.V.b.b.V.].oX~./._.7 I.@X@X@X@X@X< ",
"3 +X+X+X+XP.M =.=.H 2XP.n.N.x./..X~.L.{._.~.oXT.r ~.+X+X+X+X+X< ",
",  X+X+X+XP.r h h x /.4 : > % q ].L.B.L.D.L.&X*.i.].oXoXoXoXoX< ",
",  X X X X`.N.N.G.7.9.i F A A r x.s.s.r.z.P.#.5._.oX.X.X.XoX.X< ",
",  X X X X X X X/.9.2.F u.e.e.b N.N.b.~.L.J w.~.}.}.}..X}..X}.< ",
"3 {.{.{.{. X{.{./.2.>.B >.=.=.h H.I.oXx.D N._.{.}.}.}.}.}.}.}.< ",
", {.{.{.{.{.{.{.`.u.>.q x h h 4 _.&X5.o.~.`.{.{.{.{.{.{.}.{.{.< ",
", `.{.{.{.`.`.{./.q.u.i d d i i {.*.7.~.].].].].].].].].].].].< ",
", `.`.`.`.`.`.`.T.=.`.T.s.j.x.{.+.j.~._.`.`.`.`.`.`.`.`.`.`.`.< ",
"3 `.`.`.`.-       +.-   - /. X    q `.* n `.`.-   - _._._._._.< ",
", /./././.G.q @ 7.3 + z + t o 3 0.  ,.- n /.z.  <.m R.(._.(.(.< ",
", /././././.M % +.$ d S.6 %   j./.- n - n /./.s o o L././.(.~.< ",
", /.Q./.Q./.b % +.9 @ j.+ 3 o 9 q.  >.* q j.b 2 j.o v ~.~.~.~.< ",
", Q.Q.Q.Q.Q.x # e.G.-   $ S s.o   9 Q.-     q o   o I.Q.Q.Q.Q.< ",
", Q.Q.Q.Q.Q.N.+.S.T.T.n.,.7.T.Q.Q.Q.Q.Q.R.Q.Q.Q.Q.Q.R.Q.R.Q.R.< ",
", T.Q.T.T.T.2.9.T.P.T.u.#.N.R.R.R.R.T.T.R.R.R.R.R.R.R.R.R.R.R.< ",
", , , , 3 P.A S.P.T.N.7.=.@.< < < < < , < < < < < < < < < < < < "
};
