/* XPM */
static char *dynamicaCreateNailConstraint[] = {
/* columns rows colors chars-per-pixel */
"32 32 211 2 ",
"   c #01344E",
".  c #002952",
"X  c #002A52",
"o  c #002A53",
"O  c #002B54",
"+  c #002C55",
"@  c #012C55",
"#  c #002D56",
"$  c #012E56",
"%  c #002E57",
"&  c #012E57",
"*  c #022E57",
"=  c #002F58",
"-  c #022F58",
";  c #013854",
":  c #013059",
">  c #02325A",
",  c #03325A",
"<  c #01335C",
"1  c #02335C",
"2  c #02345D",
"3  c #013A58",
"4  c #013E5E",
"5  c #013F5F",
"6  c #023760",
"7  c #023861",
"8  c #063962",
"9  c #063A62",
"0  c #013C62",
"q  c #013B64",
"w  c #023B64",
"e  c #063B64",
"r  c #073B64",
"t  c #003D66",
"y  c #093D66",
"u  c #014262",
"i  c #014067",
"p  c #014466",
"a  c #014369",
"s  c #02416A",
"d  c #064069",
"f  c #04426B",
"g  c #014669",
"h  c #01476A",
"j  c #01466C",
"k  c #02456E",
"l  c #084069",
"z  c #0A4069",
"x  c #0B466F",
"c  c #01496E",
"v  c #01486F",
"b  c #014A6F",
"n  c #1F4265",
"m  c #014B71",
"M  c #024A72",
"N  c #034D76",
"B  c #014E76",
"V  c #084A73",
"C  c #0E4972",
"Z  c #0D4A73",
"A  c #104E77",
"S  c #015179",
"D  c #02547D",
"F  c #06557E",
"G  c #04567E",
"H  c #0D527A",
"J  c #13517A",
"K  c #12527A",
"L  c #375573",
"P  c #3F5B78",
"I  c #444444",
"U  c gray27",
"Y  c #464646",
"T  c #484848",
"R  c #494949",
"E  c gray30",
"W  c #4E4E4E",
"Q  c #415D79",
"!  c #435F7A",
"~  c #49637E",
"^  c #4C667F",
"/  c #727272",
"(  c gray45",
")  c gray47",
"_  c gray48",
"`  c #075982",
"'  c #085A82",
"]  c #095A83",
"[  c #0A5A82",
"{  c #0A5B84",
"}  c #0A5C85",
"|  c #0E5F88",
" . c #155780",
".. c #1A5A83",
"X. c #12648D",
"o. c #13658E",
"O. c #14668E",
"+. c #18628A",
"@. c #1E658E",
"#. c #196A93",
"$. c #1A6B94",
"%. c #1A6C95",
"&. c #1E7099",
"*. c #20648D",
"=. c #256D96",
"-. c #20729A",
";. c #26719A",
":. c #22739C",
">. c #23759E",
",. c #25769F",
"<. c #28729A",
"1. c #2F739B",
"2. c #2979A2",
"3. c #287AA2",
"4. c #2D78A1",
"5. c #2A7BA4",
"6. c #2C7EA6",
"7. c #2E7FA8",
"8. c #307FA8",
"9. c #506982",
"0. c #526A83",
"q. c #546C84",
"w. c #556D85",
"e. c #566D85",
"r. c #576F86",
"t. c #597087",
"y. c #5A7188",
"u. c #5D7389",
"i. c #5E748A",
"p. c #5F758B",
"a. c #60768B",
"s. c #62788D",
"d. c #63788D",
"f. c #667A8F",
"g. c #667B8F",
"h. c #6C7F93",
"j. c #2E80A9",
"k. c #3080A9",
"l. c #3082AA",
"z. c #3682AA",
"x. c #3283AC",
"c. c #3385AE",
"v. c #3586AF",
"b. c #3686AE",
"n. c #3885AE",
"m. c #3687B0",
"M. c #388AB2",
"N. c #398AB3",
"B. c #3A8BB4",
"V. c #3A8CB5",
"C. c #3B8DB6",
"Z. c #3C8CB5",
"A. c #3D8EB7",
"S. c #3E90B9",
"D. c #708295",
"F. c #718395",
"G. c #728496",
"H. c #748697",
"J. c #78899A",
"K. c #7A8B9B",
"L. c #7C8C9C",
"P. c #7F8F9E",
"I. c #4293BC",
"U. c #4294BD",
"Y. c #6295B2",
"T. c #4A9BC4",
"R. c #808080",
"E. c #838383",
"W. c #848484",
"Q. c #868686",
"!. c #898989",
"~. c #8291A0",
"^. c #8392A0",
"/. c #8A98A5",
"(. c #8B98A5",
"). c #8E9BA7",
"_. c #8F9BA8",
"`. c #95A0AB",
"'. c #97A2AC",
"]. c #9DA6B0",
"[. c #9EA8B1",
"{. c gray67",
"}. c #AFAFAF",
"|. c #A0A9B2",
" X c #A4ACB4",
".X c #AAB1B7",
"XX c #ACB2B9",
"oX c #ADB3B9",
"OX c #B1B1B1",
"+X c gray70",
"@X c gray71",
"#X c #B6B6B6",
"$X c #B7B7B7",
"%X c #B3B8BD",
"&X c #B5B9BE",
"*X c gray74",
"=X c #B7BBC0",
"-X c #C5C5C5",
";X c #C6C6C6",
":X c gray78",
">X c #C5C6C8",
",X c #C6C8C9",
"<X c #C7C8C9",
"1X c #C8C8C8",
"2X c gray79",
"3X c #CACACA",
"4X c #CACACB",
"5X c #CBCBCB",
"6X c #CBCBCC",
"7X c gray80",
"8X c None",
/* pixels */
"8X/ E U U U U T U U T U U T U U T U U T U U T U U T U U T E / 8X",
"/ E Q.@X3X7X7X7X7X7X7X7X7X7X7X7X7X7X7X7X7X7X7X7X7X7X7X:X+XE.T / ",
"E !.7X7X7X7X7X7X7X7X7X7X7X7X7X7X7X7X7X7X7X7X7X7X7X7X7X7X7X7X) E ",
"U *X7X7X7X7X7X7X7X7X7X3X`.0.~.7X7X7X7X7X7X7X7X7X7X7X7X7X7X7X$XU ",
"U 5X7X7X7X7X7X7X5X7X~.. 9 ..l i.7X7X7X7X7X7X7X7X7X7X7X7X7X7X7XU ",
"U 7X7X7X7X7X7X7X'.! 8 <.v.V.8.< .X7X7X7X7X7X7X7X7X7X7X7X7X7X7XU ",
"U 7X7X7X7X7X7XH.% *.T.A.v.6.I.y ).7X7X7X7X7X7X7X7X7X7X7X7X7X7XU ",
"U 7X7X7X7X7X~.O 4.Z.B.M.v.l.Y.o <X7X7X7X7X7X7X7X7X7X7X7X7X7X7XU ",
"T 7X7X7X7X&Xo =.M.v.M.m.M.S.e D.7X7X7X7X7X7X7X7X7X7X7X7X7X7X7XU ",
"U 7X7X7X>Xr.A V.m.v.l.l.U.;.n <X7X7X7X7X7X7X7X7X7X7X7X7X7X7X7XU ",
"U 7X7X7XF.x l.v.l.x.,.X.h $.C r.7X7X7X7X7X7X7X7X7X7X7X7X7X7X7XU ",
"T 7X7X7Xy.K j.5.-.$.H a p ` 5.9 i.7X7X7X7X7X7X7X7X7X7X7X7X7X7XU ",
"U 7X7X7XoXo d V t % P % c c { 2.% L.5X7X7X7X7X7X7X7X7X7X7X7X7XU ",
"U 7X7X7X7X<XJ.^ f.XX7Xd.< g g | +.o |.7X7X7X7X7X7X7X7X7X7X7X7XU ",
"T 7X7X7X7X7X7X7X7X7X7X7Xr.q   c O. .^ 7X7X7X7X7X7X7X7X7X7X7X7XU ",
"U 7X7X7X7X7X7X7X7X7X7X7X3X9.q 4 S 2.y i.7X7X7X7X7X7X7X7X7X7X7XU ",
"U 7X7X7X7X7X7X7X7X7X7X7X7X X. m u ' Z.< h.5X5X7X7X7X7X7X7X7X7XU ",
"U 7X7X7X7X7X7X7X7X7X7X7X7X7X^.O j p O.n.% (.5X7X7X7X7X7X7X7X7XU ",
"Y 7X7X7X7X7X7X7X7X7X7X7X7X7X7XF.- ;   &.@.L &X5X7X7X7X7X7X7X7XU ",
"Y 7X7X7X7X7X7X7X7X7X7X7X7X7X7X7Xa.q 4 m %.C r.5X7X7X7X7X7X7X7XU ",
"Y 7X7X7X7X7X7X7X7X7X7X7X7X7X7X7X7Xq.a 0 B ,.9 u.7X7X7X7X7X7X7XU ",
"Y 7X7X7X7X7X7X7X7X7X7X7X7X7X7X7X7X%XQ t ; } l.- G.7X7X7X7X7X7XU ",
"Y 7X7X7X7X7X7X7X7X7X7X7X7X7X7X7X7X7X`.o c g X.z.% ).7X7X7X7X7XU ",
"Y 7X7X7X7X7X7X7X7X7X7X7X7X7X7X7X7X7X7XK.% F F 5.1.. =X7X7X7X7XU ",
"Y 7X7X7X7X7X7X7X7X7X7X7X7X7X7X7X7X7X7X7Xf.< { ' 2.K r.3X7X7X7XU ",
"Y 7X7X7X7X7X7X7X7X7X7X7X7X7X7X7X7X7X7X7X5Xr.w D ' -.- &X7X7X7XU ",
"Y 7X7X7X7X7X7X7X7X7X7X7X7X7X7X7X7X7X7X7X7X7Xr.q ' F d d.7X7X7XU ",
"Y 3X7X7X7X7X7X7X7X7X7X7X7X7X7X7X7X7X7X7X7X7X7Xy.- k B % =X7X-XU ",
"T $X7X7X7X7X7X7X7X7X7X7X7X7X7X7X7X7X7X7X7X7X7X7X].~ 6 2 ].7X}.U ",
"E W.7X7X7X7X7X7X7X7X7X7X7X7X7X7X7X7X7X7X7X7X7X7X7X7X_.[.7X3X( E ",
"/ T R.OX<X7X7X7X7X7X7X7X7X7X7X7X7X7X7X7X7X7X7X7X7X7X7X3X{.) U / ",
"8X/ E U U U U U U U U U U U U U U U U U U U U U U U U U U E / 8X"
};
