/* XPM */
static char *dynamicaActivate_X[] = {
/* columns rows colors chars-per-pixel */
"32 32 256 2 ",
"   c #010000",
".  c #08000E",
"X  c #19000A",
"o  c #0B0013",
"O  c #1C001A",
"+  c #170013",
"@  c #101010",
"#  c #2F0C00",
"$  c #270305",
"%  c #390603",
"&  c #2F1700",
"*  c #231400",
"=  c #311F00",
"-  c #2D001A",
";  c #3F2E00",
":  c #0E0029",
">  c #0D0020",
",  c #100037",
"<  c #1C003C",
"1  c #150039",
"2  c #250029",
"3  c #33002E",
"4  c #22003B",
"5  c #3C0036",
"6  c #222222",
"7  c #3B2221",
"8  c gray19",
"9  c #400002",
"0  c #48000C",
"q  c #50000F",
"w  c #5D0000",
"e  c #5A1000",
"r  c #4F0019",
"t  c #46001C",
"y  c #520014",
"u  c #5B0018",
"i  c #620006",
"p  c #6B0200",
"a  c #7D0302",
"s  c #790A00",
"d  c #7A000C",
"f  c #611200",
"g  c #7E1B00",
"h  c #771300",
"j  c #6A0014",
"k  c #60001B",
"l  c #7A0018",
"z  c #7E121F",
"x  c #422A00",
"c  c #4B2200",
"v  c #502F00",
"b  c #4F3D18",
"n  c #503F1E",
"m  c #602F00",
"M  c #632500",
"N  c #782100",
"B  c #673700",
"V  c #41002A",
"C  c #4C002D",
"Z  c #5A0026",
"A  c #5D002C",
"S  c #57002B",
"D  c #4C0435",
"F  c #560033",
"G  c #590038",
"H  c #6B002D",
"J  c #6B0022",
"K  c #790026",
"L  c #6F0031",
"P  c #760039",
"I  c #662D39",
"U  c #554F00",
"Y  c #764700",
"T  c #6F5400",
"R  c #7F6900",
"E  c #5D5A34",
"W  c #684920",
"Q  c #676634",
"!  c #75723A",
"~  c #16004A",
"^  c #160045",
"/  c #1A005D",
"(  c #1D0056",
")  c #340043",
"_  c #30004F",
"`  c #3F004F",
"'  c #32094A",
"]  c #2C0054",
"[  c #250056",
"{  c #3B0052",
"}  c #340064",
"|  c #300068",
" . c #4A0042",
".. c #4D004C",
"X. c #47005B",
"o. c #540051",
"O. c #630044",
"+. c #6C0046",
"@. c #740047",
"#. c #67005A",
"$. c #592E58",
"%. c #490062",
"&. c #4D386D",
"*. c #454545",
"=. c #4C4C4C",
"-. c #525252",
";. c #6B5077",
":. c #606060",
">. c #6D6D6D",
",. c #727272",
"<. c #7B7B7B",
"1. c #860005",
"2. c #830C00",
"3. c #8A0100",
"4. c #9D000F",
"5. c #910500",
"6. c #8E1C00",
"7. c #8B1400",
"8. c #9F1400",
"9. c #941700",
"0. c #8E001B",
"q. c #980010",
"w. c #900019",
"e. c #AC0104",
"r. c #A60307",
"t. c #BC0102",
"y. c #B10900",
"u. c #B80008",
"i. c #B80306",
"p. c #A81900",
"a. c #B91200",
"s. c #A60013",
"d. c #AC0014",
"f. c #B60010",
"g. c #872100",
"h. c #8A2E00",
"j. c #962B00",
"k. c #9C2900",
"l. c #8B3C00",
"z. c #8E3300",
"x. c #9D3C00",
"c. c #923900",
"v. c #9A2C1C",
"b. c #AA2500",
"n. c #BB2B00",
"m. c #A33600",
"M. c #BC3A00",
"N. c #B63D00",
"B. c #880027",
"V. c #84002C",
"C. c #93002D",
"Z. c #880039",
"A. c #81003A",
"S. c #A80020",
"D. c #9B3E26",
"F. c #C60401",
"G. c #C30A00",
"H. c #CA0800",
"J. c #C31200",
"K. c #C31A00",
"L. c #C02700",
"P. c #C22C00",
"I. c #CD2F00",
"U. c #D12300",
"Y. c #C73700",
"T. c #C93400",
"R. c #C33D00",
"E. c #884E00",
"W. c #9B4D00",
"Q. c #904B00",
"!. c #9C5E00",
"~. c #A84700",
"^. c #BC4500",
"/. c #BC4C00",
"(. c #B64D00",
"). c #AC5A00",
"_. c #BD5E00",
"`. c #986300",
"'. c #A96200",
"]. c #B16800",
"[. c #A47600",
"{. c #B97400",
"}. c #9C5B30",
"|. c #CA4400",
" X c #C24D00",
".X c #C74500",
"XX c #C35400",
"oX c #C55C00",
"OX c #CB5400",
"+X c #C76700",
"@X c #C07700",
"#X c #A85449",
"$X c #936877",
"%X c #988900",
"&X c #928A12",
"*X c #BD8C00",
"=X c #A89700",
"-X c #BB9E00",
";X c #BAAE00",
":X c #C38600",
">X c #D89800",
",X c #EC9F00",
"<X c #C2A500",
"1X c #C2AE00",
"2X c #D4AB00",
"3X c #C7B000",
"4X c #CCB700",
"5X c #D2BE00",
"6X c #E2AF00",
"7X c #F2A900",
"8X c #E8B000",
"9X c #E6B300",
"0X c #FFB400",
"qX c #F0BF00",
"wX c #DFCB00",
"eX c #EBCE00",
"rX c #FFC400",
"tX c #FECB00",
"yX c #FFD400",
"uX c #F7DD00",
"iX c #FDDA00",
"pX c #8A8845",
"aX c #99974C",
"sX c #AF984C",
"dX c #B9895C",
"fX c #A19D51",
"gX c #A9A554",
"hX c #BCBA5E",
"jX c #9E926C",
"kX c #AA8F6A",
"lX c #BF8D77",
"zX c #CCCB66",
"xX c #CCCB7F",
"cX c #818181",
"vX c #8B8B8B",
"bX c #90859E",
"nX c #909090",
"mX c gray60",
"MX c #A2A2A2",
"NX c gray68",
"BX c #B6A0AB",
"VX c #B3B3B3",
"CX c #BCBCBC",
"ZX c #C88B89",
"AX c #CAAB97",
"SX c #C8B4AF",
"DX c #C6BBBB",
"FX c #CBC5A5",
"GX c #CBC7BE",
"HX c #C3C3C3",
"JX c #CCCCCC",
"KX c #D0D0D0",
"LX c gray88",
"PX c gray94",
"IX c gray100",
"UX c None",
/* pixels */
"UX,.=.*.*.*.*.*.*.*.*.*.*.*.*.*.*.*.*.*.*.*.*.*.*.*.*.*.*.-.,.UX",
",.=.vXVXJXJXJXJXJXJXJXJXJXJXJXJXJXJXJXKXJXJXKXJXJXJXJXJXVXcX*.,.",
"=.vXJXJXJXJXJXJXJXJXJXJXJXJXJXJXJXJXJXJXJXJXJXJXJXJXJXJXJXJX<.=.",
"*.CXJXJXJXJXGXjXn W dXAXJXJXJXJXJXJXJXJXJXJXJXJXJXJXJXJXJXKXVX*.",
"*.JXJXJXJXE <X8X{.E.W.c.j.D.#XZXDXJXJXJXJXJXKXJXJXJXJXJXJXJXJX*.",
"*.JXJXJXJXgXyXrX,X].+X XM.b.8.5.1.z I $XBXHXHXKXJXJXJXJXJXJXJX*.",
"*.JXJXJXJXfXiXrX,X'.oX/.M.L.K.F.u.s.y r S D $.;.bXCXJXJXJXJXJX*.",
"*.JXJXJXJXfXyXrX,X'._./.M.n.K.G.u.d.l V.P +...{ ^ , JXJXJXJXJX*.",
"*.JXJXJXJX! 3X6X`.v W.W.m.b.8.y.e.s.j K L O.o.%.| / JXJXJXJXJX*.",
"*.JXJXJXJXQ <X9X:XY W.z.h.g $ s a l 0 r S D 5 { [ ~ JXJXJXJXJX*.",
"*.JXJXJXJXgXiXtX0X{.+XOX|.I.7.a.e.q.l J H 3 O ) < , JXJXJXJXJX*.",
"*.JXJXJXJXgXiXtX0X].+X XR.P.9.J.t.d.d.C.A.+. .%.} / JXJXJXJXJX*.",
"*.JXJXJXJXaXeXtX7X!._.(.N.n.h y.e.s.0.K H G 3 X.] ~ JXJXJXJXJX*.",
"*.JXJXJXJXpX%X2X[.x Q.l.h.g.% s 1.d y y Z 5 - 4 < : JXJXJXJXJX*.",
"*.JXJXJXJXgX3XrX>XY ).~.x.k.9.r.r.4.u k H G  ...] ^ JXJXJXJXJX*.",
"*.KXJXJXJXhXuXtX0X@X+XOX.XT.U.H.F.u.w.B.Z.@.#.X.} ( JXJXJXJXJX*.",
"*.JXJXJXJXhXuXtX0X{.+XXX|.T.U.J.t.f.j u H F 5 5 4 : JXJXJXJXJX*.",
"*.JXJXJXJXhX;XtX0X`.).~.m.k.h 2.%     $ Z C + .   o JXJXJXJXJX*.",
"*.JXJXJXJXhX%X3X*X= B l.z.k.e s @ PXPX6 t F @ KXIX-.vXJXJXJXJX*.",
"*.JXJXJXJXzX5XyX[.8 *.c ^.R.6.y.i -.IXJXX - nXIXnX. JXJXJXJXJX*.",
"*.JXJXJXJXzXwXuX; HXIX  .XT.p.K.H.0 MXIXnX=.IXKX@ : JXJXJXJXJX*.",
"*.KXJXJXJXzX=X`.; CXIX  v N e s 3.i @ KXIXPXPX8 4 [ JXJXJXJXJX*.",
"*.JXJXJXJXaX*.cXvXKXIXcXcX:.% 2.r.r.q 8 IXIX>.2 ] > JXJXJXJXJX*.",
"*.JXJXJXJXQ <.IXIXIXIXIXIXHX# a.t.i.% cXIXIXHXo ' &.JXJXJXJXJX*.",
"*.KXJXJXJXhXU     HXIX    # 7.K.F.i 8 IXPXNXIX,.-.JXJXJXJXJXJX*.",
"*.JXJXJXJXzX5XyX; HXIX   XR.L.p.p @ LXIX*.@ PXIX8 >.JXJXJXJXJX*.",
"*.JXJXJXJXzX;XyXT nXCX& ~.k.6.v.7 VXIXcX-.-.*.IXLX@ mXJXJXJXJX*.",
"*.JXJXJXJXAX&X;X*Xx * B }.lXSX<.-.IXJX8 CXKX-.cXIXMX=.JXJXJXJX*.",
"*.CXJXJXJXJXGXFXsXb kXGXJXJXJXMX8 *.@ <.JXJXCX-.8 *.mXJXJXJXNX*.",
"=.cXJXJXJXJXJXKXJXJXJXJXJXJXJXJXNXmXCXJXJXJXJXJXMXmXJXJXJXJX,.=.",
",.*.cXNXJXHXJXJXJXJXJXJXJXJXJXJXJXJXJXJXJXJXJXJXJXJXJXHXNX<.*.,.",
"UX,.=.*.*.*.*.E *.*.*.*.*.*.*.*.*.*.*.*.*.*.*.*.*.*.*.*.*.=.,.UX"
};
