/* XPM */
static char *dynamicaActivate_X[] = {
/* columns rows colors chars-per-pixel */
"32 32 229 2 ",
"   c #020300",
".  c #131600",
"X  c #101010",
"o  c #0C2B00",
"O  c #142100",
"+  c #1E2500",
"@  c #172B00",
"#  c #182C00",
"$  c #073B00",
"%  c #103600",
"&  c #1B3200",
"*  c #243600",
"=  c #233B00",
"-  c #323600",
";  c #353C00",
":  c #243E1B",
">  c #212121",
",  c gray19",
"<  c #084200",
"1  c #154E00",
"2  c #1A4D00",
"3  c #045600",
"4  c #075E00",
"5  c #165000",
"6  c #1C5E00",
"7  c #224400",
"8  c #274900",
"9  c #2A4900",
"0  c #344700",
"q  c #394000",
"w  c #334C00",
"e  c #3A4C00",
"r  c #225100",
"t  c #2E5000",
"y  c #2F5E00",
"u  c #3C5300",
"i  c #315900",
"p  c #385E00",
"a  c #056700",
"s  c #086600",
"d  c #176200",
"f  c #1C6200",
"g  c #1C6B00",
"h  c #047100",
"j  c #0A7600",
"k  c #067E00",
"l  c #0C7A00",
"z  c #167600",
"x  c #167C00",
"c  c #1C7B00",
"v  c #146012",
"b  c #256300",
"n  c #2C6500",
"m  c #266C00",
"M  c #2C6C00",
"N  c #316400",
"B  c #3A6200",
"V  c #346C00",
"C  c #3B6A00",
"Z  c #247400",
"A  c #2E7500",
"S  c #237C00",
"D  c #287A00",
"F  c #357400",
"G  c #3C7300",
"H  c #3F7B00",
"J  c #2F5120",
"K  c #354D34",
"L  c #355334",
"P  c #3B5E3A",
"I  c #424500",
"U  c #4B4F00",
"Y  c #445300",
"T  c #435D00",
"R  c #4A5D00",
"E  c #565900",
"W  c #5A5F00",
"Q  c #4B6100",
"!  c #456C00",
"~  c #4D6B00",
"^  c #5B6600",
"/  c #546D00",
"(  c #5B6D00",
")  c #467200",
"_  c #4D7200",
"`  c #437A00",
"'  c #557300",
"]  c #5E7D00",
"[  c #5A7A12",
"{  c #636C00",
"}  c #667600",
"|  c #6D7400",
" . c #627B00",
".. c #6D7E00",
"X. c #6C7F08",
"o. c #727700",
"O. c #747B00",
"+. c #444A22",
"@. c #5B6C2D",
"#. c #547E26",
"$. c #507E30",
"%. c #454545",
"&. c #4C4C4C",
"*. c #525252",
"=. c #456E45",
"-. c #5A6B4A",
";. c #4D7A4C",
":. c #606060",
">. c #6D6D6D",
",. c #727272",
"<. c #797979",
"1. c #0B8100",
"2. c #098B00",
"3. c #128500",
"4. c #1E8000",
"5. c #138B00",
"6. c #1C8E00",
"7. c #0D9200",
"8. c #0D9B00",
"9. c #199300",
"0. c #149D00",
"q. c #1F9E00",
"w. c #238100",
"e. c #2D8400",
"r. c #2D8A00",
"t. c #338400",
"y. c #3B8300",
"u. c #348C00",
"i. c #3C8C00",
"p. c #259D00",
"a. c #3C9000",
"s. c #14A100",
"d. c #1BA300",
"f. c #22A600",
"g. c #26A800",
"h. c #448300",
"j. c #4C8000",
"k. c #428B00",
"l. c #498D00",
"z. c #558600",
"x. c #5F8200",
"c. c #538B00",
"v. c #5B8F00",
"b. c #449200",
"n. c #4A9200",
"m. c #4E9A00",
"M. c #549400",
"N. c #5D9400",
"B. c #569E00",
"V. c #5D9C00",
"C. c #648300",
"Z. c #6C8400",
"A. c #628F00",
"S. c #758300",
"D. c #7A8600",
"F. c #718800",
"G. c #7D8809",
"H. c #639100",
"J. c #6C9300",
"K. c #659C00",
"L. c #6B9C00",
"P. c #749400",
"I. c #7C9300",
"U. c #7C9C00",
"Y. c #57A000",
"T. c #66A000",
"R. c #71A400",
"E. c #7CA300",
"W. c #74AA00",
"Q. c #7F8B2E",
"!. c #578C4C",
"~. c #538352",
"^. c #588B57",
"/. c #5E965E",
"(. c #5F985F",
"). c #729249",
"_. c #749D5C",
"`. c #728C6C",
"'. c #77956A",
"]. c #66A366",
"[. c #7FAD7F",
"{. c #898F00",
"}. c #849300",
"|. c #8B9300",
" X c #8E9F00",
".X c #939700",
"XX c #919C00",
"oX c #85A500",
"OX c #8EA800",
"+X c #91A600",
"@X c #94AC00",
"#X c #9BAB00",
"$X c #80B100",
"%X c #8CB200",
"&X c #92B600",
"*X c #9AB400",
"=X c #94BA00",
"-X c #9EBF00",
";X c #A5B300",
":X c #ABB600",
">X c #A3BF00",
",X c #AABD00",
"<X c #8D9138",
"1X c #B3CB00",
"2X c #949B50",
"3X c #929E68",
"4X c #828282",
"5X c #898989",
"6X c #909090",
"7X c gray60",
"8X c #ADAF85",
"9X c #A7BB89",
"0X c #B6BB8F",
"qX c #A7BC97",
"wX c #A2A2A2",
"eX c gray68",
"rX c #A7BDA5",
"tX c #B3B3B3",
"yX c #BCBCBC",
"uX c #BAC0A0",
"iX c #BFC6BE",
"pX c #C1C6BC",
"aX c #C5C5C5",
"sX c #CCCCCC",
"dX c #D0D0D0",
"fX c gray88",
"gX c gray94",
"hX c gray100",
"jX c None",
/* pixels */
"jX,.&.%.%.%.%.%.%.%.%.%.%.%.%.%.%.%.%.%.%.%.%.%.%.%.%.%.%.*.,.jX",
",.&.5XtXsXsXsXsXsXsXdXsXsXdXsXsXsXsXsXdXsXsXsXsXsXdXsXsXtX4X%.,.",
"&.5XsXsXsXsXsXsXsXsXsXsXsXsXsXsXsXsXsXsXsXsXsXsXsXsXsXsXsXsX<.*.",
"%.yXsXsXsXsXaX`.: J _.qXsXsXsXsXsXsXsXsXsXsXsXsXsXsXsXsXsXsXtX%.",
"%.sXsXsXsXL l 9.c 6 M n V !.).9XpXsXsXsXsXsXsXsXsXsXsXsXsXsXsX%.",
"%.sXsXsXsX~.s.d.p.S u.u.h.h.` ) _ [ @.3XuXaXaXsXsXsXsXsXsXsXsX%.",
"%.sXsXsXsX~.s.d.p.Z r.y.i.l.M.V.K.L.T / C.X.Q.2X8XyXsXsXsXsXsX%.",
"%.sXsXsXsX~.s.d.p.m r.t.k.l.M.V.K.R.] E.&X@X+XXX{ ^ sXsXsXsXsX%.",
"%.sXsXsXsXP l 9.d % m M F ` ` c.H.L.' J.oXOX#X,X:X.XsXsXsXsXsX%.",
"%.sXsXsXsXL l 9.c 5 m n n i O B ! _ 0 Q Z.Z...+X{.o.sXsXsXsXsX%.",
"%.sXsXsXsX^.0.d.g.w.u.a.b.m.C M.N.H.C.Z.Z.( - S.W E sXsXsXsXsX%.",
"%.sXsXsXsX~.8.d.g.Z r.u.i.b.) V.K.R.W.%X&X=X}.1X;X{.sXsXsXsXsX%.",
"%.dXsXsXsX;.7.d.p.g D t.y.l.i c.N.H.J.P.U.I.^ #X.Xo.sXsXsXsXsX%.",
"%.sXsXsXsX=.s 5.g o b b n N # p ! _ u Q  .( ; S.{ I sXsXsXsXsX%.",
"%.sXsXsXsX~.l 0.9.5 Z A F H G j.z.H.Q _ P.I.}. X{.| sXsXsXsXdX%.",
"%.sXsXdXsX(.8.s.g.w.u.u.b.n.B.V.T.W.H.E.&X-X1X,X;X{.sXsXsXsXsX%.",
"%.sXsXsXsX(.8.s.f.D r.u.a.n.B.V.N.L.~ / P.S.} D.{ I sXsXsXsXsX%.",
"%.sXsXsXsX/.j 0.f.g D A F V @     * 0 u e .   - D.E sXsXsXsXsX%.",
"%.sXsXsXsX/.4 3.x o 6 b n N > gXgX> u ] X dXhX*.D.XXsXsXsXsXsX%.",
"%.sXsXsXsX].1.s.q.6 D t.y.b.& *.hXdXO e 6XhX6X; | ; sXsXsXsXsX%.",
"%.sXsXsXsX].2.s.f.w.e.t.u.n.` = wXhX6X*.hXsXX { O.U sXsXsXsXsX%.",
"%.dXsXsXsX].2.0.d.S r.u.a.l.8 9 X sXhXgXgX, R @X;X|.sXsXsXsXsX%.",
"%.sXsXsXsX].3 5.x 5 5 2 r y 7 B t , hXhX,.Y >X*X|.- sXsXdXsXsX%.",
"%.sXsXsXsX].a $ %.%., %.> G l.M.= 4XhXhXaX+ ..S.G.<XsXsXsXsXsX%.",
"%.dXsXdXsX].1.  hXhXhXhX4X8 n.9 , hXgXtXhX,.+.0XsXsXsXsXsXsXsX%.",
"%.sXsXsXsX].k < , %.%., > y.V X dXhX%.X gXhX, ,.sXsXsXsXsXsXsX%.",
"%.sXsXsXsX].h 0.x d f b M V O eXhX4X*.:., hXfXX wXsXsXsXsXsXsX%.",
"%.sXsXsXsX[.v j 9.f f b $.-.:.hXdX> yXdX*.4XhXwX&.sXsXsXsXsXaX%.",
"%.yXsXsXsXsXsXrX!.: '.pXsXwX, %.X <.sXsXyX*.%., 7XsXsXsXsXsXeX%.",
"&.4XsXsXsXsXsXsXsXsXsXsXsXsXwX7XaXsXsXsXsXsX7X7XsXsXsXsXsXsX,.&.",
",.%.4XeXaXsXsXsXsXsXdXsXsXsXsXsXsXsXsXsXdXsXsXsXsXsXsXaXeX<.%.,.",
"jX,.*.%.%.%.%.%.%.%.%.%.%.%.%.%.%.%.%.%.%.%.%.%.%.%.%.%.%.&.,.jX"
};
