/* XPM */
static char *dynamicaActivate_X[] = {
/* columns rows colors chars-per-pixel */
"32 32 256 2 ",
"   c #020000",
".  c #080000",
"X  c #190B00",
"o  c #19001C",
"O  c #101010",
"+  c #250204",
"@  c #2F0008",
"#  c #300007",
"$  c #370009",
"%  c #2A1200",
"&  c #392E00",
"*  c #3D2200",
"=  c #12003B",
"-  c #220022",
";  c #370029",
":  c #2C0034",
">  c #3E003B",
",  c #360034",
"<  c #2D1B34",
"1  c #212121",
"2  c gray19",
"3  c #410303",
"4  c #4A0009",
"5  c #570F00",
"6  c #580008",
"7  c #571800",
"8  c #460019",
"9  c #5E0018",
"0  c #630008",
"q  c #720006",
"w  c #75000D",
"e  c #641200",
"r  c #671900",
"t  c #721500",
"y  c #630019",
"u  c #6F0019",
"i  c #7D0011",
"p  c #7B001C",
"a  c #432A00",
"s  c #422400",
"d  c #5F2800",
"f  c #483B00",
"g  c #712100",
"h  c #643400",
"j  c #7B3A00",
"k  c #723F00",
"l  c #4E002C",
"z  c #5C0022",
"x  c #5C002B",
"c  c #54002A",
"v  c #440035",
"b  c #4D0035",
"n  c #5E0034",
"m  c #52003B",
"M  c #6B0022",
"N  c #670029",
"B  c #6C0029",
"V  c #770026",
"C  c #69003F",
"Z  c #680039",
"A  c #730034",
"S  c #7C0034",
"D  c #73003C",
"F  c #4F3922",
"G  c #40203D",
"H  c #783E2D",
"J  c #5D4D00",
"K  c #534200",
"L  c #674D00",
"P  c #764900",
"I  c #635400",
"U  c #735500",
"Y  c #7A6500",
"T  c #0E005C",
"R  c #330045",
"E  c #3C0045",
"W  c #330059",
"Q  c #38344F",
"!  c #373457",
"~  c #140064",
"^  c #10006F",
"/  c #1C1267",
"(  c #1A007C",
")  c #160078",
"_  c #380061",
"`  c #320066",
"'  c #210073",
"]  c #20007D",
"[  c #2B0079",
"{  c #35007C",
"}  c #3B007A",
"|  c #3E3A62",
" . c #430044",
".. c #4A004A",
"X. c #4A0047",
"o. c #530044",
"O. c #5C004D",
"+. c #5B0044",
"@. c #450055",
"#. c #4C0052",
"$. c #43005C",
"%. c #620044",
"&. c #64004A",
"*. c #6E0043",
"=. c #72304F",
"-. c #42006C",
";. c #4F0070",
":. c #4A007A",
">. c #510071",
",. c #52007D",
"<. c #454545",
"1. c #4C4C4C",
"2. c #525252",
"3. c #694A54",
"4. c #484574",
"5. c #606060",
"6. c #6D6D6D",
"7. c #727272",
"8. c #797979",
"9. c #8C0302",
"0. c #880605",
"q. c #980009",
"w. c #811700",
"e. c #8A1800",
"r. c #890010",
"t. c #860018",
"y. c #94001D",
"u. c #9A001D",
"i. c #A80104",
"p. c #A6000C",
"a. c #B50402",
"s. c #BD0103",
"d. c #B4000A",
"f. c #BA000B",
"g. c #AF1300",
"h. c #B81300",
"j. c #A90012",
"k. c #AE001A",
"l. c #832400",
"z. c #802800",
"x. c #9D2200",
"c. c #962B00",
"v. c #8D3500",
"b. c #993C00",
"n. c #923B00",
"m. c #902312",
"M. c #B32200",
"N. c #A83800",
"B. c #B83400",
"V. c #8B0024",
"C. c #82002B",
"Z. c #930025",
"A. c #900028",
"S. c #9D0023",
"D. c #830032",
"F. c #880030",
"G. c #822638",
"H. c #C20800",
"J. c #C70400",
"K. c #C21900",
"L. c #C91700",
"P. c #D11400",
"I. c #D42B00",
"U. c #C03B00",
"Y. c #D23E00",
"T. c #8C4C00",
"R. c #884904",
"E. c #964700",
"W. c #835D00",
"Q. c #8E5B00",
"!. c #905700",
"~. c #925E00",
"^. c #A84F00",
"/. c #A84600",
"(. c #B84800",
"). c #A55C00",
"_. c #BD5C00",
"`. c #8D6500",
"'. c #906700",
"]. c #986B05",
"[. c #9B7300",
"{. c #967C00",
"}. c #9C7C00",
"|. c #AC6E00",
" X c #B66900",
".X c #AB7200",
"XX c #A57A00",
"oX c #BA7500",
"OX c #94692E",
"+X c #D74F00",
"@X c #CA5100",
"#X c #D15000",
"$X c #C86100",
"%X c #D66900",
"&X c #C77900",
"*X c #C47000",
"=X c #E37C00",
"-X c #9C4952",
";X c #8D5C7C",
":X c #A77C68",
">X c #9D8400",
",X c #A18100",
"<X c #BE8C00",
"1X c #968238",
"2X c #C08700",
"3X c #CC8500",
"4X c #D88D00",
"5X c #C19200",
"6X c #A18750",
"7X c #180086",
"8X c #18008F",
"9X c #120087",
"0X c #1B0099",
"qX c #2B0082",
"wX c #35008C",
"eX c #3C008D",
"rX c #24009C",
"tX c #2B009A",
"yX c #210092",
"uX c #340093",
"iX c #4B0082",
"pX c #42008A",
"aX c #504C81",
"sX c #575186",
"dX c #56528A",
"fX c #5B548C",
"gX c #5C5792",
"hX c #654C82",
"jX c #615E9F",
"kX c #7A6C87",
"lX c #625FA1",
"zX c #6966AD",
"xX c #856A84",
"cX c #827FB5",
"vX c #828282",
"bX c #898989",
"nX c #909090",
"mX c gray60",
"MX c #B9AA8A",
"NX c #B797A5",
"BX c #A2A2A2",
"VX c gray68",
"CX c #ABA5BC",
"ZX c #B3B3B3",
"AX c #BCBCBC",
"SX c #C5898B",
"DX c #C5AFA0",
"FX c #C7BBBB",
"GX c #C3BEC4",
"HX c #C5C5C5",
"JX c #CCCCCC",
"KX c #D0D0D0",
"LX c gray88",
"PX c gray94",
"IX c gray100",
"UX c None",
/* pixels */
"UX7.1.<.<.<.<.<.<.<.<.<.<.<.<.<.<.<.<.<.<.<.<.<.<.<.<.<.<.2.7.UX",
"7.1.bXZXJXJXJXJXJXKXKXJXJXKXJXJXJXJXJXKXJXJXJXJXJXKXJXJXZXvX<.7.",
"1.bXJXJXJXJXJXJXKXKXJXJXJXJXJXJXJXJXJXJXJXJXJXJXJXJXJXJXJXJX8.1.",
"<.AXJXJXJXJXHXkX< < ;XNXJXJXJXJXJXJXJXJXJXJXJXJXJXJXJXJXJXJXAX<.",
"<.JXJXJXJXQ ' } @.> b x M G.-XSXFXHXJXJXJXJXJXJXJXJXJXJXJXJXJX<.",
"<.JXJXJXJXfXtXpX>.X.%.S C.t.r.9.9.m.H :XDXHXJXJXJXJXJXJXJXJXJX<.",
"<.JXJXJXJXdXtXpX;.X.%.A C.u.j.s.J.K.r g n.R.OX6XMXAXJXJXJXJXJX<.",
"<.JXJXJXJXdXtXpX;. .%.D C.y.j.d.H.L.x.@X#X@X XXXU I JXJXJXJXJX<.",
"<.JXJXJXJX| ] } R - b x B t.r.i.a.h.e.N.(._.*X3X<X>XJXJXJXJXJX<.",
"<.KXJXJXJX! ) } _ , m c z y + q 9.e.7 g b.T.T..X[.Y JXJXJXJXJX<.",
"<.JXJXJXJXgXrXeX,.#.&.D C.S.w d.a.g.x.c.b.j * ~.I J JXJXJXJXJX<.",
"<.JXJXJXJXdXrXeX,...%.D C.Z.i f.H.L.I.Y.+X%X).4X<X{.JXJXJXJXJX<.",
"<.KXJXJXJXaXyXeX:. .+.Z V Z.0 p.a.g.M.B.(.^.k oXXXY JXJXJXJXJX<.",
"<.JXJXJXJX4.~ { W o v l z y @ q 9.0.e g v.j * Q.U f JXJXJXJXJX<.",
"<.JXJXJXJXdX( wX-.: m n B p i q.i.g.t z.N.^.)..X[.Y JXJXJXJXJX<.",
"<.KXJXJXJXlXrXuX,.#.&.*.D.Z.k.f.J.P.M.B.+X%X=X&X<X{.JXJXJXJXJX<.",
"<.JXJXJXHXzX0XuXiX..O.*.D.A.k.f.J.h.w.l.N.E.R.~.U f JXJXJXJXJX<.",
"<.JXJXJXJXjX( wXiXE o.n N u @ . . 3 5 r 7 X   & `.L JXJXJXJXJX<.",
"<.JXJXJXJXjX~ [ _ o v l z y 1 PXPX1 e c.O KXIX2.`.,XKXJXJXJXJX<.",
"<.JXJXJXJXzX9XuX:.R o.Z A A.$ 2.IXKX+ 7 nXIXnXa U & JXJXJXJXJX<.",
"<.JXJXJXJXzX8XuXiX@.O.C S A.t.$ BXIXbX1.IXJXO P `.K JXJXJXJXJX<.",
"<.KXJXJXJXzX0XuXiX$.O.*.S F.4 6 O JXIXPXPX2 h oX<XXXJXJXJXJXJX<.",
"<.JXJXJXJXzXT ] W : , ; 8 9 4 w 0 2 IXIX7.d &X&X].& JXJXJXJXJX<.",
"<.JXJXJXJXzX^ = <.<.2 <.1 M y.p.4 6XIXIXAX% R.!.].OXJXJXJXJXKX<.",
"<.KXJXJXJXzX7X  IXIXIXIXvX8 u.6 2 IXPXZXIX7.F MXKXKXJXJXJXJXJX<.",
"<.JXJXJXJXzX) T 2 <.<.2 1 V u O KXIX<.O PXIX2 6.JXJXJXJXJXJXJX<.",
"<.JXJXJXJXzX^ tX` R > b N M + VXIXvX2.5.<.IXLXO BXJXJXJXJXJXJX<.",
"<.JXJXJXJXnX/ ' } R > b =.3.5.IXKX1 AXJX2.8.IXmX1.JXJXJXJXJXHX<.",
"<.ZXJXJXJXJXJXCXhX< xXGXJXBX2 <.O 8.JXJXAX2.<.<.mXJXJXJXJXJXVX<.",
"1.bXJXJXJXJXJXJXJXJXJXJXJXJXBXmXHXJXJXJXJXJXmXmXJXJXJXKXJXJX7.1.",
"7.1.kXZXJXKXJXJXJXJXJXKXJXJXJXJXJXJXJXJXJXJXJXJXJXJXJXHXVX8.<.7.",
"UX7.1.<.<.<.<.! <.<.<.<.<.<.<.<.<.<.<.<.<.<.<.<.<.<.<.<.<.1.7.UX"
};
