/* XPM */
static char *dynamicaCreateActiveMeshArray[] = {
/* columns rows colors chars-per-pixel */
"32 32 176 2 ",
"   c #313131",
".  c #323232",
"X  c #1D591D",
"o  c #016701",
"O  c #046A04",
"+  c #056B05",
"@  c #076A07",
"#  c #076D07",
"$  c #0D610D",
"%  c #0B710B",
"&  c #0D730D",
"*  c #0E740E",
"=  c #0F750F",
"-  c #147A14",
";  c #157B15",
":  c #177D17",
">  c #197319",
",  c #394B39",
"<  c #2D692D",
"1  c #247824",
"2  c #444444",
"3  c gray27",
"4  c #464646",
"5  c #484848",
"6  c #494949",
"7  c gray30",
"8  c #4E4E4E",
"9  c gray36",
"0  c #6A6A6A",
"q  c #727272",
"w  c gray45",
"e  c gray47",
"r  c gray48",
"t  c #7C7C7C",
"y  c #1B811B",
"u  c #1C821C",
"i  c #1D831D",
"p  c #1F851F",
"a  c #208620",
"s  c #248A24",
"d  c #268C26",
"f  c #278D27",
"g  c #2A902A",
"h  c #2D932D",
"j  c #2E942E",
"k  c #2F952F",
"l  c #338033",
"z  c #359B35",
"x  c #369C36",
"c  c #399F39",
"v  c #3AA03A",
"b  c #3BA13B",
"n  c #3EA43E",
"m  c #418C41",
"M  c #518F51",
"N  c #538F53",
"B  c #549054",
"V  c #549154",
"C  c #559155",
"Z  c #5B945B",
"A  c #5D955D",
"S  c #42A842",
"D  c #43A943",
"F  c #44AA44",
"G  c #45AB45",
"H  c #46AC46",
"J  c #4AB04A",
"K  c #4BB14B",
"L  c #4DB34D",
"P  c #50B650",
"I  c #51B751",
"U  c #52B852",
"Y  c #53B953",
"T  c #55BB55",
"R  c #56BC56",
"E  c #57BD57",
"W  c #609660",
"Q  c #619761",
"!  c #669563",
"~  c #669966",
"^  c #699A69",
"/  c #6A9B6A",
"(  c #6C9C6C",
")  c #74A074",
"_  c #77A277",
"`  c #5AC05A",
"'  c #5BC15B",
"]  c #5CC25C",
"[  c #5DC35D",
"{  c #5EC45E",
"}  c #60C660",
"|  c #61C761",
" . c #65CB65",
".. c #67CD67",
"X. c #68CE68",
"o. c #69CF69",
"O. c #6AD06A",
"+. c #6BD16B",
"@. c #6DD36D",
"#. c #6FD56F",
"$. c #71D771",
"%. c #74DA74",
"&. c #75DB75",
"*. c #77DD77",
"=. c #78DE78",
"-. c #79DF79",
";. c #7DE37D",
":. c #7EE47E",
">. c #808080",
",. c gray51",
"<. c #838383",
"1. c #848484",
"2. c gray52",
"3. c #868686",
"4. c #898989",
"5. c #8D8D8D",
"6. c #8E8E8E",
"7. c gray56",
"8. c #929292",
"9. c #939393",
"0. c #959595",
"q. c gray60",
"w. c #9A9A9A",
"e. c #9B9B9B",
"r. c gray61",
"t. c gray62",
"y. c #9F9F9F",
"u. c #82A782",
"i. c #85A885",
"p. c #86A986",
"a. c #9AA09A",
"s. c #95B095",
"d. c #96B196",
"f. c #9AB39A",
"g. c #A0A0A0",
"h. c #A4A4A4",
"j. c gray67",
"k. c #AFAFAF",
"l. c #A3B8A3",
"z. c #A4B9A7",
"x. c #A6B9A6",
"c. c #A7BAA7",
"v. c #A8BAA8",
"b. c #AABBAA",
"n. c #ACBCAC",
"m. c #B1B1B1",
"M. c #B2B2B2",
"N. c gray70",
"B. c gray71",
"V. c #B6B6B6",
"C. c #B7B7B7",
"Z. c #B9B9B9",
"A. c gray73",
"S. c gray74",
"D. c #85EB85",
"F. c #BAC3BA",
"G. c #BFC6BF",
"H. c #C0C0C0",
"J. c #C1C1C1",
"K. c #C1C6C1",
"L. c gray77",
"P. c #C5C5C5",
"I. c #C6C6C6",
"U. c gray78",
"Y. c #C6C8C3",
"T. c #C7CAC7",
"R. c #C8C8C8",
"E. c gray79",
"W. c #CACAC9",
"Q. c #CACACA",
"!. c #CACBCA",
"~. c #CBCBCA",
"^. c #CBCBCB",
"/. c #CBCCCC",
"(. c gray80",
"). c None",
/* pixels */
").q 7 3 3 3 3 5 3 3 3 5 3 3 5 3 3 5 3 3 3 3 3 5 3 3 3 3 3 7 q ).",
"q 7 3.B.Q.(.(.(.(.(.(.(.(.(.(.(.(.(.(.(.(.(.(.(.(.(.(.Q.B.<.5 q ",
"7 4.(.(.(.(.(.(.(.(.(.(.(.(.(.(.(.c.V v.(.(.(.(.(.(.(.(.(.(.r 7 ",
"3 S.(.(.(.(.(.(.(.(.(./.(.F.(.(.l.& j V v.(.(.(.n.v.(.(.(.(.B.3 ",
"3 (.(.(.(.(.(.(.(.(.(.F.~ # ) Q g K T D s Q T.^ & & v.(.(.(.(.3 ",
"3 (.(.(.(.(.(.(.(.(.i.# f z s U  .X.X.| E D V : D i u.(.(.(.(.3 ",
"3 (.(.(.(.(.(.(.(.(.l c p # U  .$.=.%.X.{ P S D k B (.(.(.(.(.3 ",
"3 (.(.(.(.(.(.(.(.(.@ K & m ] O.=.D.;.#.| T L L a ) (.(.(.(.(.3 ",
"3 (.(.(.(.(.(.(.(.(.A y h i ' X.%.;.=.@.| P L J = c.(.(.(.(.(.3 ",
"5 (.(.(.(.(.(.(.(.(./.i.- z T | @.$.@...E L L z o /.(.(.(.(.(.3 ",
"3 (.(.(.(.(.(.(.(.(.(.(.d.+ v R ] | | E U L S O f.(.(.(.(.c.B , ",
"3 (.(.(.(.(.(.(.(.(.(.(./.K.V v P T Y L L b V v.(.F.(.(.l.% j X ",
"5 (.(.(.(.(.(.(.(.(.(.(.(.(.Q.^ - H L D i A K.F.~ # ) Q g K R D ",
"3 (.(.(.(.(.(.(.(.(.(.(.c.B c./.( > o 1 _ (.i.+ d z s U  .X...| ",
"3 (.(.(.(.(.(.(.F.(.(.l.% j N c.~.~.(.n.v.(.l v p # U  .$.*.%.O.",
"5 (.(.(.(.(.F.~ # ) Q g K R D d Q Y.! & & v.+ K & m ] O.=.D.;.#.",
"  Q.(.(.(.i.+ d z s U  .X.X.| R D V : D u u.Z y j i ] ..%.:.;.+.",
"  4.Q.(.(.l c p # U  .$.=.%.X.] P D D k B (.(.i.- z T | +.#.@. .",
"3 0.5.(.(.@ J & m ] O.=.D.;.#.| T L L a ) (.(.(.d.+ c E { | } E ",
"3 (.4.g.(.A u h i ] ..*.:.=.@.| P L K = c.(.(.(./.K.V c U Y Y L ",
"3 (.J.,.Z.(.i.- z T | O.#.@. .' L L z o Q.(.(.(.(.(.(.^ - H L D ",
"5 (.(.j.8.(.(.d.+ c E { | | E U L b + f.(.(.(.(.(.(.(.(.( > o $ ",
"3 (.(.(.5.Z.(.Q.r.< c P T U L L b V n.(.(.(.(.(.(.(.(.(.(.(.(.3 ",
"3 (.(.(.h.e.(.G.0 M.^ : D L D i A K.(.(.(.(.(.(.(.(.(.(.(.(.(.3 ",
"5 (.(.(.B.8.(.>.w.(.(.( > o 1 _ (.(.(.(.(.(.(.(.(.(.(.(.(.(.(.3 ",
"3 (.(.(.I.w.h.<.~.(.(.(.(.(.(.(.(.(.(.(.(.(.(.(.(.(.(.(.(.(.(.3 ",
"3 ~.(.I.J.y.t Z.(.(.(.(.(.(.(.(.(.(.(.(.(.(.(.(.(.(.(.(.(.(.(.3 ",
"5 Q.Q.0.9 3.,.5.M.(.(.(.(.(.(.(.(.(.(.(.(.(.(.(.(.(.(.(.(.(.I.3 ",
"3 B.(.Z.y.r w.7.t.Q.(.(.(.(.(.(.(.(.(.(.(.(.(.(.(.(.(.(.(.(.k.3 ",
"8 3.(.(.(.I.(.(.Q.(.(.(.(.(.(.(.(.(.(.(.(.(.(.(.(.(.(.(.(.Q.w 7 ",
"w 5 t M.Q.(.(.(.(.(.(.(.(.(.(.(.(.(.(.(.(.(.(.(.(.(.(.I.j.r 3 q ",
").q 7 3 3 3 3 3 3 3 3 3 3 3 3 3 3 3 3 3 3 3 3 3 3 3 3 3 3 7 q )."
};
