/* XPM */
static char *dynamicaActivate_X[] = {
/* columns rows colors chars-per-pixel */
"32 32 232 2 ",
"   c #010100",
".  c #020E00",
"X  c #051400",
"o  c #0B1600",
"O  c #0D1E00",
"+  c #131B00",
"@  c #1E1A00",
"#  c #101010",
"$  c #211500",
"%  c #231C00",
"&  c #2A1C00",
"*  c #301D00",
"=  c #062200",
"-  c #0F2500",
";  c #062B00",
":  c #102800",
">  c #073700",
",  c #073B00",
"<  c #0D3C00",
"1  c #1A3100",
"2  c #143800",
"3  c #272300",
"4  c #252B00",
"5  c #3F2600",
"6  c #273300",
"7  c #2D3600",
"8  c #2F3C00",
"9  c #3F3600",
"0  c #393D00",
"q  c #222222",
"w  c #313121",
"e  c gray19",
"r  c #402600",
"t  c #412B00",
"y  c #4C3000",
"u  c #453A00",
"i  c #553300",
"p  c #543B00",
"a  c #5F3D00",
"s  c #4F3918",
"d  c #503C1E",
"f  c #0D4400",
"g  c #0A4B00",
"h  c #124500",
"j  c #1C4400",
"k  c #0C5B00",
"l  c #1B5600",
"z  c #135D00",
"x  c #1B5C00",
"c  c #1D5809",
"v  c #2C4300",
"b  c #234B00",
"n  c #344200",
"m  c #354D00",
"M  c #3D4D00",
"N  c #205300",
"B  c #2B5300",
"V  c #2B5800",
"C  c #2E5808",
"Z  c #345600",
"A  c #3B5100",
"S  c #335C00",
"D  c #3E5C00",
"F  c #166300",
"G  c #1E6700",
"H  c #197300",
"J  c #226700",
"K  c #296300",
"L  c #2A6D00",
"P  c #336400",
"I  c #3E6600",
"U  c #237000",
"Y  c #2E7600",
"T  c #247900",
"R  c #287C00",
"E  c #377100",
"W  c #387500",
"Q  c #3D7B00",
"!  c #414000",
"~  c #4D4A00",
"^  c #504600",
"/  c #534A00",
"(  c #5C4A00",
")  c #475300",
"_  c #4C5400",
"`  c #475D00",
"'  c #495F00",
"]  c #535200",
"[  c #5C5500",
"{  c #515D12",
"}  c #6F4300",
"|  c #714700",
" . c #7F4C00",
".. c #655400",
"X. c #6E5300",
"o. c #675900",
"O. c #6B5F00",
"+. c #745400",
"@. c #785400",
"#. c #745B00",
"$. c #795800",
"%. c #436500",
"&. c #406B00",
"*. c #496B00",
"=. c #546B00",
"-. c #5C6900",
";. c #417100",
":. c #4E7200",
">. c #457900",
",. c #4A7D00",
"<. c #567E00",
"1. c #646500",
"2. c #686200",
"3. c #656C00",
"4. c #6D6B00",
"5. c #726100",
"6. c #7C6200",
"7. c #756A00",
"8. c #7F6900",
"9. c #637400",
"0. c #6D7400",
"q. c #627F00",
"w. c #6C7B00",
"e. c #747300",
"r. c #7C7600",
"t. c #757900",
"y. c #787900",
"u. c #70671C",
"i. c #4F5A2D",
"p. c #5D4D34",
"a. c #644B20",
"s. c #665133",
"d. c #685334",
"f. c #755D3A",
"g. c #456B2E",
"h. c #427038",
"j. c #7B6C26",
"k. c #454545",
"l. c #4C4C4C",
"z. c #525252",
"x. c #606060",
"c. c #6D6D6D",
"v. c #727272",
"b. c #7B7B7B",
"n. c #825400",
"m. c #825E00",
"M. c #8B5D00",
"N. c #965C00",
"B. c #985B00",
"V. c #925F12",
"C. c #846200",
"Z. c #8D6200",
"A. c #896F00",
"S. c #906400",
"D. c #9C6500",
"F. c #936C00",
"G. c #9C6D00",
"H. c #837500",
"J. c #8B7200",
"K. c #817900",
"L. c #947300",
"P. c #9B7400",
"I. c #957B00",
"U. c #A26300",
"Y. c #AB6600",
"T. c #A36A00",
"R. c #AA6D00",
"E. c #B16D00",
"W. c #B96F00",
"Q. c #A27500",
"!. c #AD7500",
"~. c #A17900",
"^. c #AC7A00",
"/. c #B67400",
"(. c #BB7100",
"). c #B77A00",
"_. c #B97900",
"`. c #8A7130",
"'. c #C37500",
"]. c #CC7B00",
"[. c #D27E00",
"{. c #8A6E45",
"}. c #997A4C",
"|. c #298200",
" X c #398800",
".X c #428100",
"XX c #4E8100",
"oX c #5E8150",
"OX c #D78100",
"+X c #DC8400",
"@X c #E48900",
"#X c #EB8D00",
"$X c #F39200",
"%X c #FA9600",
"&X c #FF9900",
"*X c #888249",
"=X c #AF874C",
"-X c #A28251",
";X c #A88654",
":X c #AE8B57",
">X c #AE945C",
",X c #BB955E",
"<X c #BE985F",
"1X c #818E68",
"2X c #9E8A6C",
"3X c #A7906A",
"4X c #AFA277",
"5X c #CCA366",
"6X c #CCAD7F",
"7X c #818181",
"8X c #8B8B8B",
"9X c #909090",
"0X c gray60",
"qX c #8BA085",
"wX c #B0AF89",
"eX c #A2A2A2",
"rX c gray68",
"tX c #ACB6A0",
"yX c #B3B3B3",
"uX c #BCBCBC",
"iX c #C1B697",
"pX c #CBBCA5",
"aX c #C1BEAF",
"sX c #C1C2BB",
"dX c #CAC6BE",
"fX c #C3C3C3",
"gX c #CCCCCC",
"hX c #D0D0D0",
"jX c gray88",
"kX c gray94",
"lX c gray100",
"zX c None",
/* pixels */
"zXv.l.k.k.k.k.k.k.k.k.k.k.k.k.k.k.k.k.k.k.k.k.k.k.k.k.k.k.z.v.zX",
"v.l.8XyXgXgXgXgXgXgXgXgXgXhXgXgXgXgXgXhXgXgXhXgXhXgXhXfXyX7Xl.v.",
"l.8XgXgXgXgXgXgXgXgXgXgXgXgXgXgXgXgXgXgXgXgXgXgXgXgXgXgXgXgXb.l.",
"k.uXgXgXgXgXdX2Xd a.>XiXgXgXgXgXgXgXgXgXgXgXgXgXgXgXgXgXgXgXyXk.",
"k.gXgXgXgXp.'.@XW.n.M.$.#.j.*XwXsXgXhXhXhXgXhXgXgXgXgXgXgXgXgXk.",
"k.gXgXgXgX;X&X&X$XT.!.Q.L.8.2.[ _ { d.oXtXfXfXgXgXgXgXgXgXgXgXk.",
"k.gXgXgXgX-X&X&X#XU.!.G.F.J.H.r.0.9.n m V C g.oXqXuXgXgXgXgXgXk.",
"k.gXgXgXgX-X&X&X#XD.!.P.L.J.H.e.0.9.` :.>.W Y G f > gXgXgXgXgXk.",
"k.gXgXgXgXf.].@XN.y M.m.6.6.O.7.9.-.) %.;.E Y T H k gXgXgXgXgXk.",
"k.gXgXgXgXd.'.@X'.| M.@.X.( @ ~ _ ) 6 v S V l J k g gXgXgXgXgXk.",
"k.gXgXgXgX:X%X&X%X/.).^.~.I...e.4.-.` D D b - l < > gXgXgXgXgXk.",
"k.gXgXgXgX-X%X&X&XY.!.Q.L.L.o.y.t.9.q.<.,.Q K |.H k gXgXgXgXgXk.",
"k.gXgXgXgX}.#X&X$XN.Q.G.F.A.^ 7.3.-.=.*.&.P j U F g gXgXgXgXgXk.",
"k.gXgXgXgX{.U.OXY.r n.@.X...3 ~ _ _ 8 v Z b : l h ; gXgXgXgXgXk.",
"k.gXgXgXgX;X'.$XOX| D.Z.m.$.O.2.1.-.n A I P K J z f gXgXgXgXgXk.",
"k.hXgXgXgX<X%X&X&X(._.^.Q.I.I.r.t.t.=.:.XX.X XR H k gXgXgXgXgXk.",
"k.gXgXgXgX<X$X&X&XE./.!.~.I.I.K.0.9.A m I V b l h ; gXgXgXgXgXk.",
"k.gXgXgXgX,X'.%X%XN.G.Z.C.#.^ ] 3     + S B - .   X gXgXgXgXgXk.",
"k.gXgXgXgX<XB.[.(.* a @.+.#.9 ^ q kXkXq v S # hXlXz.8XgXgXgXgXk.",
"k.gXgXgXgX5X[.&XU.e k.t P.L.o.7.0 z.lXhXo 1 9XlX9X. gXgXgXgXgXk.",
"k.gXgXgXgX5X@X&Xr uXlX  P.L.5.r.e.4 eXlX8Xz.lXhX# ; gXgXgXgXgXk.",
"k.hXgXgXgX5XY. .r fXlX  p ( u ^ ] 0 # hXlXkXkXe h F gXgXgXgXgXk.",
"k.gXgXgXgX}.k.b.7XjXlX7X7Xx.% / 1.3.7 e lXlXc.2 x = gXgXgXgXgXk.",
"k.gXgXgXgXd.b.lXlXlXlXlXlXfX% r.e.0.4 7XlXlXfXX c h.gXgXgXgXgXk.",
"k.hXgXgXgX,Xi     fXlX    % ( H.y.0 e lXkXyXlXc.z.gXgXgXgXgXgXk.",
"k.gXgXgXgX5X].&X5 fXlX  Q.P.J.7.! # jXlXe # kXlXe c.gXgXgXgXgXk.",
"k.gXgXgXgX5XW.&X} 9XaX& F.#...u.w yXlX7Xz.c.k.lXjX# 0XgXgXgXgXk.",
"k.gXgXgXgXiXV.(.(.r $ p `.4XaXb.x.lXhXq uXgXz.7XlXeXl.gXgXgXgXk.",
"k.uXgXgXgXgXgXpX=Xd 3XdXgXgXgXeXe k.# b.gXgXuXz.e k.0XgXgXgXrXk.",
"l.7XgXgXgXgXgXgXgXgXgXgXgXgXgXgXeX0XuXgXgXgXgXgXeX0XgXgXgXgXv.l.",
"v.k.7XrXdXgXgXgXgXgXgXgXgXgXgXgXgXgXgXgXgXgXgXgXgXgXgXfXrXb.k.v.",
"zXv.k.k.p.k.k.k.k.k.k.k.k.k.k.k.k.k.k.k.k.k.k.k.k.k.k.k.k.l.v.zX"
};
