/* XPM */
static char *dynamicaCreatePassiveMesh[] = {
/* columns rows colors chars-per-pixel */
"32 32 179 2 ",
"   c #663300",
".  c #673402",
"X  c #673502",
"o  c #683705",
"O  c #693706",
"+  c #6B3B0A",
"@  c #6C3D0D",
"#  c #6D3D0E",
"$  c #6E3F10",
"%  c #6E4011",
"&  c #6F4012",
"*  c #724517",
"=  c #724518",
"-  c #73461A",
";  c #74481C",
":  c #754A1E",
">  c #774C22",
",  c #784D23",
"<  c #7A5128",
"1  c #7C532B",
"2  c #7D552F",
"3  c #444444",
"4  c gray27",
"5  c #464646",
"6  c #484848",
"7  c #494949",
"8  c gray30",
"9  c #4E4E4E",
"0  c #727272",
"q  c gray45",
"w  c gray47",
"e  c gray48",
"r  c #805A34",
"t  c #815C36",
"y  c #825D38",
"u  c #835E3A",
"i  c #835F3A",
"p  c #835F3B",
"a  c #84613D",
"s  c #85613E",
"d  c #86623F",
"f  c #876442",
"g  c #886543",
"h  c #8A6A49",
"j  c #8A6B4A",
"k  c #8C6D4D",
"l  c #8E6E4F",
"z  c #8F7052",
"x  c #907254",
"c  c #917356",
"v  c #927558",
"b  c #927659",
"n  c #93765A",
"m  c #947659",
"M  c #94785C",
"N  c #967A5F",
"B  c #967C61",
"V  c #977C62",
"C  c #987E64",
"Z  c #9B836A",
"A  c #9B836B",
"S  c #9C836B",
"D  c #9C856D",
"F  c #9D856E",
"G  c #9D866E",
"H  c #A08973",
"J  c #A08B75",
"K  c #A28C77",
"L  c #A28D78",
"P  c #A38D79",
"I  c #A38F7A",
"U  c #A6927F",
"Y  c #808080",
"T  c #838383",
"R  c #848484",
"E  c #868686",
"W  c #898989",
"Q  c #A89583",
"!  c #A89684",
"~  c #A99786",
"^  c #A99886",
"/  c #AC9D8D",
"(  c #AD9E8E",
")  c #AE9E8F",
"_  c #AE9F90",
"`  c #AEA091",
"'  c #AFA092",
"]  c #AFA192",
"[  c #B0A294",
"{  c #B1A396",
"}  c #B2A598",
"|  c #B3A69A",
" . c #B3A79A",
".. c #B4A89C",
"X. c #B4A99D",
"o. c #B5A99E",
"O. c #B8AA9C",
"+. c gray67",
"@. c #AFAFAF",
"#. c #B6ACA1",
"$. c #BAAFA6",
"%. c #BAB1A8",
"&. c #BAB2A9",
"*. c #BBB3AA",
"=. c #B1B1B1",
"-. c gray70",
";. c gray71",
":. c #B6B6B6",
">. c #B7B7B7",
",. c #BEB7B0",
"<. c #BFB8B2",
"1. c gray74",
"2. c #C0B9B3",
"3. c #C4BCB5",
"4. c #C3BFBA",
"5. c #C4C0BC",
"6. c #C6C3C0",
"7. c #C6C4C1",
"8. c #C7C4C2",
"9. c #C5C5C5",
"0. c #C6C6C6",
"q. c gray78",
"w. c #C8C6C4",
"e. c #C9C8C6",
"r. c #CAC8C7",
"t. c #C8C8C8",
"y. c gray79",
"u. c #CAC9C8",
"i. c #CBCAC8",
"p. c #CACACA",
"a. c #CBCACA",
"s. c #CBCBCA",
"d. c #CBCBCB",
"f. c gray80",
"g. c #CDCDCD",
"h. c #CFCDCC",
"j. c #CECECE",
"k. c gray81",
"l. c #D0D0D0",
"z. c gray82",
"x. c #D2D2D2",
"c. c LightGray",
"v. c #D5D5D5",
"b. c gray84",
"n. c #D7D7D7",
"m. c #D8D7D6",
"M. c #D8D8D8",
"N. c gray85",
"B. c #DAD9D8",
"V. c #DADADA",
"C. c gray86",
"Z. c gainsboro",
"A. c #DDDDDD",
"S. c gray87",
"D. c #DFDFDF",
"F. c #E1E1E1",
"G. c #E2E2E2",
"H. c gray89",
"J. c #E4E4E4",
"K. c gray90",
"L. c #E6E6E6",
"P. c #E7E7E7",
"I. c gray91",
"U. c #E9E9E9",
"Y. c #EAEAEA",
"T. c gray92",
"R. c #ECECEC",
"E. c gray93",
"W. c #EEEEEE",
"Q. c #EFEFEF",
"!. c gray94",
"~. c #F1F1F1",
"^. c #F3F3F3",
"/. c #F4F4F4",
"(. c gray96",
"). c #F6F6F6",
"_. c #F9F9F9",
"`. c gray99",
"'. c None",
/* pixels */
"'.0 8 4 4 4 4 6 5 5 5 5 5 5 5 5 5 5 5 5 4 4 5 5 5 5 4 4 6 8 0 '.",
"0 8 E ;.p.f.f.f.f.f.f.f.f.f.f.f.f.f.f.f.f.f.f.f.f.f.f.r.-.T 6 0 ",
"8 W f.f.f.f.f.f.f.f.f.f.f.f.f.f.f.f.f.f.f.f.f.f.f.f.f.f.f.f.e 8 ",
"4 1.f.f.f.f.f.f.f.f.f.f.f.f.f.f.f.f.f.f.f.f.f.f.f.f.f.f.f.f.;.4 ",
"4 f.f.f.f.f.f.f.f.f.f.f.f.f.f.f.f.f.f.f.f.f.f.f.f.f.f.f.f.f.f.4 ",
"4 f.f.f.f.f.f.f.f.f.f.f.f.f.f.f.f.f.f.f.f.f.f.f.f.f.f.f.f.f.f.4 ",
"4 f.f.f.f.f.f.f.f.f.f.f.f.f.d.f.f.d.f.f.f.f.f.f.f.f.f.f.f.f.f.4 ",
"4 f.f.f.f.f.f.f.f.f.f.f.f.f.d.[ h O.f.f.f.f.f.f.f.f.f.f.f.f.f.4 ",
"4 f.f.f.f.f.f.f.f.d.f.f.f.f.[ a Q @ 5.f.f.f.f.f.f.f.p.d.f.f.f.4 ",
"6 f.f.f.f.f.f.f.#.[ r.f.8.D % H d.d % D 5.f.f.f.[ B . p.f.f.f.4 ",
"4 f.f.f.f.f.r.H 1 u O ) * O.b.S.C.m.h.} - _ f.M y Z d / f.f.f.4 ",
"4 f.f.f.f.2.N b } o.^ n M.H.H.P.H.S.M.z.d.t ) , w.2.r  .f.f.f.4 ",
"6 f.f.f.f.c D  .< - $.V.H.U.W.W.T.P.S.b.f.p.2 _ f.t D f.f.f.f.4 ",
"4 f.f.f.f.X p.g ^ B 3.S.P.Q.(.(.~.U.F.m.l.f.7.d.r.- 2.f.f.f.f.4 ",
"4 f.f.f.f.O r.z I c M.D.P.~._.`.(.U.F.V.z.f.f.f.*.* 4.f.f.f.f.4 ",
"6 f.f.f.f.n g  .: l b.S.P.W./.(.~.U.F.m.l.f.f.f.P . r.f.f.f.f.4 ",
"4 f.f.f.f.f.U l $.l c.C.F.U.W.W.U.P.S.z.f.f.f.f.d ) f.f.f.f.f.4 ",
"6 f.f.f.f.f.s.K 2 ) p.b.S.F.F.F.F.S.V.z.f.f.f.! + 6.f.f.f.f.f.4 ",
"4 f.f.f.f.f.f.f._ d f k.b.V.C.S.V.b.z.p.f.f.P @ o.f.f.f.f.f.f.4 ",
"4 f.f.f.f.f.f.f.s.s.C b f.l.c.c.z.z.f.f.f.D x 4.p.f.f.f.f.f.f.4 ",
"6 f.f.f.f.f.f.f.f.f.f.b y 2.f.f.f.f.f.7.j x f.f.f.f.f.f.f.f.f.4 ",
"4 f.f.f.f.f.f.f.f.f.f.f.^ @ P f.f.5.H , S f.f.f.f.f.f.f.f.f.f.4 ",
"4 f.f.f.f.f.f.f.f.f.f.f.f.&.x     $ b &.f.f.f.f.f.f.f.f.f.f.f.4 ",
"6 f.f.f.f.f.f.f.f.f.f.f.f.f.f.f.f.f.f.f.f.f.f.f.f.f.f.f.f.f.f.4 ",
"4 f.f.f.f.f.f.f.f.f.f.f.f.f.f.f.f.f.f.f.f.f.f.f.f.f.f.f.f.f.f.4 ",
"4 f.f.f.f.f.f.f.f.f.f.f.f.f.f.f.f.f.f.f.f.f.f.f.f.f.f.f.f.f.f.4 ",
"6 s.f.f.f.f.f.f.f.f.f.f.f.f.f.f.f.f.f.f.f.f.f.f.f.f.f.f.f.f.f.4 ",
"4 p.f.f.f.f.f.f.f.f.f.f.f.f.f.f.f.f.f.f.f.f.f.f.f.f.f.f.f.f.0.4 ",
"4 >.f.f.f.f.f.f.f.f.f.f.f.f.f.f.f.f.f.f.f.f.f.f.f.f.f.f.f.f.@.4 ",
"8 R f.f.f.f.f.f.f.f.f.f.f.f.f.f.f.f.f.f.f.f.f.f.f.f.f.f.f.p.0 8 ",
"q 6 Y =.t.f.f.f.f.f.f.f.f.f.f.f.f.f.f.f.f.f.f.f.f.f.p.0.@.e 4 0 ",
"'.0 8 4 4 4 4 4 4 4 4 4 4 4 4 4 4 4 4 4 4 4 4 4 4 4 4 4 4 8 0 '."
};
