/* XPM */
static char *dynamicaCreatePassiveCube[] = {
/* columns rows colors chars-per-pixel */
"32 32 108 2 ",
"   c #722E01",
".  c #7F3401",
"X  c #7A3608",
"o  c #7D380B",
"O  c #7F3A0D",
"+  c #444444",
"@  c gray27",
"#  c #464646",
"$  c #484848",
"%  c #494949",
"&  c gray30",
"*  c #4E4E4E",
"=  c #727272",
"-  c gray45",
";  c gray47",
":  c gray48",
">  c #803401",
",  c #843601",
"<  c #8A3801",
"1  c #8D3A01",
"2  c #823D0F",
"3  c #913B01",
"4  c #933C01",
"5  c #973D01",
"6  c #9A3F01",
"7  c #833D10",
"8  c #9E4001",
"9  c #864113",
"0  c #8A4518",
"q  c #8C471A",
"w  c #A04101",
"e  c #A24201",
"r  c #A44301",
"t  c #A64301",
"y  c #AB4501",
"u  c #AF4701",
"i  c #B34801",
"p  c #B54901",
"a  c #B84B01",
"s  c #BA4B01",
"d  c #BC4C01",
"f  c #BE4D01",
"g  c #985326",
"h  c #A36033",
"j  c #C24E01",
"k  c #C75101",
"l  c #CF5401",
"z  c #D05401",
"x  c #D85701",
"c  c #DA5801",
"v  c #DC5901",
"b  c #DF5A01",
"n  c #E55D01",
"m  c #EC6001",
"M  c #F46301",
"N  c #FD6601",
"B  c #FF6A05",
"V  c #FF6D0C",
"C  c #FF7010",
"Z  c #FF7417",
"A  c #FF791F",
"S  c #FF7D26",
"D  c #AC6B40",
"F  c #B5764D",
"G  c #FF812C",
"H  c #FF822E",
"J  c #FF8431",
"K  c #FF8635",
"L  c #FF8737",
"P  c #FF8939",
"I  c #BC8059",
"U  c #FF8E42",
"Y  c #FF9248",
"T  c #FF934A",
"R  c #FF9751",
"E  c #FF9A55",
"W  c #C28B66",
"Q  c #C79472",
"!  c #CB9E7F",
"~  c #FFA364",
"^  c #FFA569",
"/  c #808080",
"(  c #838383",
")  c #848484",
"_  c #868686",
"`  c #898989",
"'  c gray67",
"]  c #AFAFAF",
"[  c #B1B1B1",
"{  c gray70",
"}  c gray71",
"|  c #B6B6B6",
" . c #B7B7B7",
".. c gray74",
"X. c #CEA68C",
"o. c #D0AF99",
"O. c #D1B7A6",
"+. c #D0BEB2",
"@. c #CFC5BF",
"#. c #C5C5C5",
"$. c #C6C6C6",
"%. c gray78",
"&. c #C8C8C8",
"*. c gray79",
"=. c #CACACA",
"-. c #CBCBCB",
";. c gray80",
":. c None",
/* pixels */
":.= & @ @ @ @ $ $ $ $ # # # # # # # # # # # # # # # # # # * = :.",
"= & _ } =.;.;.;.;.;.;.;.;.;.;.;.;.;.;.;.;.;.;.;.;.;.;.%.{ ( % - ",
"& ` ;.;.;.;.;.;.;.;.;.;.;.;.;.;.;.;.;.;.;.;.;.;.;.;.;.;.;.;.; * ",
"@ ..;.;.;.;.;.;.;.;.;.;.;.;.;.;.;.;.;.;.;.;.;.;.;.;.;.;.;.;.| @ ",
"@ ;.;.;.;.;.;.;.;.2 2 h W o.$.;.;.;.;.;.;.;.;.;.;.;.;.;.;.;.;.@ ",
"@ ;.;.;.;.;.;.;.X.u X Z n u , g F Q O.;.;.;.;.;.;.;.;.;.;.;.;.@ ",
"@ ;.;.;.;.;.;.;.F n J 2 E ^ ^ K B x 6   I ;.;.;.;.;.;.;.;.;.;.@ ",
"@ ;.;.;.;.;.;.;.O K U J 2 E ^ ^ ^ ^ ^ ~ z F %.;.;.;.;.;.;.;.;.@ ",
"@ ;.;.;.;.;.;.X.u U U U J 2 E ^ ^ ^ ^ ^ ^ n g $.;.;.;.;.;.;.;.@ ",
"$ ;.;.;.;.;.;.F m U U U U J 2 E ^ ^ ^ ^ ^ ~ n O O.;.;.;.;.;.;.@ ",
"@ ;.;.;.;.;.;.O K U U U U U K 7 E ^ ^ ^ ^ ^ ^ N 2 X.;.;.;.;.;.@ ",
"@ ;.;.;.;.;.X.u U U U U U U U K 7 E ^ ^ ^ ^ ^ ^ Z s ! ;.;.;.;.@ ",
"$ ;.;.;.;.;.F m U U U U U U U U K O R Y Y Y Y Y Y J k F ;.;.;.@ ",
"@ ;.;.;.;.;.O K U U U U U U U U U S 9 0 0 q q q q X K j g ;.;.@ ",
"@ ;.;.;.;.X.i U U U U U U U U U K O s p p p p p p s f r q ;.;.@ ",
"$ ;.;.;.;.F m U U U U U U U U U H X s f f f f f f f f , o.;.;.@ ",
"@ ;.;.;.;.o K U U U U U U U U K O s f f f f f f f f 6 D ;.;.;.@ ",
"# ;.;.;.;.o S U U U U U U U U P X s f f f f f f f s O +.;.;.;.@ ",
"# ;.;.;.;.Q f Y U U U U U U P X s f f f f f f f f 3 W ;.;.;.;.@ ",
"# ;.;.;.;.;.g B U U U U U U K O s f f f f f f f r g ;.;.;.;.;.@ ",
"# ;.;.;.;.;.o.t U U U U U P X s f f f f f f d f , o.;.;.;.;.;.@ ",
"# ;.;.;.;.;.;.h c U U U U K O s f f f f f f d 5 F ;.;.;.;.;.;.@ ",
"# ;.;.;.;.;.;.+.< H U U U V s f f f f f f f u 2 @.;.;.;.;.;.;.@ ",
"# ;.;.;.;.;.;.;.W l U U G 9 s f f f f f f f 3 Q ;.;.;.;.;.;.;.@ ",
"# ;.;.;.;.;.;.;.@.0 V U V s f f f j f f f e g ;.;.;.;.;.;.;.;.@ ",
"# ;.;.;.;.;.;.;.&.X.f H 9 p f f s r 4 ,   h O.;.;.;.;.;.;.;.;.@ ",
"# ;.;.;.;.;.;.;.;.;.h c p e 1 . O D Q o.;.;.;.;.;.;.;.;.;.;.;.@ ",
"# =.;.;.;.;.;.;.;.;.O.9 q F ! O.;.;.;.;.;.;.;.;.;.;.;.;.;.;.#.@ ",
"#  .-.-.;.;.;.;.;.;.;.;.;.;.;.;.;.;.;.;.;.;.;.;.;.;.;.;.;.;.] @ ",
"& ) ;.=.;.;.;.;.;.;.;.;.;.;.;.;.;.;.;.;.;.;.;.;.;.;.;.;.;.=.= & ",
"= $ I ] &.;.;.;.;.;.;.;.;.;.;.;.;.;.;.;.;.;.;.;.;.;.;.#.' : @ = ",
":.= & @ @ @ @ @ @ @ @ @ @ @ @ @ @ @ @ @ @ @ @ @ @ @ @ @ @ & = :."
};
