/* XPM */
static char *dynamicaCreateActiveSphereArray[] = {
/* columns rows colors chars-per-pixel */
"32 32 196 2 ",
"   c #313131",
".  c #323232",
"X  c #375713",
"o  c #016701",
"O  c #026802",
"+  c #036903",
"@  c #046A04",
"#  c #056B05",
"$  c #066C06",
"%  c #0A6A0A",
"&  c #086E08",
"*  c #096F09",
"=  c #0D6D0D",
"-  c #0A700A",
";  c #0B710B",
":  c #0C720C",
">  c #0D730D",
",  c #0E740E",
"<  c #117711",
"1  c #127812",
"2  c #137913",
"3  c #147A14",
"4  c #157B15",
"5  c #167C16",
"6  c #177D17",
"7  c #1A731A",
"8  c #1F721F",
"9  c #187E18",
"0  c #197F19",
"q  c #35632E",
"w  c #267A26",
"e  c #3E7E3E",
"r  c #4F6321",
"t  c #444444",
"y  c gray27",
"u  c #464646",
"i  c #484848",
"p  c #494949",
"a  c gray30",
"s  c #4E4E4E",
"d  c gray36",
"f  c #616861",
"g  c #6A6A6A",
"h  c #6D6D6D",
"j  c #727272",
"k  c gray45",
"l  c gray47",
"z  c gray48",
"x  c #7C7C7C",
"c  c #1D831D",
"v  c #1E841E",
"b  c #1F851F",
"n  c #208620",
"m  c #218721",
"M  c #228822",
"N  c #238923",
"B  c #258B25",
"V  c #278D27",
"C  c #288E28",
"Z  c #298F29",
"A  c #2A902A",
"S  c #2B912B",
"D  c #2C922C",
"F  c #2D932D",
"G  c #2E942E",
"H  c #2F952F",
"J  c #3E843E",
"K  c #319731",
"L  c #329832",
"P  c #339933",
"I  c #349A34",
"U  c #359B35",
"Y  c #369C36",
"T  c #379D37",
"R  c #399F39",
"E  c #3BA13B",
"W  c #3CA23C",
"Q  c #3DA33D",
"!  c #3EA43E",
"~  c #3FA53F",
"^  c #3E8640",
"/  c #408640",
"(  c #4D8D4D",
")  c #568B59",
"_  c #40A640",
"`  c #42A842",
"'  c #44AA44",
"]  c #45AB45",
"[  c #46AC46",
"{  c #47AD47",
"}  c #48AE48",
"|  c #49AF49",
" . c #4AB04A",
".. c #4BB14B",
"X. c #4DB34D",
"o. c #4EB44E",
"O. c #4FB54F",
"+. c #50B650",
"@. c #51B751",
"#. c #52B852",
"$. c #54BA54",
"%. c #55BB55",
"&. c #56BC56",
"*. c #57BD57",
"=. c #58BE58",
"-. c #59BF59",
";. c #5F9463",
":. c #619563",
">. c #669966",
",. c #6B976A",
"<. c #729F72",
"1. c #7CA27A",
"2. c #7FA67F",
"3. c #5AC05A",
"4. c #5BC15B",
"5. c #5CC25C",
"6. c #5DC35D",
"7. c #5EC45E",
"8. c #5FC55F",
"9. c #60C660",
"0. c #61C761",
"q. c #62C862",
"w. c #63C963",
"e. c #64CA64",
"r. c #66CC66",
"t. c #68CE68",
"y. c #69CF69",
"u. c #6AD06A",
"i. c #6CD26C",
"p. c #6DD36D",
"a. c #6FD56F",
"s. c #71D771",
"d. c #73D973",
"f. c #74DA74",
"g. c #76DC76",
"h. c #78DE78",
"j. c #79DF79",
"k. c #7AE07A",
"l. c #7EE47E",
"z. c #7FE57F",
"x. c #808080",
"c. c gray51",
"v. c #838383",
"b. c #848484",
"n. c gray52",
"m. c #868686",
"M. c #898989",
"N. c #8D8D8D",
"B. c #8E8E8E",
"V. c gray56",
"C. c #929292",
"Z. c #939393",
"A. c #959595",
"S. c #979797",
"D. c gray60",
"F. c #9A9A9A",
"G. c #9B9B9B",
"H. c gray61",
"J. c gray62",
"K. c #9F9F9F",
"L. c #8CAC8C",
"P. c #9CA18F",
"I. c #99B299",
"U. c #A0A0A0",
"Y. c gray64",
"T. c #A4A4A4",
"R. c #A3AFA3",
"E. c gray67",
"W. c #AFAFAF",
"Q. c #A3B5AB",
"!. c #B1B1B1",
"~. c #B2B2B2",
"^. c gray70",
"/. c gray71",
"(. c #B6B6B6",
"). c #B7B7B7",
"_. c #B2BFB2",
"`. c #B9B9B9",
"'. c gray73",
"]. c #BCBCBC",
"[. c gray74",
"{. c #82E882",
"}. c #84EA84",
"|. c #BFC6BF",
" X c #C0C0C0",
".X c #C1C1C1",
"XX c gray77",
"oX c #C5C5C5",
"OX c #C6C6C6",
"+X c gray78",
"@X c #C8C8C8",
"#X c gray79",
"$X c #CACACA",
"%X c #CBCBCB",
"&X c gray80",
"*X c None",
/* pixels */
"*Xj a y y y y i y y y i y y y y y i y y y y y i y y u u u s j *X",
"j a m./.$X&X&X&X&X&X&X&X&X&X&X&X&X&X&X&X&X&X&X&X&X&X&X@X^.v.p j ",
"a M.&X&X&X&X&X&X&X&X&X&X&X&X&X&X&X&X&X&X&X&X&X&X&X&X&X&X&X&Xl s ",
"y [.&X&X&X&X&X&X&X&X|.( O O O w L.&X&X&X&XL.w o O O ( .X&X&X(.y ",
"y &X&X&X&X&X&X&X&X_.= B *.$...C , >.&X&X>.5 Q *.+.` 5 ; |.#X&Xt ",
"y &X&X&X&X&X&X&X&X/ C 9.i.y.4.{ F # _._.* X.r.i.e.+.~ 3 J @X%Xt ",
"y &X&X&X&X&X&X&X&Xo @.y.z.k.w...U , >.>.N 4.f.}.a.3.! A + &X%Xt ",
"y &X&X&X&X&X&X&X&Xo X.w.f.s.8.| P , >.>.N -.i.g.t.$.! V + %X%Xu ",
"y &X&X&X&X&X&X&X&XO ` $.6.4.O.~ V + <.,.c ..4.8.*.} T v O &X&Xt ",
"i &X&X&X&X&X&X&X&X( 9 ~ { ] Q G 5 o |.|.O G ` { ` T B ; ( &X&Xy ",
"y &X&X&X&X&X&X&X&X|.w 3 A G C 2 + 2.&X&X2.; v G A v ; w |.&X&Xy ",
"y &X&X&X&X&X&X&X&X&X|.>.7 o o / I.&X&X&X&XI.J O O 7 >.|.&X&X&Xy ",
"i &X&X&X&X&X&X&X&X&X&X&X&X&X&X&X&X&X&X&X&X&X&X&X&X&X&X&X&X&X&Xy ",
"y &X&X&X&X&X&X&X&X&X|.>.7 o o ^ I.&X&X&X&XI.J O O 7 >.|.&X&X&Xy ",
"y &X&X&X&X&X&X&X&X|.w N | @.{ B & 1.&X&X2.2 T $.X.E 5 w |.&X&Xy ",
"i &X&X&X&X&X&X&X&X( N 6.y.y.-.] N O P.|.& ` w.u.8.O.E 2 ( &X&Xy ",
"  %X&X%X&X&X&X&X&Xo #.u.z.k.w...P : r ,.b 5.d.z.a.3.` S O &X&Xt ",
". M.%X%X&X&X&X&X&Xo O.w.f.d.8...P , X ) M 3.a.k.u.$.! V O &X%Xt ",
"y Z.B.%X&X&X&X&X&Xo ` *.8.8.#.~ S & q ;.c X.5.0.3.} E b + &X%Xu ",
"i %XM.Y.&X&X&X&X&XJ v ` ..{ ~ P c O R.|.+ E [ | ] E V - J %X%Xu ",
"y %X.Xv.'.%X%X%X$XR.% 3 P G A 5 + ;.&X&X>., N P H N : , |.%X%Xt ",
"i %X%XE.Z.%X%X%XoXS.f e o O O 8 L.%X&X&X%XL.w + O O ( |.#X#X%Xt ",
"i &X%X%XN.`.%X%XY.h ].&X&X&X&X&X&X&X&X&X&X&X&X&X&X&X&X&X&X%X%Xu ",
"i &X&X&XT.H.%X|.g ~.&X&X&X&X&X&X&X&X&X&X&X&X&X&X&X&X&X&X&X%X%Xu ",
"y %X&X&X`.C.%Xx.H.&X&X&X&X&X&X&X&X&X&X&X&X&X&X&X&X&X&X&X&X&X&Xt ",
"i %X&X%XoXF.T.v.&X&X&X&X&X&X&X&X&X&X&X&X&X&X&X&X&X&X&X&X&X&X&Xu ",
"y %X%XoX.XU.x ].&X&X&X&X&X&X&X&X&X&X&X&X&X&X&X&X&X&X&X&X&X&X&Xt ",
"i #X%XZ.d v.c.N.W.&X&X&X&X&X&X&X&X&X&X&X&X&X&X&X&X&X&X&X&X&XoXu ",
"y `.$X].U.l H.V.H.&X&X&X&X&X&X&X&X&X&X&X&X&X&X&X&X&X&X&X&X&XW.t ",
"s v.%X%X%XoX&X%X&X&X&X&X&X&X&X&X&X&X&X&X&X&X&X&X&X&X&X&X&X&Xj a ",
"k i x.!.#X%X&X&X&X&X&X&X&X&X&X&X&X&X&X&X&X&X&X&X&X&X&X@XE.z u j ",
"*Xj a y y y y i u t u t u t u t u t u t u t u t t t u t u s j *X"
};
