/* XPM */
static char *dynamicaCreateActiveHull[] = {
/* columns rows colors chars-per-pixel */
"32 32 185 2 ",
"   c #252525",
".  c #393939",
"X  c #016701",
"o  c #026802",
"O  c #056B05",
"+  c #076D07",
"@  c #0B6C0B",
"#  c #0D6E0D",
"$  c #0E6E0E",
"%  c #0A700A",
"&  c #0B710B",
"*  c #0C720C",
"=  c #0D730D",
"-  c #0E740E",
";  c #176417",
":  c #107610",
">  c #117711",
",  c #147014",
"<  c #177217",
"1  c #147A14",
"2  c #157B15",
"3  c #167C16",
"4  c #177D17",
"5  c #1B741B",
"6  c #187E18",
"7  c #197F19",
"8  c #434343",
"9  c #444444",
"0  c gray27",
"q  c #464646",
"w  c #484848",
"e  c #494949",
"r  c gray30",
"t  c #4E4E4E",
"y  c gray35",
"u  c #5A5A5A",
"i  c gray36",
"p  c #626262",
"a  c #646464",
"s  c #6F6F6F",
"d  c gray44",
"f  c #717171",
"g  c #727272",
"h  c gray45",
"j  c #747474",
"k  c #767676",
"l  c gray47",
"z  c gray48",
"x  c gray49",
"c  c #7E7E7E",
"v  c #1A801A",
"b  c #1C821C",
"n  c #1D831D",
"m  c #1E841E",
"M  c #1F851F",
"N  c #228822",
"B  c #248A24",
"V  c #298F29",
"C  c #2C922C",
"Z  c #2D932D",
"A  c #2F952F",
"S  c #338033",
"D  c #338133",
"F  c #348134",
"G  c #398339",
"H  c #329832",
"J  c #369C36",
"K  c #379D37",
"L  c #399F39",
"P  c #3AA03A",
"I  c #3BA13B",
"U  c #3FA53F",
"Y  c #418741",
"T  c #448444",
"R  c #4D8D4D",
"E  c #5A945A",
"W  c #40A640",
"Q  c #41A741",
"!  c #43A943",
"~  c #47AD47",
"^  c #49AF49",
"/  c #4AB04A",
"(  c #4BB14B",
")  c #4CB24C",
"_  c #4DB34D",
"`  c #4EB44E",
"'  c #4FB54F",
"]  c #50B650",
"[  c #51B751",
"{  c #53B953",
"}  c #54BA54",
"|  c #55BB55",
" . c #57BD57",
".. c #58BE58",
"X. c #59BF59",
"o. c #679A67",
"O. c #73A073",
"+. c #5AC05A",
"@. c #5BC15B",
"#. c #5CC25C",
"$. c #5DC35D",
"%. c #5EC45E",
"&. c #5FC55F",
"*. c #60C660",
"=. c #61C761",
"-. c #62C862",
";. c #63C963",
":. c #64CA64",
">. c #65CB65",
",. c #67CD67",
"<. c #68CE68",
"1. c #69CF69",
"2. c #6AD06A",
"3. c #6BD16B",
"4. c #6CD26C",
"5. c #6DD36D",
"6. c #6ED46E",
"7. c #6FD56F",
"8. c #70D670",
"9. c #71D771",
"0. c #73D973",
"q. c #74DA74",
"w. c #75DB75",
"e. c #76DC76",
"r. c #77DD77",
"t. c #78DE78",
"y. c #7BE17B",
"u. c #7CE27C",
"i. c #7EE47E",
"p. c #7FE57F",
"a. c #808080",
"s. c gray51",
"d. c #838383",
"f. c #848484",
"g. c gray52",
"h. c #868686",
"j. c gray53",
"k. c #898989",
"l. c gray54",
"z. c gray57",
"x. c #959595",
"c. c gray59",
"v. c #9A9A9A",
"b. c #9B9B9B",
"n. c gray61",
"m. c #9D9D9D",
"M. c #80A680",
"N. c #8DAD8D",
"B. c #99B399",
"V. c gray63",
"C. c gray64",
"Z. c #A5A5A5",
"A. c gray65",
"S. c #A9A9A9",
"D. c #AAAAAA",
"F. c gray67",
"G. c gray68",
"H. c #AFAFAF",
"J. c #A6B9A6",
"K. c #AEB5AE",
"L. c #B1B1B1",
"P. c #B2B2B2",
"I. c gray70",
"U. c gray71",
"Y. c #B6B6B6",
"T. c #B7B7B7",
"R. c #B3BFB3",
"E. c gray72",
"W. c #BBBBBB",
"Q. c gray74",
"!. c #82E882",
"~. c #85EB85",
"^. c #BFC6BF",
"/. c #C1C1C1",
"(. c gray76",
"). c #C3C3C3",
"_. c #C5C5C5",
"`. c #C6C6C6",
"'. c gray78",
"]. c #C8C8C8",
"[. c gray79",
"{. c #CACACA",
"}. c #CBCBCB",
"|. c gray80",
" X c None",
/* pixels */
" Xg r 0 0 0 0 w 0 0 0 w 0 0 q q q q q q 0 q q q q q q q q t g  X",
"g r h.U.{.|.|.|.|.|.|.|.|.|.}.}.}.|.|.|.|.|.|.|.|.|.}.'.I.d.e g ",
"r k.|.|.|.|.|.|.|.|.|.|.|.|.|.N.R E O.B.|.|.}.}.|.'.}.}.|.}.l t ",
"0 Q.|.|.|.|.|.|.|.|.|.^.M.R , o o o o o o 5 Y o.N.^.}.}.|.}.Y.q ",
"8 |.|.|.|.|.|.|.R.M.T o o o X X 4 H O o o o o o o o o D E B.}.q ",
"0 |.|.|.|.|.|.o.o o o o o o X + C _ 4 O o o o o o o o o o O.}.q ",
"0 |.|.|.|.|.^.X X : 2 X X # W *.-.%.+.{ P % o o o 4 C 4 o J.}.q ",
"q |.|.|.|.|.F X N L L J N $.,.,.2.,.-.%.{ / 4 X = ~ ! 1 , }.}.q ",
"q |.|.|.|.B.X V L 1 # W *.,.8.0.e.9.7.=.X.` ` : K _ 4 o R }.|.0 ",
"q |.|.|.|.R X ^ 7 o X ^ >.1.0.!.i.e.7.>.X.] ` ^ / / % o N.}.|.0 ",
". |.|.|.|.B.o ` N X X X.>.8.t.!.~.t.9.>.$.{ ` ^ _ ! O o ^.|.|.0 ",
"  m.|.|.|.|.< 7 L * X X.>.1.t.t.i.t.7.>.$.] ` ` _ A o D |.|.|.0 ",
"8 g x.|.|.|.J.+ b W 7  .*.,.8.0.e.9.1.=.X.` ` ` ` 4 o o.|.|.|.0 ",
"0 ).k v.|.|.|.5 X : J ]  .*.>.,.1.1.=.X.] ` ` ^ H O # ^.|.|.|.0 ",
"q |.).s D.|.|.J.5 X X N ]  .X.*.=.$.X.{ ` ` ` Z O + J.|.|.|.|.0 ",
"q |.|.T.g (.|.|.|.M.5 # N ] |  .{ { ] ` ` ` V X X J.|.|.|.|.|.0 ",
"0 |.|.|.m.h.|.|.|.|.|.M.X 2 ~ ` ` ` ` ` ^ b X X M.|.|.|.|.|.|.0 ",
"q |.|.|.|.c G.|.|.|.|.(.T X O Z ` ` ~ V * X O M.|.|.|.|.|.|.|.0 ",
"q |.|.|.|.P.c |.|.|._.(.v.; o X X X X X X X M.|.|.|.|.|.|.|.|.0 ",
"q |.|.|.|.'.h.P.|.|.{.S.y K.B.B.B.B.B.B.B.J.|.|.|.|.|.|.|.|.|.0 ",
"q |.|.|.|.|.V.z.|.|.(.u A.|.|.|.|.|.|.|.|.|.|.|.|.|.|.|.|.|.|.0 ",
"q |.|.|.|.|.P.h.'.|.c s.|.|.|.|.|.|.|.|.|.|.|.|.|.|.|.|.|.|.|.0 ",
"q |.|.|.|.|.(.h.E.U.p _.|.|.|.|.|.|.|.|.|.|.|.|.|.|.|.|.|.|.|.0 ",
"q |.|.|.|.|.|.l.U.k A.|.|.|.|.|.|.|.|.|.|.|.|.|.|.|.|.|.|.|.|.0 ",
"q |.|.|.|.|.|.m.k.c |.|.|.|.|.|.|.|.|.|.|.|.|.|.|.|.|.|.|.|.|.0 ",
"q |.|.|._.l.h D.c C.E.|.|.|.|.|.|.|.|.|.|.|.|.|.|.|.|.|.|.|.|.0 ",
"q |.|.|.U.h.i a h.s a x._.|.|.|.|.|.|.|.|.|.|.|.|.|.|.|.|.|.|.0 ",
"q {.|.|.|.|.|.h.m.E.G.G.'.|.|.|.|.|.|.|.|.|.|.|.|.|.|.|.|.|._.0 ",
"0 U.|.|.|.|.|.{.|.|.|.|.|.|.|.|.|.|.|.|.|.|.|.|.|.|.|.|.|.|.H.0 ",
"r f.|.|.|.|.|.|.|.|.|.|.|.|.|.|.|.|.|.|.|.|.|.|.|.|.|.|.|.{.h r ",
"h w a.P.'.|.|.|.|.|.|.|.|.|.|.|.|.|.|.|.|.|.|.|.|.|.|._.G.l 0 g ",
" Xg r 0 0 0 0 0 0 0 0 0 0 0 0 0 0 0 0 0 0 0 0 0 0 0 0 0 0 r g  X"
};
