/* XPM */
static char *dynamica[] = {
/* columns rows colors chars-per-pixel */
"32 32 129 2 ",
"   c #010101",
".  c #090400",
"X  c #0D0900",
"o  c #150B00",
"O  c #1B0C00",
"+  c #1E1100",
"@  c #111111",
"#  c #251400",
"$  c #2B1700",
"%  c #2C1800",
"&  c #371E00",
"*  c #272727",
"=  c #462700",
"-  c #432800",
";  c #492D00",
":  c #502F00",
">  c #4C3200",
",  c #553201",
"<  c #5A3700",
"1  c #643B00",
"2  c #6C4700",
"3  c #6F4900",
"4  c #7C4D00",
"5  c #454545",
"6  c #4B4B4B",
"7  c #515151",
"8  c #585858",
"9  c gray50",
"0  c #875600",
"q  c #8A5200",
"w  c #8D5B00",
"e  c #925D00",
"r  c #956100",
"t  c #9D6800",
"y  c #A56700",
"u  c #A56800",
"i  c #AD6E00",
"p  c #AF7100",
"a  c #B17300",
"s  c #B87400",
"d  c #B97A00",
"f  c #C37A00",
"g  c #C78300",
"h  c #CC8400",
"j  c #CF8800",
"k  c #D18400",
"l  c #D98500",
"z  c #DB8A02",
"x  c #D0870D",
"c  c #DD9300",
"v  c #DB9F00",
"b  c #E39000",
"n  c #E69F00",
"m  c #EA9C00",
"M  c #F09600",
"N  c #FF9601",
"B  c #F39C00",
"V  c #FF9B01",
"C  c #FF9D09",
"Z  c #EFA804",
"A  c #FEA400",
"S  c #F6A800",
"D  c #FEAA01",
"F  c #FFA00F",
"G  c #F5AC0B",
"H  c #FFB300",
"J  c #FFBA00",
"K  c #FFA114",
"L  c #F3AC14",
"P  c #FFA41A",
"I  c #FFB715",
"U  c #FFB813",
"Y  c #FFA724",
"T  c #FFAB2D",
"R  c #FFB126",
"E  c #FFAB32",
"W  c #F1B731",
"Q  c #FFBA33",
"!  c #FFB33C",
"~  c #FFC200",
"^  c #FFCD00",
"/  c gold",
"(  c #FFB342",
")  c #FFC44A",
"_  c #FFC84B",
"`  c #F4CE64",
"'  c #FBCA60",
"]  c #FFC46A",
"[  c #FFC974",
"{  c #FFCC7F",
"}  c gray52",
"|  c #8D8D8D",
" . c #959595",
".. c #9D9D9D",
"X. c #A3A3A3",
"o. c #B3B3B3",
"O. c #B7B7B8",
"+. c gray73",
"@. c #FFCD83",
"#. c #FFCE8B",
"$. c #FFD087",
"%. c #FFD28D",
"&. c #FFD593",
"*. c #FFD598",
"=. c #EFD1A5",
"-. c #F1D1A1",
";. c #FFDDAA",
":. c #FFDFBE",
">. c #FFE0AA",
",. c #FFE4BC",
"<. c #C7C7C8",
"1. c #CBCBCB",
"2. c #D6D6D6",
"3. c #D9D6D2",
"4. c #D5D6D8",
"5. c gray86",
"6. c #FFEAC7",
"7. c #FFEBCC",
"8. c #FFEFDF",
"9. c #FFF0D6",
"0. c #FFF1DC",
"q. c #E2E2E2",
"w. c #ECECEC",
"e. c #FFF3E1",
"r. c #FFF6EC",
"t. c #FFF8ED",
"y. c #EBF1F9",
"u. c #F7F7F7",
"i. c #FFFFFF",
/* pixels */
"i.X.7 5 5 5 5 5 5 5 5 5 5 5 5 5 5 5 5 5 5 5 5 5 5 5 5 5 5 7 X.i.",
"X.7 X.5.u.i.i.i.i.i.i.i.i.i.i.i.i.i.i.i.i.i.i.i.i.i.i.u.5...6 X.",
"7 X.i.i.i.i.i.i.i.e.%.T V L ' 6.i.i.i.i.i.i.i.i.i.i.i.i.i.i.| 7 ",
"5 w.i.i.i.i.i.7.[ Y V D p , u G ) ;.r.i.i.i.i.i.i.i.i.i.i.i.q.5 ",
"5 i.i.i.i.r.$.F V V A n >     < k A ! 6.i.i.i.i.i.i.i.i.i.i.i.5 ",
"5 i.i.i.t.] V V V A D w         1 S A P ;.i.i.i.i.i.i.i.i.i.i.5 ",
"5 i.i.i.@.V V V A D S 4 X     # g D V V K ,.i.i.i.i.i.i.i.i.i.5 ",
"5 i.i.6.C V V M s i c Z t % . 0 J A N V V ! 8.i.i.i.i.i.i.i.i.5 ",
"5 i.i.] V V A j # . & 2 m v e b D C C C C V @.i.i.i.i.i.i.i.i.5 ",
"5 i.0.P V V A d         r / J ! %.&.&.&.&.@.=.2.2.2.1.2.q.4.i.5 ",
"5 i.{ V V V A w       + g H ( 9.i.i.i.i.i.i.y.O.o.o.o.o.o.o.i.5 ",
"5 i.P V V V V i > - # ; m I :.i.i.i.i.i.i.i.u.<.o.o.o.o.o.o.i.5 ",
"5 i.V V V V V A S l q e B Q 8.i.i.i.i.i.i.i.u.1.o.o.o.o.o.O.i.5 ",
"5 i.P V V V V h 3 1 - < c U :.i.i.i.i.i.i.i.i.<.o.o.o.o.o.o.i.5 ",
"5 i.@.V V V A y       o d J ! 7.i.i.i.i.i.i.y.o.o.o.o.o.O.o.i.5 ",
"5 i.e.P N V A g O       4 J A E @.&.%.%.&.@.*.2.4.2.2.2.q.4.i.5 ",
"5 i.i.] V V A c &   o ; d ^ ~ V N C C C V V #.i.i.i.i.i.i.i.i.5 ",
"5 i.i.6.C V V B i w i q q w r z A V V V V ! 0.i.i.i.i.i.i.i.i.5 ",
"5 i.i.i.@.V V N A H b =   . o p J V N V P ,.i.i.i.i.i.i.i.i.i.5 ",
"5 i.i.i.t.] V V V D h $     o p J V V P ;.i.i.i.i.i.i.i.i.i.i.5 ",
"5 i.i.i.i.t.$.F V A f #     . p H V ! 6.i.i.i.i.i.i.i.i.i.i.i.5 ",
"5 i.i.i.i.i.i.7.[ R z 1 - , 1 x _ >.r.i.i.i.i.i.i.i.i.i.i.i.i.5 ",
"5 i.i.i.i.i.i.i.i.e.&.W Z L ` 6.i.i.i.i.i.i.i.i.i.i.i.i.i.i.i.5 ",
"5 i.i.i.i.i.i.i.i.i.i.i.i.i.i.i.i.i.i.i.i.i.i.i.i.i.i.i.i.i.i.5 ",
"5 i.i.9     . i.9 * i.* 9 * 9 i.i.  2.i.i.      *       9 i.i.5 ",
"5 i.i.9 . 9   w.9 * i.* 9 * 9 i.i.  2.i.i.  8 9 2.2.   .u.i.i.5 ",
"5 i.i.9       u.9 * i.* 9 * 9 i.i.  2.i.i.      2.i.  2.i.i.i.5 ",
"5 i.i.9 @ 5.. 9  .. 4..  .* 8 4.u.   .2.i.   .2.u.i.  2.i.i.u.5 ",
"5 q.i.}       w.i.@   @ i.*     9       2.      9 i.  2.i.i.2.5 ",
"7 ..i.i.i.i.i.i.i.i.i.i.i.i.i.i.i.i.i.i.i.i.i.i.i.i.i.i.i.i.} 7 ",
"X.6  .2.u.i.i.i.i.i.i.i.i.i.i.i.i.i.i.i.i.i.i.i.i.i.u.u.2.| 5 X.",
"i.X.7 5 5 5 5 5 5 5 5 5 5 5 5 5 5 5 5 5 5 5 5 5 5 5 5 5 5 7 X.i."
};
