/* XPM */
static char *dynamicaClearInitialState[] = {
/* columns rows colors chars-per-pixel */
"32 32 116 2 ",
"   c black",
".  c #010101",
"X  c #020202",
"o  c gray4",
"O  c #111111",
"+  c #1B1B1B",
"@  c #1E1E1E",
"#  c gray21",
"$  c #663300",
"%  c #6A3807",
"&  c #6C3B0B",
"*  c #6C3C0C",
"=  c #6D3D0E",
"-  c #6D3E0E",
";  c #703D00",
":  c #6E3F10",
">  c #794000",
",  c #6F4112",
"<  c #724417",
"1  c #724619",
"2  c #764A1F",
"3  c #794F26",
"4  c #7F5932",
"5  c #444444",
"6  c gray27",
"7  c #464646",
"8  c #484848",
"9  c #494949",
"0  c gray30",
"q  c #4E4E4E",
"w  c #727272",
"e  c gray45",
"r  c gray47",
"t  c gray48",
"y  c #8C4D00",
"u  c #835000",
"i  c #83590A",
"p  c #A05900",
"a  c #A55D00",
"s  c #967310",
"d  c #A06D00",
"f  c #B86A00",
"g  c #A57200",
"h  c #AF7C00",
"j  c #86623F",
"k  c #C67300",
"l  c #CB7700",
"z  c #D07900",
"x  c #8C6C4C",
"c  c #927659",
"v  c #997F66",
"b  c #A08013",
"n  c #A58715",
"m  c #AF9418",
"M  c #BCA61D",
"N  c #C28F00",
"B  c #CB9000",
"V  c #D09D00",
"C  c #EC8D00",
"Z  c #EE8D00",
"A  c #F29000",
"S  c #F39100",
"D  c #F59200",
"F  c #F69300",
"G  c #FF9900",
"H  c #E3B202",
"J  c #F2BF00",
"K  c #F3C000",
"L  c #F6C000",
"P  c #F5C200",
"I  c #F6C300",
"U  c #F7C400",
"Y  c #F4C403",
"T  c #FAC700",
"R  c #FFCC00",
"E  c #F6CC09",
"W  c #FAD00A",
"Q  c #D5C725",
"!  c #E8E12B",
"~  c #ECE62D",
"^  c #F6F330",
"/  c #FAF831",
"(  c #FFFF33",
")  c #9C836B",
"_  c #9F8972",
"`  c #A6927F",
"'  c #808080",
"]  c #838383",
"[  c #848484",
"{  c #868686",
"}  c #898989",
"|  c gray61",
" . c #AC9C8C",
".. c #B2A699",
"X. c gray64",
"o. c #A7A7A7",
"O. c gray67",
"+. c #AFAFAF",
"@. c #B9AFA6",
"#. c #B1B1B1",
"$. c gray70",
"%. c gray71",
"&. c #B6B6B6",
"*. c #B7B7B7",
"=. c #BFB9B2",
"-. c gray74",
";. c #C6C2BF",
":. c #C5C5C5",
">. c #C6C6C6",
",. c gray78",
"<. c #C8C8C8",
"1. c gray79",
"2. c #CACACA",
"3. c #CBCBCB",
"4. c gray80",
"5. c None",
/* pixels */
"5.w 0 6 6 6 6 8 6 6 8 6 6 8 6 6 8 6 6 8 6 6 8 6 6 8 6 6 8 0 w 5.",
"w 0 { %.2.4.4.4.4.4.4.4.4.4.4.4.4.4.4.4.4.4.4.4.4.4.4.,.$.] 8 w ",
"0 } 4.4.4.4.4.4.4.4.4.4.4.4.4.4.4.4.4.4.4.4.4.4.4.4.4.4.4.4.r 0 ",
"6 -.4.4.4.4.4.4.4.4.) = 3 c ` @.4.4.4.4.4.4.4.4.4.4.4.4.4.4.*.6 ",
"6 4.4.4.4.4.4.4.4.4.3 H = M b i = 4  .3.4.4.4.4.4.4.4.4.4.4.3.6 ",
"6 4.4.4.4.4.4.4.4.;.; R Y = ^ ( ^ Q s _ 4.4.4.4.4.4.4.4.4.4.4.6 ",
"6 4.4.4.4.4.4.4.4.` d R R E % / ( ( ! n x 4.4.4.4.4.4.4.4.4.4.6 ",
"6 4.4.4.4.4.4.4.4.j V R R R W % / ( ( ( n 4 ;.4.4.4.4.4.4.4.4.6 ",
"6 4.4.4.4.4.4.4.:.; R R R R R W % ~ ~ ~ ~ m 3 =.4.4.4.4.4.4.4.6 ",
"8 4.4.4.4.4.4.4.` d R R R R R I & 1 1 1 1 < 1 2 4.4.4.4.4.4.4.6 ",
"6 4.4.4.4.4.4.4.j V R R R R R J % C C C C C f j 4.4.4.4.4.4.4.6 ",
"6 4.4.4.4.4.4.4.$ R R R R R I * F G G G G S & =.4.4.4.4.4.4.4.6 ",
"8 4.4.4.4.4.4.4.4 N R R R R I = F G G G G a ) 4.4.4.4.4.4.4.4.6 ",
"6 4.4.4.4.4.4.4.@.u R R R T % F G G G G l 1 2.4.4.4.4.4.4.4.4.6 ",
"6 4.4.4.4.4.4.4.4.x h R R I & F G G G G y ..4.4.4.4.4.4.4.4.4.6 ",
"8 4.4.4.4.4.4.4.4.;.& J T % F G G G G f j 4.4.4.4.4.4.4.4.4.4.6 ",
"6 4.4.4.4.4.4.4.4.4.v g K : S G G Z z = =.4.4.4.4.4.4.4.4.4.4.6 ",
"6 4.4.4.4.4.4.4.4.4.4.1 B C k p ; 1 j  .4.4.4.4.4.4.4.4.4.4.4.6 ",
"6 4.4.4.4.4.4.4.4.4.4..., 1 x ` =.4.4.4.4.4.4.4.4.4.4.4.4.4.4.6 ",
"8 4.4.4.4.4.4.4.4.4.4.4.4.4.4.4.4.4.4.4.4.4.4.4.4.4.4.4.4.4.4.6 ",
"6 4.4.4.4.4.4.4.4.4.4.4.4.4.4.o o 4.4.4.4.4.4.4.4.4.4.4.4.4.4.6 ",
"6 4.4.4.4.4.4.4.4.4.4.4.4.4.4.. X 4.4.4.4.4.4.4.4.4.4.4.4.4.4.6 ",
"8 4.4.4.4.4.4.4.4.4.4.4.4.4.2.. . 4.4.4.4.4.4.4.4.4.4.4.4.4.4.6 ",
"6 4.4.4.4.4.4.4.4.4.4.4.4.4.4.. . 4.4.4.4.4.4.4.4.4.4.4.4.4.4.6 ",
"6 4.4.4.4.4.4.4.4.4.4.4.# @ X.. . X.@ # 4.4.4.4.4.4.4.4.4.4.4.6 ",
"8 4.4.4.4.4.4.4.4.4.4.4.@ . O . . O . @ 4.4.4.4.4.4.4.4.4.4.4.6 ",
"6 4.4.4.4.4.4.4.4.4.4.4.X.O . . . . O X.4.4.4.4.4.4.4.4.4.4.4.6 ",
"6 2.4.4.4.4.4.4.4.4.4.4.2.| @ . . + | 4.4.4.4.4.4.4.4.4.4.4.:.6 ",
"6 %.4.4.4.4.4.4.4.4.4.4.4.4.o.. . o.4.4.4.4.4.4.4.4.4.4.4.4.+.6 ",
"0 { 4.4.4.4.4.4.4.4.4.4.4.4.4.4.2.4.4.4.4.4.4.4.4.4.4.4.4.2.e 0 ",
"w 8 ' #.2.4.4.4.4.4.4.4.4.4.4.4.4.4.4.4.4.4.4.4.4.4.4.,.O.r 7 e ",
"5.w 0 6 6 6 6 6 6 6 6 6 6 6 6 6 6 6 6 6 6 6 6 6 6 6 6 6 6 0 e 5."
};
