/* XPM */
static char *dynamicaBulletWebsite[] = {
/* columns rows colors chars-per-pixel */
"32 32 253 2 ",
"   c black",
".  c #010000",
"X  c #020100",
"o  c #090400",
"O  c #0C0600",
"+  c #0C0700",
"@  c #0C0C0C",
"#  c #150900",
"$  c #140B00",
"%  c #170B00",
"&  c #160C00",
"*  c #191919",
"=  c #231300",
"-  c #271700",
";  c #261800",
":  c #2B1800",
">  c #321C00",
",  c #331C00",
"<  c #351F00",
"1  c #3E2900",
"2  c gray15",
"3  c #323232",
"4  c #3F3F3F",
"5  c #402700",
"6  c #472A00",
"7  c #523100",
"8  c #5B3300",
"9  c #5C3C00",
"0  c #663700",
"q  c #613D00",
"w  c #754400",
"e  c #7A4400",
"r  c #774F00",
"t  c #7C4800",
"y  c #794E00",
"u  c #444444",
"i  c gray27",
"p  c #464646",
"a  c #484848",
"s  c #494949",
"d  c #4C4C4C",
"f  c gray30",
"g  c #4E4E4E",
"h  c gray35",
"j  c #727272",
"k  c gray45",
"l  c gray47",
"z  c gray48",
"x  c gray50",
"c  c #835000",
"v  c #815200",
"b  c #835700",
"n  c #875600",
"m  c #8F5E00",
"M  c #8D6100",
"N  c #976200",
"B  c #9D6200",
"V  c #9F6200",
"C  c #996400",
"Z  c #A86100",
"A  c #A76F00",
"S  c #A86F00",
"D  c #BE6B01",
"F  c #B77400",
"G  c #B97400",
"H  c #BB7500",
"J  c #BF7600",
"K  c #BF7800",
"L  c #CC6600",
"P  c #CC6601",
"I  c #CC6702",
"U  c #CC6804",
"Y  c #CC6906",
"T  c #CC6A07",
"R  c #CC6B0A",
"E  c #CC6C0B",
"W  c #CC6C0D",
"Q  c #C37E00",
"!  c #DE7800",
"~  c #D97C00",
"^  c #CC6E10",
"/  c #CC6E11",
"(  c #CC6F12",
")  c #CC7015",
"_  c #CC7116",
"`  c #CC7217",
"'  c #CC7219",
"]  c #CC731A",
"[  c #CC741B",
"{  c #CC741D",
"}  c #CC751E",
"|  c #CC761F",
" . c #E37D00",
".. c #E37E00",
"X. c #CC7620",
"o. c #CC7621",
"O. c #CC7722",
"+. c #CC7823",
"@. c #CC7824",
"#. c #CC7926",
"$. c #CC7C2B",
"%. c #CC7D2E",
"&. c #CC7E2F",
"*. c #CC7E31",
"=. c #CC7F32",
"-. c #CA8200",
";. c #C08E00",
":. c #CF8A00",
">. c #D48600",
",. c #D68A00",
"<. c #DB8A00",
"1. c #DC9200",
"2. c #E38400",
"3. c #E88600",
"4. c #ED8700",
"5. c #ED8900",
"6. c #EE8801",
"7. c #EE8901",
"8. c #EA8F01",
"9. c #F08B01",
"0. c #F08C01",
"q. c #F28D00",
"w. c #F28C01",
"e. c #F38E00",
"r. c #F88E00",
"t. c #E79000",
"y. c #E89100",
"u. c #E69A00",
"i. c #E09D00",
"p. c #E69C00",
"a. c #EB9A00",
"s. c #EA9B00",
"d. c #F79700",
"f. c #F99300",
"g. c #F89400",
"h. c #FD9700",
"j. c #FB9B00",
"k. c #FF9800",
"l. c #FE9900",
"z. c #FF9A00",
"x. c #FF9B00",
"c. c #F99C00",
"v. c #F99D00",
"b. c #FA9D00",
"n. c #FF9C00",
"m. c #EDAD00",
"M. c #ECAE00",
"N. c #F3A200",
"B. c #F3A400",
"V. c #FAA300",
"C. c #FCA100",
"Z. c #FFA200",
"A. c #FFA300",
"S. c #FFA400",
"D. c #FFA700",
"F. c #F8AA00",
"G. c #F9AB00",
"H. c #FFA900",
"J. c #FFAA00",
"K. c #FFB100",
"L. c #F9B700",
"P. c #FFB400",
"I. c #FFB700",
"U. c #FFB800",
"Y. c #CC8033",
"T. c #CC8034",
"R. c #CC8035",
"E. c #CC8239",
"W. c #CC833A",
"Q. c #FDCB00",
"!. c #CC8B4A",
"~. c #CC9054",
"^. c #CC9055",
"/. c #CC9258",
"(. c #CC9259",
"). c #CC935A",
"_. c #CC955E",
"`. c #CC9966",
"'. c #CC9E70",
"]. c #CCA67F",
"[. c #808080",
"{. c #838383",
"}. c #848484",
"|. c #868686",
" X c #898989",
".X c gray55",
"XX c gray60",
"oX c #BA9D80",
"OX c #BA9E81",
"+X c #B99F85",
"@X c #B7A694",
"#X c #B7A695",
"$X c #B7A696",
"%X c #B7A796",
"&X c #B7A798",
"*X c #B7A898",
"=X c gray65",
"-X c gray67",
";X c #AFAFAF",
":X c #B5ADA5",
">X c #B1B1B1",
",X c #B2B2B2",
"<X c gray70",
"1X c gray71",
"2X c #B6B6B6",
"3X c #B7B7B7",
"4X c gray74",
"5X c gray75",
"6X c #CCA884",
"7X c #CCA986",
"8X c #CCAA89",
"9X c #CCAB8A",
"0X c #CCAE8F",
"qX c #CCAE90",
"wX c #CCAF92",
"eX c #CCB094",
"rX c #CCB196",
"tX c #CCB297",
"yX c #CCB7A2",
"uX c #CCB8A3",
"iX c #CCB8A4",
"pX c #CCBAA7",
"aX c #CCBAA9",
"sX c #CCBBAA",
"dX c #CCBCAC",
"fX c #CCBDAE",
"gX c #CCBEAF",
"hX c #CCBEB0",
"jX c #CCBEB1",
"kX c #CCBFB2",
"lX c #CCC0B4",
"zX c #CCC1B6",
"xX c #CCC2B7",
"cX c #CCC2B8",
"vX c #CCC2B9",
"bX c #CCC3BA",
"nX c #CCC5BE",
"mX c #CCC6BF",
"MX c #C5C5C5",
"NX c #C6C6C6",
"BX c gray78",
"VX c #CCC7C2",
"CX c #CCC8C3",
"ZX c #CCC8C4",
"AX c #CCC8C5",
"SX c #CCC9C6",
"DX c #CCCAC7",
"FX c #C8C8C8",
"GX c gray79",
"HX c #CACACA",
"JX c #CBCBCB",
"KX c gray80",
"LX c None",
/* pixels */
"LXj f i i i i a i i a i i a i i a i i a i i a i i a i i a f j LX",
"j f |.1XHXKXKXKXKXKXKXKXKXKXKXKXKXKXKXKXKXKXKXKXKXKXKXBX<X{.a j ",
"f  XKXKXKXKXKXKXKXKXKXKXKXKXKXKXKXKXKXKXKXKXKXKXKXKXKXKXKXKXl f ",
"i 4XKXKXKXKXKXKXSXyX~.E P *.8XnXKXKXKXKXKXKXKXKXKXKXKXKXKXKX3Xi ",
"i HXKXKXKXKXKXqX!.( 8.u.7 e Y %.'.cXKXKXKXKXKXKXKXKXKXKXKXKXKXi ",
"i KXKXKXKXCX).P 6.c.F.y     % Z 2.#.rXKXKXKXKXKXKXKXKXKXKXKXKXi ",
"i KXKXKXSX~...l.S.U.a.<     + A K.6.E 0XKXKXKXKXKXKXKXKXKXKXKXi ",
"i KXKXKX7X! n.c.G A 1.:.q o y G.d.r.w.` yXKXKXKXKXKXKXKXKXKXKXi ",
"a KXKXSXY.w.S.a.>   = v L.;.~ ] | | { ( ).kXkXjXlXVXvXKXKXKXKXi ",
"i KXKX7XI l.H.-.+     > m.Y `.dXdXdXdXaX6X#.X.| | Y.#.KXKXKXKXi ",
"i KXKX| w.n.H.Q 1 = $ n t._.KXKXKXKXKXKXcX] %X%X%X+XP KXKXKXKXi ",
"p KXKXP I l.h.c.u.Q w G Y eXKXKXKXKXKXKXAXW.OX,X<X:X^ KXKXKXKXi ",
"p KXKXX.e.l.S.<.9 5 : v t.).KXKXKXKXKXKXbX] %X%X@XOXP KXKXKXKXi ",
"p KXKX7XI l.H.,.$     ; i.Y _.pXjXaXdXaX].#.O.O.+.E.$.KXKXKXKXi ",
"p KXKXSXT.w.A.N.6   + 8 m.Q.3.) ] ` ] W ).zXzXzXzXCXnXKXKXKXKXi ",
"p KXKXKX7X! n.A.G m Z t b M >.c.d.f.w.] iXKXKXKXKXKXKXKXKXKXKXi ",
"i KXKXKXSX^. .l.S.P.K $     C P.l.6.E qXKXKXKXKXKXKXKXKXKXKXKXi ",
"i KXKXKXKXCX).L 6.V.C       N B. .#.eXKXKXKXKXKXKXKXKXKXKXKXKXi ",
"a KXKXKXKXKXKXeX!.) I L I 0 Y %.'.nXKXKXKXKXKXKXKXKXKXKXKXKXKXi ",
"i KXKXKXKXKXKXKXDXyX).W P Y.8XVXKXKXKXKXKXKXKXKXKXKXKXKXKXKXKXi ",
"i KXKXKXKXKXKXKXKXKXKXKXKXKXKXKXKXKXKXKXKXKXKXKXKXKXKXKXKXKXKXi ",
"a KXKXKXKXKXKXKXKXKXKXKXKXKXKXKXKXKXKXKXKXKXKXKXKXKXKXKXKXKXKXi ",
"i KXKXKXXX5XKX=X5XKX=X<X,X=XKX4X=XKX4XXXKXXX5XKX=X5XKX=X,XKXKXi ",
"i KXKXKX@ x KX@ j KX* j j * KXj @ KX[.@ KX@ x KX@ j KX* j KXKXi ",
"a KXKXKXd 4 .X  2 =X  ,X,X  =X2   .X4 f HXf 4 .X  2 =X  ,XKXKXi ",
"i KXKXKX.X  f h   4 2 KXKX2 f   h 4   .XKX.X  f h   4 2 KXKXKXi ",
"i KXKXKXHX@   =X3   j KXKXj   4 XX  @ KXKXKX@   =X3   j KXKXKXi ",
"a GXKXKXKXf @ KXj   ,XKXKX,X  j KX@ f KXKXKXf @ KXj   ,XKXKXMXi ",
"i 1XKXKXKX,X=XKXMXXXHXKXKXKXXX4XKX=X,XKXKXKX,X=XKX4XXXKXKXKX;Xi ",
"f |.KXHXKXKXKXKXKXKXHXKXKXKXKXKXKXKXKXKXKXKXKXKXKXKXKXKXKXHXk f ",
"j a x ,XHXKXKXKXKXKXKXKXKXKXKXKXKXKXKXKXKXKXKXKXKXKXKXHX-Xl i j ",
"LXj f i i i i i i i i i i i i i i i i i i i i i i i i i i f j LX"
};
