/* XPM */
static char *dynamicaActivate_Z[] = {
/* columns rows colors chars-per-pixel */
"32 32 233 2 ",
"   c black",
".  c #060906",
"X  c #071700",
"o  c #0D1000",
"O  c #181A00",
"+  c #101010",
"@  c #231D00",
"#  c #2B1B00",
"$  c #132000",
"%  c #1E2400",
"&  c #122800",
"*  c #1D2A00",
"=  c #0C3200",
"-  c #093900",
";  c #163300",
":  c #1E3A00",
">  c #242800",
",  c #2D2800",
"<  c #3A2300",
"1  c #312B0C",
"2  c #2B3500",
"3  c #253900",
"4  c #333100",
"5  c #3D3200",
"6  c #333A00",
"7  c #2A3C1E",
"8  c #202020",
"9  c #283D26",
"0  c #313131",
"q  c #412700",
"w  c #432900",
"e  c #482B00",
"r  c #413400",
"t  c #4F3200",
"y  c #4C3B00",
"u  c #523100",
"i  c #5C3700",
"p  c #5D3800",
"a  c #633C00",
"s  c #0D5500",
"d  c #0D5B00",
"f  c #1D5B00",
"g  c #214700",
"h  c #3D4600",
"j  c #344B00",
"k  c #3D4C00",
"l  c #2C5400",
"z  c #225900",
"x  c #2B5E00",
"c  c #365400",
"v  c #3D5300",
"b  c #355D00",
"n  c #3B5A00",
"m  c #0F6600",
"M  c #136200",
"N  c #196B00",
"B  c #167700",
"V  c #1A7300",
"C  c #127C00",
"Z  c #1A7B00",
"A  c #256500",
"S  c #2D6F00",
"D  c #336500",
"F  c #3C6100",
"G  c #326B00",
"H  c #3D6F00",
"J  c #257300",
"K  c #2D7500",
"L  c #347200",
"P  c #3F7700",
"I  c #354B20",
"U  c #324D30",
"Y  c #384D34",
"T  c #375334",
"R  c #3F5D3A",
"E  c #414300",
"W  c #424900",
"Q  c #4A4900",
"!  c #544200",
"~  c #5C4400",
"^  c #564F00",
"/  c #425100",
"(  c #4D5200",
")  c #445900",
"_  c #4D5F00",
"`  c #515500",
"'  c #5A5500",
"]  c #515900",
"[  c #595D00",
"{  c #664100",
"}  c #6C4200",
"|  c #634D00",
" . c #6C4B00",
".. c #734500",
"X. c #724A00",
"o. c #7C4C00",
"O. c #625500",
"+. c #6A5100",
"@. c #735200",
"#. c #7A5500",
"$. c #775D00",
"%. c #7A5D00",
"&. c #6D5E12",
"*. c #476200",
"=. c #486100",
"-. c #466D00",
";. c #4F6D00",
":. c #536200",
">. c #536A00",
",. c #5C6D00",
"<. c #427400",
"1. c #4B7400",
"2. c #427A00",
"3. c #4F7A00",
"4. c #547300",
"5. c #5D7200",
"6. c #567900",
"7. c #597900",
"8. c #606200",
"9. c #6A6500",
"0. c #626800",
"q. c #696B00",
"w. c #746500",
"e. c #7D6500",
"r. c #766C00",
"t. c #7A6A00",
"y. c #617400",
"u. c #6E7500",
"i. c #627A00",
"p. c #6F7D00",
"a. c #747500",
"s. c #7B7500",
"d. c #747C00",
"f. c #7F7900",
"g. c #62671C",
"h. c #675B2D",
"j. c #626C26",
"k. c #454545",
"l. c #4C4C4C",
"z. c gray33",
"x. c #496E45",
"c. c #517A4C",
"v. c #606060",
"b. c #727272",
"n. c #7C7C7C",
"m. c #814D00",
"M. c #875200",
"N. c #8C5500",
"B. c #845A00",
"V. c #8C5C00",
"C. c #855808",
"Z. c #905600",
"A. c #955900",
"S. c #9B5D00",
"D. c #8C6500",
"F. c #866B00",
"G. c #946500",
"H. c #9C6400",
"J. c #906B00",
"K. c #9C6A00",
"L. c #827400",
"P. c #8A7300",
"I. c #807900",
"U. c #8E7900",
"Y. c #977100",
"T. c #9D7300",
"R. c #917D00",
"E. c #A26300",
"W. c #AB6700",
"Q. c #AF6900",
"!. c #B26D00",
"~. c #A57100",
"^. c #AF7100",
"/. c #A07F00",
"(. c #AA7E00",
"). c #B47500",
"_. c #BD7200",
"`. c #B37B00",
"'. c #BC7B00",
"]. c #926B2E",
"[. c #956F38",
"{. c #C17400",
"}. c #CC7A00",
"|. c #D27E00",
" X c #1C8D00",
".X c #1C9600",
"XX c #248100",
"oX c #2F8200",
"OX c #2A8A00",
"+X c #388E00",
"@X c #289000",
"#X c #229900",
"$X c #2C9900",
"%X c #369200",
"&X c #349900",
"*X c #3A9900",
"=X c #578251",
"-X c #5B8654",
";X c #5D8B57",
":X c #7F834A",
">X c #63965E",
",X c #64985F",
"<X c #7D945C",
"1X c #778B6D",
"2X c #629960",
"3X c #6AA366",
"4X c #B88100",
"5X c #C38100",
"6X c #D78100",
"7X c #D88200",
"8X c #DA8800",
"9X c #A18150",
"0X c #9D8F69",
"qX c #9F9E6C",
"wX c #818181",
"eX c #898989",
"rX c gray60",
"tX c #B2A085",
"yX c #B0AF89",
"uX c #ACB697",
"iX c #A1A1A1",
"pX c gray68",
"aX c #BDBBAC",
"sX c #B4B4B4",
"dX c #BEBEBE",
"fX c #C0B6A0",
"gX c #C2C4BD",
"hX c #C5C5C5",
"jX c #CCCCCC",
"kX c #D0D0D0",
"lX c gray94",
"zX c gray100",
"xX c None",
/* pixels */
"xXb.l.k.k.k.k.k.k.k.k.k.k.k.k.k.k.k.k.k.k.k.k.k.k.k.k.k.k.l.b.xX",
"b.l.eXsXjXjXjXjXjXjXkXjXjXkXjXjXkXjXjXkXjXjXkXjXjXkXjXhXsXeXk.b.",
"l.eXjXjXjXjXjXjXkXjXjXjXjXjXjXjXjXjXjXjXjXjXjXjXjXjXjXjXjXjXn.l.",
"k.dXjXjXjXjXjXjXjXjXjXjXjXjXjXjXjXjXjXuX<XI 7 1XgXjXjXjXjXkXsXk.",
"k.jXjXjXjXjXjXjXjXjXjXjXjXhXgXyX9Xj.) n b l S OXV Y jXjXjXjXjXk.",
"k.jXjXjXjXjXjXjXhXhXfX0Xh.&.' ' :.*.4.1.<.D +X&X#X;XjXjXjXjXjXk.",
"k.jXjXjXjXdXtX9X].C.B. .! P.L.s.u.5.4.-.<.D +X$X#X=XjXjXjXjXjXk.",
"k.jXjXjXjXa ..Q.!.).(.K.$.R.s.s.u.5.4.1.<.D +X$X#X=XjXjXjXjXjXk.",
"k.jXjXjXjXS.{.}._.!.~.D.+.P.r.q.[ :.=.n b * z OXZ R jXjXjXjXjXk.",
"k.kXjXjXjXo.S.W.M.B.B.~ r O.` Q O h n c b g K OXV T jXjXjXjXjXk.",
"k.jXjXjXjXi a Z.< X.B.%.e.t.t.a.( i.6.3.2.L *X$X.X;XjXjXjXjXjXk.",
"k.jXjXjXjXA._.6XE.'.(.4XT.U.f.a.] i.4.1.<.S &X$X.X=XjXjXjXjXjXk.",
"k.kXjXjXjXo.E._.} K.K.J.F.t.r.9.E 5.;.-.H x %X$X Xc.jXjXjXjXjXk.",
"k.kXjXjXjXe } N.q  .#.~ y O.' Q % / v c c & A XXM x.jXjXjXjXkXk.",
"k.jXjXjXjX..S.Q.H.G.J. .! 0.0.:.( _ *.F D g oX@XZ =XjXjXjXjXjXk.",
"k.kXjXjXjXA._.}.8X}.4XY.F.4Xf.d.p.i.6.1.2.L &X$X.X2XjXjXjXjXjXk.",
"k.jXjXjXjXe ..A.m.V.D.| | L.s.a.p.i.6.1.P G &X$X.X>XjXjXjXjXjXk.",
"k.jXjXjXjXi N.S.u #.#.y r O.` ( W *               9 jXjXjXjXjXk.",
"k.jXjXjXjXE.|.|.N.K.@.$.e.w.9.( , k.zXzXzXzXzXzXzX  jXjXjXjXjXk.",
"k.jXjXjXjX< m.W.{ + k.8 F.P.f.q.W + wXwXwXwXpXzXlX. jXjXjXjXjXk.",
"k.jXjXjXjXu M.N.# 0 zXwX5 L.f.a.>.>.3 3 : 8 lXzX0 U jXjXjXjXjXk.",
"k.kXjXjXjXS.Q.i t k.zXwX@ , Q E 6 5.6.F + kXzXv.- 3XjXjXjXjXjXk.",
"k.jXjXjXjX< q wXwXrXzXhXn.wX8 E 2 k j $ iXzXiX= s 3XjXjXjXjXjXk.",
"k.kXjXjXjX[.  zXzXzXzXzXzXzXk.` ,.>.* b.zXkXX N M 3XjXkXjXjXjXk.",
"k.kXjXjXjXjXz.    0 zXwX    4 u.i.6 0 zXlX+ z #X X2XjXjXjXjXjXk.",
"k.jXjXjXjXjXjXjXrXk.zXwX1 O.[ 0.h 8 lXzX0 ; J V d 2XjXjXjXjXjXk.",
"k.jXjXjXjXjXjXjXpX0 dXv.n.aXqXg.o kXzXiXk.k.k.0 k.+ dXjXjXjXjXk.",
"k.jXjXjXjXjXjXjXjXeX0 wXjXjXjXjX  zXzXzXzXzXzXzXzXk.rXhXjXjXhXk.",
"k.sXjXjXjXjXjXkXjXjXjXjXjXjXjXjXz.k.k.0 k.k.0 k.k.+ dXjXjXjXpXk.",
"l.wXjXjXjXjXjXjXjXjXjXjXjXjXjXjXjXrXrXiXrXrXiXrXrXdXjXjXjXjXb.l.",
"b.l.wXsXjXjXjXjXjXjXjXjXkXjXjXjXjXjXjXjXjXjXjXjXjXjXjXhXpXn.l.b.",
"xXb.l.k.k.k.k.k.k.k.k.k.k.k.k.k.k.k.k.k.k.k.k.k.k.k.k.k.k.l.b.xX"
};
