/* XPM */
static char *dynamicaCreateActiveSphere[] = {
/* columns rows colors chars-per-pixel */
"32 32 152 2 ",
"   c #252525",
".  c #393939",
"X  c #016701",
"o  c #026802",
"O  c #056B05",
"+  c #0C6C0D",
"@  c #0D6D0D",
"#  c #0A700A",
"$  c #0C720C",
"%  c #146E15",
"&  c #127812",
"*  c #147A14",
"=  c #167C16",
"-  c #177D17",
";  c #197319",
":  c #1A731A",
">  c #197F19",
",  c #434343",
"<  c #444444",
"1  c gray27",
"2  c #464646",
"3  c #484848",
"4  c #494949",
"5  c gray30",
"6  c #4E4E4E",
"7  c gray32",
"8  c gray35",
"9  c #5A5A5A",
"0  c gray36",
"q  c #476646",
"w  c #626262",
"e  c #646464",
"r  c #6F6F6F",
"t  c gray44",
"y  c #717171",
"u  c #727272",
"i  c gray45",
"p  c #747474",
"a  c #767676",
"s  c gray47",
"d  c gray48",
"f  c gray49",
"g  c #7E7E7E",
"h  c #1A801A",
"j  c #1B811B",
"k  c #1F851F",
"l  c #208620",
"z  c #228822",
"x  c #268C26",
"c  c #278D27",
"v  c #288E28",
"b  c #298F29",
"n  c #2A902A",
"m  c #2F952F",
"M  c #319731",
"N  c #349A34",
"B  c #359B35",
"V  c #379D37",
"C  c #389E38",
"Z  c #399F39",
"A  c #3CA23C",
"S  c #3EA43E",
"D  c #3FA53F",
"F  c #5D905E",
"G  c #40A640",
"H  c #41A741",
"J  c #42A842",
"K  c #43A943",
"L  c #45AB45",
"P  c #46AC46",
"I  c #48AE48",
"U  c #49AF49",
"Y  c #4AB04A",
"T  c #4BB14B",
"R  c #4FB54F",
"E  c #51B751",
"W  c #53B953",
"Q  c #54BA54",
"!  c #55BB55",
"~  c #56BC56",
"^  c #58BE58",
"/  c #59BF59",
"(  c #659865",
")  c #669966",
"_  c #5CC25C",
"`  c #5EC45E",
"'  c #5FC55F",
"]  c #62C862",
"[  c #63C963",
"{  c #66CC66",
"}  c #68CE68",
"|  c #6AD06A",
" . c #6DD36D",
".. c #6FD56F",
"X. c #71D771",
"o. c #74DA74",
"O. c #75DB75",
"+. c #7CE27C",
"@. c #7FE57F",
"#. c #808080",
"$. c gray51",
"%. c #838383",
"&. c #848484",
"*. c gray52",
"=. c #868686",
"-. c gray53",
";. c #898989",
":. c gray54",
">. c #8C918A",
",. c gray57",
"<. c #959595",
"1. c gray59",
"2. c #9A9A9A",
"3. c #9B9B9B",
"4. c gray61",
"5. c #9D9D9D",
"6. c #8CAC8C",
"7. c gray63",
"8. c gray64",
"9. c #A5A5A5",
"0. c gray65",
"q. c #A9A9A9",
"w. c #AAAAAA",
"e. c gray67",
"r. c gray68",
"t. c #AFAFAF",
"y. c #B1B1B1",
"u. c #B2B2B2",
"i. c gray70",
"p. c gray71",
"a. c #B6B6B6",
"s. c #B7B7B7",
"d. c gray72",
"f. c gray73",
"g. c #BBBBBB",
"h. c gray74",
"j. c #82E882",
"k. c #BFC6BF",
"l. c #C1C1C1",
"z. c gray76",
"x. c #C3C3C3",
"c. c #C5C5C5",
"v. c #C6C6C6",
"b. c gray78",
"n. c #C7CACC",
"m. c #C8C8C8",
"M. c gray79",
"N. c #CACACA",
"B. c #CBCBCB",
"V. c #C9CACC",
"C. c gray80",
"Z. c None",
/* pixels */
"Z.u 5 1 1 1 1 3 2 2 2 2 2 2 2 2 2 2 2 2 1 1 1 2 2 2 1 1 1 5 u Z.",
"u 5 =.p.N.C.C.C.C.C.C.C.C.C.C.C.C.C.C.C.C.C.C.C.C.C.C.N.p.%.3 u ",
"5 ;.C.C.C.C.C.C.C.C.C.C.C.C.C.C.C.C.C.C.C.C.C.C.C.C.C.C.C.C.d 5 ",
"1 h.C.C.C.C.C.C.C.C.C.C.C.C.C.C.C.C.C.C.C.C.C.C.C.C.C.C.C.C.p.1 ",
"1 C.C.C.C.C.C.C.C.C.C.C.C.C.C.C.C.k.) : X X o : ) k.C.C.C.C.C.1 ",
"1 C.C.C.C.C.C.C.C.C.C.C.C.C.C.C.6.$ z J U P D M = + 6.C.C.C.C.1 ",
"1 C.C.C.C.C.C.C.C.C.C.C.C.C.C.6.= A W ^ ~ Q T J C k # 6.C.C.C.1 ",
"1 C.C.C.C.C.C.C.C.C.C.C.C.C.z.+ A ~ ] { { ' ~ T D M h + k.C.C.1 ",
"1 C.C.C.C.C.C.C.C.C.C.C.C.C.) z Q ] ..O.o.| ` E J B x $ ) C.C.1 ",
"3 C.C.C.C.C.C.C.C.C.C.C.C.C.: G _ { o.j.@.X.] ~ P C n = : C.C.1 ",
". C.C.C.C.C.C.C.C.C.C.C.C.C.X U ~ { o.@.+...] Q P C b h o C.C.1 ",
"  5.C.C.C.C.C.C.C.C.C.C.C.V.X P W ` | X...} _ R J B x = o C.C.1 ",
", u <.N.C.C.C.C.C.C.C.C.C.n.X G T ~ ` ] ] _ W I A m z & X C.C.1 ",
"1 x.a 2.C.C.C.C.C.C.C.C.C.C.% M J T E ~ Q R I D N v h # : C.C.1 ",
"1 C.c.u e.N.C.C.C.C.C.C.C.C.F = B D J P P J A N n k & o ) C.C.1 ",
"1 C.C.p.u x.C.C.C.C.C.C.C.t.>.+ k M B C C B m v k = O + k.C.C.1 ",
"1 C.C.C.5.=.C.C.C.C.C.N.g.e.u.q # h v n v x z h & O o 6.C.C.C.1 ",
"1 C.C.C.C.g t.C.C.C.C.l.u.2.7 ,.6.+ $ = h = & # o + 6.C.C.C.C.1 ",
"2 C.C.C.C.u.g N.C.C.c.x.3.8 i.C.C.k.) ; X X o : ) k.C.C.C.C.C.1 ",
"2 C.C.C.C.b.=.u.C.C.N.e.8 f.C.C.C.C.C.C.C.C.C.C.C.C.C.C.C.C.C.1 ",
"2 C.C.C.C.C.7.,.C.C.x.8 0.C.C.C.C.C.C.C.C.C.C.C.C.C.C.C.C.C.C.1 ",
"2 C.C.C.C.C.u.=.m.C.g $.C.C.C.C.C.C.C.C.C.C.C.C.C.C.C.C.C.C.C.1 ",
"2 C.C.C.C.C.x.=.g.p.w c.C.C.C.C.C.C.C.C.C.C.C.C.C.C.C.C.C.C.C.1 ",
"2 C.C.C.C.C.C.;.p.a 9.C.C.C.C.C.C.C.C.C.C.C.C.C.C.C.C.C.C.C.C.1 ",
"2 C.C.C.C.C.C.5.;.g C.C.C.C.C.C.C.C.C.C.C.C.C.C.C.C.C.C.C.C.C.1 ",
"2 C.C.C.c.:.u e.g 8.d.C.C.C.C.C.C.C.C.C.C.C.C.C.C.C.C.C.C.C.C.1 ",
"2 C.C.C.p.=.0 e -.t e 1.c.C.C.C.C.C.C.C.C.C.C.C.C.C.C.C.C.C.C.1 ",
"2 N.C.C.C.C.C.=.3.d.t.e.c.C.C.C.C.C.C.C.C.C.C.C.C.C.C.C.C.C.c.1 ",
"1 s.C.C.C.C.C.N.C.C.C.C.C.C.C.C.C.C.C.C.C.C.C.C.C.C.C.C.C.C.t.1 ",
"5 %.C.C.C.C.C.C.C.C.C.C.C.C.C.C.C.C.C.C.C.C.C.C.C.C.C.C.C.N.i 5 ",
"u 3 #.u.b.C.C.C.C.C.C.C.C.C.C.C.C.C.C.C.C.C.C.C.C.C.C.c.e.d 1 i ",
"Z.u 5 1 1 1 1 1 1 1 1 1 1 1 1 1 1 1 1 1 1 1 1 1 1 1 1 1 1 5 u Z."
};
