/* XPM */
static char *dynamicaActivateRadialIn[] = {
/* columns rows colors chars-per-pixel */
"32 32 186 2 ",
"   c #010100",
".  c #030E00",
"X  c #0B0D00",
"o  c #130F00",
"O  c #091300",
"+  c #051B00",
"@  c #141200",
"#  c #1B1500",
"$  c #1D1B00",
"%  c #101010",
"&  c #181818",
"*  c #241500",
"=  c #241B02",
"-  c #2C1C00",
";  c #0F2300",
":  c #032900",
">  c #082F00",
",  c #102400",
"<  c #142C00",
"1  c #1F2D00",
"2  c #053300",
"3  c #003800",
"4  c #093E00",
"5  c #133200",
"6  c #103A00",
"7  c #232500",
"8  c #2E2700",
"9  c #242A00",
"0  c #2C2B00",
"q  c #332500",
"w  c #3A2400",
"e  c #362C00",
"r  c #3A2C00",
"t  c #213500",
"y  c #2D3B00",
"u  c #353000",
"i  c #383300",
"p  c #303800",
"a  c #3B3B00",
"s  c #212121",
"d  c #303030",
"f  c #4C2F00",
"g  c #413300",
"h  c #4A3F00",
"j  c #513100",
"k  c #543B00",
"l  c #4E3918",
"z  c #503C1E",
"x  c #623B00",
"c  c #693F00",
"v  c #4C3D26",
"b  c #004500",
"n  c #0A4400",
"m  c #004E00",
"M  c #124200",
"N  c #1F4E00",
"B  c #005000",
"V  c #1F5000",
"C  c #254200",
"Z  c #294A00",
"A  c #354400",
"S  c #3B4200",
"D  c #344800",
"F  c #225900",
"G  c #345900",
"H  c #006400",
"J  c #006A00",
"K  c #126200",
"L  c #007300",
"P  c #007B00",
"I  c #157100",
"U  c #4C4B00",
"Y  c #584500",
"T  c #545700",
"R  c #5C5A00",
"E  c #624600",
"W  c #6A4000",
"Q  c #614C00",
"!  c #6D4A00",
"~  c #734500",
"^  c #704F00",
"/  c #7F4D00",
"(  c #615300",
")  c #775500",
"_  c #755900",
"`  c #7B5A00",
"'  c #666500",
"]  c #746300",
"[  c #7B6500",
"{  c #746A00",
"}  c #5E4D32",
"|  c #674B20",
" . c #454545",
".. c #4C4C4C",
"X. c #525252",
"o. c gray35",
"O. c #7D6D55",
"+. c #626262",
"@. c #6D6D6D",
"#. c #717171",
"$. c #7B7B7B",
"%. c #875500",
"&. c #8A5300",
"*. c #845C00",
"=. c #8E5808",
"-. c #935A00",
";. c #9D5F00",
":. c #915A09",
">. c #925F12",
",. c #846400",
"<. c #8B6700",
"1. c #8F6F00",
"2. c #9F6400",
"3. c #996900",
"4. c #8D7400",
"5. c #8B7900",
"6. c #937300",
"7. c #9B7300",
"8. c #8A6513",
"9. c #A46300",
"0. c #AC6700",
"q. c #AF6A00",
"w. c #B36C00",
"e. c #B96F00",
"r. c #A57200",
"t. c #AC7500",
"y. c #B27300",
"u. c #BC7200",
"i. c #BB7900",
"p. c #9B6C26",
"a. c #946B2E",
"s. c #956F38",
"d. c #9C7130",
"f. c #C27500",
"g. c #CD7B00",
"h. c #8A6E45",
"j. c #96784B",
"k. c #997A4C",
"l. c #9D8600",
"z. c #A18000",
"x. c #B78600",
"c. c #BD8100",
"v. c #D68000",
"b. c #DF8600",
"n. c #CD9300",
"m. c #D39900",
"M. c #E38800",
"N. c #EC8D00",
"B. c #E49100",
"V. c #EA9500",
"C. c #FF9900",
"Z. c #9D834A",
"A. c #AC854B",
"S. c #A38251",
"D. c #A88654",
"F. c #B99453",
"G. c #BB955D",
"H. c #BE985F",
"J. c #9F8B6D",
"K. c #A98F69",
"L. c #BF9960",
"P. c #BFA277",
"I. c #CCA366",
"U. c #CCAD7F",
"Y. c #818181",
"T. c #8B8B8B",
"R. c #909090",
"E. c #B2A085",
"W. c #BFAC8F",
"Q. c #A0A0A0",
"!. c gray68",
"~. c #B3B3B3",
"^. c #BBBBBB",
"/. c #CAB697",
"(. c #C0B49E",
"). c #C5B6A0",
"_. c #CBBCA5",
"`. c #C7BDAE",
"'. c #CAC5BD",
"]. c #C1C1C1",
"[. c #CCCCCC",
"{. c #D0D0D0",
"}. c gray88",
"|. c gray94",
" X c gray100",
".X c None",
/* pixels */
".X#.X. . . . . . . . . . . . . . . . . . . . . . . . . . ...#..X",
"#...Y.^.[.[.[.[.[.[.[.[.[.{.[.[.[.[.[.{.[.[.[.[.[.{.[.[.~.Y...#.",
"..T.[.[.[.[.[.[.[.[.[.[.[.[.[.[.[.[.[.[.[.[.[.[.[.[.[.[.[.[.$...",
" .^.[.[.[.[.[.[.[.[.[.[.^.@.$.[.[.[.[./.G.| z J.].[.[.[.[.[.~. .",
" .[.[.[.[.[.[.[.[.[.[.[.X.Y.+.O.A.p.-.-.;.&.e.N.f.} [.[.[.[.[. .",
" .[.[.[.[.[.[.[.[.].).K.   X].* ;.q.u.f.f.0.N.C.C.D.[.[.[.[.[. .",
" .[.[.[.[.^.E.S.a.=.&.%.   X].- u.f.u.u.f.q.N.C.C.S.[.[.[.[.[. .",
" .[.[.[.[.x ~ 0.w.f.i.r.   X`.= r.r.q.u.u.9.N.C.N.j.[.[.[.[.[. .",
" .[.[.[.T.=.u.g.i.r.<.g    X].$ U ` ,.*.-.f &.W % % !.[.[.[.[. .",
" .[.[.o.X.% j 2.Q r e Y.^. X|.].X.i h e _ w % Y.|.R.o.[.[.[.[. .",
" .[.[.   X}.X.# % Y.0 % |. X X{.X a  .$.o +.}. X|.Y.+.[.[.[.[. .",
" .[.[.o.v }. X].].|.  y  . X|.& t X }. X{. X|.Y.% v ^.[.[.[.[. .",
" .[.[.[.@.o #.|. X X+.C < #. .< , +. X X XR.% ~ v.k.[.[.{.[.[. .",
" .[.[.[.[.r o ]. X X!.O 4 > 4 n % |. X X Xd Q c.9.h.[.[.[.[.[. .",
" .[.[.[.[.E r Y.+. .d 4 n J H H : d v  .+. .] n.f.D.[.[.[.[.[. .",
" .[.[.[.[.` ( 7 y y N I J P P P P K V G A i l.m.V.H.[.[.[.[.[. .",
" .[.[.[.[.r # !.R.Y.+.> m L L L P 2  . .@.Y.s x.V.L.[.[.[.[.[. .",
" .[.[.[.[.q # Q. X X^.. 3 b m m : #. X X X}.@ n.i.G.[.[.[.[.[. .",
" .[.[.Q...d ]. X X X+.M 2 d % 3 2 %  X X X].s k %.G.[.[.[.[.[. .",
" .[.[...Q. X|.Y.X.}.X N % }.].+ n ; !. X}. X|.Y.% } [.[.[.[.[. .",
" .[.[.+.Y.Y.% 8 @ s 1 O {. X XQ.; Z +.|.% v {. X|.+.$.[.[.[.[. .",
" .{.{.^.+.f 3.1.] T 9 R. X X X X+.A y #.a Y = +.|.{.s [.[.[.[. .",
" .[.[.[.[.w 3.t.7.5.' 1    X[. .d a U i _ *.B.W % % $.[.[.[.[. .",
" .[.[.[.[.s.=.*.` ,.5.]    X].$ R { { ` ! q g.M.;.L.[.[.[.[.[. .",
" .{.[.[.[.[.[.W.F.8._ g    X].= 4.6.7.r.q.w.C.C.g.I.[.[.[.[.[. .",
" .[.[.[.[.[.[.[.[.[.).Z.   X].= r.t.y.e.u.u.C.C.g.I.[.[.[.[.[. .",
" .[.[.[.[.[.[.[.[.[.[.[.& }.].= &.-.q.f.f.f.C.C.u.I.].[.[.[.[. .",
" .[.[.[.[.[.[.[.[.[.[.[.@.& d Y.`.P.d.-.&.-.M.e.>./.[.[.[.{.]. .",
" .^.[.[.[.[.[.[.[.[.[.[.[.[.[.[.[.[.[.'.K.l D._.[.[.[.[.[.[.~.} ",
"..Y.[.[.[.[.[.[.[.[.[.[.[.[.[.[.[.[.[.[.[.[.[.[.[.[.[.{.[.[.#...",
"#. .Y.~.].[.{.[.[.[.[.[.[.[.[.[.[.[.[.[.[.[.[.[.[.[.[.].!.$. .#.",
".X#.X. . . . . . . . . . . . . . . . . . . . . . . . . . ...#..X"
};
