/* XPM */
static char *dynamicaCreatePassiveBvhMesh[] = {
/* columns rows colors chars-per-pixel */
"32 32 166 2 ",
"   c #444444",
".  c gray27",
"X  c #464646",
"o  c #484848",
"O  c #494949",
"+  c gray30",
"@  c #4E4E4E",
"#  c #727272",
"$  c gray45",
"%  c gray47",
"&  c gray48",
"*  c #A2093C",
"=  c #A30A3D",
"-  c #A30C3E",
";  c #A60D40",
":  c #A80F42",
">  c #A61143",
",  c #AB1245",
"<  c #AC1346",
"1  c #AD1447",
"2  c #AE1548",
"3  c #AF1649",
"4  c #AC1F4E",
"5  c #B1184B",
"6  c #B2194C",
"7  c #B51C4F",
"8  c #B61D50",
"9  c #B71E51",
"0  c #B81F52",
"q  c #B92053",
"w  c #BA2154",
"e  c #BB2255",
"r  c #BD2457",
"t  c #BE2558",
"y  c #BF2659",
"u  c #C0275A",
"i  c #C32A5D",
"p  c #C52C5F",
"a  c #CA3164",
"s  c #CD3467",
"d  c #CE3568",
"f  c #D0376A",
"g  c #D33A6D",
"h  c #D73E71",
"j  c #D83F72",
"k  c #DA4174",
"l  c #DB4275",
"z  c #DC4376",
"x  c #C2577B",
"c  c #E0477A",
"v  c #E1487B",
"b  c #E2497C",
"n  c #E44B7E",
"m  c #E84F82",
"M  c #EA5184",
"N  c #EB5285",
"B  c #EC5386",
"V  c #ED5487",
"C  c #EE5588",
"Z  c #EF5689",
"A  c #F0578A",
"S  c #F1588B",
"D  c #F2598C",
"F  c #F45B8E",
"G  c #F55C8F",
"H  c #F65D90",
"J  c #F85F92",
"K  c #C66485",
"L  c #C86B8A",
"P  c #CA708E",
"I  c #CA718F",
"U  c #CB7491",
"Y  c #CB7692",
"T  c #CC7894",
"R  c #CD7B96",
"E  c #CD7D97",
"W  c #CD7D98",
"Q  c #F96093",
"!  c #FA6194",
"~  c #FB6295",
"^  c #FC6396",
"/  c #FD6497",
"(  c #FE6598",
")  c #FF6699",
"_  c #FF699B",
"`  c #FF6A9C",
"'  c #FF6C9D",
"]  c #FF6D9E",
"[  c #FF6F9F",
"{  c #FF70A0",
"}  c #FF72A1",
"|  c #FF75A3",
" . c #FF76A4",
".. c #FF78A5",
"X. c #FF79A6",
"o. c #FF7BA7",
"O. c #FF7CA8",
"+. c #FF7EA9",
"@. c #FF7FAA",
"#. c #808080",
"$. c #838383",
"%. c #848484",
"&. c #868686",
"*. c #898989",
"=. c gray67",
"-. c #AFAFAF",
";. c #B1B1B1",
":. c gray70",
">. c gray71",
",. c #B6B6B6",
"<. c #B7B7B7",
"1. c gray74",
"2. c #CE809A",
"3. c #CF879F",
"4. c #D088A0",
"5. c #D089A0",
"6. c #D089A1",
"7. c #D18EA4",
"8. c #D192A7",
"9. c #D294A9",
"0. c #D298AC",
"q. c #D29EB0",
"w. c #FF81AB",
"e. c #FF82AC",
"r. c #FF84AD",
"t. c #FF87AF",
"y. c #FF88B0",
"u. c #FF8AB1",
"i. c #FF8BB2",
"p. c #FF8DB3",
"a. c #FF8EB4",
"s. c #FF93B7",
"d. c #FF94B8",
"f. c #FF97BA",
"g. c #FF99BB",
"h. c #FF9EBE",
"j. c #D3A3B3",
"k. c #D3A5B4",
"l. c #D3A6B5",
"z. c #D3A7B5",
"x. c #D3A7B6",
"c. c #D3A8B6",
"v. c #D3A9B7",
"b. c #D3ACB9",
"n. c #D3AFBB",
"m. c #D3B2BD",
"M. c #D2B8C0",
"N. c #D1BCC3",
"B. c #D1BEC4",
"V. c #FFA2C1",
"C. c #C5C5C5",
"Z. c #C6C6C6",
"A. c gray78",
"S. c #CFC3C7",
"D. c #CFC6C9",
"F. c #CEC7C9",
"G. c #C8C8C8",
"H. c gray79",
"J. c #CACACA",
"K. c #CBCBCB",
"L. c #CDC9CB",
"P. c #CDCACB",
"I. c #CDCBCB",
"U. c gray80",
"Y. c #D0C3C7",
"T. c None",
/* pixels */
"T.# + . . . . o . o . . o . . o . . o . . . . o . . . . . + # T.",
"# + &.>.J.U.U.U.U.U.U.U.U.U.U.U.U.U.U.U.U.U.U.U.U.U.U.J.>.$.o # ",
"+ *.U.U.U.U.U.U.U.U.U.U.U.U.U.U.U.U.U.U.U.U.U.U.U.U.U.U.U.U.& + ",
". 1.U.U.U.U.U.U.U.U.U.U.U.U.U.U.U.U.U.U.U.U.U.U.U.U.U.U.U.U.>.. ",
". U.U.U.U.U.U.U.U.U.U.U.U.U.U.U.U.U.U.U.U.U.U.U.U.U.U.U.U.U.U.. ",
". U.U.U.U.U.U.U.U.U.U.U.U.U.U.U.U.U.U.U.U.U.U.U.U.U.U.U.U.U.U.. ",
". U.U.U.U.U.U.U.U.U.U.U.U.U.U.U.U.U.U.U.U.U.U.U.U.U.U.U.U.U.U.. ",
". U.U.U.U.U.U.U.U.U.U.U.U.U.U.l.K m.U.U.U.U.U.U.U.U.U.U.U.U.U.. ",
". U.U.U.U.U.U.U.U.U.U.U.U.U.l.9 g ; S.U.U.U.U.U.U.U.P.U.U.U.U.. ",
"o U.U.U.U.U.U.U.m.c.P.U.F.6.: d C 0 : 3.F.U.U.U.v.W = P.U.U.U.. ",
". U.U.U.U.U.P.7.6 9 = l.< b ( ` ( ^ D l , l.P.T 0 a 0 j.U.U.U.. ",
". U.U.U.U.B.R i l z g p (  .X.o. .[ / G B 9 l.2 M n 9 b.U.U.U.. ",
"o U.U.U.U.U a l 5 , z `  .e.y.u.r.X.[ J A B 6 j V 9 6.U.U.U.U.. ",
". U.U.U.U.= V e 0.E M [ +.p.f.g.a.w.} ^ D C M B B < N.U.U.U.U.. ",
". U.U.U.U.> B u 9.Y ~ [ +.a.h.V.f.e. .( F C C C v : Y.U.U.U.U.. ",
"o U.U.U.U.Y e l 2 L ~ [ +.u.d.f.u.w.} ^ D C C C f = P.U.U.U.U.. ",
". U.U.U.U.U.0.y c y H (  .+.r.u.e. .[ J C C C C q l.U.U.U.U.U.. ",
". U.U.U.U.U.K.8.6 j C Q ` } X.X.| [ ^ F C C C g ; F.U.U.U.U.U.. ",
"o U.U.U.U.U.U.U.l.x e S J / _ ` / ^ F V C C d ; n.U.U.U.U.U.U.. ",
". U.U.U.U.U.U.U.U.U.2.i A F H H F A C C C a P S.U.U.U.U.U.U.U.. ",
". U.U.U.U.U.U.U.U.U.U.Y 9 n C C A V C M r P U.U.U.U.U.U.U.U.U.. ",
"o U.U.U.U.U.U.U.U.U.U.P.q.; d C C m d 2 3.U.U.U.U.U.U.U.U.U.U.. ",
". U.U.U.U.U.U.U.U.U.U.U.U.M.P = = 4 Y M.U.U.U.U.U.U.U.U.U.U.U.. ",
". U.U.U.U.U.U.U.U.U.U.U.U.U.U.U.P.U.P.U.U.U.U.U.U.U.U.U.U.U.U.. ",
"o U.U.U.U.U.U.U.U.U.U.U.U.U.U.U.U.U.U.U.U.U.U.U.U.U.U.U.U.U.U.. ",
". U.U.U.U.U.U.U.U.U.U.U.U.U.U.U.U.U.U.U.U.U.U.U.U.U.U.U.U.U.U.. ",
". K.U.U.U.U.U.U.U.U.U.U.U.U.U.U.U.U.U.U.U.U.U.U.U.U.U.U.U.U.U.. ",
"o J.U.U.U.U.U.U.U.U.U.U.U.U.U.U.U.U.U.U.U.U.U.U.U.U.U.U.U.U.C.. ",
". <.U.U.U.U.U.U.U.U.U.U.U.U.U.U.U.U.U.U.U.U.U.U.U.U.U.U.U.U.-.. ",
"+ %.U.U.U.U.U.U.U.U.U.U.U.U.U.U.U.U.U.U.U.U.U.U.U.U.U.U.U.J.# + ",
"# o #.;.G.U.U.U.U.U.U.U.U.U.U.U.U.U.U.U.U.U.U.U.U.U.J.C.-.& . # ",
"T.# + . . . . . . . . . . . . . . . . . . . . . . . . . . + # T."
};
