/* XPM */
static char *dynamicaActivateRadial[] = {
/* columns rows colors chars-per-pixel */
"32 32 145 2 ",
"   c #040404",
".  c #0C0C0C",
"X  c #141414",
"o  c gray11",
"O  c #26003F",
"+  c #232323",
"@  c #2B2B2B",
"#  c #313131",
"$  c #3D3D3D",
"%  c #681500",
"&  c #6C0013",
"*  c #64001A",
"=  c #6A2600",
"-  c #4F0029",
";  c #57003F",
":  c #5E003A",
">  c #73002F",
",  c #7E002A",
"<  c #690037",
"1  c #64003C",
"2  c #7C0032",
"3  c #74003D",
"4  c #774D00",
"5  c #785D00",
"6  c #19004A",
"7  c #3F0040",
"8  c #270052",
"9  c #39005E",
"0  c #05006C",
"q  c #100061",
"w  c #181373",
"e  c #3E0066",
"r  c #33006E",
"t  c #250075",
"y  c #260079",
"u  c #560046",
"i  c #5F0040",
"p  c #57004F",
"a  c #400051",
"s  c #4D0051",
"d  c #44005E",
"f  c #530055",
"g  c #530058",
"h  c #5A0C5F",
"j  c #600046",
"k  c #6B0045",
"l  c #62004C",
"z  c #700042",
"x  c #460061",
"c  c #621966",
"v  c #67327B",
"b  c #454545",
"n  c #4C4C4C",
"m  c #535353",
"M  c #5D5D5D",
"N  c #636363",
"B  c #6B6B6B",
"V  c #727272",
"C  c #7A7A7A",
"Z  c #850202",
"A  c #8E0D00",
"S  c #81000B",
"D  c #8B000B",
"F  c #9B0E00",
"G  c #8F0012",
"H  c #8C0018",
"J  c #990013",
"K  c #970019",
"L  c #9C001D",
"P  c #AD0004",
"I  c #A50009",
"U  c #B30500",
"Y  c #B90005",
"T  c #B20A00",
"R  c #B7000A",
"E  c #AF1A00",
"W  c #AE0014",
"Q  c #A4001D",
"!  c #B50011",
"~  c #8E2800",
"^  c #992B00",
"/  c #AF2700",
"(  c #B22700",
")  c #B82600",
"_  c #AE3800",
"`  c #B23000",
"'  c #B83C00",
"]  c #800025",
"[  c #8B002E",
"{  c #960027",
"}  c #91002A",
"|  c #820034",
" . c #C50005",
".. c #CC0600",
"X. c #CC0C00",
"o. c #CC1E00",
"O. c #CC3700",
"+. c #9A4C00",
"@. c #AE4800",
"#. c #B15600",
"$. c #B06900",
"%. c #070086",
"&. c #07008E",
"*. c #140086",
"=. c #523F98",
"-. c #6A3F86",
";. c #443FA1",
":. c #7C568C",
">. c #76639C",
",. c #504CA5",
"<. c #5D59A9",
"1. c #6A65AB",
"2. c #7665A2",
"3. c #8E6085",
"4. c #886089",
"5. c #896696",
"6. c #80669D",
"7. c #906691",
"8. c #8C7FAD",
"9. c #827FB5",
"0. c #858585",
"q. c #8B8B8B",
"w. c #83809C",
"e. c #988D9D",
"r. c #929292",
"t. c #9B909F",
"y. c #9C9C9C",
"u. c #8E8CB9",
"i. c #9D99BB",
"p. c #A2A2A2",
"a. c #ACACAC",
"s. c #B2ADBC",
"d. c #B3B3B3",
"f. c #BBBBBB",
"g. c #A7A6C0",
"h. c #C0BFC8",
"j. c #C4C4C4",
"k. c #CCCCCC",
"l. c LightGray",
"z. c #DBDBDB",
"x. c #E3E3E3",
"c. c #ECECEC",
"v. c #F1F1F1",
"b. c #FFFFFF",
"n. c None",
/* pixels */
"n.V n b b b b b b b b b b b b b b b b b b b b b b b b b b n V n.",
"V n q.d.k.k.k.k.k.k.k.k.k.k.j.k.k.k.k.k.k.k.k.k.k.k.k.k.d.0.n V ",
"n q.k.k.k.k.k.k.k.k.k.k.f.      k.l.k.k.k.k.k.k.k.l.k.k.k.k.C n ",
"b f.k.k.k.k.k.k.k.k.k.f.X m + d.k.k.k.i.1.,.,.u.g.l.k.k.k.k.d.b ",
"b k.k.k.k.k.k.k.k.k.j.. m k.B . 4.v x r y *.%.0 0     k.k.k.k.b ",
"b k.k.k.k.k.k.k.k.k.t.+ a.b.d.+ : k p f x 8 . $ $ .   k.k.k.k.b ",
"b k.k.j.  q.w.>.-.h : @ d.c.y.+ , [ | 3   b y.a.N . j.k.k.k.k.b ",
"b k.k.a.@ m @ . p k , . M d.n & ! W Q * m x.b.d.#   k.k.k.k.k.b ",
"b k.k.q.m z.f.b   [ Q   $ y.$ F X...Y . d.b.z.N O >.k.k.k.k.k.b ",
"b k.k.d.+ f.b.y.X L Y . n a.n ~ O./ X V f.d.N X s >.k.k.k.k.k.b ",
"b k.k.k.  b a.k.V . T   $ y.$ +.#.+ 0.f.V + . , k 5.k.k.k.k.l.b ",
"b k.k.k.k.O o n f.q.. = M f.B   o q.k.V o P W { z 7.k.k.k.k.k.b ",
"b k.k.k.k.p > & m p.0.C k.c.l.r.q.y.m . ' o. .Q | 3.k.k.k.k.k.b ",
"b j.d.r.y.1 , J Z b z.b.b.b.b.b.x.B 5 $.@./ U G   .   q.a.j.j.b ",
"b . o n $ o o o o M z.b.b.b.b.b.v.q.@ + + + o # m C V n + .   b ",
"$ @ 0.v.k.V V C C k.b.b.b.b.b.b.b.c.p.q.q.q.C r.j.b.b.z.q.$ X b ",
"$ @ 0.v.k.B V C C k.b.b.b.b.b.b.b.c.a.q.q.0.C r.j.b.b.z.q.$ X $ ",
"b . + n b o o + o M z.b.b.b.b.b.v.q.@ + @ + + @ m C V n @ . . b ",
"b j.d.r.r.u > H Z $ z.b.b.b.b.b.x.B 4 #._ E P H   . . q.a.h.j.b ",
"b k.k.k.k.g < * m y.0.C k.v.l.r.q.y.m . ) ..R { 3 4.j.k.k.k.k.b ",
"b k.k.k.j.  o n j.q.. % N f.B . o q.k.V X I L | l 5.k.k.k.k.k.b ",
"b k.k.k.  b p.k.V . I . $ y.$ ^ ` + q.f.V + . 1 f 6.k.k.k.k.k.b ",
"b k.k.a.+ f.b.p.X ] L . b a.n A X.P X V f.a.N X 9 2.k.k.k.k.k.b ",
"b k.k.q.m z.f.b   k 2   $ y.$ D ! W K . d.b.z.M 6 1.k.k.k.k.k.b ",
"b k.k.a.@ n @ . :.c i . M a.n   } [ | - m x.b.d.#   k.k.k.k.k.b ",
"b k.k.k.  q.a.j.k.k.e.@ d.c.y.+ 1 k p s . b y.d.N X j.k.k.k.k.b ",
"b k.k.k.k.k.k.k.k.k.d.+ d.b.d.+ a x e r t q . $ $ .   j.k.k.k.b ",
"b k.k.k.k.k.k.k.k.k.j.  m k.B . s.8.=.*.&.&.%.0 w     k.k.k.j.b ",
"b d.k.k.k.k.k.k.k.k.k.f.X m + a.k.k.k.h.u.;.<.g.k.k.k.k.k.k.a.b ",
"n 0.k.k.k.k.k.k.k.k.k.k.f.      k.k.k.k.k.k.j.k.k.k.k.k.k.k.V n ",
"V b 0.d.k.k.k.k.k.k.k.k.k.k.k.k.k.k.k.k.k.k.k.k.k.k.k.j.a.C b V ",
"n.V b b b b b b b b b b b b b b b b b b b b b b b b b b b n V n."
};
