/* XPM */
static char *dynamicaCreateActiveHull[] = {
/* columns rows colors chars-per-pixel */
"32 32 123 2 ",
"   c #043604",
".  c #053A02",
"X  c #0C3C0C",
"o  c #103F10",
"O  c #252525",
"+  c #393939",
"@  c #0E4409",
"#  c #0F5100",
"$  c #185E04",
"%  c #1A5A0B",
"&  c #134113",
"*  c #1A461A",
"=  c #1D491D",
"-  c #224C22",
";  c #2A522A",
":  c #355B35",
">  c #395E39",
",  c #3D623D",
"<  c #42683F",
"1  c #4C7C3F",
"2  c #454545",
"3  c #4C4C4C",
"4  c #5A5A5A",
"5  c #436543",
"6  c #486C45",
"7  c #4E6E4E",
"8  c #527052",
"9  c #5A7D55",
"0  c #597659",
"q  c #5E795E",
"w  c #5D7860",
"e  c #636363",
"r  c #6F6F6F",
"t  c #627C62",
"y  c #737373",
"u  c #7C7C7C",
"i  c #3C9C0C",
"p  c #3A8D11",
"a  c #408E1D",
"s  c #469F1A",
"d  c #4AA01E",
"f  c #44862A",
"g  c #4D803D",
"h  c #528A3C",
"j  c #569E34",
"k  c #4BA120",
"l  c #54A32C",
"z  c #5AA634",
"x  c #5DA539",
"c  c #62A93E",
"v  c #5C844E",
"b  c #5F914D",
"n  c #61954E",
"m  c #649B4D",
"M  c #6F9E5D",
"N  c #66AA45",
"B  c #6DAC4D",
"V  c #6EAB50",
"C  c #73AE55",
"Z  c #76AF59",
"A  c #77B05A",
"S  c #79B15E",
"D  c #688864",
"F  c #6C846C",
"G  c #749B63",
"H  c #748B74",
"J  c #798E79",
"K  c #7F9D77",
"L  c #7F927F",
"P  c #7FA96D",
"I  c #7CB162",
"U  c #859B7A",
"Y  c #83B36A",
"T  c #84A777",
"R  c #84AD73",
"E  c #85A579",
"W  c #8BB675",
"Q  c #8EB77A",
"!  c #92B97F",
"~  c #858585",
"^  c #8A8A8A",
"/  c #849684",
"(  c #869886",
")  c #8B9F87",
"_  c #8E9E8E",
"`  c gray58",
"'  c #909F90",
"]  c #9C9C9C",
"[  c #8CA089",
"{  c #95BA82",
"}  c #98BB87",
"|  c #9AB28E",
" . c #9CBC8B",
".. c #93A193",
"X. c #9AA69A",
"o. c #9FAA9F",
"O. c #A2BD94",
"+. c #A4A4A4",
"@. c #A2ACA2",
"#. c #ACACAC",
"$. c #ABB3AB",
"%. c #B0BCAA",
"&. c #B4B4B4",
"*. c #B2B8B2",
"=. c #BABBBA",
"-. c #AAC19E",
";. c #ADC2A2",
":. c #B3C4AA",
">. c #BAC6B4",
",. c #BCC0BC",
"<. c #BFC8BA",
"1. c #C1C8BE",
"2. c #C4C5C4",
"3. c #C5C9C3",
"4. c #C8CBC7",
"5. c #CCCCCC",
"6. c #D3D3D3",
"7. c #DBDBDB",
"8. c #E3E3E3",
"9. c #EBEBEB",
"0. c #F3F3F3",
"q. c #FBFBFB",
"w. c None",
/* pixels */
"w.y 3 2 2 2 2 2 2 2 2 2 2 2 2 2 2 2 2 2 2 2 2 2 2 2 2 2 2 3 y w.",
"y 3 ^ &.4.5.5.5.5.5.5.5.5.5.5.5.5.5.5.5.5.4.5.5.5.5.5.4.&.~ 2 y ",
"3 ^ 5.5.5.5.5.5.5.5.5.5.5.<. .A d l x I ! ;.4.5.5.5.5.4.5.5.u 3 ",
"2 =.5.5.5.5.5.5.5.5.>.} C x B } [ 6 T Q A x i l C Y  .>.5.5.&.2 ",
"2 5.5.5.5.5.5.<.W B x I  .2.5.' , / X ,.5.5.5.:.{ Y c s i d 4.2 ",
"2 5.5.5.5.5.3.c I T [ 3.5.2.F o H 4., & F 1.5.5.5...t   O.z 5.2 ",
"2 5.5.5.5.5.W C H ; >   ' X q @.4.5.2.o.w X ..5.q > F > m Y 5.2 ",
"2 5.5.5.5.3.s 9 0 X.o./ , _ 6.7.7.7.6.6.5...& ' - 2.%.: j ;.5.2 ",
"2 5.5.5.4.B f F X.; * X.5.7.8.8.8.8.7.7.6.5._ X ' 5.: D z 3.5.2 ",
"2 5.5.5.3.k . 5.5 ( q / 7.8.8.0.0.9.8.7.6.5.5.&.5.3.* T A 5.5.2 ",
"+ 5.5.5.5.V $ 3.7 L 0 =.7.9.0.0.0.0.8.8.7.5.5.5.5.$.o B { 5.5.2 ",
"O ] 5.5.5.;.a < X.= 8 6.7.8.0.q.q.0.9.8.7.6.5.5.5.J   k >.5.5.2 ",
"2 y ` 5.5.5.Z n 7 $.7 6.7.9.0.0.0.9.9.7.7.5.5.5.5., K z 4.5.5.2 ",
"2 2.y ] 5.5.:.x H ; _ 6.7.8.8.9.0.9.8.7.6.5.5.5./ @ l { 5.5.5.2 ",
"2 5.2.r #.5.5.S c V , X.6.7.8.8.8.8.8.7.6.5.5.$.o j Y 5.5.5.5.2 ",
"2 5.5.&.y 2.5.4.-.C c b 3.6.7.7.7.7.6.5.5.5.3.w V C 5.5.5.5.5.2 ",
"2 5.5.5.] ^ 5.5.5.5.:.l h 3.6.6.6.6.5.5.5.2.w C B 1.5.5.5.5.5.2 ",
"2 5.5.5.5.u #.5.5.5.5.%.x v F 2.5.5.5.2.J F W x 5.5.5.5.5.5.5.2 ",
"2 5.5.5.5.&.u 5.5.5.3.2.U p G 6 # # % v P C B >.5.5.5.5.5.5.5.2 ",
"2 5.5.5.5.5.~ &.5.5.5.+.4 | N N B B B B A I <.5.5.5.5.5.5.5.5.2 ",
"2 5.5.5.5.5.+.` 5.5.2.4 #.5.5.5.5.5.5.5.5.5.5.5.5.5.5.5.5.5.5.2 ",
"2 5.5.5.5.5.#.~ 5.5.u u 5.5.5.5.5.5.5.5.5.5.5.5.5.5.5.5.5.5.5.2 ",
"2 5.5.5.5.5.2.^ =.&.e 5.5.5.5.5.5.5.5.5.5.5.5.5.5.5.5.5.5.5.5.2 ",
"2 5.5.5.5.5.5.^ &.y +.5.5.5.5.5.5.5.5.5.5.5.5.5.5.5.5.5.5.5.5.2 ",
"2 5.5.5.5.5.5.] ^ u 5.5.5.5.5.5.5.5.5.5.5.5.5.5.5.5.5.5.5.5.5.2 ",
"2 5.5.5.5.^ y +.u +.=.5.5.5.5.5.5.5.5.5.5.5.5.5.5.5.5.5.5.5.5.2 ",
"2 5.5.5.&.~ 4 e ~ y e ` 2.5.5.5.5.5.5.5.5.5.5.5.5.5.5.5.5.5.5.2 ",
"2 5.5.5.5.5.5.^ ] =.#.#.3.5.5.5.5.5.5.5.5.5.5.5.5.5.5.5.5.5.2.2 ",
"2 =.5.5.5.5.5.5.5.5.5.5.5.5.5.5.5.5.5.5.5.5.5.5.5.5.5.5.5.5.$.2 ",
"3 u 5.5.5.5.5.5.5.5.5.5.5.5.5.5.5.5.5.5.5.5.5.5.5.5.5.5.5.5.y 3 ",
"y 3 u &.5.5.5.5.5.5.5.5.5.5.5.5.5.5.5.5.5.5.5.5.5.5.5.2.#.u 2 y ",
"w.y 3 2 2 2 2 2 2 2 2 2 2 2 2 2 2 2 2 2 2 2 2 2 2 2 2 2 2 3 y w."
};
