/* XPM */
static char *dynamicaCreatePassiveMesh[] = {
/* columns rows colors chars-per-pixel */
"32 32 167 2 ",
"   c #722E01",
".  c #732F01",
"X  c #742F03",
"o  c #793101",
"O  c #7D3301",
"+  c #783407",
"@  c #444444",
"#  c gray27",
"$  c #464646",
"%  c #484848",
"&  c #494949",
"*  c gray30",
"=  c #4E4E4E",
"-  c #727272",
";  c gray45",
":  c gray47",
">  c gray48",
",  c #823501",
"<  c #843601",
"1  c #863701",
"2  c #883701",
"3  c #8A3801",
"4  c #8D3A01",
"5  c #8F3A01",
"6  c #953D01",
"7  c #973D01",
"8  c #993E01",
"9  c #9A3F01",
"0  c #833E11",
"q  c #9C4001",
"w  c #9E4001",
"e  c #A04101",
"r  c #A44301",
"t  c #A64301",
"y  c #A84401",
"u  c #A94501",
"i  c #AF4701",
"p  c #B34801",
"a  c #BC4C01",
"s  c #AA693E",
"d  c #C24E01",
"f  c #C34F01",
"g  c #C75101",
"h  c #CD5301",
"j  c #D45601",
"k  c #D65701",
"l  c #DA5801",
"z  c #DC5901",
"x  c #DD5A01",
"c  c #E55D01",
"v  c #E75D01",
"b  c #E95E01",
"n  c #EC6001",
"m  c #F46301",
"M  c #F86401",
"N  c #F96501",
"B  c #FB6601",
"V  c #FD6601",
"C  c #FF6600",
"Z  c #FF6803",
"A  c #FF6A05",
"S  c #FF6B07",
"D  c #FF6C0A",
"F  c #FF6F0E",
"G  c #FF7010",
"H  c #FF7112",
"J  c #FF7417",
"K  c #FF7519",
"L  c #FF771B",
"P  c #FF781D",
"I  c #FF791F",
"U  c #FF7A21",
"Y  c #FF7C24",
"T  c #FF7D26",
"R  c #FF7E28",
"E  c #B27349",
"W  c #B77950",
"Q  c #B97D55",
"!  c #BA7E56",
"~  c #FF802A",
"^  c #FF812C",
"/  c #FF822E",
"(  c #FF8431",
")  c #FF8533",
"_  c #FF8635",
"`  c #FF8939",
"'  c #FF8A3B",
"]  c #FF8B3E",
"[  c #BC8059",
"{  c #BC815A",
"}  c #BE835D",
"|  c #BF8660",
" . c #FF8D40",
".. c #FF8E42",
"X. c #FF8F44",
"o. c #FF9046",
"O. c #FF9248",
"+. c #FF934A",
"@. c #FF944D",
"#. c #FF964F",
"$. c #FF9853",
"%. c #FF9A55",
"&. c #FF9B57",
"*. c #FF9C5A",
"=. c #FF9D5C",
"-. c #FF9F5E",
";. c #C08761",
":. c #C08862",
">. c #C18965",
",. c #C48F6B",
"<. c #C5906D",
"1. c #C6916E",
"2. c #C89573",
"3. c #C99978",
"4. c #CA9A7A",
"5. c #CB9E7F",
"6. c #FFA364",
"7. c #FFA467",
"8. c #FFA76B",
"9. c #FFA86D",
"0. c #FFAC74",
"q. c #FFB07A",
"w. c #808080",
"e. c #838383",
"r. c #848484",
"t. c #868686",
"y. c #898989",
"u. c gray67",
"i. c #AFAFAF",
"p. c #B1B1B1",
"a. c gray70",
"s. c gray71",
"d. c #B6B6B6",
"f. c #B7B7B7",
"g. c gray74",
"h. c #CDA386",
"j. c #CEA78D",
"k. c #CEA88E",
"l. c #CFA98F",
"z. c #CFA990",
"x. c #CFAA91",
"c. c #CFAA92",
"v. c #CFAB92",
"b. c #CFAC94",
"n. c #D0AE98",
"m. c #D0B19C",
"M. c #D0B19D",
"N. c #D0B4A1",
"B. c #D1B9A9",
"V. c #D0BDB0",
"C. c #D0BFB3",
"Z. c #CFC3BA",
"A. c #CFC4BC",
"S. c #C5C5C5",
"D. c #C6C6C6",
"F. c gray78",
"G. c #CFC6C0",
"H. c #CEC7C2",
"J. c #CDC9C6",
"K. c #CDCAC7",
"L. c #C8C8C8",
"P. c gray79",
"I. c #CACACA",
"U. c #CBCBCB",
"Y. c #CDCBCA",
"T. c gray80",
"R. c None",
/* pixels */
"R.- * # # # # % # # # % # # % # # % # # % # # % # # # # # * - R.",
"- * t.s.I.T.T.T.T.T.T.T.T.T.T.T.T.T.T.T.T.T.T.T.T.T.T.I.s.e.% - ",
"* y.T.T.T.T.T.T.T.T.T.T.T.T.T.T.T.T.T.T.T.T.T.T.T.T.T.T.T.T.> * ",
"# g.T.T.T.T.T.T.T.T.T.T.T.T.T.T.T.T.T.T.T.T.T.T.T.T.T.T.T.T.s.# ",
"# T.T.T.T.T.T.T.T.T.T.T.T.T.T.T.T.T.T.T.T.T.T.T.T.T.T.T.T.T.T.# ",
"# T.T.T.T.T.T.T.T.T.T.T.T.T.T.T.T.T.T.T.T.T.T.T.T.T.T.T.T.T.T.# ",
"# T.T.T.T.T.T.T.T.T.T.T.T.T.T.T.T.T.T.T.T.T.T.T.T.T.T.T.T.T.T.# ",
"# T.T.T.T.T.T.T.T.T.T.T.T.T.T.c.E M.T.T.T.T.T.T.T.T.T.T.T.T.T.# ",
"# T.T.T.T.T.T.T.T.T.T.T.T.T.c.9 h o A.T.T.T.T.T.T.T.Y.T.T.T.T.# ",
"% T.T.T.T.T.T.T.N.c.J.T.H.1.O d B 9 O ,.G.T.T.T.b.:.. Y.T.T.T.# ",
"# T.T.T.T.T.Y.2.6 9 . c., b Y ^ T P D l , z.T.} 9 a w k.T.T.T.# ",
"# T.T.T.Y.C.| i l x h i T `  . .' ( U G N 9 l.2 N b 6 n.T.T.T.# ",
"% T.T.T.T.! a x 3 , v T ' +.&.&.#. .^ K Z B 6 k B 6 1.T.T.T.T.# ",
"# T.T.T.T.X B e h.;.N ( o.*.8.9.-.+.) U D B m N B 1 C.T.T.T.T.# ",
"# T.T.T.T.+ B u 3.! I ) +.-.0.q.7.#.' T F B B B b O Z.T.T.T.T.# ",
"% T.T.T.T.{ e x 1 W K ( X.&.7.8.*.+.) U D B B B g . J.T.T.T.T.# ",
"# T.T.T.T.Y.h.t v u H T ` +.#.&.@.' ^ P B B B B 9 j.T.T.T.T.T.# ",
"# T.T.T.T.Y.I.3.4 k B K ^ ) '  .` ^ U F B B B j o G.T.T.T.T.T.# ",
"# T.T.T.T.T.T.T.z.s w D K U R ~ Y P F B B B f o M.T.T.T.T.T.T.# ",
"% T.T.T.T.T.T.T.T.T.>.i Z F H H G Z B B B a ! Z.T.T.T.T.T.T.T.# ",
"# T.T.T.T.T.T.T.T.T.T.{ 9 b B B B B B N t Q T.T.T.T.T.T.T.T.T.# ",
"# T.T.T.T.T.T.T.T.T.T.T.h.o f B B m f 4 ,.T.T.T.T.T.T.T.T.T.T.# ",
"% T.T.T.T.T.T.T.T.T.T.T.T.B.! . . 0 ! B.T.T.T.T.T.T.T.T.T.T.T.# ",
"# T.T.T.T.T.T.T.T.T.T.T.T.T.T.T.Y.T.T.T.T.T.T.T.T.T.T.T.T.T.T.# ",
"# T.T.T.T.T.T.T.T.T.T.T.T.T.T.T.T.T.T.T.T.T.T.T.T.T.T.T.T.T.T.# ",
"% T.T.T.T.T.T.T.T.T.T.T.T.T.T.T.T.T.T.T.T.T.T.T.T.T.T.T.T.T.T.# ",
"# T.T.T.T.T.T.T.T.T.T.T.T.T.T.T.T.T.T.T.T.T.T.T.T.T.T.T.T.T.T.# ",
"# I.T.T.T.T.T.T.T.T.T.T.T.T.T.T.T.T.T.T.T.T.T.T.T.T.T.T.T.T.S.# ",
"# s.T.T.T.T.T.T.T.T.T.T.T.T.T.T.T.T.T.T.T.T.T.T.T.T.T.T.T.T.i.# ",
"* r.T.T.T.T.T.T.T.T.T.T.T.T.T.T.T.T.T.T.T.T.T.T.T.T.T.T.T.Y.- * ",
"; % w.p.I.T.T.T.T.T.T.T.T.T.T.T.T.T.T.T.T.T.T.T.T.T.T.S.u.> # - ",
"R.- * # # # # # # # # # # # # # # # # # # # # # # # # # # * - R."
};
