/* XPM */
static char * dynamicaSoftMesh_xpm[] = {
"32 32 286 2",
"  	c None",
". 	c #727272",
"+ 	c #4D4D4D",
"@ 	c #454545",
"# 	c #484848",
"$ 	c #6B6B6B",
"% 	c #939393",
"& 	c #AEAEAE",
"* 	c #BABABA",
"= 	c #C5C5C5",
"- 	c #CCCCCC",
"; 	c #B3B9B3",
"> 	c #798E79",
", 	c #557355",
"' 	c #95A395",
") 	c #C1C3C1",
"! 	c #CACACA",
"~ 	c #C3C4C3",
"{ 	c #B0B0B0",
"] 	c #7A7A7A",
"^ 	c #B6B6B6",
"/ 	c #C4C4C4",
"( 	c #CBCBCB",
"_ 	c #C9C9C9",
": 	c #8A9A8A",
"< 	c #2B532B",
"[ 	c #7C907C",
"} 	c #BDC1BD",
"| 	c #98A698",
"1 	c #507050",
"2 	c #1F4A1F",
"3 	c #547254",
"4 	c #9CA79C",
"5 	c #C4C6C4",
"6 	c #B4B4B4",
"7 	c #8F9E8F",
"8 	c #94A494",
"9 	c #D8D9D8",
"0 	c #DFDFDF",
"a 	c #DDDDDD",
"b 	c #D9DAD9",
"c 	c #D4D4D4",
"d 	c #C5C7C5",
"e 	c #A0ABA0",
"f 	c #688068",
"g 	c #788B78",
"h 	c #BEC1BE",
"i 	c #C7C7C7",
"j 	c #B8BDB8",
"k 	c #C6C7C6",
"l 	c #708770",
"m 	c #859985",
"n 	c #D4D6D4",
"o 	c #E3E3E3",
"p 	c #E5E5E5",
"q 	c #E6E6E6",
"r 	c #E4E4E4",
"s 	c #DCDCDC",
"t 	c #D8D8D8",
"u 	c #D0D0D0",
"v 	c #A9B2A9",
"w 	c #557255",
"x 	c #6F866F",
"y 	c #B5BBB5",
"z 	c #BABFBA",
"A 	c #A8B1A8",
"B 	c #A1ABA1",
"C 	c #9AA69A",
"D 	c #C8C9C8",
"E 	c #B2B8B2",
"F 	c #899989",
"G 	c #678067",
"H 	c #6F876F",
"I 	c #D6D8D6",
"J 	c #EAEAEA",
"K 	c #EDEDED",
"L 	c #EEEEEE",
"M 	c #ECECEC",
"N 	c #E1E1E1",
"O 	c #DEDEDE",
"P 	c #D1D1D1",
"Q 	c #6D856D",
"R 	c #839583",
"S 	c #A1ACA1",
"T 	c #93A193",
"U 	c #7F927F",
"V 	c #667F66",
"W 	c #214C21",
"X 	c #AEB5AE",
"Y 	c #335933",
"Z 	c #5C785C",
"` 	c #9DAA9D",
" .	c #E9E9E9",
"..	c #F0F0F0",
"+.	c #F2F2F2",
"@.	c #F3F3F3",
"#.	c #F1F1F1",
"$.	c #E7E7E7",
"%.	c #D7D7D7",
"&.	c #CFCFCF",
"*.	c #B0B7B0",
"=.	c #4F6F4F",
"-.	c #96A496",
";.	c #527052",
">.	c #476947",
",.	c #637E63",
"'.	c #375D37",
").	c #8E9D8E",
"!.	c #365B36",
"~.	c #728972",
"{.	c #889988",
"].	c #C3C8C3",
"^.	c #F6F6F6",
"/.	c #F7F7F7",
"(.	c #EFEFEF",
"_.	c #E2E2E2",
":.	c #DBDBDB",
"<.	c #D5D5D5",
"[.	c #CDCDCD",
"}.	c #BFC2BF",
"|.	c #6A826A",
"1.	c #5E7A5E",
"2.	c #4A6A4A",
"3.	c #7B8F7B",
"4.	c #819481",
"5.	c #4F6E4F",
"6.	c #819381",
"7.	c #A5AEA5",
"8.	c #698169",
"9.	c #859685",
"0.	c #CFD1CF",
"a.	c #EBEBEB",
"b.	c #D2D2D2",
"c.	c #547154",
"d.	c #597659",
"e.	c #B3B8B3",
"f.	c #ADB4AD",
"g.	c #C2C4C2",
"h.	c #7C8F7C",
"i.	c #6C836C",
"j.	c #375C37",
"k.	c #C2C6C2",
"l.	c #E0E0E0",
"m.	c #DADBDA",
"n.	c #C9CAC9",
"o.	c #839483",
"p.	c #94A294",
"q.	c #BBBFBB",
"r.	c #7A8F7A",
"s.	c #B9BDB9",
"t.	c #393939",
"u.	c #BCC0BC",
"v.	c #778C77",
"w.	c #859785",
"x.	c #688168",
"y.	c #B0B8B0",
"z.	c #E8E8E8",
"A.	c #D5D6D5",
"B.	c #252525",
"C.	c #496949",
"D.	c #9CA89C",
"E.	c #517051",
"F.	c #758B75",
"G.	c #6B836B",
"H.	c #D6D6D6",
"I.	c #C0C3C0",
"J.	c #617B61",
"K.	c #C7C8C7",
"L.	c #434343",
"M.	c #ABABAB",
"N.	c #647E64",
"O.	c #798D79",
"P.	c #7A8E7A",
"Q.	c #5A765A",
"R.	c #446644",
"S.	c #90A090",
"T.	c #D1D2D1",
"U.	c #DADADA",
"V.	c #D9D9D9",
"W.	c #BDC0BD",
"X.	c #4B6B4B",
"Y.	c #767676",
"Z.	c #224C22",
"`.	c #7D917D",
" +	c #98A498",
".+	c #738973",
"++	c #AAB2AA",
"@+	c #ACB5AC",
"#+	c #CCCDCC",
"$+	c #D3D3D3",
"%+	c #C6C8C6",
"&+	c #BEBFBE",
"*+	c #929292",
"=+	c #9BA79B",
"-+	c #577457",
";+	c #426442",
">+	c #607B60",
",+	c #98A598",
"'+	c #A7B1A7",
")+	c #C2C5C2",
"!+	c #CECECE",
"~+	c #ABB3AB",
"{+	c #315831",
"]+	c #BABEBA",
"^+	c #B8B8B8",
"/+	c #9C9C9C",
"(+	c #A3A3A3",
"_+	c #A7B0A7",
":+	c #B4BAB4",
"<+	c #708670",
"[+	c #557155",
"}+	c #768B76",
"|+	c #587558",
"1+	c #607C60",
"2+	c #999999",
"3+	c #9F9F9F",
"4+	c #A9AFA9",
"5+	c #909990",
"6+	c #627462",
"7+	c #2A502A",
"8+	c #4C6B4C",
"9+	c #8E9E8E",
"0+	c #A5AFA5",
"a+	c #6B836D",
"b+	c #6E8471",
"c+	c #A7A7A7",
"d+	c #C6C6C6",
"e+	c #B9B9B9",
"f+	c #999A99",
"g+	c #616561",
"h+	c #747F74",
"i+	c #6C816C",
"j+	c #95A295",
"k+	c #557356",
"l+	c #607962",
"m+	c #A5A5A5",
"n+	c #949494",
"o+	c #C3C3C3",
"p+	c #AFAFAF",
"q+	c #7F7F7F",
"r+	c #888888",
"s+	c #A6A9A6",
"t+	c #A2ABA2",
"u+	c #305730",
"v+	c #043604",
"w+	c #3A5F3A",
"x+	c #6C846C",
"y+	c #385D38",
"z+	c #718871",
"A+	c #A8A8A8",
"B+	c #959595",
"C+	c #A6A6A6",
"D+	c #BDBDBD",
"E+	c #909090",
"F+	c #717171",
"G+	c #B7B7B7",
"H+	c #B4B9B4",
"I+	c #8B9B8B",
"J+	c #516F51",
"K+	c #758A75",
"L+	c #ADADAD",
"M+	c #9E9E9E",
"N+	c #C1C1C1",
"O+	c #C8C8C8",
"P+	c #979797",
"Q+	c #7C7C7C",
"R+	c #C3C5C3",
"S+	c #919191",
"T+	c #7B7B7B",
"U+	c #9A9A9A",
"V+	c #A1A1A1",
"W+	c #848484",
"X+	c #8F8F8F",
"Y+	c #A9A9A9",
"Z+	c #838383",
"`+	c #7D7D7D",
" @	c #828282",
".@	c #898989",
"+@	c #B5B5B5",
"@@	c #757575",
"#@	c #C2C2C2",
"$@	c #A4A4A4",
"%@	c #9D9D9D",
"&@	c #494949",
"*@	c #B2B2B2",
"=@	c #474747",
"  . + @ @ @ @ # @ @ # @ @ # @ @ # @ @ # @ # @ @ # @ @ @ # + .   ",
". $ % & * = - - - - - - - - ; > , ' ) - - - - - - - - ! ~ { ] . ",
"+ ^ / ( - - - - - - _ : < [ } | 1 2 3 4 5 - - - - - - - - - 6 + ",
"@ - - - - - - - ( 7 8 9 0 0 a b c d e f g h - - - - - ( ( ( i @ ",
"@ - - - - - j k l m n o p q r 0 s t u v w x y ( - z A B C D ( @ ",
"@ - - - - E F G H I p J K L M p N O t P D Q R _ S T U V W X - @ ",
"@ - - - - > Y Z ` N  ...+.@.#.K $.o a %.&.*.=.-.[ ;.>.,.'.).- @ ",
"@ - - ( ; !.~.{.].r K @.^./.^.@.(. ._.:.<.[.}.|.1.2.3.4.5.6.- @ ",
"# - - ( 7.8.4.9.0.r a.+.^.^.^.@.(.J p 0 t b.- 7 c.d.e.f.Z 7 - @ ",
"@ - - g.h.i.j.Z k.l.q a...#.#...M  .p _.m.c &.n.o.p.q.r.d.s.- @ ",
"t.- - u.v.w.Z x.y.:.N r z. .J  .$.p r N a A.u - k g.g.v.x.5 - @ ",
"B.- - - C.D.E.F.G.H.:.O l.o _._.N l.l.O s %.P [.- ! I.3.J.K.- @ ",
"L.M.- - N.O.P.Q.R.S.T.%.t U.U.U.s s U.U.V.H.P [.- - W.v.X.! - @ ",
"@ Y.! - - Z.G.`. +.+++@+#+b.$+$+c c H.<.c $+u - - - %+Z [ - - @ ",
"@ &+*+( - =+U |.-+J.;+>+G ,+'+)+[.!+u b.[.&.[.- - - ~+{+]+- - @ ",
"# ^+/+(+! - D }._+=+:+7 <+C.[+}+=+h - - - - - - ! A |+1+D - - @ ",
"@ & _ 2+3+= - - - - - _ 4+5+6+7+8+9+- - D - _ 5 0+a+b+g.( - - @ ",
"@ c+- d+3+% d+- - - - i e+f+g+h+i+3 |+{.q._+e j+k+l+- - - - - @ ",
"@ m+- - ! /+n+o+- - ! / p+q+r+s+t+P.u+v+w+x+Q.y+z+- - - - - - @ ",
"# A+- - ( i B+C+- - ! D+E+F+G+i - ( H+I+>+J+K+~+- - - - - - - @ ",
"@ L+- - - _ M.M+N+- O+P+Q+A+! ( - ( ( ( - D R+- - - - - - - - @ ",
"@ ^ - - - ( p+n+/ ( M.] 3+o+- - - - - - - ( ( - - - - - - - - @ ",
"# o+- - - - p+S+i 6 T+U+= - - - - - - - - - - - - - - - - - - @ ",
"@ - - - - O+V+m+{ W+U+O+- - - - - - - - - - - - - - - - - - - @ ",
"@ - - - - - X+Y+T+m+i ( - - - - - - - - - - - - - - - - - - - @ ",
"# - - O+C+A+*+Z+(+i - - - - - - - - - - - - - - - - - - - - - @ ",
"@ - - * `+ @.@2++@O+- - - - - - - - - - - - - - - - - - - - ( @ ",
"@ ! - d+(+@@`+] q+C+#@( - - - - - - - - - - - - - - - - - - = @ ",
"@ ^ - - ( o+n+$@%@n+M.i ( - - - - - - - - - - - - - - - - ( p+@ ",
"+ .@- - - - ( ( - _ o+i ( - - - - - - - - - - - - - - - - O+Y.+ ",
". &@Z++@! - - - - - - - - - - - - - - - - - - - - - - i *@T+=@. ",
"  . + @ @ @ @ @ @ @ @ @ @ @ @ @ @ @ @ @ @ @ @ @ @ @ @ @ @ + .   "};
