/* XPM */
static char *dynamicaActivateZ[] = {
/* columns rows colors chars-per-pixel */
"32 32 218 2 ",
"   c black",
".  c #060A06",
"X  c #0B1400",
"o  c #061900",
"O  c #101010",
"+  c #122500",
"@  c #102E00",
"#  c #1B2C00",
"$  c #0A3600",
"%  c #083C00",
"&  c #1C3400",
"*  c #143B00",
"=  c #252900",
"-  c #273700",
";  c #2C380C",
":  c #363700",
">  c #363A00",
",  c #3B3E00",
"<  c #202020",
"1  c #283E26",
"2  c #313131",
"3  c #1C4400",
"4  c #0B5C00",
"5  c #1C5100",
"6  c #244400",
"7  c #2C4200",
"8  c #2B4B00",
"9  c #354700",
"0  c #384A00",
"q  c #235F00",
"w  c #2D5C00",
"e  c #365B00",
"r  c #3B5F00",
"t  c #28401E",
"y  c #0D6B00",
"u  c #1C6500",
"i  c #106900",
"p  c #167300",
"a  c #157D00",
"s  c #1F7F00",
"d  c #2B6500",
"f  c #256C00",
"g  c #2E6D00",
"h  c #346500",
"j  c #3A6200",
"k  c #326B00",
"l  c #207200",
"z  c #2C7200",
"x  c #267E00",
"c  c #2C7B00",
"v  c #337300",
"b  c #3A7000",
"n  c #3D7A00",
"m  c #325220",
"M  c #354E32",
"N  c #375434",
"B  c #3E5F3A",
"V  c #454500",
"C  c #444D00",
"Z  c #4E4F00",
"A  c #425500",
"S  c #4F5600",
"D  c #485D00",
"F  c #595A00",
"G  c #416200",
"H  c #4C6200",
"J  c #426C00",
"K  c #4B6C00",
"L  c #506300",
"P  c #5A6200",
"I  c #526D00",
"U  c #5C6C00",
"Y  c #457200",
"T  c #4D7300",
"R  c #447B00",
"E  c #4B7D00",
"W  c #537500",
"Q  c #5B7300",
"!  c #597F1C",
"~  c #616200",
"^  c #606F00",
"/  c #6A6E00",
"(  c #627000",
")  c #647900",
"_  c #6A7C00",
"`  c #707100",
"'  c #757B00",
"]  c #797A00",
"[  c #607D12",
"{  c #5F6E2D",
"}  c #454545",
"|  c #4C4C4C",
" . c gray33",
".. c #487045",
"X. c #507C4C",
"o. c #606060",
"O. c #727272",
"+. c #7C7C7C",
"@. c #0F8200",
"#. c #178400",
"$. c #1F8D00",
"%. c #189600",
"&. c #169E00",
"*. c #268400",
"=. c #2D8300",
"-. c #348300",
";. c #3C8500",
":. c #378B00",
">. c #3B8B00",
",. c #239500",
"<. c #299200",
"1. c #239A00",
"2. c #3A9000",
"3. c #309F00",
"4. c #1CA300",
"5. c #24A700",
"6. c #2FA200",
"7. c #26A800",
"8. c #2BAA00",
"9. c #32A300",
"0. c #32AC00",
"q. c #468400",
"w. c #4C8700",
"e. c #428900",
"r. c #4A8D00",
"t. c #538300",
"y. c #5A8700",
"u. c #548C00",
"i. c #5C8D00",
"p. c #439100",
"a. c #4B9400",
"s. c #539400",
"d. c #559A00",
"f. c #5E9900",
"g. c #678600",
"h. c #6B8400",
"j. c #648D00",
"k. c #6B8E00",
"l. c #748400",
"z. c #7A8300",
"x. c #738900",
"c. c #7C8A00",
"v. c #748208",
"b. c #659400",
"n. c #6A9200",
"m. c #659C00",
"M. c #6E9D00",
"N. c #749400",
"B. c #7B9500",
"V. c #749B00",
"C. c #7D9A00",
"Z. c #5FA200",
"A. c #63A200",
"S. c #6DA200",
"D. c #75A200",
"F. c #7AA700",
"G. c #7BAB00",
"H. c #598026",
"J. c #568351",
"K. c #5B8B56",
"L. c #78954A",
"P. c #63995F",
"I. c #789F5C",
"U. c #758E6D",
"Y. c #629A60",
"T. c #69A466",
"R. c #818600",
"E. c #808A00",
"W. c #849300",
"Q. c #8C9500",
"!. c #859C00",
"~. c #8B9A00",
"^. c #929300",
"/. c #929E00",
"(. c #999C00",
"). c #82A400",
"_. c #8BA800",
"`. c #97A200",
"'. c #9BA400",
"]. c #96AC00",
"[. c #99A800",
"{. c #8AB400",
"}. c #95B600",
"|. c #9BB100",
" X c #9DBC00",
".X c #A3AF00",
"XX c #A4B500",
"oX c #AFB600",
"OX c #A2BA00",
"+X c #B3BC00",
"@X c #848C2E",
"#X c #909238",
"$X c #A8C200",
"%X c #B3C100",
"&X c #BDCA00",
"*X c #BCD100",
"=X c #989C50",
"-X c #96A069",
";X c #98AF6C",
":X c #818181",
">X c #898989",
",X c gray60",
"<X c #AFB085",
"1X c #ABBC89",
"2X c #A9BD97",
"3X c #A1A1A1",
"4X c gray68",
"5X c #B4B4B4",
"6X c #BEBEBE",
"7X c #BCC1A0",
"8X c #BAC1AC",
"9X c #C2C6BD",
"0X c #C5C5C5",
"qX c #CCCCCC",
"wX c #D0D0D0",
"eX c gray94",
"rX c gray100",
"tX c None",
/* pixels */
"tXO.| } } } } } } } } } } } } } } } } } } } } } } } } } } | O.tX",
"O.| >X5XqXqXqXqXqXqXwXqXqXwXqXqXwXqXqXwXqXqXqXqXqXwXqX0X5X>X| O.",
"| >XqXqXqXqXqXqXwXqXqXqXqXqXqXqXqXqXqXqXqXqXqXqXqXwXqXqXqXqX+.| ",
"} 6XqXqXqXqXqXqXqXqXqXqXqXqXqXqXqXqXqX2XI.m 1 U.9X0XqXqXqXqX5X} ",
"} qXqXqXqXqXqXqXqXqXqXqXqX0X9X1XL.H.b k z q x 1.s M qXqXqXqXqX} ",
"} qXqXqXqXqXqXqX0X0X7X-X{ [ W T E w.r.p.>.c 9.8.4.K.qXqXqXqXqX} ",
"} qXqXqXqX6X<X=X@Xv.h.I H D.D.m.f.s.r.e.>.c 3.7.4.J.qXqXqXqXqX} ",
"} qXqXqXqXP ` '.[.|.|._.g.F.M.m.f.s.r.>.:.z 3.7.4.J.qXqXqXqXqX} ",
"} qXqXqXqX(.+X+XXX]._.N.Q D.b.i.E R n v g * u ,.#.B qXqXqXqXqX} ",
"} wXqXqXqX] ^.(.v.l.l.L 0 W K G + e h g g 5 *.1.a N qXqXqXqXqX} ",
"} qXqXqXqXF F c.> ( x.h.g.n.b.b.J d.a.a.2.=.0.7.4.K.qXqXqXqXqX} ",
"} qXqXqXqX^.oX&X!.OX X}.{.F.S.m.Y d.p.e.:.c 0.7.&.J.qXqXqXqXqX} ",
"} wXqXqXqX] (.XXU W.).C.V.n.b.i.r r.e.;.-.f 6.7.%.X.qXqXqXqXqX} ",
"} qXqXqXqXV ~ c., ^ _ L A W T G # j h h d @ l $.i ..qXqXqXqXwX} ",
"} qXqXqXqX` ^.`.W.W.C.Q H n.i.t.Y R n v c 5 <.1.#.J.qXqXqXqXqX} ",
"} wXqXqXqX^.+X+X*X$X X).N.G.S.A.Z.d.a.2.2.=.8.7.&.Y.qXqXqXqXqX} ",
"} qXqXqXqXV / R._ c.B.I I V.m.m.Z.d.a.2.:.x 0.5.&.P.qXqXqXqXqX} ",
"} qXqXqXqXF R.W.C _ _ A 0 W T J e &               1 qXqXqXqXqX} ",
"} wXqXqXqX(.&X&Xz.!.) g.k.j.y.J - } rXrXrXrXrXrXrX  qXqXqXqXqX} ",
"} qXqXqXqX: ' /.P O } < V.D.S.i.j O :X:X:X+.5XrXeX. qXqXqXqXqX} ",
"} qXqXqXqXZ ] ' = M rX:X9 V.S.f.E q.6 3 3 < eXrX2 N qXwXqXqXqX} ",
"} wXqXqXqX(..XS C } rX:X# - G r 8 a.p.z O wXrXo.% T.qXqXqXqXqX} ",
"} qXqXqXqX: : +.:X3XrX6X+.:X< e 6 h w + 3XrX3X$ 4 T.qXqXqXqXqX} ",
"} qXqXqXqX#X  rXrXrXrXrXrXrX} Y u.r.& O.rXqXo p y T.qXqXqXqXqX} ",
"} wXqXqXqXqX .    } rX+.    7 f.d.6 } rXeXO u 5.a T.qXqXqXqXqX} ",
"} qXqXqXqXqXqXqX,X} rX+.; W W u.e O eXrX2 * s p 4 Y.qXqXqXqXwX} ",
"} wXqXqXqXqXqXqX3X2 0Xo.+.8X;XH.X wXrX,X} } } 2 } O 0XqXqXqXqX} ",
"} qXqXqXqXqXqXqXqX>X2 :XqXqXqXqX  rXrXrXrXrXrXrXrX2 ,XqXqXqX0X} ",
"} 5XqXqXqXqXqXqXqXqXqXqXqXqXqXqX .} } 2 } M } } } O 6XqXqXqX4X} ",
"| >XqXqXqXqXqXqXqXqXqXqXqXqXqXqXqX,X,X3X,X,X,X,X,X6XqXqXqXqXO.| ",
"O.} :X4XqXwXqXqXqXqXqXqXqXqXqXqXqXqXqXqXqXqXqXqXqXqXqX0X4X+.} O.",
"tXO.| } } } } } } } } } } } } } } } } } } } } } } } } } }  .O.tX"
};
