/* XPM */
static char *dynamicaHelp[] = {
/* columns rows colors chars-per-pixel */
"32 32 64 1 ",
"  c black",
". c #0C0C0C",
"X c #100A00",
"o c #191919",
"O c #201300",
"+ c #301D00",
"@ c gray15",
"# c #323232",
"$ c #3F3F3F",
"% c #402600",
"& c #503000",
"* c #603A00",
"= c #444444",
"- c gray27",
"; c #464646",
": c #484848",
"> c #494949",
", c #4C4C4C",
"< c gray30",
"1 c #4E4E4E",
"2 c gray33",
"3 c gray35",
"4 c #606060",
"5 c #6D6D6D",
"6 c #727272",
"7 c gray45",
"8 c gray47",
"9 c gray48",
"0 c gray50",
"q c #905600",
"w c #A06000",
"e c #B06A00",
"r c #C07300",
"t c #D07D00",
"y c #E08600",
"u c #F09000",
"i c #FF9900",
"p c #808080",
"a c #838383",
"s c #848484",
"d c #868686",
"f c #898989",
"g c gray55",
"h c #939393",
"j c gray60",
"k c #A0A0A0",
"l c gray67",
"z c #AFAFAF",
"x c #B1B1B1",
"c c gray70",
"v c gray71",
"b c #B6B6B6",
"n c #B7B7B7",
"m c gray74",
"M c gray75",
"N c #C5C5C5",
"B c #C6C6C6",
"V c gray78",
"C c #C8C8C8",
"Z c gray79",
"A c #CACACA",
"S c #CBCBCB",
"D c gray80",
"F c None",
/* pixels */
"F6<----:-;;;;;-;;;;;--;;;;-;;<7F",
"6<dvADDDDDDDDDDDDDDDDDDDDDDCcs:6",
"<fDDDDDDDDDDDDDDDDDDDDDDDDDDDD9<",
"-mDDDDDDDDDDp$.  o$pDDDDDDDDDDv-",
"-DDDDDDDDD9@*euiiye*@9DDDDDDDDD-",
"-DDDDDDDD4+tiiiiiiiitX5DDDDDDDD-",
"-DDDDDDDkXuiiiiiiiiiiyXkDDDDDDD-",
"-DDDDDDD<wiiir+  &tiiiw<DDDDDDD-",
"-DDDDDDmXiiie#fDD9@riii DDDDDDD-",
":DDDDDDg&iiiOhDDDDdOiii%jDDDDDD-",
"-DDDDDDp*rut@DDDDDD iii%jDDDDDD-",
"-DDDDDDDp#.@9DDDDD4%iiiXMDDDDDD-",
":DDDDDDDDDDDDDDDD4+uiie#DDDDDDD-",
"-DDDDDDDDDDDDDDD2+uiiu%dDDDDDDD-",
"-DDDDDDDDDDDDDD3*iiii&4DDDDDDDD-",
":DDDDDDDDDDDDD4&iiiu%2DDDDDDDDD-",
"-DDDDDDDDDDDDkOuiiu+4DDDDDDDDDD-",
"-DDDDDDDDDDDD<wiiu+4DDDDDDDDDDD-",
"-DDDDDDDDDDDDoyiiq3DDDDDDDDDDDD-",
";DDDDDDDDDDDD iii&gDDDDDDDDDDDD-",
";DDDDDDDDDDDD iii%jDDDDDDDDDDDD-",
";DDDDDDDDDDDD2%%%XMDDDDDDDDDDDD-",
";DDDDDDDDDDDD2   2DDDDDDDDDDDDD-",
";DDDDDDDDDDDD iii%jDDDDDDDDDDDD-",
";DDDDDDDDDDDD iii%jDDDDDDDDDDDD-",
";DDDDDDDDDDDD iii%jADDDDDDDDDDD-",
";DDDDDDDDDDDD2%%%XNADDDDDDDDDDD-",
";ADDDDDDDDDDDDjjjMDDDDDDDDDDDDN-",
"-vDDDDDDDDDDDDDDDDDDDDDDDDDDDDz-",
"<dDDDDDDDDDDDDDDDDDDDDDDDDDDDA7<",
"6:pxADDDDDDDDDDDDDDDDDDDDDDNl9-6",
"F6<--------------------------<6F"
};
