/* XPM */
static char *dynamicaActivateY[] = {
/* columns rows colors chars-per-pixel */
"32 32 235 2 ",
"   c black",
".  c #0B0D00",
"X  c #081D00",
"o  c #151D00",
"O  c #1A1E00",
"+  c #101010",
"@  c #0E2A00",
"#  c #162000",
"$  c #1D2600",
"%  c #152A00",
"&  c #1C2800",
"*  c #0A3400",
"=  c #0C3C00",
"-  c #1A3300",
";  c #153F00",
":  c #1E3C1E",
">  c #222500",
",  c #242A00",
"<  c #2B2D00",
"1  c #263200",
"2  c #243800",
"3  c #202020",
"4  c #313131",
"5  c #034200",
"6  c #044E00",
"7  c #094900",
"8  c #174500",
"9  c #144D00",
"0  c #005500",
"q  c #015B00",
"w  c #0C5A08",
"e  c #165300",
"r  c #1C5600",
"t  c #145900",
"y  c #185D00",
"u  c #125E12",
"i  c #2F4400",
"p  c #264D00",
"a  c #324200",
"s  c #354C00",
"d  c #394A00",
"f  c #265400",
"g  c #2A5300",
"h  c #2B5A00",
"j  c #345400",
"k  c #3B5200",
"l  c #325A00",
"z  c #3D5B00",
"x  c #0D6200",
"c  c #016B00",
"v  c #0E6A00",
"b  c #146400",
"n  c #1B6500",
"m  c #156A00",
"M  c #047500",
"N  c #0F7500",
"B  c #067A00",
"V  c #127600",
"C  c #1B7400",
"Z  c #107A00",
"A  c #187C00",
"S  c #216200",
"D  c #236B00",
"F  c #296900",
"G  c #336600",
"H  c #386600",
"J  c #356A00",
"K  c #2E7500",
"L  c #227F00",
"P  c #297A00",
"I  c #337100",
"U  c #3E7100",
"Y  c #357B00",
"T  c #3E7C00",
"R  c #204B20",
"E  c #3C4626",
"W  c #2D5B2D",
"Q  c #344D34",
"!  c #3D5634",
"~  c #266C26",
"^  c #316D2E",
"/  c #424D00",
"(  c #465200",
")  c #4A5700",
"_  c #525D00",
"`  c #43471C",
"'  c #48481F",
"]  c #436700",
"[  c #446900",
"{  c #4C6E00",
"}  c #546300",
"|  c #5B6400",
" . c #556F00",
".. c #5B6B00",
"X. c #447600",
"o. c #4D7300",
"O. c #457D00",
"+. c #517300",
"@. c #507B00",
"#. c #5B7D00",
"$. c #606900",
"%. c #627500",
"&. c #687600",
"*. c #637A00",
"=. c #697B00",
"-. c #777D00",
";. c #7B7D18",
":. c #42603A",
">. c #5D6636",
",. c #454545",
"<. c #4C4C4C",
"1. c #515151",
"2. c gray35",
"3. c #5E7845",
"4. c #606060",
"5. c #727272",
"6. c #797979",
"7. c #008D00",
"8. c #118000",
"9. c #1A8300",
"0. c #079000",
"q. c #009900",
"w. c #089C00",
"e. c #139500",
"r. c #1D9300",
"t. c #228200",
"y. c #2B8200",
"u. c #2E8C00",
"i. c #348500",
"p. c #3B8300",
"a. c #368A00",
"s. c #299900",
"d. c #399400",
"f. c #3B9800",
"g. c #15A100",
"h. c #39AE00",
"j. c #3AB000",
"k. c #478100",
"l. c #488400",
"z. c #578600",
"x. c #588000",
"c. c #548C00",
"v. c #5B9500",
"b. c #549800",
"n. c #5F9D00",
"m. c #638700",
"M. c #6D8100",
"N. c #658D00",
"B. c #688E00",
"V. c #778B00",
"C. c #629700",
"Z. c #6B9200",
"A. c #669E00",
"S. c #749200",
"D. c #789B00",
"F. c #4CAA00",
"G. c #50A000",
"H. c #5BA500",
"J. c #46B300",
"K. c #4FB000",
"L. c #53B900",
"P. c #62A400",
"I. c #69A300",
"U. c #65A900",
"Y. c #6BB200",
"T. c #65B800",
"R. c #75C300",
"E. c #78C800",
"W. c #4A834A",
"Q. c #548351",
"!. c #5C945C",
"~. c #65844C",
"^. c #678A51",
"/. c #6B9357",
"(. c #759152",
"). c #6B8D6B",
"_. c #8C8D00",
"`. c #969400",
"'. c #919F00",
"]. c #929012",
"[. c #99971C",
"{. c #86A500",
"}. c #83AA00",
"|. c #89A900",
" X c #9DAB00",
".X c #83B200",
"XX c #8EB400",
"oX c #82BC00",
"OX c #A3AC00",
"+X c #AEAC00",
"@X c #AEB700",
"#X c #AFB800",
"$X c #B5BA00",
"%X c #BBB900",
"&X c #9C9B30",
"*X c #80C600",
"=X c #84CC00",
"-X c #BDC300",
";X c #C1C500",
":X c #E7F300",
">X c #F3F700",
",X c #FFFC00",
"<X c #8AA75E",
"1X c #90AB5F",
"2X c #84847C",
"3X c #BFBE77",
"4X c #C0BF6C",
"5X c #B3C166",
"6X c #BBC466",
"7X c #C2C766",
"8X c #C7C966",
"9X c #CCCB66",
"0X c #CCCB7F",
"qX c #828282",
"wX c #898989",
"eX c #909090",
"rX c gray60",
"tX c #87A185",
"yX c #89AF89",
"uX c #97B697",
"iX c gray65",
"pX c gray68",
"aX c #A0B6A0",
"sX c #B3B3B3",
"dX c #BBBBBB",
"fX c #BDC4BD",
"gX c #CBCBA5",
"hX c #C6C6AD",
"jX c #C2C2C2",
"kX c #CCCCCC",
"lX c #D0D0D0",
"zX c gray88",
"xX c gray94",
"cX c gray100",
"vX c None",
/* pixels */
"vX5.<.,.,.,.,.,.,.,.,.,.,.,.,.,.,.,.,.,.,.,.,.,.,.,.,.,.,.<.5.vX",
"5.<.wXsXkXkXkXkXkXlXkXkXkXlXkXkXkXkXkXlXkXkXkXkXkXlXkXkXsXqX,.5.",
"<.wXkXkXkXkXkXkXkXkXkXkXkXkXkXkXkXkXkXkXkXkXkXkXkXkXkXkXkXkX6.<.",
",.dXkXkXkXkXkXkXkXkXkXkXkXkXkXkXkXkXkXuX!.R : ).fXkXkXkXkXkXdX,.",
",.kXkXkXkXkXkXkXkXkXkXkXkXkXfXyXW.~ q 0 q 0 M 7.M Q kXkXkXkXkX,.",
",.kXkXkXkXkXkXkXkXjXuX).W u 0 q q c M M M c 0.q.q.Q.kXkXkXkXkX,.",
",.kXkXkXkXdXtXQ.^ w q 6 = M M B B M M M M c 0.w.w.Q.kXkXkXkXkX,.",
",.kXkXkXkX5 7 m V Z Z Z x B Z Z Z V V N Z v e.e.e.Q.kXkXkXkXkX,.",
",.kXkXkXkXb A 9.9.A A m t A V C m m m b b * b r.9.:.kXkXkXkXkX,.",
",.kXkXkXkXe n D y n n 9 = y e e X e y y n 9 t.s.t.! kXkXkXkXkX,.",
",.kXkXkXkX8 8 S @ e D D D P P y.S u.u.u.u.y.j.j.j./.kXkXkXkXkX,.",
",.kXlXkXkXF i.f.K d.d.d.d.d.a.a.F a.i.a.i.i.J.J.J.^.kXkXkXkXkX,.",
",.kXkXkXkXh Y p.f Y p.T p.p.p.p.f p.p.p.p.Y K.L.F.~.kXkXkXkXkX,.",
",.kXkXkXkX- f J - h J g p G G h % G G J J & T G.T 3.kXkXkXkXkX,.",
",.kXkXkXkXl X.l.O.O.l.H g l.k.O.U X.O.O.l.l H.T.b.(.kXkXkXkXkX,.",
",.lXkXkXkXX.v.P.Y.U.U.v.c.P.A.n.P.n.n.n.H.v.E.E.R.<XkXkXkXkXkX,.",
",.kXkXkXkX2 z o.[ @.z.] ] C.C.A.I.I.I.I.A.v.*X=X*X1XkXkXkXkXkX,.",
",.kXkXkXkXs +.#.a o.+.j a +.o.{ &   o z C.x.oXk   E pXkXkXkXkX,.",
",.kXkXkXkXN.Y.XX#.#.+.Z.N.B.N.k 1.cXjXo  ., i qXcXeX2.kXkXkXkX,.",
",.kXkXkXkX1  .S.a 4 ,.d XX}.{.D.$ pXcX5.d d 4 cXzX+ pXkXkXkXkX,.",
",.kXkXkXkXd %.*.. dXcX  S.{.XX|.} + xXxX+ $ kXcX,.>.kXkXkXkXkX,.",
",.lXkXkXkXV.M.( $ jXcX  , / =...) ( 5.cXjXqXcXsX2 5XkXkXkXkXkX,.",
",.kXkXkXkX, ,.qXwXlXcXqXqX4.} &./ %.O jXcXcXxX+ _ 7XkXkXkXkXkX,.",
",.kXkXkXkX` 6.cXcXcXcXcXcXjX,  X X X$.3 xXcX1.| '.6XkXkXkXkXkX,.",
",.kXkXlXkXdX1.    jXcX    < -.$X#X#X@X< jXcX  :X;X7XkXkXkXkXkX,.",
",.kXkXkXkXkXkXkX4 jXcX  ;._.`.OX$X%X%X< dXcX  >X;X8XkXkXkXkXkX,.",
",.kXkXkXkXkXkXkX2.eXfX4 kXhX3X[._.`.+X< jXcX  ,X%X9XkXkXkXkXkX,.",
",.kXkXkXkXkXkXkXpX2.4 wXkXkXkXjXhX0X&X> jXcX  %X].0XkXkXkXkXjX,.",
",.sXkXkXkXkXkXkXkXkXkXkXkXkXkXkXkXkXkX6.4 ,.` gXkXkXkXkXkXkXsX,.",
"<.qXkXkXkXkXkXkXkXkXkXkXkXkXkXkXkXkXkXkXiXrXkXkXkXkXkXkXkXkX5.<.",
"5.,.qXsXkXkXkXkXkXkXkXkXkXkXkXkXkXkXkXkXkXkXkXkXkXkXkXjXpX6.,.5.",
"vX5.<.,.,.,.,.,.,.,.,.,.,.,.,.,.,.,.,.,.,.,.,.,.,.,.,.,.,.<.5.vX"
};
