/* XPM */
static char *dynamicaCreatePassiveCubeArray[] = {
/* columns rows colors chars-per-pixel */
"32 32 134 2 ",
"   c #722E01",
".  c #753001",
"X  c #7B3201",
"o  c #7D3301",
"O  c #7F3401",
"+  c #793507",
"@  c #7A3608",
"#  c #7C370A",
"$  c #7D380B",
"%  c #7F3A0D",
"&  c #444444",
"*  c gray27",
"=  c #464646",
"-  c #484848",
";  c #494949",
":  c gray30",
">  c #4E4E4E",
",  c #727272",
"<  c gray45",
"1  c gray47",
"2  c gray48",
"3  c #803401",
"4  c #843601",
"5  c #8A3801",
"6  c #8D3A01",
"7  c #803C0F",
"8  c #823D0F",
"9  c #913B01",
"0  c #933C01",
"q  c #973D01",
"w  c #993E01",
"e  c #9A3F01",
"r  c #833E11",
"t  c #9C4001",
"y  c #9E4001",
"u  c #864113",
"i  c #884316",
"p  c #8A4518",
"a  c #8C471A",
"s  c #8E491C",
"d  c #A04101",
"f  c #A24201",
"g  c #A44301",
"h  c #A64301",
"j  c #A94501",
"k  c #AB4501",
"l  c #AF4701",
"z  c #B34801",
"x  c #B54901",
"c  c #B84B01",
"v  c #BA4B01",
"b  c #BC4C01",
"n  c #BE4D01",
"m  c #985326",
"M  c #A36033",
"N  c #C75101",
"B  c #CB5201",
"V  c #CF5401",
"C  c #D05401",
"Z  c #D85701",
"A  c #DC5901",
"S  c #DF5A01",
"D  c #E15B01",
"F  c #E55D01",
"G  c #E75D01",
"H  c #EC6001",
"J  c #EE6001",
"K  c #F46301",
"L  c #F96501",
"P  c #FD6601",
"I  c #FF6803",
"U  c #FF6A05",
"Y  c #FF6D0C",
"T  c #FF7010",
"R  c #FF7417",
"E  c #FF781D",
"W  c #FF791F",
"Q  c #FF7D26",
"!  c #FF7E28",
"~  c #AC6B40",
"^  c #B5764D",
"/  c #FF812C",
"(  c #FF822E",
")  c #FF8431",
"_  c #FF8533",
"`  c #FF8635",
"'  c #FF8737",
"]  c #FF8939",
"[  c #FF8A3B",
"{  c #FF8B3E",
"}  c #BC8059",
"|  c #BE845D",
" . c #BF8661",
".. c #FF8D40",
"X. c #FF8E42",
"o. c #FF9248",
"O. c #FF9751",
"+. c #FF9853",
"@. c #FF9A55",
"#. c #C28B66",
"$. c #C38D69",
"%. c #C6926F",
"&. c #C79472",
"*. c #CB9E7F",
"=. c #FFA060",
"-. c #FFA364",
";. c #FFA569",
":. c #808080",
">. c #838383",
",. c #848484",
"<. c #868686",
"1. c #898989",
"2. c gray67",
"3. c #AFAFAF",
"4. c #B1B1B1",
"5. c gray70",
"6. c gray71",
"7. c #B6B6B6",
"8. c #B7B7B7",
"9. c gray74",
"0. c #CEA68C",
"q. c #D0AF99",
"w. c #D1B7A6",
"e. c #D0BEB2",
"r. c #CFC5BF",
"t. c #C5C5C5",
"y. c #C6C6C6",
"u. c gray78",
"i. c #C8C8C8",
"p. c gray79",
"a. c #CACACA",
"s. c #CBCBCB",
"d. c gray80",
"f. c None",
/* pixels */
"f., : * * * * - - - - - - & - - - - - & * - * * - * * - * : , f.",
", : <.6.a.d.d.d.d.a.a.a.a.a.d.d.a.a.a.a.d.s.d.d.d.d.s.i.5.,.- , ",
": 1.d.d.p $ M #.q.r.d.d.d.d.d.d.d.d.0.8 m ^ &.w.d.d.d.d.d.d.2 : ",
"* 9.d.w.q @ Q F k 4 m i.d.d.d.d.d.d.^ K r U Z y   } d.d.d.d.6.* ",
"* s.d.} D ] @ +.;.;.S $ w.d.d.d.d.d.7 _ ` 8 +.;.-.C ^ r.d.d.d.* ",
"* d.d.a Q X.( r +.;.;.P 7 0.d.d.d.0.k X.X.` 8 +.;.;.S m r.d.s.* ",
"* d.w.q X.X.X.( 8 +.o.o.E v &.d.d.^ G X.X.X._ r +.o.o.S a w.d.* ",
"* d.} D X.X.X.X.! # a a a a p $.d.7 ` X.X.X.] + u a a a a s d.* ",
"- d.a Q X.X.X.] @ v x x x z 7 r.0.l X.X.X.X.' $ v x x x q ^ d.* ",
"* d.  ( X.X.X.` $ v n n n 9 &.a.&.N X.X.X.X.Y v n n n z $ r.d.* ",
"= d.#.V X.X.] # v n n n g m d.d.r.a I X.X./ u c n n n 9 &.d.d.* ",
"= d.u.a T X.` $ v n n n 4 q.d.d.d.0.l X.X.Y v n n n g m d.d.d.* ",
"= d.d.*.N ..U v n n n w ^ a.d.d.d.d.M F ( u x n n n 4 q.d.d.d.* ",
"= d.d.d.M K u v l g 6 7 r.d.d.d.d.d.w.w E c n k t 4 ^ d.d.d.d.* ",
"= d.d.d.q.w 5   m ^ 0.e.d.d.d.d.d.d.d.^ u 4 . M #.q.r.d.d.d.d.* ",
"= d.d.d.a.&.0.r.d.d.p.a.d.d.d.d.d.d.d.r. .q.s.s.s.s.d.d.d.d.d.* ",
"* d.d.d. .0.e.d.d.d.d.a.d.d.d.d.d.d.r.| q.d.d.d.d.d.d.d.d.d.d.* ",
"* d.d.r.o r 6 a ~ #.w.a.d.d.d.d.d.d.*.+ k . m } *.r.d.d.d.d.d.* ",
"- d.d.*.n ' + o.R F y 0.d.d.d.d.d.d.~ L @ =.' K N m w.d.d.d.d.* ",
"* d.d.~ L X.X.@ =.;.` B ^ d.d.d.d.r.o X.] + @.;.;.L $ w.d.d.d.* ",
"* d.r.o X.X.X.{ @ =.-.-.V ~ r.d.d.*.v X.X._ 8 +.;.;.P y *.s.s.- ",
"- d.*.n X.X.X.X.X.+ ] { O.D m r.d.~ L X.X.X._ % ( { { Q B #.s.* ",
"* d.~ L X.X.X.X.E v n n v b 0 %.r.o X.X.X.X.` 8 v n n n k + s.* ",
"* s.  X.X.X.X.( u v n n N d M d.*.n X.X.X.X./ + v n v N 6 0.s.* ",
"- d.a K X.X.X.E v n n n v o w.d.q.d X.X.X.` 7 v n n n d M d.d.* ",
"* d.q.d X.X.( u v n n n w } d.d.s.~ S X.X.` + b n n b 4 w.a.d.* ",
"* s.d.M S X.( + v n N l $ r.a.d.d.e.5 ) ] @ v b n n q } d.d.d.* ",
"- a.d.e.5 ` $ v b b v 6 0.p.a.d.d.d.#.C ` $ v b n k $ u.d.a.y.* ",
"= 8.d.d.} V + g q 5   ^ d.d.d.d.d.d.u.7 @ l y 5 o a 0.d.d.d.4.* ",
"> ,.d.d.u.i r M &.q.a.d.d.d.d.s.d.d.s.*.$ m } 0.e.d.d.d.d.a.< : ",
", - ^ 4.a.d.d.d.s.s.s.s.d.d.s.s.s.s.s.s.d.d.d.d.d.d.a.u.2.2 - , ",
"f., : * * * - - * = = = = = * = = * * = * * * * * * * * * : , f."
};
