/* XPM */
static char *dynamicaVoronoiShatter[] = {
/* columns rows colors chars-per-pixel */
"32 32 65 1 ",
"  c black",
". c gray2",
"X c #0B0B0B",
"o c #111111",
"O c gray9",
"+ c #1D1D1D",
"@ c #232323",
"# c gray16",
"$ c #2F2F2F",
"% c #353535",
"& c gray23",
"* c #414141",
"= c #444444",
"- c gray27",
"; c gray28",
": c gray30",
"> c #535353",
", c gray33",
"< c #585858",
"1 c gray35",
"2 c gray37",
"3 c #5F5F5F",
"4 c gray38",
"5 c #626262",
"6 c #646464",
"7 c #656565",
"8 c #676767",
"9 c gray42",
"0 c #717171",
"q c #777777",
"w c gray49",
"e c #838383",
"r c #898989",
"t c gray56",
"y c #929292",
"u c #959595",
"i c #989898",
"p c #9B9B9B",
"a c #9F9F9F",
"s c gray63",
"d c #A2A2A2",
"f c #A4A4A4",
"g c #A5A5A5",
"h c #A7A7A7",
"j c gray68",
"k c gray69",
"l c gray70",
"z c #B9B9B9",
"x c gray",
"c c gray75",
"v c #C0C0C0",
"b c gray76",
"n c gray77",
"m c #C5C5C5",
"M c #C6C6C6",
"N c #C8C8C8",
"B c #CACACA",
"V c #CBCBCB",
"C c gray80",
"Z c gray82",
"A c #D7D7D7",
"S c #DDDDDD",
"D c gray89",
"F c #E9E9E9",
"G c None",
/* pixels */
"G<--=--=-==-==-==-==--=-==-==-<G",
"<-6dbCCVCCVCCVCCVCCVCCVCCVCbp4-<",
"-9VCCCCCCCCVCCCCCCCCCCCCCCCCCC<-",
"-jVVFFFFFp3FFF0qFFc&AFFZ3%pZ-Cf-",
"-VC;SDDDDq>DFFreFFF>eDu$0DFF0CC-",
"-CC %-;;= X=3umDFFF6  %AFDlDFCV-",
"=VChFDFDl&Dzq:&=>q03Fl:mFz AFCC-",
"-CCFFDFFA:ZFFFDcu> DFFz&VFCZ-CV=",
"=CCFe.FFA:mFFXeFFd:FFFFd-DC&uCC-",
"=VCFmpFFD#zFFmAFF3eFFepFp%;jSCC-",
"-CCFFFFFp@$6ZFFFF%zFF$3FD%uFACC-",
"=CCVFFFr,DZ6$3lFF%AFFFFmpXqFFCV=",
"=VC=bFe>SFFFD0%463FFDy>$>r,r0CC-",
"-CCl<03DFFljFFSh.%V<#-rAFFZ 9CV=",
"=CCF< FFFF-%FFFF9# uZFFtcFD-FCC-",
"=VC%=#SFFFFFFFA;pFqrFFF@pFD>FCV=",
"-CCjFd#ZDFFFFS-uFFS%dFFFFAt.FCC-",
"=CCFFj &&qhFS;uFFFFc%AZu<$,63CV=",
"=VCFF&bFd4%&%pFFFFFFdo%-wDFFrCC-",
"-CVFj&FFFFDu@FFF;<FFDOzFFhCFFCV=",
"=CCF:uFFFFFF:jFFupFFF:FFDXtFFCC-",
"=VCz&AFCOSFF0wFFFFFm>XFFFFFFFCV=",
"-CC3qFFZ9DFFp3FSb0$$03qFFFFFACC-",
"=CCX=pFFFFFFe 4-%<zSFF<rFcy<%CV=",
"=VCFp&&uDFS4:y rFFFFFFD:+%,wmCC-",
"-CCAFFh;=0%qSFj>FF6#FFF9=VFFFCV=",
"=CCfFFFFp bFFFD-uFmlFFF&lFFFFVC-",
"=mCtd@FFZ>FFFFFz&AFFFFC=DFFw#Vc=",
"-fC6SpFFc=DFr DF0qFFFFq ,fZVlVu-",
"-4CVCCCCCCCCCCCCCCCCCCCCCCVVCV,-",
"<-3pmVCCVCCVCCVCCCCCVCCVCCVbu<-,",
"G<-==---==-==-==----==----=---<G"
};
