/* XPM */
static char *dynamicaDeactivate[] = {
/* columns rows colors chars-per-pixel */
"32 32 174 2 ",
"   c #2C2C2C",
".  c #3D3D3D",
"X  c #473939",
"o  c #503F3F",
"O  c #773C3C",
"+  c #454545",
"@  c #4C4C4C",
"#  c #584D4D",
"$  c #545454",
"%  c #595353",
"&  c #5D5D5D",
"*  c #655454",
"=  c #675D5D",
"-  c #626262",
";  c #6E6868",
":  c #7C6F6F",
">  c #727272",
",  c #7A7A7A",
"<  c #B11E1E",
"1  c #832424",
"2  c #933232",
"3  c #993535",
"4  c #A92121",
"5  c #B22C2C",
"6  c #A53737",
"7  c #B83B3C",
"8  c #C81010",
"9  c #E90606",
"0  c #E40D0D",
"q  c #EF0B0B",
"w  c #F30707",
"e  c #FC0707",
"r  c #F60C0C",
"t  c #FB0C0C",
"y  c #E31414",
"u  c #E31C1C",
"i  c #EC1B1B",
"p  c #F31313",
"a  c #FA1313",
"s  c #F41C1C",
"d  c #F91A1A",
"f  c #CD2020",
"g  c #D72424",
"h  c #D82424",
"j  c #DE2D2D",
"k  c #DE3434",
"l  c #D03F3F",
"z  c #E52626",
"x  c #EC2222",
"c  c #E12A2A",
"v  c #F52323",
"b  c #FE2323",
"n  c #F42C2C",
"m  c #FC2B2B",
"M  c #E43737",
"N  c #EC3232",
"B  c #ED3C3C",
"V  c #F23232",
"C  c #FF3131",
"Z  c #F03D3D",
"A  c #974141",
"S  c #895050",
"D  c #825B5B",
"F  c #AE4C4C",
"G  c #B34444",
"H  c #B44C4C",
"J  c #B94E4D",
"K  c #BE5252",
"L  c #BB5959",
"P  c #936E6E",
"I  c #807272",
"U  c #877B7B",
"Y  c #8E7D7D",
"T  c #957E7E",
"R  c #AD6F6F",
"E  c #A17A7A",
"W  c #C74545",
"Q  c #C44B4B",
"!  c #CA4C4B",
"~  c #DB4545",
"^  c #C25353",
"/  c #C95757",
"(  c #CB5C5C",
")  c #D45656",
"_  c #DE5757",
"`  c #D55B5B",
"'  c #DC5E5E",
"]  c #EE4242",
"[  c #FD4545",
"{  c #FF4E4E",
"}  c #E35050",
"|  c #E95252",
" . c #E55E5E",
".. c #E85C5C",
"X. c #C16060",
"o. c #CB6262",
"O. c #CA6D6D",
"+. c #DF6161",
"@. c #D66E6E",
"#. c #DA6D6D",
"$. c #CE7171",
"%. c #D67474",
"&. c #DE7373",
"*. c #D77A7A",
"=. c #DF7D7D",
"-. c #E66464",
";. c #E56B6B",
":. c #E27373",
">. c #EF7070",
",. c #E07B7B",
"<. c #F07C7C",
"1. c #FF7D7D",
"2. c #838383",
"3. c #8C8B8B",
"4. c #948787",
"5. c #948E8E",
"6. c #939393",
"7. c #9B9B9B",
"8. c #A98282",
"9. c #A08B8B",
"0. c #B88484",
"q. c #B38B8B",
"w. c #A09292",
"e. c #AE9E9E",
"r. c #BC9292",
"t. c #A4A4A4",
"y. c #ABABAB",
"u. c #B3A4A4",
"i. c #BBA5A5",
"p. c #BAACAC",
"a. c #B3B3B3",
"s. c #BCB4B4",
"d. c #BDBCBC",
"f. c #D08080",
"g. c #DE8484",
"h. c #DD8A8A",
"j. c #C79595",
"k. c #C99696",
"l. c #C69F9F",
"z. c #D99797",
"x. c #D79E9E",
"c. c #D89C9C",
"v. c #FF9292",
"b. c #C5A2A2",
"n. c #D7A2A2",
"m. c #D3AAAA",
"M. c #C1B0B0",
"N. c #CCB5B5",
"B. c #C3BCBC",
"V. c #CEBDBD",
"C. c #D2B5B5",
"Z. c #D1B9B9",
"A. c #FFA9A9",
"S. c #EDB8B8",
"D. c #C4C4C4",
"F. c #CEC3C3",
"G. c #CCCCCC",
"H. c #D3C3C3",
"J. c #D3CDCD",
"K. c #D4D4D4",
"L. c #D9D5D5",
"P. c #D8D8D8",
"I. c #EAC3C3",
"U. c #E2CCCC",
"Y. c #FCC0C0",
"T. c #E0DBDB",
"R. c #F4DDDD",
"E. c gray89",
"W. c gray92",
"Q. c #FFEEEE",
"!. c #F3F3F3",
"~. c #FBF7F7",
"^. c #FEFEFE",
"/. c None",
/* pixels */
"/.> $ + + + + + + + + + + + + + + + + + + + + + + + + + + @ > /.",
"> @ 2.a.D.G.G.G.G.G.G.G.G.G.G.G.G.G.G.G.G.G.G.G.G.J.G.D.a.2.+ > ",
"@ 3.G.G.G.G.G.G.G.G.G.F.Z.c.h.,.,.g.c.Z.G.G.G.G.G.G.G.G.G.G., @ ",
"+ d.G.G.G.G.G.G.G.F.z.-.] V v b d v n ] ' S # 7.G.G.G.G.G.G.s.+ ",
"+ G.G.G.G.G.G.J.n. .n a t p s s s p r r p u ..S.B.& G.G.G.G.G.+ ",
"+ G.G.G.G.G.F.h.V a a s g ~ Q K / ` } B v t d [ A.e.G.G.G.G.G.+ ",
"+ G.G.G.G.s.$.x r p j H D B.D.D.D.D.s.b.&.M d t m ( F.G.G.G.G.+ ",
"+ G.G.G.G.A y a i  .m.D.7.D.D.D.D.d.d.d.d.0.[ t e s h.G.G.G.G.+ ",
"+ G.G.G.n.z e v #.M.d.y.3.D.a.a.t.t.e.7.5.2 s t e w Z n.G.G.G.+ ",
"+ G.G.F...r p ) T 6.7.> $ 3.2.,   , 2.4.o.y a v N r d -.H.G.G.+ ",
"+ G.G.c.n w f T . , 7.7.7.y.a.D.3.G.V.=.v a C v.S.N t n z.G.G.+ ",
"+ G.G.-.d p &.P.t.G.K.G.K.G.D.D.6.B.*.n e s v.Q.^.( d a -.G.G.+ ",
"+ G.Z.] a h q.d.> y.a.a.a.a.a.y.: @.v p v / R.^.W.8.V t ] Z.G.+ ",
"+ G.n.n a < ; 3.+ , 3.> - 3.3.: 1 u e i ^ + y.K.t.3.| a n z.G.+ ",
"+ G.h.v d 7 e.y.t.t.y.2.> y.u.o.x r i ( u.> P.!.D.t.;.d v g.G.+ ",
"+ G.:.a a ! d.G.E.K.K.d.a.H.=.v a v :.N.D.D.^.^.~.B.:.d v =.G.+ ",
"+ G.;.a a 4 > 6.2.7.t.2.U *.v t v :.Z.D.D.s.^.^.~.d.:.s b ,.G.+ ",
"+ G.,.d a 5 5.7.$ 3.6.= 3 u r i G 4.t.t.y.7.^.~.D.d.;.d v g.G.+ ",
"+ G.c.n a ~ J.P.3.s.p.$.i t i K * 7.5.3.3.. d.K.7.s.| a V c.G.+ ",
"+ G.V.] t 8 P t.> B.,.m a v &.i.6.D.s.a.a.3.!.^.G.m.V a ] C.G.+ ",
"+ G.G.-.d 0 J 3.X F i r x #.V.B.t.D.D.D.D.d.^.^.T.:.d d ;.G.G.+ ",
"+ G.G.c.n r B j.O.x e y 6 Y 3., & D.D.D.D.d.^.^.I.Z t V n.G.G.+ ",
"+ G.G.H.-.9 p ] v d v K w.a.t.2.$ 2.2.3.7.7.!.U.W d d -.V.G.G.+ ",
"+ G.G.G.n.c r t e x &.u.y.D.d.d.d.a.y.7.2.. H.<.p a B n.G.G.G.+ ",
"+ G.G.G.F.h.n e t k R % 3.D.D.D.D.d.B.d.s.r.1.b t n g.F.G.G.G.+ ",
"+ G.G.G.G.F.,.n a d B o.P 6.7.y.D.G.d.b.#.B b d n ,.H.G.G.G.G.+ ",
"+ G.G.G.G.G.H.h.Z d t d V | -.^ J ! ~ N p a b { f.F.G.G.G.G.G.+ ",
"+ G.G.G.G.G.G.F.n.-.V d e t a d d a r e r z >.k.5.G.G.G.G.G.D.+ ",
"+ a.G.G.G.G.G.G.G.F.z.-.Z n v s d v n ] ) O u.G.G.G.G.G.G.G.y.+ ",
"@ 2.G.G.G.G.G.G.G.G.G.G.C.z.g.:.:.=.z.C.G.G.G.G.G.G.G.G.G.G.> @ ",
"> + 2.a.D.G.G.G.G.G.G.G.G.G.G.G.G.G.G.G.G.G.G.G.G.G.G.D.y., + > ",
"/.> @ + + + + + + + + + + + + + + + + + + + + + + + + + + @ > /."
};
