/* XPM */
static char *dynamicaSetInitialState[] = {
/* columns rows colors chars-per-pixel */
"32 32 124 2 ",
"   c black",
".  c #010101",
"X  c #020202",
"o  c gray1",
"O  c gray2",
"+  c #060606",
"@  c #0B0B0B",
"#  c #0C0C0C",
"$  c #222222",
"%  c gray19",
"&  c gray22",
"*  c #3E3E3E",
"=  c #663300",
"-  c #6A3807",
";  c #6C3B0B",
":  c #6C3C0C",
">  c #6D3D0E",
",  c #6D3E0E",
"<  c #703D00",
"1  c #6E3F10",
"2  c #794000",
"3  c #6F4112",
"4  c #724417",
"5  c #724619",
"6  c #764A1F",
"7  c #794F26",
"8  c #7F5932",
"9  c #444444",
"0  c gray27",
"q  c #464646",
"w  c #484848",
"e  c #494949",
"r  c gray30",
"t  c #4E4E4E",
"y  c #515151",
"u  c gray32",
"i  c #6A6A6A",
"p  c #727272",
"a  c gray45",
"s  c #767676",
"d  c #777777",
"f  c gray47",
"g  c gray48",
"h  c #8C4D00",
"j  c #835000",
"k  c #835900",
"l  c #A05900",
"z  c #A55D00",
"x  c #967300",
"c  c #A06D00",
"v  c #B86A00",
"b  c #A57200",
"n  c #AF7C00",
"m  c #86623F",
"M  c #C67300",
"N  c #CB7700",
"B  c #D07900",
"V  c #8C6C4C",
"C  c #927659",
"Z  c #997F66",
"A  c #A08000",
"S  c #A58700",
"D  c #AF9400",
"F  c #BCA600",
"G  c #C28F00",
"H  c #CB9000",
"J  c #D09D00",
"K  c #EC8D00",
"L  c #EE8D00",
"P  c #F29000",
"I  c #F39100",
"U  c #F59200",
"Y  c #F69300",
"T  c #FF9900",
"R  c #E3B200",
"E  c #F2BF00",
"W  c #D5C700",
"Q  c #F3C000",
"!  c #F6C000",
"~  c #F5C200",
"^  c #F6C300",
"/  c #F4C400",
"(  c #F7C400",
")  c #FAC700",
"_  c #F6CC00",
"`  c #FFCC00",
"'  c #FAD000",
"]  c #E8E100",
"[  c #ECE600",
"{  c #F6F300",
"}  c #FAF800",
"|  c yellow",
" . c #9C836B",
".. c #9F8972",
"X. c #A6927F",
"o. c #808080",
"O. c #838383",
"+. c #848484",
"@. c #868686",
"#. c #898989",
"$. c #9B9B9B",
"%. c gray62",
"&. c #AC9C8C",
"*. c #B2A699",
"=. c gray67",
"-. c #AFAFAF",
";. c #B9AFA6",
":. c #B1B1B1",
">. c gray70",
",. c gray71",
"<. c #B6B6B6",
"1. c #B7B7B7",
"2. c #BFB9B2",
"3. c gray74",
"4. c #C6C2BF",
"5. c #C5C5C5",
"6. c #C6C6C6",
"7. c gray78",
"8. c #C8C8C8",
"9. c gray79",
"0. c #CACACA",
"q. c #CBCBCB",
"w. c gray80",
"e. c None",
/* pixels */
"e.p r 0 0 0 0 w w 0 0 w 0 0 0 0 0 0 w 0 w 0 w 0 0 w 0 0 0 r p e.",
"p r @.,.0.w.w.w.w.w.w.w.w.w.w.0.w.w.w.w.w.w.w.w.w.w.0.0.,.@.w p ",
"r #.w.w.w.w.w.w.w.w.w.w.w.7.a & f w.w.w.w.w.w.w.w.w.w.w.w.w.f r ",
"0 3.w.w.w.w.w.w.w.w.w.w.w.=.# X # $.w.w.w.w.w.w.w.w.w.w.w.w.,.0 ",
"0 w.w.w.w.w.w.w.w.w.w.w.$.@ X X X @ $.w.w.w.w.w.w.w.w.w.w.w.w.0 ",
"0 w.w.w.w.w.w.w.w.w.w.$.$ X X X X X $ $.w.w.w.w.w.w.w.w.w.w.w.0 ",
"0 w.w.w.w.w.w.w.w.w.0.@.O $ % X % $ @ O.w.w.w.w.w.w.w.w.w.w.w.0 ",
"0 w.w.w.w.w.w.w.w.w.w.:.@.$.* X * $.O.:.w.w.w.w.w.w.w.w.w.w.w.0 ",
"0 w.w.w.w.w.w.w.w.w.w.w.w.w.* X * w.w.w.w.w.w.w.w.w.w.w.w.w.w.0 ",
"w w.w.w.w.w.w.w.w.w.w.w.w.w.* X * w.w.w.w.w.w.w.w.w.w.w.w.w.w.0 ",
"0 w.w.w.w.w.w.w.w.w.w.w.w.w.u O u w.w.w.w.w.w.w.w.w.w.w.w.w.w.0 ",
"0 w.w.w.w.w.w.w.w.w.w.w.w.w.$.i $.w.w.w.w.w.w.w.w.w.w.w.w.w.w.0 ",
"w w.w.w.w.w.w.w.w.w.w.w.w.w.w.w.w.w.w.w.w.w.w.w.w.w.w.w.w.w.w.0 ",
"0 w.w.w.w.w.w.w.w.w. .> 7 C X.;.w.w.w.w.w.w.w.w.w.w.w.w.w.w.w.0 ",
"0 w.w.w.w.w.w.w.w.q.7 R > F A k > 8 &.w.w.w.w.w.w.w.w.w.w.w.w.0 ",
"w w.w.w.w.w.w.w.w.5.< ` / > { | { W x ..w.w.w.w.w.w.w.w.w.w.w.0 ",
"0 w.w.w.w.w.w.w.w.X.c ` ` _ - } | | ] S V w.w.w.w.w.w.w.w.w.w.0 ",
"0 w.w.w.w.w.w.w.w.m J ` ` ` ' - } | | | S 8 4.w.w.w.w.w.w.w.w.0 ",
"0 w.w.w.w.w.w.w.4.< ` ` ` ` ` _ - [ [ [ [ D 7 2.w.w.w.w.w.w.w.0 ",
"w w.w.w.w.w.w.w.X.c ` ` ` ` ` ) ; 5 5 5 5 4 5 6 w.w.w.w.w.w.w.0 ",
"0 w.w.w.w.w.w.w.m J ` ` ` ` ` E - K K K K K v m w.w.w.w.w.w.w.0 ",
"0 w.w.w.w.w.w.w.= ` ` ` ` ` ^ : U T T T T P > 2.w.w.w.w.w.w.w.0 ",
"w w.w.w.w.w.w.w.8 G ` ` ` ` ^ > U T T T T z Z w.w.w.w.w.w.w.w.0 ",
"0 w.w.w.w.w.w.w.;.j ` ` ` ) - U T T T T N 5 w.w.w.w.w.w.w.w.w.0 ",
"0 w.w.w.w.w.w.w.w.V n ` ` ^ > U T T T T h *.w.w.w.w.w.w.w.w.w.0 ",
"w w.w.w.w.w.w.w.w.4.; E ) - U T T T T v m w.w.w.w.w.w.w.w.w.w.0 ",
"0 w.w.w.w.w.w.w.w.w. .b ^ 1 P T T K B > 2.w.w.w.w.w.w.w.w.w.w.0 ",
"0 0.w.w.w.w.w.w.w.q.q.4 H K M l < 5 m &.w.w.w.w.w.w.w.w.w.0.7.0 ",
"0 ,.w.w.w.w.w.w.w.w.w.*.4 5 V X.2.w.w.w.w.w.w.w.w.w.w.w.w.w.-.0 ",
"r +.w.w.w.w.w.w.w.w.w.w.q.w.w.w.w.w.w.w.w.w.w.w.w.w.w.0.w.0.p r ",
"p w O.-.0.w.w.w.w.w.w.w.q.q.q.w.w.q.w.w.w.w.w.w.w.w.w.7.-.f 0 p ",
"e.p r 0 0 0 0 0 0 0 0 0 0 0 0 0 q q q q 0 0 0 0 0 0 0 0 0 r p e."
};
