/* XPM */
static char *dynamicaActivateRadial[] = {
/* columns rows colors chars-per-pixel */
"32 32 188 2 ",
"   c #010100",
".  c #0C0C00",
"X  c #0B1200",
"o  c #061F00",
"O  c #0E1F00",
"+  c #131200",
"@  c #1D1D00",
"#  c #101010",
"$  c #191C13",
"%  c #201F00",
"&  c #002700",
"*  c #082600",
"=  c #1C2600",
"-  c #1C2E00",
";  c #003500",
":  c #003B00",
">  c #1C3C00",
",  c #172114",
"<  c #1B3B1B",
"1  c #242400",
"2  c #2B2A00",
"3  c #333200",
"4  c #3B3B00",
"5  c #323C1D",
"6  c #212121",
"7  c #2A2E27",
"8  c #303030",
"9  c #403F00",
"0  c #004300",
"q  c #134D00",
"w  c #055300",
"e  c #085500",
"r  c #1F5700",
"t  c #125F12",
"y  c #204300",
"u  c #365100",
"i  c #395200",
"p  c #3A5112",
"a  c #006F00",
"s  c #146600",
"d  c #186700",
"f  c #1F6409",
"g  c #007200",
"h  c #027C00",
"j  c #1D7100",
"k  c #236500",
"l  c #2C6600",
"z  c #276D00",
"x  c #2E6C00",
"c  c #316500",
"v  c #3B6500",
"b  c #376A00",
"n  c #3F6F00",
"m  c #2C7B00",
"M  c #204B20",
"N  c #3A4A25",
"B  c #384135",
"V  c #344D34",
"C  c #386F38",
"Z  c #3B7530",
"A  c #414000",
"S  c #484700",
"D  c #454C00",
"F  c #494800",
"G  c #465F00",
"H  c #545400",
"J  c #5B5B00",
"K  c #615F00",
"L  c #4D6800",
"P  c #546E00",
"I  c #437500",
"U  c #4F7000",
"Y  c #567500",
"T  c #5B7A00",
"R  c #4E7A1C",
"E  c #5B7A12",
"W  c #646400",
"Q  c #696700",
"!  c #6B6C00",
"~  c #706F00",
"^  c #6C7600",
"/  c #607F00",
"(  c #737200",
")  c #787700",
"_  c #415834",
"`  c #4C5A32",
"'  c #507C26",
"]  c #42603A",
"[  c #454545",
"{  c #4C4C4C",
"}  c #515151",
"|  c gray35",
" . c #616161",
".. c #6D6D6D",
"X. c #717171",
"o. c #797979",
"O. c #817F00",
"+. c #008B00",
"@. c #019900",
"#. c #1F9C00",
"$. c #3D8700",
"%. c #3C8B00",
"&. c #2BAA00",
"*. c #4C8400",
"=. c #578E00",
"-. c #409400",
";. c #549300",
":. c #6B8000",
">. c #728200",
",. c #788500",
"<. c #738B00",
"1. c #6D9400",
"2. c #719400",
"3. c #49AA00",
"4. c #54BA00",
"5. c #65B100",
"6. c #6CB100",
"7. c #7BB600",
"8. c #71B900",
"9. c #4C874C",
"0. c #528252",
"q. c #5C945C",
"w. c #6F914A",
"e. c #758F51",
"r. c #769757",
"t. c #6B8D6B",
"y. c #66A366",
"u. c #73A866",
"i. c #7FAD66",
"p. c #7FAD7F",
"a. c #858300",
"s. c #898700",
"d. c #8C8A00",
"f. c #918F00",
"g. c #9D9B00",
"h. c #9BAC00",
"j. c #8AB400",
"k. c #9AB100",
"l. c #A5A300",
"z. c #A8A600",
"x. c #ADAC00",
"c. c #B1AF00",
"v. c #A3B400",
"b. c #A4BC00",
"n. c #B4B200",
"m. c #B9B700",
"M. c #BCBA00",
"N. c #C0BE00",
"B. c #8FC100",
"V. c #8BCE00",
"C. c #9ED600",
"Z. c #B9CA00",
"A. c #BEE300",
"S. c #C7C500",
"D. c #C9C700",
"F. c #CBC900",
"G. c #D1CF00",
"H. c #CBD000",
"J. c #D2D000",
"K. c #DAEE00",
"L. c #EDF500",
"P. c #F3F000",
"I. c #FEFB00",
"U. c #8DAB6C",
"Y. c #8AB166",
"T. c #92B365",
"R. c #81A677",
"E. c #818181",
"W. c #898989",
"Q. c #909090",
"!. c #86A085",
"~. c #99B697",
"^. c #A2B989",
"/. c #A0A0A0",
"(. c gray68",
"). c #A5BCA5",
"_. c #B3BFAD",
"`. c #B2B2B2",
"'. c #BDBDBD",
"]. c #BDC5BD",
"[. c #C0C5BB",
"{. c #C1C1C1",
"}. c #CCCCCC",
"|. c #D0D0D0",
" X c gray88",
".X c gray94",
"XX c gray100",
"oX c None",
/* pixels */
"oXX.} [ [ [ [ [ [ [ [ [ [ [ [ [ [ [ [ [ [ [ [ [ [ [ [ [ [ } X.oX",
"X.{ W.`.}.}.}.}.}.}.|.}.}.|.}.}.|.}.}.|.}.}.|.}.}.|.}.{.`.W.[ X.",
"{ W.}.}.}.}.}.}.}.}.}.}.}.}.}.}.}.}.}.}.}.}.}.}.}.}.}.}.}.}.o.} ",
"[ '.}.}.}.}.}.}.}.}.}.}.}.}.}.}.}.}.}.~.q.M < t.{.}.}.}.}.|.`.[ ",
"[ }.}.}.}.}.}.(.| ..`.|.}.}.[.^.w.' x k d e g +.h V }.}.}.}.}.[ ",
"[ }.}.}.}.}.}.| Q.o.$ $ 5 E Y T Y i -   > m #.@.@.0.}.}.}.}.}.[ ",
"[ }.}.}.}.'.!., {.XXXX|.8 ,.v.D 6 X.(.XX  *.3.&.@.0.}.}.}.}.}.[ ",
"[ }.}.}.}.: q * {.XXXXX.H F.O.} XXXXXXXX[ L 6.4.&.0.}.}.}.}.}.[ ",
"[ }.}.}.}.s %.= '.'.XXX.A N.m.S 8 XXXXXXE.1 T 6.-._ }.}.}.}.}.[ ",
"{ }.}.}.}.r I L [ = (..X# W a.4 E.XX|.}.].@ k.B.;._ }.}.}.}.}.[ ",
"[ }.}.}.}.y u ^ 2 J 6 .X`.3 d.# .XXX[ 1  .( L.A.V.r.|.}.}.}.}.[ ",
"[ }.}.}.}.v T Z.l.F.W X..X# F /.XXQ.S N.) c.I.K.2.e.}.}.}.}.|.[ ",
"[ }.}.{. .6 [ a.( l.x.H # H # .X.X# f.m.m.g.P.W } 5 (.}.}.}.}.[ ",
"[ }.W.8 X..XX.1 + 1 K ( J s.4 . 8 A 2 1 1 + 2   XXQ.6 o.}.}.}.[ ",
"{ }.8 {.XXXX|.'.{.`.} J ( c.z.l.) 3 (.{.'.{.{.Q.XXXX|.8 X.}.}.[ ",
"[ }.{ /.XXXX|.'.'.{.W.H n.G.D.D.J.H Q.{..XXXXXXXXXXXXX X# '.}.[ ",
"[ }./.{  .XX[ 1 % 1 F ! W N.M.N.G.z.J 3 .       XXXX/.# ..}.}.[ ",
"[ }.}.}.}  .[ ) H d.Q 6 8 9 d.s.) ~ g.l.x.g.I.@ |.[ { /.}.}.}.[ ",
"[ }.}.}.}.u <.H.f.M.3 (..X6 f.s.1 [ 4 a.d.4 m.Q + ` |.}.}.}.}.[ ",
"[ }.}.}.}.= Y ^ W ( [ XX.X# M.W ..XXX.H n.d.P.K.j.T.|.}.}.}.}.[ ",
"[ }.}.}.}.> i 8 6 + |.XXX.J S.M.+  X.X# x.N.L.A.7.Y.}.}.}.}.}.[ ",
"[ |.}.}.}.z n [ XX`.XX|.+ O.s.) 3 } XXE.H J b.C.5.i.}.}.}.}.}.[ ",
"[ }.}.}.}.* x # XXXXXX .9 l.z.,.H % '.XX8 E.8 =.l u.|.}.}.}.}.[ ",
"[ }.}.}.}.C f X |.XXXXXXE.# c.m.m.W } XXXXXX8 $.j y.}.}.}.}.}.[ ",
"[ |.}.|.}.}.}.B /.XX{.E.[ # k.v.,.8  XXXXXXX  &.h y.}.}.}.}.}.[ ",
"[ }.}.}.}.}.}./.#   7 N p L Y 1.2.# E..XXX|.o @.h y.}.}.}.}.}.[ ",
"[ }.}.}.}.}.}.}.'.}.}.}.}._.U.R n c > #  .Q.0 @.g y.}.}.}.}.}.[ ",
"[ }.}.}.}.}.}.}.}.}.}.}.}.}.}.}.].R.Z w ; & g g t p.}.}.}.|.{.[ ",
"[ `.}.}.}.}.}.}.}.}.}.}.}.}.}.}.}.}.}.].t.< 9.).}.}.}.}.}.}.(.[ ",
"} E.}.}.}.}.}.}.}.}.}.}.}.}.}.}.}.}.}.}.}.}.}.}.}.}.}.|.}.}.X.} ",
"X.{ E.`.}.}.}.}.}.}.}.}.}.}.}.}.}.}.}.}.}.}.}.}.}.}.}.{.(.o.[ X.",
"oXX.{ [ [ [ [ [ [ [ [ [ [ [ [ [ [ [ [ [ [ [ [ [ [ [ [ [ [ } X.oX"
};
