/* XPM */
static char *dynamicaCreatePassiveMeshArray[] = {
/* columns rows colors chars-per-pixel */
"32 32 151 2 ",
"   c #381701",
".  c #3A1801",
"X  c #3C1901",
"o  c #3D1A01",
"O  c #411B01",
"+  c #421F07",
"@  c #441E05",
"#  c #4E2001",
"$  c #4C260D",
"%  c #562301",
"&  c #5B2501",
"*  c #662A01",
"=  c #682B01",
"-  c #722E01",
";  c #613212",
":  c #683817",
">  c #6E482E",
",  c #704121",
"<  c #704323",
"1  c #674833",
"2  c #604839",
"3  c #444444",
"4  c gray27",
"5  c #464646",
"6  c #4A4643",
"7  c #484848",
"8  c #494949",
"9  c gray30",
"0  c #4E4E4E",
"q  c #727272",
"w  c gray45",
"e  c gray47",
"r  c gray48",
"t  c #8A3801",
"y  c #913B01",
"u  c #953D01",
"i  c #9A3F01",
"p  c #954B1A",
"a  c #A64301",
"s  c #AD4601",
"d  c #AF4701",
"f  c #B34801",
"g  c #835334",
"h  c #CD5301",
"j  c #D45601",
"k  c #D65701",
"l  c #E15B01",
"z  c #E35C01",
"x  c #F66301",
"c  c #FF7417",
"v  c #946343",
"b  c #A46B45",
"n  c #A27151",
"m  c #A37352",
"M  c #A57555",
"N  c #AB7B5B",
"B  c #FF8635",
"V  c #FF8A3B",
"C  c #FF8B3E",
"Z  c #AF8061",
"A  c #B68869",
"S  c #BA8D6E",
"D  c #FF964F",
"F  c #FF9751",
"G  c #FF9C5A",
"H  c #FF9D5C",
"J  c #C39A7F",
"K  c #FFA162",
"L  c #FFA364",
"P  c #FFA467",
"I  c #FFAC74",
"U  c #FFAE78",
"Y  c #FFB17C",
"T  c #FFB27E",
"R  c #808080",
"E  c #838383",
"W  c #848484",
"Q  c #868686",
"!  c #898989",
"~  c gray67",
"^  c #AFAFAF",
"/  c #B1B1B1",
"(  c gray70",
")  c gray71",
"_  c #B6B6B6",
"`  c #B7B7B7",
"'  c gray74",
"]  c #C49C81",
"[  c #C49C82",
"{  c #C59E84",
"}  c #C7A087",
"|  c #C8A48B",
" . c #CAA891",
".. c #CBAA94",
"X. c #CBAB96",
"o. c #CCAD98",
"O. c #CDB19E",
"+. c #FFB989",
"@. c #FFBE92",
"#. c #FFBF94",
"$. c #CEB6A5",
"%. c #CFB8A8",
"&. c #CFB9AA",
"*. c #CFBCAF",
"=. c #CFBFB4",
"-. c #CFBFB5",
";. c #FFC298",
":. c #FFC39A",
">. c #FFC49D",
",. c #FFC69F",
"<. c #CFC3BB",
"1. c #CFC4BE",
"2. c #FFC7A1",
"3. c #FFC8A3",
"4. c #FFCAA5",
"5. c #FFCBA7",
"6. c #FFCCAA",
"7. c #FFCFAE",
"8. c #FFD0B0",
"9. c #FFD1B2",
"0. c #FFD3B4",
"q. c #FFD4B7",
"w. c #FFD7BB",
"e. c #FFD8BD",
"r. c #FFD9BF",
"t. c #C5C5C5",
"y. c #C6C6C6",
"u. c gray78",
"i. c #CEC7C2",
"p. c #CDC9C6",
"a. c #C8C8C8",
"s. c gray79",
"d. c #CACACA",
"f. c #CBCBCB",
"g. c #CDCAC9",
"h. c #CCCCCB",
"j. c gray80",
"k. c #FFDAC1",
"l. c #FFDEC8",
"z. c #FFE0CA",
"x. c #FFE1CC",
"c. c #FFE2CE",
"v. c #FFE3D0",
"b. c #FFE5D3",
"n. c #FFE7D7",
"m. c #FFEADB",
"M. c #FFEFE4",
"N. c #FFF0E6",
"B. c #FFF6EF",
"V. c #FFF8F3",
"C. c None",
/* pixels */
"C.q 9 4 4 4 4 7 4 7 4 4 7 4 4 7 4 4 7 4 4 4 4 7 4 4 4 4 4 9 q C.",
"q 9 Q ) d.j.j.j.j.j.j.j.j.j.j.j.j.j.j.j.j.j.j.j.j.j.j.d.) Q 7 q ",
"9 ! j.j.j.j.j.j.j.j.j.j.j.j.j.j.j.j.j.j.j.j.j.j.j.j.j.j.j.j.e 9 ",
"4 ' j.j.j.j.j.j.j.j.j.f.j.j.j.j.j.j.j.j.j.j.j.j.j.j.j.j.j.j.) 4 ",
"5 g.j.j.j.j.j.j.d.f.f.p.S ..h.h.j.j.h.j.j.j.j.j.j.j.j.j.j.j.j.4 ",
"7 j.j.j.j.j.j.g.i.f.f.S h y } h.j.j.*.&.j.j.j.j.j.j.j.j.j.j.j.4 ",
"5 h.j.j.g.g.<.X # [ n a L V u . O.S * - &.h.j.j.j.j.j.j.j.j.j.4 ",
"5 h.j.j.j.} @ l c s F 8.q.8.3.D b - K f J h.j.j.j.j.j.j.j.j.j.4 ",
"5 j.j.j.j.g B a = #.e.c.b.l.q.:.P C c v j.j.j.j.j.j.j.j.j.j.j.4 ",
"5 j.j.j.j.$ Y & p 7.z.M.B.m.e.4.@.@.k A j.j.j.j.j.j.j.j.j.j.j.4 ",
"5 j.j.j.j.Z s z k 8.c.M.V.m.k.4.@.@.t o.j.j.j.j.j.j.j.j.j.j.j.4 ",
"5 j.j.j.j.j.[ u V 6.e.v.n.z.q.>.@.H O p.j.j.j.f.j.j.j.j.j.j.j.4 ",
"5 j.j.j.j.j.j. .# I 6.w.w.8.3.@.Y = { f.d.f.f.p.S ..j.j.j.j.j.4 ",
"5 j.j.j.j.j.j.j.&.% G >.>.;.@.I & | j.h.i.f.f.S h y } h.j.j.*.2 ",
"5 j.j.j.j.j.j.j.j.$.m z @.+.x . o.g.<.X # [ n a L V u . O.S * - ",
"5 j.j.j.j.j.j.j.j.j.<.M   + N -.g.} @ l c s F 8.q.8.2.D b - K f ",
"4 j.j.j.j.j.i.S ..j.j.j.j.j.j.j.g.g B s * ;.w.c.b.l.0.;.P C c : ",
"4 j.g.1.j.j.S h y } h.j.j.*.&.d.j.$ Y & p 7.z.M.B.m.e.4.@.@.j < ",
"7 <.X # [ m i L V u . O.S * - &.f.Z s k k 8.c.N.V.m.k.4.@.@.t 1 ",
"> @ z c s F 8.q.8.2.D b - K f ] f.f.[ a C 4.e.c.n.z.q.>.@.G O 5 ",
"; B a = #.e.c.b.l.0.;.P C c v f.f.f.j...# Y 6.q.w.8.2.@.Y = } 4 ",
"@ Y & p 7.z.M.B.m.e.4.#.@.k A f.j.f.j.j.&.% G >.2.;.@.I & | f.4 ",
", s l k 8.c.N.V.m.k.4.@.@.t o.j.j.j.j.j.f.%.m z @.+.x X X.j.j.4 ",
"4 [ u V 5.e.v.n.l.w.>.@.H O p.j.j.j.j.j.f.f.<.M   + N <.j.j.j.4 ",
"4 j. .# U 6.q.w.8.2.@.Y = { j.j.j.j.j.j.j.j.j.j.j.j.j.j.j.j.j.4 ",
"5 j.j.&.% G >.>.;.@.I & | j.j.j.j.j.j.j.j.j.j.j.j.j.j.j.j.j.j.4 ",
"5 j.j.j.$.m z @.+.x X ..j.j.j.j.j.j.j.j.j.j.j.j.j.j.j.j.j.j.j.4 ",
"5 d.j.j.d.1.M . + N <.j.j.j.j.j.j.j.j.j.j.j.j.j.j.j.j.j.j.j.t.4 ",
"4 ) j.f.f.j.j.j.j.j.j.j.j.j.j.j.j.j.j.j.j.j.j.j.j.j.j.j.j.j.^ 4 ",
"9 Q j.f.j.j.j.j.j.j.j.j.j.j.j.j.j.j.j.j.j.j.j.j.j.j.j.j.j.d.q 9 ",
"q 7 R / d.j.j.j.j.j.j.j.j.j.j.j.j.j.j.j.j.j.j.j.j.j.j.t.^ e 4 q ",
"C.q 9 4 4 4 4 4 4 4 4 4 4 4 4 4 4 4 4 4 4 4 4 4 4 4 4 4 4 9 q C."
};
