/* XPM */
static char *dynamicaActivate_Y[] = {
/* columns rows colors chars-per-pixel */
"32 32 227 2 ",
"   c black",
".  c #0C0900",
"X  c #081A00",
"o  c #1B1500",
"O  c #101010",
"+  c #241600",
"@  c #221B00",
"#  c #2D1C00",
"$  c #311D00",
"%  c #0F2500",
"&  c #182200",
"*  c #1D2900",
"=  c #0B3000",
"-  c #083B00",
";  c #143500",
":  c #193C00",
">  c #1E3C1E",
",  c #2B2300",
"<  c #292A00",
"1  c #372F00",
"2  c #3C2C00",
"3  c #2A3C00",
"4  c #363200",
"5  c #383400",
"6  c #3E3900",
"7  c #202020",
"8  c #3F3D26",
"9  c #313131",
"0  c #423300",
"q  c #4D3400",
"w  c #433C00",
"e  c #503700",
"r  c #543A00",
"t  c #5E3D00",
"y  c #4A371C",
"u  c #48381F",
"i  c #613F00",
"p  c #034100",
"a  c #094500",
"s  c #034D00",
"d  c #164500",
"f  c #1A4B00",
"g  c #005500",
"h  c #015B00",
"j  c #0D5D00",
"k  c #0B5808",
"l  c #135200",
"z  c #1B5400",
"x  c #155D00",
"c  c #1D5B00",
"v  c #125E12",
"b  c #2C4300",
"n  c #2D4A00",
"m  c #374500",
"M  c #384700",
"N  c #334900",
"B  c #245500",
"V  c #275C00",
"C  c #2C5B00",
"Z  c #3A5400",
"A  c #395E00",
"S  c #046700",
"D  c #0E6600",
"F  c #006B00",
"G  c #0F6D00",
"H  c #176300",
"J  c #186C00",
"K  c #037400",
"L  c #0F7100",
"P  c #107300",
"I  c #1A7300",
"U  c #117900",
"Y  c #1C7A00",
"T  c #216700",
"R  c #2D6A00",
"E  c #336400",
"W  c #3D6400",
"Q  c #366B00",
"!  c #257400",
"~  c #2F7100",
"^  c #3B7400",
"/  c #337A00",
"(  c #3E7A00",
")  c #204B20",
"_  c #2D5B2D",
"`  c #344D34",
"'  c #3E5334",
"]  c #266C26",
"[  c #306B2E",
"{  c #454400",
"}  c #4C4E00",
"|  c #5F4600",
" . c #405000",
".. c #465900",
"X. c #4C5D00",
"o. c #575000",
"O. c #5B5400",
"+. c #565800",
"@. c #5B5C00",
"#. c #6C4200",
"$. c #624D00",
"%. c #684800",
"&. c #764C00",
"*. c #635500",
"=. c #6E5100",
"-. c #655E00",
";. c #6A5B00",
":. c #715300",
">. c #7A5500",
",. c #466400",
"<. c #4E6200",
"1. c #426C00",
"2. c #516600",
"3. c #536900",
"4. c #5F6B00",
"5. c #447000",
"6. c #407E00",
"7. c #5E7700",
"8. c #636500",
"9. c #6B6D00",
"0. c #756400",
"q. c #716900",
"w. c #7A6800",
"e. c #667200",
"r. c #6D7400",
"t. c #6C7A00",
"y. c #747700",
"u. c #747B00",
"i. c #7A7D00",
"p. c #425D3A",
"a. c #635736",
"s. c #454545",
"d. c #4C4C4C",
"f. c #515151",
"g. c gray35",
"h. c #626E45",
"j. c #687A4C",
"k. c #606060",
"l. c #727272",
"z. c #797979",
"x. c #834E00",
"c. c #8E5500",
"v. c #885E00",
"b. c #915700",
"n. c #955A00",
"m. c #805618",
"M. c #925F12",
"N. c #806500",
"B. c #896500",
"V. c #896D00",
"C. c #967700",
"Z. c #9C7200",
"A. c #937E00",
"S. c #99671C",
"D. c #A76600",
"F. c #AE6800",
"G. c #B46E00",
"H. c #A57900",
"J. c #BC7100",
"K. c #9C7130",
"L. c #C27400",
"P. c #CD7B00",
"I. c #028D00",
"U. c #138E00",
"Y. c #1F8800",
"T. c #039900",
"R. c #159900",
"E. c #2C8A00",
"W. c #3F9700",
"Q. c #428200",
"!. c #5A8100",
"~. c #568D00",
"^. c #4D9700",
"/. c #409900",
"(. c #4E9900",
"). c #599200",
"_. c #5D9900",
"`. c #668200",
"'. c #738100",
"]. c #798800",
"[. c #729000",
"{. c #4A834A",
"}. c #548251",
"|. c #5C945C",
" X c #6A8151",
".X c #6D8B57",
"XX c #798452",
"oX c #6B8D6B",
"OX c #978100",
"+X c #958A00",
"@X c #849500",
"#X c #889900",
"$X c #919400",
"%X c #969900",
"&X c #A18000",
"*X c #FF9900",
"=X c #90965E",
"-X c #97985F",
";X c #84817C",
":X c #BFA366",
">X c #BFA277",
",X c #C09E6C",
"<X c #C4A366",
"1X c #CCA366",
"2X c #CCAD7F",
"3X c #828282",
"4X c #898989",
"5X c #909090",
"6X c gray60",
"7X c #86A085",
"8X c #89AF89",
"9X c #97B697",
"0X c gray65",
"qX c gray68",
"wX c #A0B6A0",
"eX c #B3B3B3",
"rX c #BBBBBB",
"tX c #CBBCA5",
"yX c #C6BCAD",
"uX c #BDC4BD",
"iX c #C2C2C2",
"pX c #CCCCCC",
"aX c #D0D0D0",
"sX c gray88",
"dX c gray94",
"fX c gray100",
"gX c None",
/* pixels */
"gXl.d.s.s.s.s.s.s.s.s.s.s.s.s.s.s.s.s.s.s.s.s.s.s.s.s.s.s.d.l.gX",
"l.d.4XeXpXpXpXpXpXpXpXpXpXaXpXpXpXpXpXaXpXpXpXpXpXaXpXpXeX3Xs.l.",
"d.4XpXpXpXpXpXpXpXpXpXpXpXpXpXpXpXpXpXpXpXpXpXpXpXpXpXpXpXpXz.d.",
"s.rXpXpXpXpXpXpXpXpXpXpXpXpXpXpXpXpXpX9X|.) > oXuXpXpXpXpXpXrXs.",
"s.pXpXpXpXpXpXpXpXpXpXpXpXpXuX8X{.] g g S g F I.K ` pXpXpXpXpXs.",
"s.pXpXpXpXpXpXpXpXiXwXoX_ v g h h F K K K F I.T.T.}.pXpXpXpXpXs.",
"s.pXpXpXpXrX7X}.[ k g g p K K K K K K F K S I.T.T.}.pXpXpXpXpXs.",
"s.pXpXpXpX- a G G P U L j L L L U P G P L D U.R.R.}.pXpXpXpXpXs.",
"s.pXpXpXpXx I Y Y I I H l I J J x x H x x = x Y.Y p.pXpXpXpXpXs.",
"s.pXpXpXpXf c T z z c d ; z f f X f z z c d ! E.! ' pXpXpXpXpXs.",
"s.pXpXpXpX; : B % f V V V R R ~ B / / / / ~ /./.W..XpXpXpXpXpXs.",
"s.pXaXpXpXC ^ Q.E 6.6.6.Q.( ^ ^ C ^ ^ ^ ^ Q (.(.^. XpXpXpXpXpXs.",
"s.pXpXpXpXn W 5.b W 1.1.1.1.1.1.b 1.1.1.1.W )._.~.j.pXpXpXpXpXs.",
"s.pXpXpXpX* b Z * m Z b 3 Z Z N & Z Z Z Z * ,.!.,.h.pXpXpXpXpXs.",
"s.pXpXpXpXm X.3.<.<.2. .m 3.2.X...<.<.<.2.m `.[.7.XXpXpXpXpXpXs.",
"s.aXpXpXpX+.e.t.].'.'.e.4.t.t.t.t.t.e.t.t.e.#X#X@X=XpXpXpXpXpXs.",
"s.pXpXpXpX< { +.} @.8.} } y.9.y.i.y.u.y.y.9.%X%X$X-XpXpXpXpXpXs.",
"s.pXpXpXpX6 O.-.4 O.O.6 4 O.O.o.,   o { q.;.+Xw   8 qXpXpXpXpXs.",
"s.pXpXpXpX0.A.OX;.;.O.w.0.0.q.w f.fXiXo O., 1 3XfX5Xg.pXpXpXpXs.",
"s.pXpXpXpX, $.N.1 9 s.0 &XZ.C.V.o qXfXl.0 5 9 fXsXO qXpXpXpXpXs.",
"s.pXpXpXpX0 =.:.. rXfX  B.Z.H.Z.| O dXdX7 o aXfXs.a.pXpXpXpXpXs.",
"s.aXpXpXpXv.>.e + iXfX  # q >.%.r e l.fXyX3XfXqX2 :XpXpXpXpXpXs.",
"s.pXpXpXpX# s.3X4XaXfX3Xz.k.i &.q &.o iXfXfXdXO t <XpXpXpXpXpXs.",
"s.pXpXpXpXy z.fXfXfXfXfXfXiX# J.G.G.#.7 dXfXf.i D.1XpXpXpXpXpXs.",
"s.pXpXaXpXrXf.    iXfX    $ x.L.L.L.L.# iXfX  *XP.1XpXpXpXpXpXs.",
"s.pXpXpXpXpXpXpX9 iXfX  m.b.b.F.L.L.L.# iXfX  *XP.1XpXpXpXpXpXs.",
"s.pXpXpXpXpXpXpXg.5XrX9 pXyX,XS.c.n.F.# rXfX  *XJ.,XpXpXpXpXpXs.",
"s.pXpXpXpXpXpXpXqXg.9 4XpXpXpXpXyX>XK.+ iXfX  J.M.2XpXpXpXpXiXs.",
"s.rXpXpXpXpXpXpXpXpXpXpXpXpXpXpXpXpXpX;X9 s.y tXpXpXpXpXpXpXqXs.",
"d.3XpXpXpXpXpXpXpXpXpXpXpXpXpXpXpXpXpXpX0X5XpXpXpXpXpXpXpXpXl.f.",
"l.s.3XqXpXpXpXpXpXpXpXpXpXpXpXpXpXpXpXpXpXpXpXpXpXpXpXpXqXz.s.l.",
"gXl.d.s.s.s.s.s.s.s.s.s.s.s.s.s.s.s.s.s.s.s.s.p.s.s.s.s.s.d.l.gX"
};
