/* XPM */
static char *dynamicaCreatePassivePlaneArray[] = {
/* columns rows colors chars-per-pixel */
"32 32 176 2 ",
"   c #444444",
".  c gray27",
"X  c #464646",
"o  c #484848",
"O  c #494949",
"+  c gray30",
"@  c #4E4E4E",
"#  c #727272",
"$  c gray45",
"%  c gray47",
"&  c gray48",
"*  c #853905",
"=  c #8C3901",
"-  c #8B3A04",
";  c #8F3F09",
":  c #973D01",
">  c #8D400C",
",  c #9D4305",
"<  c #93440F",
"1  c #98430A",
"2  c #9A450C",
"3  c #99470F",
"4  c #9F4A0F",
"5  c #9E4B13",
"6  c #9B4C17",
"7  c #9C4E19",
"8  c #9F501C",
"9  c #A34201",
"0  c #A14302",
"q  c #A64301",
"w  c #A74301",
"e  c #A44607",
"r  c #AB4501",
"t  c #AD4601",
"y  c #AE4905",
"u  c #A64A0D",
"i  c #A44C0F",
"p  c #AB4B0A",
"a  c #AD4D0D",
"s  c #AC4F0F",
"d  c #B14801",
"f  c #B74A01",
"g  c #B64B04",
"h  c #B94C03",
"j  c #BC4C01",
"k  c #BE4D01",
"l  c #B64F0B",
"z  c #BE5006",
"x  c #A44B10",
"c  c #A34E16",
"v  c #A54E14",
"b  c #AF5213",
"n  c #AE5214",
"m  c #B45516",
"M  c #B95B1C",
"N  c #A55825",
"B  c #AE5F2A",
"V  c #B15B21",
"C  c #B2612A",
"Z  c #B8622A",
"A  c #BA642B",
"S  c #B9662E",
"D  c #B96832",
"F  c #B56D3E",
"G  c #B76F3F",
"H  c #BF6E38",
"J  c #C04E01",
"K  c #C14E01",
"L  c #C24E01",
"P  c #C34F01",
"I  c #C65406",
"U  c #C95101",
"Y  c #CC5201",
"T  c #CF5401",
"R  c #D25501",
"E  c #D65701",
"W  c #D15604",
"Q  c #D15706",
"!  c #D85701",
"~  c #DA5801",
"^  c #DC5901",
"/  c #E35C01",
"(  c #E55D01",
")  c #E75D01",
"_  c #E85E01",
"`  c #EB5F01",
"'  c #EC5F01",
"]  c #EC6001",
"[  c #F06101",
"{  c #F46301",
"}  c #F86401",
"|  c #F96501",
" . c #FA6501",
".. c #FD6601",
"X. c #F26608",
"o. c #FF6C0A",
"O. c #FE6C0B",
"+. c #FF6D0C",
"@. c #F96F14",
"#. c #FF7417",
"$. c #FF7518",
"%. c #FF7519",
"&. c #FF771B",
"*. c #FF791F",
"=. c #C0713B",
"-. c #FF7C24",
";. c #FF7D26",
":. c #BA7345",
">. c #C17441",
",. c #C27847",
"<. c #C67D4C",
"1. c #C27E51",
"2. c #FF8431",
"3. c #FF8533",
"4. c #FF8939",
"5. c #FF8D40",
"6. c #FF8E42",
"7. c #FF8F44",
"8. c #FF964F",
"9. c #CA8C62",
"0. c #C88D65",
"q. c #CD8E65",
"w. c #CC9672",
"e. c #CD9772",
"r. c #CC9773",
"t. c #CB9775",
"y. c #808080",
"u. c #838383",
"i. c #848484",
"p. c #868686",
"a. c #898989",
"s. c gray67",
"d. c #AFAFAF",
"f. c #B1B1B1",
"g. c gray70",
"h. c gray71",
"j. c #B6B6B6",
"k. c #B7B7B7",
"l. c gray74",
"z. c #CEA386",
"x. c #CFA78C",
"c. c #CFA88D",
"v. c #D1A68A",
"b. c #D0AA91",
"n. c #D0AC94",
"m. c #D1B09A",
"M. c #D1B39F",
"N. c #D1B4A1",
"B. c #D1B5A2",
"V. c #D1B6A4",
"C. c #D1B7A6",
"Z. c #D2B7A6",
"A. c #D1B9A9",
"S. c #D1BAAA",
"D. c #D1BDAF",
"F. c #D1BDB0",
"G. c #D0BFB4",
"H. c #CFC5BE",
"J. c #CFC5BF",
"K. c #D1C0B5",
"L. c #D0C1B7",
"P. c #D0C2B9",
"I. c #C5C5C5",
"U. c #C6C6C6",
"Y. c gray78",
"T. c #CEC7C2",
"R. c #CEC8C3",
"E. c #CEC8C4",
"W. c #CDCAC7",
"Q. c #C8C8C8",
"!. c gray79",
"~. c #CACACA",
"^. c #CBCBCB",
"/. c #CCCBCA",
"(. c gray80",
"). c None",
/* pixels */
").# + . . . . o X X X X X X . X X X X X . X X X X X X X X @ # ).",
"# + p.h.~.(.(.(.(.(.(.(.(.(.(.(.(.(.(.(.(.(.(.(.(.(.(.Y.g.u.o # ",
"+ a.(.(.(.(.(.(.(.(.(.(.(.(.D.B.c.B.(.(.(.(.(.(.(.(.(.(.(.(.% + ",
". l.(.(.(.(.(.Z.:.F N 6 > * < 1 : 2 t.(.(.(.(.(.(.(.(.(.(.(.k.. ",
". ^.(.(.(.(./.c q t k k U W W Y T U , G H.(.(.(.(.(.(.(.(.(.(.. ",
". (.(.(.(.(.A.1 ~ ~ ~ ~ ! ~ ! ! ~ E E r 8 D.(.(.(.(.(.(.(.(.(.. ",
". (.(.(.(.(.0.d ) ) ) ) ) ) ) ) ( ) ) ) j v v.(.(.(.(.(.(.(.(.. ",
". (.(.(.(.(.C E [ [ ] [ [ ] [ [ ] [ ] [ ] ~ u 1.R.(.(.(.(.(.(.. ",
"o (.(.(.(.G.5 ..............................{ y B R.(.(.(.(.(.. ",
". (.(.(.(.r.k o.+.+.+.+.+.+.+.+.+.+.+.+.+.+.+.+.U c M.(.(.(.(.. ",
". (.(.(.(.D ) $.$.$.$.$.$.$.$.$.$.$.$.&.$.$.$.$.$.] a w.E.(.(.. ",
"o (.(.(.P.m &.;.;.;.;.;.;.;.;.;.;.;.;.;.;.;.$.| ~ K s < H.(.(.. ",
". (.(.(.z.I 3.3.3.3.3.3.3.3.3.3.3.3.&.| W k 9 M <.b.G.(.~.(.(.. ",
". (.(.(.=.| 6.6.6.7.6.6.6.5.-.' Q t w K ^ ] ~ u 1.R.(.(.(.(.(.. ",
"o (.(.E.n 4.8.8.8.8.$.` j = 9 Y ` | ..........{ y B T.(.(.(.(.. ",
". (.(.n.Q 7.$./ f = h Q X.O.+.+.+.+.+.+.+.+.+.o.o.U c M.(.(.(.. ",
"o (.(.,.e m l ! @.$.$.$.$.$.$.$.%.$.&.%.%.%.%.%.%.%.' a r./.(.. ",
". (.(.A.A.K.m $.;.;.;.-.;.;.;.-.-.;.;.-.;.;.;.&. .! K s < G.(.. ",
". (.(.(.^.z.I 3.3.3.3.3.3.3.3.3.3.3.3.-.| E j 0 M <.b.G.(.(.(.. ",
"o (.(.(.(.H { 6.7.7.6.6.6.7.6.-.' R r q K ^ ' ! u 1.E.(.(.(.(.. ",
". (.(.(.E.m 4.8.8.8.8.%.` j - 9 Y ) | ..........{ y B T.(.(.(.. ",
". (.(.(.n.Q 7.%./ f = h Q X.O.+.+.O.+.+.+.+.+.+.+.O.U c N.(.(.. ",
"o (.(.(.,.e n l ! @.%.%.&.$.$.$.%.$.$.$.$.&.%.%.$.$.$.' a w.E.. ",
". (.(.(.A.A.G.m &.;.-.-.;.;.;.;.-.;.;.;.;.;.;.;.&.| ! K s < P.. ",
". (.(.(.(.(.z.I 3.3.3.3.3.3.3.3.3.3.3.3.*.| W k x Z <.b.G.(.(.. ",
"o (.(.(.(.(.=.{ 6.6.6.6.6.6.7.4.-.] W p x S 9.M.T.(.(.(.(.(.(.. ",
". (.(.(.(.E.n 4.8.8.8.8.$.` j - 5 H w.A.(.(.(.(.(.(.(.(.(.(.(.. ",
". ~.(.(.(.n.Q 7.#.( g - V >.x.T.(.(.(.(.(.(.(.(.(.(.(.(.(.(.I.. ",
". k.(.(.(.,.e n A q.B.E.(.(.(.(.(.(.(.(.(.(.(.(.(.(.(.(.(.(.d.. ",
"+ i.(.(.(.A.A.E.(.(.(.(.(.(.(.(.(.(.(.(.(.(.(.(.(.(.(.(.(.~.$ + ",
"# o y.f.~.(.(.(.(.(.(.(.(.(.(.(.(.(.(.(.(.(.(.(.(.(.(.Y.s.% . $ ",
").# + . . . . . . . . . . . . . . . .   . . . . . . . . . + # )."
};
