/* XPM */
static char *dynamicaCreateActiveMeshArray[] = {
/* columns rows colors chars-per-pixel */
"32 32 182 2 ",
"   c #003300",
".  c #013401",
"X  c #023402",
"o  c #033503",
"O  c #063706",
"+  c #063806",
"@  c #0C3C0C",
"#  c #0E3D0E",
"$  c #0E3E0E",
"%  c #1F3B1F",
"&  c #2E3F2E",
"*  c #313131",
"=  c #323232",
"-  c #124112",
";  c #164316",
":  c #164416",
">  c #1D491D",
",  c #1F4A1F",
"<  c #244E24",
"1  c #335933",
"2  c #345A34",
"3  c #385D38",
"4  c #3A5F3A",
"5  c #3B5F3B",
"6  c #3E623E",
"7  c #444444",
"8  c gray27",
"9  c #464646",
"0  c #484848",
"q  c #494949",
"w  c gray30",
"e  c #4E4E4E",
"r  c gray36",
"t  c #416341",
"y  c #426442",
"u  c #426542",
"i  c #456745",
"p  c #4A694B",
"a  c #4A6B4A",
"s  c #4B6B4B",
"d  c #4D6D4D",
"f  c #596159",
"g  c #517051",
"h  c #527052",
"j  c #547254",
"k  c #5A775A",
"l  c #5E795E",
"z  c #607B60",
"x  c #637D63",
"c  c #647E64",
"v  c #727272",
"b  c gray45",
"n  c gray47",
"m  c gray48",
"M  c #7C7C7C",
"N  c #698269",
"B  c #6B836B",
"V  c #6B846B",
"C  c #6D846D",
"Z  c #6E866E",
"A  c #788D78",
"S  c #7F927F",
"D  c #808080",
"F  c gray51",
"G  c #838383",
"H  c #848484",
"J  c gray52",
"K  c #868686",
"L  c #898989",
"P  c #8D8D8D",
"I  c #8E8E8E",
"U  c gray56",
"Y  c #819481",
"T  c #829482",
"R  c #849684",
"E  c #879887",
"W  c #899A89",
"Q  c #8A9A8A",
"!  c #8B9B8B",
"~  c #929292",
"^  c #939393",
"/  c #959595",
"(  c #919E90",
")  c gray60",
"_  c #9A9A9A",
"`  c #9B9B9B",
"'  c gray61",
"]  c gray62",
"[  c #9F9F9F",
"{  c #91A091",
"}  c #94A294",
"|  c #96A396",
" . c #98A598",
".. c #99A699",
"X. c #9CA99C",
"o. c #9EA99E",
"O. c #9EAA9E",
"+. c #A0A0A0",
"@. c #A4A4A4",
"#. c #A7ACA3",
"$. c #A5AFA5",
"%. c gray67",
"&. c #AFAFAF",
"*. c #A7B1A7",
"=. c #A8B1A8",
"-. c #A8B3A8",
";. c #AAB3AA",
":. c #AEB5AE",
">. c #AEB6AE",
",. c #AFB6AF",
"<. c #B1B1B1",
"1. c #B2B2B2",
"2. c gray70",
"3. c gray71",
"4. c #B6B6B6",
"5. c #B7B7B7",
"6. c #B2B8B2",
"7. c #B3BAB3",
"8. c #B4BAB4",
"9. c #B5BAB5",
"0. c #B5BBB5",
"q. c #B9B9B9",
"w. c gray73",
"e. c #BABFBB",
"r. c #BBBFBB",
"t. c gray74",
"y. c #BCC0BC",
"u. c #BEC1BE",
"i. c #BEC2BE",
"p. c #C0C0C0",
"a. c #C1C1C1",
"s. c #C0C3C0",
"d. c #C2C4C2",
"f. c #C2C5C2",
"g. c gray77",
"h. c #C5C5C5",
"j. c #C6C6C6",
"k. c gray78",
"l. c #C6C8C6",
"z. c #C8C8C8",
"x. c gray79",
"c. c #C9CAC9",
"v. c #CBCAC8",
"b. c #CACAC9",
"n. c #CBCAC9",
"m. c #CACACA",
"M. c #CBCBCA",
"N. c #CBCBCB",
"B. c #C8CBCC",
"V. c gray80",
"C. c #CCCECC",
"Z. c gray81",
"A. c #D0D0D0",
"S. c gray82",
"D. c #D2D2D2",
"F. c LightGray",
"G. c gray83",
"H. c #D5D5D5",
"J. c gray84",
"K. c #D7D7D7",
"L. c gray85",
"P. c #DADADA",
"I. c gray86",
"U. c gainsboro",
"Y. c #DDDDDD",
"T. c #DFDFDF",
"R. c gray88",
"E. c #E1E1E1",
"W. c #E2E2E2",
"Q. c gray90",
"!. c #E6E6E6",
"~. c #E7E7E7",
"^. c gray91",
"/. c #E9E9E9",
"(. c #EAEAEA",
"). c #ECECEC",
"_. c #EEEEEE",
"`. c gray95",
"'. c #F3F3F3",
"]. c gray97",
"[. c #F9F9F9",
"{. c None",
/* pixels */
"{.v w 8 8 8 8 0 8 8 0 8 8 0 9 9 9 9 9 9 8 8 9 9 9 9 8 8 9 w v {.",
"v w K 3.m.V.V.V.V.V.V.V.V.V.V.V.V.V.V.V.V.V.V.V.V.V.V.l.3.G 0 v ",
"w L V.V.V.V.V.V.V.V.V.V.V.B.V.V.f.Z } V.V.V.V.V.V.V.V.V.V.V.m w ",
"8 t.V.V.V.V.V.V.V.V.V.V.m.i.V.V.Z l 3 E V.V.V.,.;.V.V.V.V.V.3.8 ",
"8 V.V.V.V.V.V.V.V.V.V.9.o $ T g 6 8.X.3 X o.C , < =.V.V.V.V.V.8 ",
"8 V.V.V.V.V.V.V.V.V.E $ V W a -.I.Y.I.F.=.g < 6.d S V.V.V.V.V.8 ",
"8 V.V.V.V.V.V.V.V.V.1 ..i , M.T.^.(.~.I.A.9.o.W u V.V.V.V.V.V.8 ",
"8 V.V.V.V.V.V.V.V.m.$ s.; t I.~.`.]._.R.K.M.V.x B V.V.V.V.V.V.8 ",
"8 V.V.V.V.V.V.V.V.V.z a C c I.~.`.[._.R.K.V.V.2  .m.V.V.V.V.V.8 ",
"0 V.V.V.V.V.V.V.V.V.V.T 3 o.K.R.(.).~.U.D.V.:.+ l.V.V.V.V.V.V.8 ",
"8 V.V.V.V.V.V.V.V.V.V.V.{ $ i.K.Y.Y.Y.K.m.f., R V.V.V.V.f.C } 8 ",
"8 V.V.V.V.V.V.V.V.V.V.V.V.;.- :.D.D.V.V.y.: ! M.m.i.V.V.C l 3 & ",
"0 V.V.V.V.V.V.V.V.V.V.V.V.V.$.g V M.z.A X  .M.9.X - T g 6 7.X.6 ",
"8 V.V.V.V.V.V.V.V.V.V.V.V.V.B.r.j X + k 8.V.E $ V W a -.U.Y.I.D.",
"8 V.V.V.V.V.V.V.V.V.V.f.C ( m.V.M.m.V.V.V.V.1 ..i , M.T.^.(.Q.I.",
"0 V.V.V.V.V.V.m.i.V.V.B l 3 E M.M.v.$.=.V.V.@ i.: t L.~.`.]._.R.",
"* m.V.V.V.B.9.o $ T s 6 6.X.3 X o.C , < =.M.z s B c I.~.`.[._.R.",
"* L m.V.V.E $ B W a *.I.Y.I.F.*.h < 6.d Y V.V.Y 5 o.K.R.^.(.^.Y.",
"8 / P V.V.2 ..i , V.T.^.(.~.Y.A.9.O.W u V.V.V.V.( $ i.I.Y.R.I.K.",
"8 V.L +.V.@ i.; 6 I.~.`.]._.Y.K.V.V.z B V.V.V.V.V.;.- :.D.F.V.m.",
"8 V.s.G q.z a B c I.~.`.[._.R.K.V.V.2 ..M.V.V.V.V.V.$.g B V.m.A ",
"9 V.V.%.~ V.T 6 o.K.R.(.).~.Y.D.V.,.O l.V.V.V.V.V.V.M.y.j   O % ",
"9 V.V.V.P q.V.( $ i.K.Y.R.I.G.V.f., R V.V.V.V.V.V.V.V.V.V.V.m.8 ",
"9 V.V.V.@.` V.i.f - :.D.F.V.V.y.; ! V.V.V.V.V.V.V.V.V.V.V.V.V.8 ",
"9 V.V.V.3.~ V.D _ *.h V V.m.A X  .V.V.V.V.V.V.V.V.V.V.V.V.V.V.8 ",
"9 V.V.V.k.) @.G m.V.r.g   O k 8.V.V.V.V.V.V.V.V.V.V.V.V.V.V.V.8 ",
"9 V.V.h.a.+.M w.V.V.V.V.V.V.V.V.V.V.V.V.V.V.V.V.V.V.V.V.V.V.V.8 ",
"9 m.m./ r G G P 1.V.V.V.V.V.V.V.V.V.V.V.V.V.V.V.V.V.V.V.V.V.h.8 ",
"9 5.V.q.+.m ' U ] m.V.V.V.V.V.V.V.V.V.V.V.V.V.V.V.V.V.V.V.V.&.8 ",
"e G V.V.V.h.V.V.m.V.V.V.V.V.V.V.V.V.V.V.V.V.V.V.V.V.V.V.V.m.b w ",
"b 0 D <.k.V.V.V.V.V.V.V.V.V.V.V.V.V.V.V.V.V.V.V.V.V.V.h.%.m 8 v ",
"{.v w 8 8 8 8 8 8 8 8 8 8 8 8 8 8 8 8 8 8 8 8 8 8 8 8 8 8 w v {."
};
