/* XPM */
static char *dynamicaActivateRadialIn[] = {
/* columns rows colors chars-per-pixel */
"32 32 247 2 ",
"   c black",
".  c #0B0301",
"X  c #0F0C00",
"o  c #150301",
"O  c #1F0000",
"+  c #190C00",
"@  c #14000C",
"#  c #1E0010",
"$  c #101010",
"%  c #181818",
"&  c #270007",
"*  c #2C0202",
"=  c #230E00",
"-  c #290800",
";  c #21000B",
":  c #320E00",
">  c #31000F",
",  c #3F000C",
"<  c #241700",
"1  c #2D1400",
"2  c #2D1C00",
"3  c #301300",
"4  c #240013",
"5  c #29001D",
"6  c #3C0012",
"7  c #38001E",
"8  c #252204",
"9  c #2F2200",
"0  c #3D2600",
"q  c #312A00",
"w  c #3E3300",
"e  c #3A3900",
"r  c #1F0026",
"t  c #1C003F",
"y  c #2B0023",
"u  c #200028",
"i  c #34002B",
"p  c #3A0028",
"a  c #2B003E",
"s  c #30003A",
"d  c #222222",
"f  c #303030",
"g  c #440001",
"h  c #4D0600",
"j  c #470E00",
"k  c #4F0B00",
"l  c #540006",
"z  c #411900",
"x  c #4A1800",
"c  c #5F1200",
"v  c #4C001D",
"b  c #560011",
"n  c #660001",
"m  c #65000A",
"M  c #7D0000",
"N  c #7D000C",
"B  c #68001F",
"V  c #770017",
"C  c #7D0011",
"Z  c #462B00",
"A  c #5A2200",
"S  c #552B00",
"D  c #463300",
"F  c #6E2B00",
"G  c #7C2300",
"H  c #733B00",
"J  c #410023",
"K  c #54002C",
"L  c #6A0028",
"P  c #720028",
"I  c #4E4700",
"U  c #504F00",
"Y  c #515000",
"T  c #4E4D18",
"R  c #504F1E",
"E  c #634100",
"W  c #744D00",
"Q  c #626100",
"!  c #6A6900",
"~  c #786100",
"^  c #737200",
"/  c #4C4C26",
"(  c #5E5E32",
")  c #676620",
"_  c #18004D",
"`  c #210049",
"'  c #3D004B",
"]  c #380051",
"[  c #32006E",
"{  c #240074",
"}  c #340072",
"|  c #420051",
" . c #640045",
".. c #450064",
"X. c #4E0060",
"o. c #454545",
"O. c #4C4C4C",
"+. c #525252",
"@. c gray35",
"#. c #7D7C55",
"$. c #636363",
"%. c #6D6D6D",
"&. c #727272",
"*. c #7B7B7B",
"=. c #810A00",
"-. c #811800",
";. c #9A1D00",
":. c #820016",
">. c #9D001E",
",. c #A20003",
"<. c #AF000C",
"1. c #A61B00",
"2. c #B21D00",
"3. c #A0001C",
"4. c #8D2E00",
"5. c #8A3600",
"6. c #843A00",
"7. c #913F00",
"8. c #983B00",
"9. c #B92600",
"0. c #AB3500",
"q. c #B53400",
"w. c #820032",
"e. c #930033",
"r. c #C30004",
"t. c #CD0F00",
"y. c #C01F00",
"u. c #C62500",
"i. c #8C4600",
"p. c #934C00",
"a. c #9B4C00",
"s. c #845700",
"d. c #8A5B00",
"f. c #9C5000",
"g. c #945A00",
"h. c #AB4200",
"j. c #BF4A00",
"k. c #A45200",
"l. c #AC5800",
"z. c #B95F00",
"x. c #926100",
"c. c #9B6700",
"v. c #9A6E00",
"b. c #807900",
"n. c #8C7D00",
"m. c #917700",
"M. c #9B7413",
"N. c #A16000",
"B. c #AF7D00",
"V. c #BE7200",
"C. c #C74200",
"Z. c #C94200",
"A. c #C94E00",
"S. c #C15400",
"D. c #D85100",
"F. c #D85E00",
"G. c #C06000",
"H. c #D56800",
"J. c #C07F00",
"K. c #FF6300",
"L. c #888600",
"P. c #8D8B00",
"I. c #8E8C08",
"U. c #9D8400",
"Y. c #968E00",
"T. c #918F09",
"R. c #939100",
"E. c #9E9C00",
"W. c #929012",
"Q. c #AB8C00",
"!. c #BD8700",
"~. c #BD8900",
"^. c #A49C00",
"/. c #BB9B00",
"(. c #A6A400",
"). c #ADAB00",
"_. c #B0AE00",
"`. c #BCAC00",
"'. c #B6B400",
"]. c #B9B700",
"[. c #BDBB00",
"{. c #9B9926",
"}. c #94932E",
"|. c #9C9B30",
" X c #959438",
".X c #C58300",
"XX c #C08B00",
"oX c #C69000",
"OX c #C09C00",
"+X c #D79C00",
"@X c #F09F00",
"#X c #FD9C00",
"$X c #C3A600",
"%X c #CAA400",
"&X c #C3AE00",
"*X c #C3B300",
"=X c #C1BF00",
"-X c #C4C200",
";X c #CDCB00",
":X c #D6D300",
">X c #DFDC00",
",X c #F2CC00",
"<X c #F7D000",
"1X c #F8D400",
"2X c #E3E000",
"3X c #E8E500",
"4X c #EDEA00",
"5X c #FFFC00",
"6X c #8A8945",
"7X c #96954B",
"8X c #99984C",
"9X c #A98F4A",
"0X c #ACAB4B",
"qX c #A3A251",
"wX c #A8A754",
"eX c #BFAE53",
"rX c #BBBA5E",
"tX c #9F9E6D",
"yX c #A8A769",
"uX c #A9A869",
"iX c #BFBE60",
"pX c #BFBE77",
"aX c #CCCB66",
"sX c #CCCB7F",
"dX c #070083",
"fX c #818181",
"gX c #8B8B8B",
"hX c #909090",
"jX c #B2B185",
"kX c #BFBE8F",
"lX c #A0A0A0",
"zX c gray68",
"xX c #B4B4B4",
"cX c #BBBBBB",
"vX c #C3BC9E",
"bX c #CAC997",
"nX c #C5C5A0",
"mX c #CBCBA5",
"MX c #C7C7AE",
"NX c #CACABD",
"BX c #C2C2C2",
"VX c #CCCCCC",
"CX c #D0D0D0",
"ZX c gray88",
"AX c gray94",
"SX c gray100",
"DX c None",
/* pixels */
"DX&.O.o.o.o.o.o.o.o.o.o.o.o.o.o.o.o.o.o.o.o.o.o.o.o.o.o.o.+.&.DX",
"&.O.gXxXVXVXVXVXVXVXCXVXVXVXVXVXVXVXVXCXVXVXVXVXVXVXVXBXxXfXO.&.",
"O.gXVXVXVXVXVXVXVXVXVXVXVXCXVXVXVXVXVXVXVXVXVXVXVXVXVXVXVXVX*.O.",
"o.cXVXVXVXVXVXVXVXVXVXVXcX$.fXVXVXVXVXbXrX) R tXVXVXVXVXVXVXxXo.",
"o.VXVXVXVXVXVXVXVXVXVXVXO.tX$.#.0X{.Y.Y.E.L.].3X-X( VXVXVXVXVXo.",
"o.VXVXVXVXVXVXVXVXBXnXyX  SXcX8 E.).[.=X-X_.4X5X5XwXVXVXVXVXVXo.",
"o.VXVXVXVXcXjXqX}.I.R.b.  SXBXq &X[.[.[.[.).3X5X5XqXVXVXVXVXVXo.",
"o.VXVXVXVXQ ^ ).'.*X%X~.  SXBX2 J.!./.`.=X(.4X5X4X7XVXVXVXVXVXo.",
"o.VXVXVXgXR.=X;X$X!.V.i.  SXBX1 7.a.g.v.U.Y P.! $ $ zXVXVXVXVXo.",
"o.VXVX@.+.% U Q.d.p.8.: hXSXAX*.o 4.5.H c.w $ fXAXhX@.VXVXVXVXo.",
"o.VXVX  SXCX+.< . x ;.h fXSXSXo.n t.c f + $.CXSXAXfX$.VXVXVXVXo.",
"o.VXVX+.o.ZXSXBXCXf M <.$ AXcX& C l $.AXZXSXAXfX$ / cXVXVXVXVXo.",
"o.VXVXVX%.X &.AXSXCX$ V , &.f v > f AXSXSXhX$ ~ :X8XVXVXVXVXVXo.",
"o.VXVXVXVXD 3 hXSXSXhX; 7 5 p p $ CXSXSXCXf i.+X^.6XVXVXVXVXVXo.",
"o.VXVXVXVXW 6.j     d p i ] ] | y @     & j F.@X*XwXVXVXVXVXVXo.",
"o.CXVXVXVXg.S.1.,.:.L  .| } { [ |  .w.3.<.u.K.#X1XrXVXVXVXVXVXo.",
"o.VXVXVXVXZ c f f o.o.i s { dX{ ..y   @ & k D.#X,XrXVXVXVXVXVXo.",
"o.VXVXVXVX0 < lXSXSXgX@ u _ _ ` u +.SXZXBXhXF #X$XrXVXVXVXVXVXo.",
"o.VXVXlXO.f BXSXSXZX$ K i f $ s y 4 hXSXSXBXd E n.rXVXVXVXVXVXo.",
"o.VXVXO.lXSXAXfX+.f b e.; cXfX5 K P $ CXZXSXAXfX$ ( VXVXVXVXVXo.",
"o.VXVX$.fXfX$ z - n N , o.SXAX$ B >.m d o / CXSXAX$.*.VXVXVXVXo.",
"o.VXCXcX$.U B.z.0.1.,.. ZXSXSX*.& <.r.2.u.H 9 $.AXCXd VXVXVXVXo.",
"o.VXVXVXVXe U..XH.Z.u.h   SXCXf g =.-.4.g.c.,X! $ $ *.VXVXVXVXo.",
"o.VXVXVXVX XT.m.x.l.A.0.  SXBX* 9.q.h.f.s.w ;X2X^.iXVXVXVXVXVXo.",
"o.CXVXVXVXVXVXkXeXM.g.S   SXBX3 S.G.V.~./._.5X5X;XaXVXVXVXVXVX/ ",
"o.VXVXVXVXVXVXVXVXVXvX9X  SXBX2 .XoX/.`.].[.5X5X;XaXVXVXVXVXVXo.",
"o.VXVXVXVXVXVXVXVXVXVXVX% ZXBX8 n.R.).=X-X-X5X5X].aXVXVXVXVXVXo.",
"o.VXVXVXVXVXVXVXVXVXVXVX%.% f fXMXpX|.R.P.R.>X].W.bXVXVXVXCXBXo.",
"o.cXVXVXVXVXVXVXVXVXVXVXVXVXVXVXVXVXVXNXyXT 0XmXVXVXVXVXVXVXzXo.",
"O.fXVXVXVXVXVXVXVXVXVXVXVXVXVXVXVXVXVXVXVXVXCXVXVXVXVXVXVXVX&.O.",
"&.o.fXzXVXVXVXVXVXVXVXVXVXVXVXVXVXVXVXVXVXVXVXVXVXVXVXBXzX*.o.&.",
"DX&.O.o.o.o.o.o.o.o.o.o.o.o.o.o.o.o.o.o.o.o.o.o.o.o.o.o.o.+.&.DX"
};
