/* XPM */
static char *dynamicaWindow[] = {
/* columns rows colors chars-per-pixel */
"32 32 154 2 ",
"   c #010101",
".  c #0B0600",
"X  c #0E0E0E",
"o  c #160B00",
"O  c #251500",
"+  c #261800",
"@  c #2B1800",
"#  c #331D00",
"$  c #3E2900",
"%  c #212121",
"&  c #2F2F2F",
"*  c #402700",
"=  c #472A00",
"-  c #523100",
";  c #5B3300",
":  c #5C3C00",
">  c #663700",
",  c #613D00",
"<  c #754400",
"1  c #7A4400",
"2  c #774F00",
"3  c #7A4B00",
"4  c #4A4A4A",
"5  c #40637E",
"6  c #6B6B6B",
"7  c #7C7C7C",
"8  c #835400",
"9  c #8F5E00",
"0  c #8D6100",
"q  c #976200",
"w  c #9C6300",
"e  c #A86100",
"r  c #A76F00",
"t  c #A86F00",
"y  c #BE6B01",
"u  c #B77400",
"i  c #BC7500",
"p  c #BF7800",
"a  c #CC6601",
"s  c #CD6905",
"d  c #CD6D0C",
"f  c #C37E00",
"g  c #DC7900",
"h  c #CE7114",
"j  c #CF761C",
"k  c #D0761B",
"l  c #D0781F",
"z  c #E37E00",
"x  c #D17A24",
"c  c #D17E2A",
"v  c #CA8200",
"b  c #C08E00",
"n  c #CF8A00",
"m  c #D48600",
"M  c #D68A00",
"N  c #DB8A00",
"B  c #DC9200",
"V  c #E38400",
"C  c #EB8700",
"Z  c #ED8A01",
"A  c #F28C01",
"S  c #F88E00",
"D  c #E79000",
"F  c #E89100",
"G  c #E49C00",
"H  c #EB9B00",
"J  c #F79700",
"K  c #FA9500",
"L  c #FD9B00",
"P  c #EDAE00",
"I  c #F3A300",
"U  c #FEA300",
"Y  c #FCAA00",
"T  c #FEB500",
"R  c #FFB800",
"E  c #D3802D",
"W  c #D18234",
"Q  c #D38639",
"!  c #D5883C",
"~  c #FDCB00",
"^  c #D38B42",
"/  c #D29150",
"(  c #D4995F",
")  c #DA9958",
"_  c #D69D64",
"`  c #DA9F65",
"'  c #DDA266",
"]  c #DBA26A",
"[  c #DCA976",
"{  c #D6A87A",
"}  c #5C94C2",
"|  c #5F98C6",
" . c #629CCB",
".. c #66A1D1",
"X. c #69A4D5",
"o. c #6BA7D8",
"O. c #6DAADB",
"+. c #70ADDF",
"@. c #71AFE1",
"#. c #74B2E5",
"$. c #76B6E9",
"%. c #78B7EB",
"&. c #79BAEE",
"*. c #7CBDF1",
"=. c #7EC0F4",
"-. c #BA9E82",
";. c #B7A695",
":. c #B7A798",
">. c #B7A898",
",. c #B5ADA5",
"<. c #B4B4B4",
"1. c #DCB68F",
"2. c #D7B695",
"3. c #DAB794",
"4. c #DBBC9C",
"5. c #E2B486",
"6. c #E0BA93",
"7. c #E1BD99",
"8. c #E3C09D",
"9. c #DAC0A5",
"0. c #D9C5B1",
"q. c #DEC9B5",
"w. c #E8C7A5",
"e. c #E1C5A9",
"r. c #E6C8A9",
"t. c #E8CAAC",
"y. c #E8CDB2",
"u. c #E1CFBD",
"i. c #E8D3BD",
"p. c #80C1F6",
"a. c #C3C3C3",
"s. c #CFCFCF",
"d. c #DCD4CC",
"f. c #D3D3D3",
"g. c #DDDAD6",
"h. c #DCDCDC",
"j. c #E4D4C3",
"k. c #EDD9C4",
"l. c #E1D7CC",
"z. c #E7D9CA",
"x. c #E9DBCE",
"c. c #E5DDD4",
"v. c #EADED2",
"b. c #E2DEDB",
"n. c #E3E0DD",
"m. c #EBE1D8",
"M. c #F0E6DC",
"N. c #E4E4E4",
"B. c #E8E4E1",
"V. c #EDE9E4",
"C. c #ECECEC",
"Z. c #F2ECE7",
"A. c #F0EDE9",
"S. c #F5F5F5",
/* pixels */
"& & & & & & & & & & & & & & & & & & & & & & & & & & & & & & & & ",
"& } } } } | |  . . .....X.o.o.o.+.+.+.+.+.#.$.$.%.%.&.*.=.p.p.& ",
"& } 5 } 5 | 5  . .....X...X.o.O.o.+.+.@.#.#.$.&.%.&.&.*.&.=.p.& ",
"& } } } | | | |  .....o.X.X.o.o.o.+.+.@.#.#.$.p.%.&.&.&.=.=.p.& ",
"& 5 5 5 5 5 5 5 5 5 5 5 5 5 5 5 5 5 5 5 5 5 5 5 5 5 5 5 5 5 5 & ",
"& S.S.S.S.S.S.S.S.S.S.S.S.S.S.S.S.S.S.S.S.S.S.S.S.S.S.S.S.S.S.& ",
"& S.S.S.S.S.S.S.S.S.k.' h s ! w.Z.S.S.S.S.S.S.S.S.S.S.S.S.S.S.& ",
"& S.S.S.S.S.S.S.t.) h Z G ; 1 s ! 5.M.S.S.S.S.S.S.S.S.S.S.S.S.& ",
"& S.S.S.S.S.V.' a C L Y 2     o e V E y.C.S.S.S.S.S.C.S.S.S.C.& ",
"& S.S.S.S.V._ z L U T H $     . t T Z d r.S.C.S.S.S.S.S.C.S.S.& ",
"& S.C.S.C.w.z L L u t B n , . 2 Y J S A k i.A.C.S.S.C.C.C.S.C.& ",
"& C.C.C.V.Q A U H #   O 2 T b g k x l x h ] v.m.x.x.V.m.C.C.C.& ",
"& C.C.C.4.a L Y v .     # P d [ z.z.z.z.j.6.c x x x ! c C.C.C.& ",
"& C.C.C.x A L U f $ + o 8 D _ C.C.V.N.C.C.c.l ;.:.:.-.a C.C.C.& ",
"& C.C.C.a a L L L G p < u s e.C.N.C.C.C.C.N.^ -.<.<.,.h N.C.C.& ",
"& N.N.N.x A L U M : * @ 8 F ` V.N.C.N.N.N.c.j ;.;.;.-.a C.V.N.& ",
"& N.C.N.4.s L Y M o     + B s ] j.j.j.j.q.3.c c x c ! W N.C.N.& ",
"& N.N.N.b.Q A L I =   . : P ~ C j j j j h _ l.l.l.d.b.g.N.N.N.& ",
"& N.N.h.N.3.g L U u 9 e 3 8 0 m L K A A j q.h.N.N.N.N.N.N.N.N.& ",
"& N.N.n.n.b._ z L U T p o     q T L C d 4.N.N.N.N.b.h.N.N.h.N.& ",
"& h.N.h.h.N.g._ a C U q       q I z c 9.h.h.h.N.N.h.h.h.h.N.h.& ",
"& h.h.h.h.h.h.h.4./ h y a a > s W { d.h.h.h.h.h.h.h.N.h.h.h.h.& ",
"& h.h.h.h.h.h.h.h.g.0._ d a W 2.d.h.h.h.h.h.h.h.h.h.h.h.h.h.h.& ",
"& h.h.h.h.h.h.f.h.h.g.g.h.h.h.h.h.h.g.h.h.h.h.h.h.h.g.h.h.h.h.& ",
"& h.h.6     X g.6 % h.% 6 % 6 h.h.  <.h.h.      %       6 h.h.& ",
"& g.h.6   6   a.6 % h.% 6 % 6 f.f.  <.h.f.  4 6 <.<.  7 f.f.f.& ",
"& f.f.6       s.6 % h.% 6 % 6 f.f.  <.f.f.      <.g.  <.f.h.f.& ",
"& f.f.6 X <.X 6 7   <.  7 % 4 <.s.  7 <.f.  7 <.s.f.  <.f.f.f.& ",
"& f.f.6       a.f.X   X f.%     6       <.      6 f.  <.f.f.f.& ",
"& f.s.f.f.s.s.f.s.f.f.s.f.s.f.f.f.f.s.f.s.f.f.s.s.f.s.f.f.f.s.& ",
"& s.s.s.s.s.s.s.s.s.s.s.s.s.s.s.s.s.s.s.s.s.s.s.s.s.s.s.s.s.s.& ",
"& & & & & & & & & & & & & & & & & & & & & & & & & & & & & & & & "
};
