/* XPM */
static char *dynamicaActivate_Z[] = {
/* columns rows colors chars-per-pixel */
"32 32 236 2 ",
"   c black",
".  c #0F0900",
"X  c #150F00",
"o  c #1A1A00",
"O  c #101010",
"+  c #1C1D14",
"@  c #211D00",
"#  c #2B1D00",
"$  c #002300",
"%  c #092500",
"&  c #002B00",
"*  c #092800",
"=  c #1C2300",
"-  c #003400",
";  c #0C3200",
":  c #013A00",
">  c #1E3300",
",  c #1F3A00",
"<  c #222200",
"1  c #2F2E00",
"2  c #342200",
"3  c #3B2800",
"4  c #233300",
"5  c #2D3500",
"6  c #243B00",
"7  c #333300",
"8  c #3C3A00",
"9  c #202020",
"0  c gray19",
"q  c #473300",
"w  c #443A00",
"e  c #4C3C1E",
"r  c #663E00",
"t  c #024400",
"y  c #0F4400",
"u  c #024B00",
"i  c #0D4C00",
"p  c #124500",
"a  c #154D00",
"s  c #194A00",
"d  c #065300",
"f  c #0C5500",
"g  c #025C00",
"h  c #0E5B00",
"j  c #0F5A09",
"k  c #145500",
"l  c #1C5300",
"z  c #1D5A00",
"x  c #244200",
"c  c #2C4400",
"v  c #254D00",
"b  c #294D00",
"n  c #314D00",
"m  c #3E4D00",
"M  c #255500",
"N  c #2A5000",
"B  c #235B00",
"V  c #2C5A00",
"C  c #205808",
"Z  c #305200",
"A  c #3C5300",
"S  c #355C00",
"D  c #395F00",
"F  c #026200",
"G  c #0C6700",
"H  c #146400",
"J  c #1A6500",
"K  c #146E00",
"L  c #037300",
"P  c #0C7200",
"I  c #077E00",
"U  c #0D7900",
"Y  c #147700",
"T  c #1C7300",
"R  c #127C00",
"E  c #216400",
"W  c #2C6400",
"Q  c #2D6B00",
"!  c #326500",
"~  c #346C00",
"^  c #386800",
"/  c #247200",
"(  c #2C7400",
")  c #277B00",
"_  c #3A7200",
"`  c #347B00",
"'  c #3A6B2E",
"]  c #386F38",
"[  c #464600",
"{  c #424900",
"}  c #494D00",
"|  c #5E4200",
" . c #504A00",
".. c #445400",
"X. c #4B5700",
"o. c #525300",
"O. c #585100",
"+. c #5A5C00",
"@. c #455E12",
"#. c #664600",
"$. c #694700",
"%. c #6D470D",
"&. c #784800",
"*. c #625300",
"=. c #6A5400",
"-. c #675A00",
";. c #6B5C00",
":. c #765400",
">. c #785400",
",. c #755C00",
"<. c #7E5D00",
"1. c #416500",
"2. c #4A6500",
"3. c #426B00",
"4. c #4A6900",
"5. c #546500",
"6. c #5C6400",
"7. c #556B00",
"8. c #5F6B00",
"9. c #4F7300",
"0. c #407E00",
"q. c #4C7F00",
"w. c #547400",
"e. c #5C7400",
"r. c #547900",
"t. c #5A7D00",
"y. c #696200",
"u. c #6F6900",
"i. c #726200",
"p. c #7F6200",
"a. c #786F00",
"s. c #647300",
"d. c #6A7600",
"f. c #647900",
"g. c #6E7900",
"h. c #717500",
"j. c #7B7300",
"k. c #7F7E00",
"l. c #5D4B20",
"z. c #475B2D",
"x. c #5D4D34",
"c. c #685334",
"v. c #755D3A",
"b. c #706C26",
"n. c #444444",
"m. c #4C4C4C",
"M. c #4A5647",
"N. c gray33",
"B. c #606060",
"V. c #727272",
"C. c #797979",
"Z. c #835600",
"A. c #8D5500",
"S. c #8A5C00",
"D. c #985B00",
"F. c #8D6500",
"G. c #816D00",
"H. c #8C6D00",
"J. c #936600",
"K. c #9F6500",
"L. c #996C00",
"P. c #837100",
"I. c #8D7300",
"U. c #857A00",
"Y. c #8F7900",
"T. c #937500",
"R. c #9C7500",
"E. c #917900",
"W. c #9A7A00",
"Q. c #A46200",
"!. c #AA6600",
"~. c #A26B00",
"^. c #AD6C00",
"/. c #A57400",
"(. c #AB7300",
"). c #A67A00",
"_. c #A87900",
"`. c #B57500",
"'. c #BD7300",
"]. c #C47500",
"[. c #CC7B00",
"{. c #D27E00",
"}. c #8A6E45",
"|. c #997A4C",
" X c #128200",
".X c #2B8100",
"XX c #208800",
"oX c #388100",
"OX c #478300",
"+X c #528000",
"@X c #558150",
"#X c #7B8F69",
"$X c #CC8200",
"%X c #D78100",
"&X c #DF8600",
"*X c #DB8D00",
"=X c #E48A00",
"-X c #ED8E00",
";X c #E49200",
":X c #E99100",
">X c #EF9900",
",X c #F39200",
"<X c #FA9600",
"1X c #F29900",
"2X c #FD9900",
"3X c #80834A",
"4X c #A28251",
"5X c #A88654",
"6X c #AE8B57",
"7X c #A6945C",
"8X c #BB965E",
"9X c #BE985F",
"0X c #9E8B6D",
"qX c #CCA366",
"wX c #CCAD7F",
"eX c #818181",
"rX c #898989",
"tX c #979797",
"yX c gray60",
"uX c #86A085",
"iX c #AAAF89",
"pX c #BDB697",
"aX c #A0A0A0",
"sX c gray68",
"dX c #A9B6A0",
"fX c #B8BBAC",
"gX c #B3B3B3",
"hX c #BDBDBD",
"jX c #C1C3BB",
"kX c #CBC6BE",
"lX c #C6C6C6",
"zX c #CCCCCC",
"xX c #D0D0D0",
"cX c gray94",
"vX c gray100",
"bX c None",
/* pixels */
"bXV.m.n.n.n.n.n.n.n.n.n.n.m.n.n.n.n.n.n.n.n.n.n.n.n.n.n.n.m.V.bX",
"V.m.rXgXzXzXzXxXzXzXxXzXzXzXzXzXxXzXzXxXzXzXzXzXxXxXzXlXgXrXm.V.",
"m.rXzXzXzXzXzXzXzXzXzXzXzXzXzXzXzXzXzXzXzXzXzXzXzXzXzXzXzXzXC.m.",
"n.hXzXzXzXzXzXzXzXzXzXzXzXzXzXzXzXzXzXpX7Xl.e 0XkXlXzXzXzXzXgXn.",
"n.zXzXzXzXzXzXzXzXzXzXzXzXlXjXiX#Xb.-.;.<.:.(.=X].x.zXzXzXzXzXn.",
"n.zXzXzXzXzXzXzXlXlXdX#Xz.@...X.+.y.P.T.R.L.*X<X2X5XzXzXzXzXxXn.",
"n.zXzXzXzXhXuX@X' z M v x 9.e.d.h.j.G.H.R.J.*X<X2X4XzXzXzXzXzXn.",
"n.zXzXzXzX: t G K / ` _ ! 9.e.s.h.a.I.I.R.J.*X<X2X4XzXzXzXzXzXn.",
"n.zXzXzXzXg L U Y / Q W Z w.7.8.6.y.i.,.<.q S.&X[.v.zXzXzXzXzXn.",
"n.xXzXzXzXu g G k z B x > A A { o  .*.=.<.#.`.=X'.c.zXzXzXzXzXn.",
"n.zXzXzXzX- : f * s B S D 2.7.s.o.U.E.W.).~.>X2X2X6XzXzXzXzXzXn.",
"n.zXzXzXzXg L  XJ ) ` oXq.r.e.d.+.P.P.T./.L.>X2X<X4XzXzXzXzXzXn.",
"n.xXzXzXzXu F K y J Q ~ 3.4.7.8.[ a.a.H.R.S.;X2X-X|.zXzXzXzXzXn.",
"n.xXzXzXzX& t f * s M x 6 A ..m < O.*.=.>.3 K.%XQ.}.zXzXzXzXxXn.",
"n.zXzXzXzXt F G J E W N c 4.5.6.+.;.i.F.F.$.$X-X].5XzXzXzXzXzXn.",
"n.xXzXzXzXg L R XX.XoX_ 3.t.f.g.k.U.I.T._.(.1X2X<X9XzXzXzXzXzXn.",
"n.zXzXzXzX& t h k z W v n w.8.g.k.U.E.R.).~.1X2X<X9XzXzXzXzXzXn.",
"n.zXzXzXzX: f h ; l M 6 4 A ..o               r ].8XzXzXzXzXzXn.",
"n.xXzXzXzXF I R k ( ~ ^ ^ 2.m n.vXvXvXvXvXvXvX  D.8XzXzXzXzXzXn.",
"n.zXzXzXzX$ u G p ( ` OX+Xe.5.9 eXC.eXeXsXvXcX. {.qXzXzXzXzXzXn.",
"n.zXzXzXzX- d f % s M S 1.w.d.8.7 w w 9 cXvX0 &.=XqXzXzXzXzXzXn.",
"n.xXzXzXzXg P K J E W 6 6 m ..[ 8 -.O xXvXB.r 2X=XqXzXzXzXzXzXn.",
"n.zXzXzXzX$ F Y / B M x c 2.5.} 7 o aXvXaX2 :X&XA.qXzXzXzXzXzXn.",
"n.zXzXzXxX] j i 9 n.0 n.n.4 e.d.1 V.vXxXX # [.=X!.qXzXzXzXzXzXn.",
"n.xXzXzXzXzXzXM.eXvXvXvXvX  d.7 n.vXcX+ | K.<X2X{.qXzXzXzXzXzXn.",
"n.xXzXzXzXzXzXgX+ n.n.0 n.= 5 9 cXvX0 w :.Z.'.-X[.qXzXzXzXxXzXn.",
"n.zXzXzXzXzXzXzXgXyXyXyXtXfX+ xXvXyXn.0 n.0 n.O !.qXzXzXzXzXzXn.",
"n.zXzXzXzXzXzXzXzXzXzXzXzXzX  vXvXvXvXvXvXvXvXn.%.wXzXzXzXzXlXn.",
"n.gXzXzXzXzXzXzXzXzXzXzXzXzXN.n.n.n.0 n.n.n.0 O hXzXzXzXzXzXsXn.",
"m.eXzXzXzXzXzXzXzXzXzXzXzXzXzXyXtXtXyXyXyXyXaXhXzXzXzXzXzXzXV.m.",
"V.m.eXgXzXzXzXzXzXzXzXzXzXzXxXzXzXzXxXzXzXzXzXxXzXzXxXlXsXC.n.V.",
"bXV.m.n.n.n.n.n.n.n.n.n.n.n.n.n.n.n.n.n.n.n.n.n.n.n.n.n.n.m.V.bX"
};
