/* XPM */
static char *dynamicaCreatePassiveHullArray[] = {
/* columns rows colors chars-per-pixel */
"32 32 195 2 ",
"   c #3A1801",
".  c #4A1F01",
"X  c #4E2001",
"o  c #5B2501",
"O  c #652901",
"+  c #662A01",
"@  c #682B01",
"#  c #722E01",
"$  c #773205",
"%  c #57493F",
"&  c #7D4E2F",
"*  c #724C33",
"=  c #444444",
"-  c gray27",
";  c #464646",
":  c #494643",
">  c #4B4744",
",  c #484848",
"<  c #494949",
"1  c gray30",
"2  c #4E4E4E",
"3  c #727272",
"4  c gray45",
"5  c gray47",
"6  c gray48",
"7  c #8A3801",
"8  c #8F3A01",
"9  c #883F0E",
"0  c #913B01",
"q  c #953D01",
"w  c #993E01",
"e  c #9A3F01",
"r  c #9C4001",
"t  c #9E4001",
"y  c #964108",
"u  c #964611",
"i  c #954B1A",
"p  c #A44301",
"a  c #A64301",
"s  c #AF4701",
"d  c #A0490E",
"f  c #AC4E0F",
"g  c #B34801",
"h  c #BA4B01",
"j  c #B24E0A",
"k  c #A34F15",
"l  c #A04E18",
"z  c #B65818",
"x  c #935023",
"c  c #A25928",
"v  c #AE612F",
"b  c #BA6329",
"n  c #AF693A",
"m  c #B56530",
"M  c #BA6933",
"N  c #C55001",
"B  c #CD5301",
"V  c #D45601",
"C  c #D65701",
"Z  c #DC5901",
"A  c #C25B16",
"S  c #E15B01",
"D  c #C4601C",
"F  c #FF7417",
"G  c #C36322",
"H  c #C7692A",
"J  c #CA6C2D",
"K  c #C97035",
"L  c #C3713A",
"P  c #C77138",
"I  c #C77239",
"U  c #C5723B",
"Y  c #CF763A",
"T  c #D17232",
"R  c #D07436",
"E  c #D17639",
"W  c #D2773A",
"Q  c #D3783C",
"!  c #FF7C24",
"~  c #A46B45",
"^  c #A37352",
"/  c #C87945",
"(  c #CD7C45",
")  c #D57E45",
"_  c #FF802A",
"`  c #FF8635",
"'  c #FF8A3B",
"]  c #FF8B3E",
"[  c #BA8D6E",
"{  c #D58046",
"}  c #D58047",
"|  c #D68A57",
" . c #D18D5F",
".. c #FF8F44",
"X. c #FF9248",
"o. c #FF964F",
"O. c #FF9751",
"+. c #FF9D5C",
"@. c #D79061",
"#. c #D69265",
"$. c #D79265",
"%. c #D89060",
"&. c #D89162",
"*. c #D79569",
"=. c #D7986D",
"-. c #CF9C7A",
";. c #D59C76",
":. c #D79E77",
">. c #D49E7A",
",. c #D29F7C",
"<. c #D7A27E",
"1. c #FFA162",
"2. c #FFA364",
"3. c #FFA467",
"4. c #FFAA71",
"5. c #FFAC74",
"6. c #FFAD76",
"7. c #808080",
"8. c #838383",
"9. c #848484",
"0. c #868686",
"q. c #898989",
"w. c gray67",
"e. c #AFAFAF",
"r. c #B1B1B1",
"t. c gray70",
"y. c gray71",
"u. c #B6B6B6",
"i. c #B7B7B7",
"p. c gray74",
"a. c #C49C81",
"s. c #C7A087",
"d. c #D7A686",
"f. c #D0A589",
"g. c #D7A888",
"h. c #D7A889",
"j. c #CDB19E",
"k. c #D5B096",
"l. c #D5B199",
"z. c #D5B29A",
"x. c #D5B39C",
"c. c #FFBE92",
"v. c #FFBF94",
"b. c #D4B5A0",
"n. c #D3B9A8",
"m. c #D3BAA9",
"M. c #D3BBAA",
"N. c #FFC298",
"B. c #FFC39A",
"V. c #FFC49D",
"C. c #FFC69F",
"Z. c #D0C2B8",
"A. c #D0C2B9",
"S. c #FFC7A1",
"D. c #FFC8A3",
"F. c #FFCAA5",
"G. c #FFCBA7",
"H. c #FFCCAA",
"J. c #FFCFAE",
"K. c #FFD0B0",
"L. c #FFD1B2",
"P. c #FFD3B4",
"I. c #FFD4B7",
"U. c #FFD7BB",
"Y. c #FFD8BD",
"T. c #FFD9BF",
"R. c #C5C5C5",
"E. c #C6C6C6",
"W. c gray78",
"Q. c #CFC6C0",
"!. c #CEC7C2",
"~. c #CEC8C5",
"^. c #CDC9C6",
"/. c #CEC9C6",
"(. c #CDCAC7",
"). c #C8C8C8",
"_. c gray79",
"`. c #CACACA",
"'. c #CBCBCB",
"]. c #CDCAC8",
"[. c gray80",
"{. c #FFDAC1",
"}. c #FFDEC8",
"|. c #FFE0CA",
" X c #FFE1CC",
".X c #FFE2CE",
"XX c #FFE3D0",
"oX c #FFE5D3",
"OX c #FFE7D7",
"+X c #FFEADB",
"@X c #FFEFE4",
"#X c #FFF0E6",
"$X c #FFF6EF",
"%X c #FFF8F3",
"&X c None",
/* pixels */
"&X3 1 - - - - , , - ; , - ; , - , , - - ; ; ; ; ; ; ; ; ; 2 3 &X",
"3 1 0.y.`.[.[.[.[.[.'.[.[.'.[.[.'.'.[.'.[.[.[.[.[.[.[.W.t.8., 3 ",
"1 q.[.[.[.[.[.[.[.[.'.'.[.[.[.'.[.[.[.[.[.[.[.[.[.[.[.[.[.[.6 1 ",
"- p.[.[.[.[.[.[.'.'.(.n.<.h.M./.[.[.[.[.[.[.[.[.[.[.[.[.[.[.y.- ",
"- [.[.[.[.[.[.(.x.*.} Y M / } Q } %.;.k.A.[.[.[.[.[.[.[.[.[.'.- ",
"- [.[.[.[.(.$.T Y =.M.[ B 8 s.A.x.d. .( W $.[.[.[.[.[.[.[.[.[.- ",
", [.[.[.[.h.E . X a.^ r 3.' 0   j.[ O # J x.[.[.[.[.[.[.[.[.[.- ",
"- [.[.[.[.A O S F s O.K.I.K.D.o.~ $ 1.g A [.[.[.[.[.[.[.[.[.[.- ",
"- [.[.[.=.k ` a @ v.Y..XoX}.I.B.3.] F x | [.[.[.[.[.[.[.[.[.[.- ",
", [.[.[.(.N 4.o i J.}.@X$X+XT.F.N.N.C b h.[.[.[.[.[.[.'.[.[.[.- ",
"- [.[.[.[.m h S C K..X#X%X+X{.F.c.c.8 H A.[.'.'.[.[.[.'.[.[.[.- ",
"- [.[.[.[.A.G p ` G.T.XXOX}.I.V.c.+.r $.[.[.(.n.<.h.M.(.[.[.[.- ",
", [.[.[.[.[.l.P e X.H.U.U.K.D.c.5.r P Q.z.*.} Y M / } Q } %.:.* ",
"- [.[.[.[.[.[.[.f.N ..V.V.N.c.5.r I @.T W =.n.[ B 0 s.A.x.g. .l ",
"- [.[.[.[.[.[.[.[.-.z C _ ! Z 7 K g.Y X X a.^ r 3.] q   j.[ O # ",
", [.[.[.[.].n.<.h.n.;.v # $ n <.Z.D O Z F s O.K.I.K.D.o.~ # 1.g ",
", [.!.z.*.} Y M / } Q ) %.>.k.A.=.k ` a O N.U..XoX}.P.B.3.] F y ",
"> &.K Y =.n.[ B 0 s.Q.b.d. .( E %.N 5.o i J.|.@X$X+XT.D.c.c.V u ",
"& E X X a.^ r 1.' q   j.[ O # J x.m h S V K..X@X%X+X{.G.c.N.8 f ",
"j O S F s O.K.I.K.D.o.~ # 1.g A '.A.G a ` G.T..XOX|.I.V.c.+.q x ",
"y ` a @ c.T..XoX}.K.B.3.] F c | '.[.l.P r X.H.U.U.K.G.c.5.r L : ",
"N 4.o i K.|.@X$X+XT.D.N.c.V b h.[.[.[.[.f.N ..N.V.N.c.4.r P !.- ",
"u h S C K..X#X%X+X{.G.c.v.8 H A.[.[.[.[.[.-.z V _ ! Z 7 K [.[.- ",
"% G a ` G.T..XOX|.I.B.c.+.e #.[.[.[.[.[.[.[.<.v @ $ n <.Z.[.[.- ",
"- l.P r X.H.I.U.K.D.c.6.r L ].[.[.[.[.[.[.[.[.[.[.[.[.[.[.[.[.: ",
"; [.[.f.N ..V.V.N.c.5.e U Q.[.[.[.[.[.[.[.[.[.[.[.[.[.[.[.[.[.- ",
"; [.[.[.-.z V _ ! Z 7 K [.[.[.[.[.[.[.[.[.[.[.[.[.[.[.[.[.[.[.- ",
"; `.[.[.'.-.v $ $ n <.Z.[.[.[.[.[.[.[.[.[.[.[.[.[.[.[.[.[.[.E.- ",
"; i.[.[.'.[.[.[.[.[.[.[.[.[.[.[.[.[.[.[.[.[.[.[.[.[.[.[.[.[.e.- ",
"1 9.[.[.[.[.[.[.[.[.[.[.[.[.[.[.[.[.[.[.[.[.[.[.[.[.[.[.[.`.4 1 ",
"3 , 7.r.).[.[.[.[.[.[.[.[.[.[.[.[.[.[.[.[.[.[.[.[.[.[.E.w.6 - 4 ",
"&X3 1 - - - - - - - - - - - - - - - - - - - - - - - - - - 1 3 &X"
};
