/* XPM */
static char *dynamicaCreatePassiveBvhMeshArray[] = {
/* columns rows colors chars-per-pixel */
"32 32 142 2 ",
"   c #444444",
".  c gray27",
"X  c #464646",
"o  c #484848",
"O  c #494949",
"+  c gray30",
"@  c #4E4E4E",
"#  c #6D4754",
"$  c #604850",
"%  c #7A4657",
"&  c #727272",
"*  c gray45",
"=  c gray47",
"-  c gray48",
";  c #A2093C",
":  c #A20E3F",
">  c #A50C3F",
",  c #A60D40",
"<  c #A80F42",
"1  c #A61243",
"2  c #AC1346",
"3  c #AE1548",
"4  c #AF1649",
"5  c #B0174A",
"6  c #B51C4F",
"7  c #B61D50",
"8  c #B81F52",
"9  c #9D2950",
"0  c #903B57",
"q  c #BC2356",
"w  c #BD2457",
"e  c #B12A57",
"r  c #BE2558",
"t  c #B63862",
"y  c #C0275A",
"u  c #C1285B",
"i  c #C52C5F",
"p  c #C72E61",
"a  c #C82F62",
"s  c #CB3265",
"d  c #CE3568",
"f  c #CF3669",
"g  c #D0376A",
"h  c #D63D70",
"j  c #D73E71",
"k  c #BE4A71",
"l  c #DA4174",
"z  c #DB4275",
"x  c #DC4376",
"c  c #DF4679",
"v  c #C9587E",
"b  c #E34A7D",
"n  c #E44B7E",
"m  c #E54C7F",
"M  c #E64D80",
"N  c #E74E81",
"B  c #EB5285",
"V  c #EC5386",
"C  c #EE5588",
"Z  c #F1588B",
"A  c #F2598C",
"S  c #F35A8D",
"D  c #F45B8E",
"F  c #F65D90",
"G  c #F75E91",
"H  c #F85F92",
"J  c #C96D8B",
"K  c #CA6F8D",
"L  c #CB6F8E",
"P  c #CA708E",
"I  c #CB7693",
"U  c #CC7994",
"Y  c #CD7B96",
"T  c #CD7C97",
"R  c #FB6295",
"E  c #FC6396",
"W  c #FD6497",
"Q  c #FE6598",
"!  c #FF6699",
"~  c #FF6A9C",
"^  c #FF6C9D",
"/  c #FF72A1",
"(  c #FF75A3",
")  c #FF76A4",
"_  c #FF78A5",
"`  c #FF79A6",
"'  c #FF7BA7",
"]  c #FF7EA9",
"[  c #808080",
"{  c #838383",
"}  c #848484",
"|  c #868686",
" . c #898989",
".. c gray67",
"X. c #AFAFAF",
"o. c #B1B1B1",
"O. c gray70",
"+. c gray71",
"@. c #B6B6B6",
"#. c #B7B7B7",
"$. c gray74",
"%. c #CE819B",
"&. c #CF859D",
"*. c #CF869F",
"=. c #CF879F",
"-. c #D18FA5",
";. c #D191A7",
":. c #D29BAD",
">. c #D39DAF",
",. c #D29EB0",
"<. c #FF81AB",
"1. c #FF84AD",
"2. c #FF88B0",
"3. c #FF8AB1",
"4. c #FF8DB3",
"5. c #FF8EB4",
"6. c #FF90B5",
"7. c #FF96B9",
"8. c #FF97BA",
"9. c #D3ABB8",
"0. c #D3ADBA",
"q. c #D2B4BE",
"w. c #D2B5BF",
"e. c #D2B7C0",
"r. c #D2B9C1",
"t. c #D2BAC2",
"y. c #FFA2C1",
"u. c #C5C5C5",
"i. c #C6C6C6",
"p. c gray78",
"a. c #CFC5C8",
"s. c #CFC6C9",
"d. c #C8C8C8",
"f. c gray79",
"g. c #CACACA",
"h. c #CBCBCB",
"j. c #CDCACB",
"k. c #CCCBCC",
"l. c gray80",
"z. c #D0C2C7",
"x. c #D0C3C7",
"c. c None",
/* pixels */
"c.& + . . . . o . X X X X X X X X X X X . X X X X X . X X + * c.",
"& + | +.g.l.l.l.l.l.l.l.l.l.l.l.l.l.l.l.l.l.l.l.l.l.l.d.O.} o & ",
"+  .l.l.l.l.l.l.l.l.l.l.l.l.l.l.l.l.l.l.l.l.l.l.l.l.l.l.l.l.= + ",
". $.l.l.l.l.l.l.l.l.l.l.l.l.l.l.l.l.l.l.l.l.l.l.l.l.l.l.l.l.#.. ",
". k.l.l.l.l.l.l.l.l.l.l.w.P r.l.l.l.l.l.l.l.l.l.l.l.l.l.l.l.l.. ",
". l.l.l.l.l.l.l.x.j.l.w.2 d P w.l.l.l.r.w.l.l.l.l.l.l.l.l.l.l.. ",
". l.l.l.l.l.x.%.1 -.T s V G m p T j.*.4 5 w.l.l.l.l.l.l.l.l.l.. ",
". l.l.l.l.,., a h i A / ` ( ~ G m P 8 m w >.l.l.l.l.l.l.l.l.l.. ",
". l.l.l.l.k z y < S / 1.4.2.` W Z b m g J l.l.l.l.l.l.l.l.l.l.. ",
"o l.l.l.l.1 B 3 v W ` 5.y.8.<.^ A C C u ;.l.l.l.l.l.l.l.l.l.l.. ",
". l.l.l.l.I q d r E ) 3.8.6.] ~ A C B 5 w.l.l.l.l.l.l.l.l.l.l.. ",
". l.l.l.l.l.>.6 h G ^ ` <.] / R C C h ; l.l.l.l.l.l.l.l.l.l.l.. ",
"o l.l.l.l.l.l.9., l R W ^ ~ R A C c , 0.l.l.l.j.e.K r.l.l.l.l.. ",
". l.l.l.l.l.l.l.s.P l A D A C C x P r.l.x.l.l.w.2 d K w.l.l.l.$ ",
". l.l.l.l.l.l.k.l.l.&.7 N C n w U s.x.%.< -.U s B H b a U j.*.2 ",
"o l.l.l.l.l.l.r.P w.l.=.e ; t ;.k.,., a h p S / ` ( ~ G N K q m ",
"X k.k.x.l.l.w.2 g K e.l.l.l.r.e.l.k l u 1 A / 1.4.3.` Q Z b m g ",
"X x.%.< ;.U s B G b a U k.&.3 5 e.1 B 3 v E ` 5.y.8.<.^ S C C u ",
"% < a h i S / ` ( ~ H N P 8 m w :.I q d r E ) 3.8.6.] ~ A C B 5 ",
"9 z y 1 A / 1.4.2.` Q A b b g J l.l.>.6 h G ^ ` ] ] / R C C h ; ",
": B 2 v Q ` 5.y.8.<.^ S C C u ;.l.l.l.9., l R Q ^ ~ R A C b ; # ",
"0 q s y R ) 3.8.5.] ~ A C B 5 w.l.l.l.l.s.P l A D S C C x P r.. ",
"X >.8 h G ~ ] <.] / R C C h ; k.l.l.l.l.l.l.&.7 N C b w U s.l.. ",
"X k.9.> l H Q ^ ~ R A C c > 0.l.l.l.l.l.l.l.l.&.e ; t ;.k.l.l.. ",
"X k.l.s.P l A D A C C x P r.l.l.l.l.l.l.l.l.l.l.l.l.l.l.l.l.l.. ",
"X l.l.l.l.&.7 N C b r U s.l.l.l.l.l.l.l.l.l.l.l.l.l.l.l.l.l.l.. ",
"X j.l.l.l.l.=.e ; t ;.l.l.l.l.l.l.l.l.l.l.l.l.l.l.l.l.l.l.l.l.. ",
"X g.l.l.l.l.l.l.l.l.l.l.l.l.l.l.l.l.l.l.l.l.l.l.l.l.l.l.l.l.u.. ",
". +.l.l.l.l.l.l.l.l.l.l.l.l.l.l.l.l.l.l.l.l.l.l.l.l.l.l.l.l.X.. ",
"+ } l.l.l.l.l.l.l.l.l.l.l.l.l.l.l.l.l.l.l.l.l.l.l.l.l.l.l.g.* + ",
"* o [ o.g.l.l.l.l.l.l.l.l.l.l.l.l.l.l.l.l.l.l.l.l.l.l.g...= . & ",
"c.& + .   . . . . . . . . . . . . . . . . . . . . . . . . + & c."
};
