/* XPM */
static char *dynamicaCreatePassiveHull[] = {
/* columns rows colors chars-per-pixel */
"32 32 163 2 ",
"   c #722E01",
".  c #732E01",
"X  c #732F01",
"o  c #763001",
"O  c #793101",
"+  c #7D3301",
"@  c #7E3201",
"#  c #444444",
"$  c gray27",
"%  c #464646",
"&  c #484848",
"*  c #494949",
"=  c gray30",
"-  c #4E4E4E",
";  c #727272",
":  c gray45",
">  c gray47",
",  c gray48",
"<  c #823501",
"1  c #843601",
"2  c #863701",
"3  c #883701",
"4  c #893801",
"5  c #8A3801",
"6  c #8B3801",
"7  c #8E3901",
"8  c #8D3A01",
"9  c #8F3A01",
"0  c #903A01",
"q  c #913B01",
"w  c #953D01",
"e  c #963C01",
"r  c #963D01",
"t  c #973D01",
"y  c #983D01",
"u  c #993E01",
"i  c #9A3E01",
"p  c #9B3E01",
"a  c #9A3F01",
"s  c #9C3F01",
"d  c #9D3F01",
"f  c #9E3F01",
"g  c #8C400D",
"h  c #9C4001",
"j  c #9E4001",
"k  c #9F4001",
"l  c #92420C",
"z  c #9F460A",
"x  c #90491A",
"c  c #A04001",
"v  c #A14001",
"b  c #A04101",
"n  c #A14101",
"m  c #A44301",
"M  c #A64301",
"N  c #A84401",
"B  c #A94501",
"V  c #AF4701",
"C  c #B34801",
"Z  c #BC4C01",
"A  c #A34D13",
"S  c #A65017",
"D  c #995C33",
"F  c #9A5C32",
"G  c #9B5C32",
"H  c #A76438",
"J  c #C24E01",
"K  c #C34F01",
"L  c #C75101",
"P  c #CD5301",
"I  c #D45601",
"U  c #D65701",
"Y  c #DA5801",
"T  c #DC5901",
"R  c #DD5A01",
"E  c #E55D01",
"W  c #E75D01",
"Q  c #E95E01",
"!  c #EC6001",
"~  c #F46301",
"^  c #F86401",
"/  c #F96501",
"(  c #FB6601",
")  c #FD6601",
"_  c #FF6600",
"`  c #FF6803",
"'  c #FF6A05",
"]  c #FF6B07",
"[  c #FF6C0A",
"{  c #FF6F0E",
"}  c #FF7010",
"|  c #FF7112",
" . c #FF7417",
".. c #FF7519",
"X. c #FF771B",
"o. c #FF781D",
"O. c #FF791F",
"+. c #FF7A21",
"@. c #FF7C24",
"#. c #FF7D26",
"$. c #FF7E28",
"%. c #9D6540",
"&. c #A16F4D",
"*. c #A67859",
"=. c #FF802A",
"-. c #FF812C",
";. c #FF822E",
":. c #FF8431",
">. c #FF8533",
",. c #FF8635",
"<. c #FF8939",
"1. c #FF8A3B",
"2. c #FF8B3E",
"3. c #AA8166",
"4. c #AE8B73",
"5. c #FF8D40",
"6. c #FF8E42",
"7. c #FF8F44",
"8. c #FF9046",
"9. c #FF9248",
"0. c #FF934A",
"q. c #FF944D",
"w. c #FF964F",
"e. c #FF9853",
"r. c #FF9A55",
"t. c #FF9B57",
"y. c #FF9C5A",
"u. c #FF9D5C",
"i. c #FF9F5E",
"p. c #FFA364",
"a. c #FFA467",
"s. c #FFA76B",
"d. c #FFA86D",
"f. c #FFAC74",
"g. c #FFB07A",
"h. c #808080",
"j. c #838383",
"k. c #848484",
"l. c #868686",
"z. c #898989",
"x. c #B29480",
"c. c #B79D8C",
"v. c #BBA799",
"b. c gray67",
"n. c #AFAFAF",
"m. c #BFB0A6",
"M. c #B1B1B1",
"N. c gray70",
"B. c gray71",
"V. c #B6B6B6",
"C. c #B7B7B7",
"Z. c gray74",
"A. c #C3B9B3",
"S. c #C8C3BF",
"D. c #C5C5C5",
"F. c #C6C6C6",
"G. c gray78",
"H. c #C8C8C8",
"J. c gray79",
"K. c #CACACA",
"L. c #CBCBCB",
"P. c gray80",
"I. c None",
/* pixels */
"I.; = $ $ $ $ & $ $ % % % % % % % % % % $ $ & $ $ & $ $ & = ; I.",
"; = l.B.K.P.P.P.P.P.P.P.P.P.P.P.P.P.P.P.P.P.P.P.P.P.P.G.N.j.& ; ",
"= z.P.P.P.P.P.P.P.P.P.P.P.P.P.P.P.P.P.P.P.P.P.P.P.P.P.P.P.P., = ",
"$ Z.P.P.P.P.P.P.P.P.P.P.P.P.P.P.P.P.P.P.P.P.P.P.P.P.P.P.P.P.B.$ ",
"$ P.P.P.P.P.P.P.P.P.P.P.P.P.P.P.P.P.P.P.P.P.P.P.P.P.P.P.P.P.P.$ ",
"$ P.P.P.P.P.P.P.P.P.P.P.P.P.P.L.P.P.P.P.P.P.P.P.P.P.P.P.P.P.P.$ ",
"$ P.P.P.P.P.P.P.P.P.P.P.P.P.c.&.*.4.v.P.P.P.P.P.P.P.P.P.P.P.P.$ ",
"$ P.P.P.P.P.P.P.P.P.S.x.&.g 6 j h h 2 3 x %.3.c.A.P.P.P.P.P.P.$ ",
"$ P.P.P.P.P.P.A.x.%.3 3 6 3 j p P O 0 3 3 3 3 3 3 3 D *.v.P.P.# ",
"& P.P.P.P.P.3.3 p f 6 3 6 b + J ) p + b 0 3 3 3 f b o 6 4.P.P.# ",
"$ P.P.P.P.A.6 b 6 p . j < Q #.;.#.o.[ Y < j 3 j p Z h j m.P.P.$ ",
"$ P.P.P.P.H b V T T P C #.1.2.6.1.:.+.} ( p f 3 ( Q w A P.P.P.$ ",
"& P.P.P.v.j Z T 9 < E #.1.0.r.r.w.2.;...' ( 6 U ) p b &.P.P.P.$ ",
"$ P.P.P.&.. ) b b b ( :.7.y.s.s.i.0.,.+.[ ) ( ) ( < p c.P.P.P.$ ",
"$ P.P.P.v.o ( B b j o.,.0.i.f.g.p.w.1.+.{ ) ) ) E + q D.P.P.P.$ ",
"& P.P.P.P.S b T 2 j ..:.6.y.a.s.i.0.,.+.[ ) ) ) L . D P.P.P.P.$ ",
"$ P.P.P.P.v.b M E B | #.1.0.e.r.0.2.-...` ) ) ) f j 4.P.P.P.P.$ ",
"$ P.P.P.P.P.D j 6 U ) ..-.,.2.2.1.;.o.} ) ) ) P O l A.P.P.P.P.$ ",
"$ P.P.P.P.P.A.l b w j [ | +.#.-.#.X.} ) ) ) K O z m.P.P.P.P.P.$ ",
"& P.P.P.P.P.P.P.4.D b V ` } | | } ' ) ) ) Z f 0 m.P.P.P.P.P.P.$ ",
"$ P.P.P.P.P.P.P.P.P.c.j p Q ) ) ) ) ) ^ M f 3 x.P.P.P.P.P.P.P.$ ",
"$ P.P.P.P.P.P.P.P.P.P.&.b o K ) ) ~ J 3 c 3 x.P.P.P.P.P.P.P.P.$ ",
"& P.P.P.P.P.P.P.P.P.P.P.F p j o . + c p 3 x.P.P.P.P.P.P.P.P.P.$ ",
"$ P.P.P.P.P.P.P.P.P.P.P.D.v.v.v.v.v.v.v.m.L.P.P.P.P.P.P.P.P.P.$ ",
"$ P.P.P.P.P.P.P.P.P.P.P.P.P.P.P.P.P.P.P.P.P.P.P.P.P.P.P.P.P.P.$ ",
"& P.P.P.P.P.P.P.P.P.P.P.P.P.P.P.P.P.P.P.P.P.P.P.P.P.P.P.P.P.P.$ ",
"$ P.P.P.P.P.P.P.P.P.P.P.P.P.P.P.P.P.P.P.P.P.P.P.P.P.P.P.P.P.P.$ ",
"$ K.P.P.P.P.P.P.P.P.P.P.P.P.P.P.P.P.P.P.P.P.P.P.P.P.P.P.P.P.D.$ ",
"$ B.P.P.P.P.P.P.P.P.P.P.P.P.P.P.P.P.P.P.P.P.P.P.P.P.P.P.P.P.n.$ ",
"= l.P.P.P.P.P.P.P.P.P.P.P.P.P.P.P.P.P.P.P.P.P.P.P.P.P.P.P.K.; = ",
"; & h.M.K.P.P.P.P.P.P.P.P.P.P.P.P.P.P.P.P.P.P.P.P.P.P.D.b., $ ; ",
"I.; = $ $ $ $ $ $ $ $ $ $ $ $ $ $ $ $ $ $ $ $ $ $ $ $ $ $ = ; I."
};
