/* XPM */
static char *dynamicaCreate6dofConstraint[] = {
/* columns rows colors chars-per-pixel */
"32 32 211 2 ",
"   c #444444",
".  c gray27",
"X  c #464646",
"o  c #484848",
"O  c #494949",
"+  c gray30",
"@  c #4E4E4E",
"#  c #727272",
"$  c gray45",
"%  c gray47",
"&  c gray48",
"*  c #006699",
"=  c #086A9B",
"-  c #0A6B9C",
";  c #0C6C9C",
":  c #0D6C9C",
">  c #0E6D9C",
",  c #0E6D9D",
"<  c #116E9D",
"1  c #126F9D",
"2  c #16719E",
"3  c #16719F",
"4  c #19729F",
"5  c #1A739F",
"6  c #1A73A0",
"7  c #1B74A0",
"8  c #1E75A0",
"9  c #1E75A1",
"0  c #1F76A1",
"q  c #2277A1",
"w  c #2277A2",
"e  c #2378A2",
"r  c #2478A2",
"t  c #2578A2",
"y  c #2579A2",
"u  c #2679A2",
"i  c #2679A3",
"p  c #277AA3",
"a  c #287AA3",
"s  c #297AA3",
"d  c #2A7BA3",
"f  c #2B7BA3",
"g  c #2A7BA4",
"h  c #2B7CA4",
"j  c #2C7CA4",
"k  c #2D7CA4",
"l  c #2D7DA4",
"z  c #2E7DA4",
"x  c #2E7DA5",
"c  c #2F7EA5",
"v  c #307EA5",
"b  c #317EA5",
"n  c #327FA5",
"m  c #327FA6",
"M  c #3480A6",
"N  c #3580A6",
"B  c #3681A6",
"V  c #3681A7",
"C  c #3782A7",
"Z  c #3882A7",
"A  c #3982A7",
"S  c #3A83A8",
"D  c #3B84A8",
"F  c #3C84A8",
"G  c #3D84A8",
"H  c #3E85A9",
"J  c #3F86A8",
"K  c #3F86A9",
"L  c #4086A9",
"P  c #4186A9",
"I  c #4287A9",
"U  c #4388AA",
"Y  c #4488AA",
"T  c #4588AA",
"R  c #4689AA",
"E  c #4689AB",
"W  c #478AAB",
"Q  c #4A8BAB",
"!  c #4B8CAC",
"~  c #4D8CAC",
"^  c #4E8DAC",
"/  c #4E8DAD",
"(  c #508EAD",
")  c #518EAD",
"_  c #528FAD",
"`  c #528FAE",
"'  c #5390AE",
"]  c #5490AE",
"[  c #5590AE",
"{  c #5691AE",
"}  c #5792AF",
"|  c #5892AF",
" . c #5992AF",
".. c #5A93B0",
"X. c #5C94B0",
"o. c #5D94B0",
"O. c #5E95B0",
"+. c #5F96B1",
"@. c #6196B1",
"#. c #6297B1",
"$. c #6598B2",
"%. c #6699B2",
"&. c #6699B3",
"*. c #679AB3",
"=. c #689AB3",
"-. c #699AB3",
";. c #6A9BB3",
":. c #6B9CB4",
">. c #6D9CB4",
",. c #6E9DB4",
"<. c #6E9DB5",
"1. c #6F9EB5",
"2. c #709EB5",
"3. c #719EB5",
"4. c #729FB5",
"5. c #729FB6",
"6. c #75A0B6",
"7. c #76A1B6",
"8. c #78A2B7",
"9. c #79A2B7",
"0. c #7AA3B7",
"q. c #7AA3B8",
"w. c #7BA4B8",
"e. c #7CA4B8",
"r. c #7EA5B8",
"t. c #808080",
"y. c #838383",
"u. c #848484",
"i. c #868686",
"p. c #898989",
"a. c #80A6B9",
"s. c #82A7B9",
"d. c #82A7BA",
"f. c #83A8BA",
"g. c #84A8BA",
"h. c #85A8BA",
"j. c #86A9BB",
"k. c #87AABB",
"l. c #88AABB",
"z. c #89AABB",
"x. c #8BACBC",
"c. c #8CACBC",
"v. c #8DACBC",
"b. c #8EADBC",
"n. c #8EADBD",
"m. c #8FAEBD",
"M. c #91AEBD",
"N. c #92AFBD",
"B. c #94B0BE",
"V. c #96B1BE",
"C. c #96B1BF",
"Z. c #98B2BF",
"A. c #99B2BF",
"S. c #99B3BF",
"D. c #9AB3BF",
"F. c gray67",
"G. c #AFAFAF",
"H. c #B1B1B1",
"J. c gray70",
"K. c gray71",
"L. c #B6B6B6",
"P. c #B7B7B7",
"I. c gray74",
"U. c #9AB3C0",
"Y. c #9CB4C0",
"T. c #9EB5C0",
"R. c #A1B6C1",
"E. c #A2B7C1",
"W. c #A1B6C2",
"Q. c #A2B7C2",
"!. c #A3B8C2",
"~. c #A4B8C2",
"^. c #A5B8C2",
"/. c #A6B9C2",
"(. c #A6B9C3",
"). c #A8BAC3",
"_. c #AABBC3",
"`. c #AEBDC5",
"'. c #AFBEC5",
"]. c #B0BEC5",
"[. c #B1BEC5",
"{. c #B2BFC6",
"}. c #B3C0C6",
"|. c #B4C0C6",
" X c #B6C1C7",
".X c #BAC3C7",
"XX c #BAC3C8",
"oX c #BDC4C8",
"OX c #BDC5C8",
"+X c #BEC5C8",
"@X c #BEC5C9",
"#X c #BFC6C9",
"$X c #C5C5C5",
"%X c #C6C6C6",
"&X c gray78",
"*X c #C1C6C9",
"=X c #C2C7CA",
"-X c #C3C8CA",
";X c #C4C8CA",
":X c #C6C9CA",
">X c #C6C9CB",
",X c #C7CACB",
"<X c #C8C8C8",
"1X c gray79",
"2X c #C8CACB",
"3X c #C9CACB",
"4X c #CACACA",
"5X c #CBCBCB",
"6X c #CBCCCC",
"7X c gray80",
"8X c None",
/* pixels */
"8X# + . . . . o . o . . o . o . . o . . . . o . . o . . . + # 8X",
"# + i.K.4X7X7X7X7X7X7X7X7X7X7X7X7X7X7X7X7X7X7X7X7X7X4X4XK.i.o # ",
"+ p.7X7X7X7X7X7X7X7X7X>Xq./.7X5X7X7X7X7X7X7X7X7X7X7X7X7X7X7X% + ",
". I.7X7X7X7X7X7X7X7X7XW m k N.5X7X7X7X7X7X7X7X7X7X7X7X7X7X7XK.. ",
". 7X7X7X7X7X7X7X7X7X*Xk Q.N.j /.7X7X7X7X7X7X7X7X7X7X7X7X7X7X7X. ",
". 7X7X7X7X7X7X7X7X5XW * 5 Q.2.M 7X7X7X7X7X7X7X7X7X7X7X7X7X7X7X. ",
". 7X7X7X7X7X7X7X7XU.* * * 5 .XZ f.7X7X7X7X5Xn.>...].7X7X7X7X7X. ",
". 7X7X7X7X7X7X7X5XD.* * * * 6Xg.S 7X7X7Xn.S m ..! m 7X7X7X7X7X. ",
". 7X7X7X7X7X7X7X7X+X0 * *  .7X*XK N.'.W K 9..X7XC.y 7X7X7X7X7X. ",
"o 7X7X7X7X7X7X7X7X7XU.y Q.7X7X7X>.M j $. X7X7X7Xg.m 7X7X7X7X7X. ",
". 7X7XY.=.{ { { >.e.!.j  X7X7X*XW : g.4X5X7X7X;X{ $.7X7X7X7X7X. ",
". 7X'.y +.7.e.9.:.{ K - j =.C.Y / K g.7X7X7X7XY.m .X7X7X7X7X7X. ",
"o 7X'.j !.7X7X7X7X7X;XW ` ` : 2 `  .W 5X7X7X+X` 2.7X7X7X7X7X7X. ",
". 7X7X@.S Y.7X7X7X7X6X=.{ m +.N.=.n = +./.;X-.S -X7X7X7X7X7X7X. ",
". 7X7X7X:.M a.+X7X7X7X6.< 2.*X7X7XXXm F j g 7 '.7X7X7X7X7X7X7X. ",
"o 7X7X7X7XD.M / C.;X'.y 5 ].7X7X7X7X>. .a.6 a m = * m +X7X7X7X. ",
". 7X7X7X7X7X-X$.a ~ w $.a B.7X7X7X7XD.y M 9.+X0 * * * 2.7X7X7X. ",
". 7X7X7X7X7X7X7X].w < W K @.7X7X7X7XN.: { 7X7Xm * * * I 7X7X7X. ",
". 7X7X7X7X7X7X7X>.~ Q.>.w 2 >./.*Xz.Z a g.7X7Xn.: * = a >.7X7X. ",
"o 7X7X7X7X7X7XU.Z ).7X6X].e K m a 5 7...2.7X7X7X].D.+XN.p oX7X. ",
". 7X7X7X7X7X-XS 9.7X7X7X6XK >.{ 0 K j p w >.x.Q. X X).2.w ].7X. ",
". 7X7X7X7X7Xg.K +X+X2.n.5X$.0 U '.4X*X5.6 { K j j j j S U.7X7X. ",
"o 7X7X7X7X7XM 7.+X: * * j j 6 U.7X7X7X Xg 7X7X7X7X7X7X7X7X7X7X. ",
". 7X7X7X7X7Xy D.U.* * * * ~...+.7X7X7X4Xg '.7X7X7X7X7X7X7X7X7X. ",
". 7X7X7X7X7Xg U K * * * 5 5X/.V ).7X7X7Xj Q.7X7X7X7X7X7X7X7X7X. ",
"o 7X7X7X7X7X].q.e.=.5 m /.7X5X/ +.4X7X7Xm /.7X7X7X7X7X7X7X7X7X. ",
". 7X7X7X7X7X7X7X7X7X7X7X7X7X7X'.a z.7X7Xj /.7X7X7X7X7X7X7X7X7X. ",
". 4X7X7X7X7X7X7X7X7X7X7X7X7X7X7Xa.Z !.].j *X7X7X7X7X7X7X7X7X%X. ",
"o K.7X7X7X7X7X7X7X7X7X7X7X7X7X7X7X$.j j Q 7X7X7X7X7X7X7X7X7XG.. ",
"+ i.7X7X7X7X7X7X7X7X7X7X7X7X7X7X7X7X/.9.XX7X7X7X7X7X7X7X7X4X$ + ",
"# o & J.4X7X7X7X7X7X7X7X7X7X7X7X7X7X7X7X7X7X7X7X7X7X7X%XG.% . # ",
"8X# + . . . . . . . . . . . . . . . . . . . . . . . . . . + # 8X"
};
