/* XPM */
static char *dynamicaMakePassive[] = {
/* columns rows colors chars-per-pixel */
"32 32 101 2 ",
"   c #5B2400",
".  c #662900",
"X  c #6B2B00",
"o  c #752F00",
"O  c #793000",
"+  c #7A431E",
"@  c #454545",
"#  c #4C4C4C",
"$  c #727272",
"%  c #797979",
"&  c #813401",
"*  c #883702",
"=  c #8D3900",
"-  c #943B00",
";  c #9C3E00",
":  c #9F4000",
">  c #A34101",
",  c #AB4500",
"<  c #A94A0B",
"1  c #B14700",
"2  c #B54900",
"3  c #BB4B00",
"4  c #B34F0B",
"5  c #AB5216",
"6  c #AD551B",
"7  c #B45A1E",
"8  c #875432",
"9  c #9A633E",
"0  c #B1612C",
"q  c #B76C3A",
"w  c #BA6F3D",
"e  c #C34E00",
"r  c #C65001",
"t  c #CA5100",
"y  c #D25400",
"u  c #D95700",
"i  c #DC5800",
"p  c #CD5E15",
"a  c #E55B00",
"s  c #ED5F00",
"d  c #CB621C",
"f  c #DC6718",
"g  c #E3630E",
"h  c #EE680E",
"j  c #F46201",
"k  c #FF6600",
"l  c #FB6C0C",
"z  c #E26512",
"x  c #EC711D",
"c  c #CE6B29",
"v  c #DC722D",
"b  c #C5723A",
"n  c #E37D38",
"m  c #976646",
"M  c #966748",
"N  c #92694E",
"B  c #9B6E50",
"V  c #A26842",
"C  c #A56D48",
"Z  c #BB7242",
"A  c #BE7A4D",
"S  c #A7795B",
"D  c #CF7B43",
"F  c #C87C4A",
"G  c #D87F44",
"H  c #B7815E",
"J  c #AD8265",
"K  c #B58464",
"L  c #BA8663",
"P  c #BD9479",
"I  c #C58357",
"U  c #C78458",
"Y  c #C8855A",
"T  c #D78751",
"R  c #C38962",
"E  c #C6906C",
"W  c #CA926C",
"Q  c #C39374",
"!  c #CA9B7C",
"~  c #838383",
"^  c #898989",
"/  c gray68",
"(  c #B4B4B4",
")  c gray74",
"_  c #CAA083",
"`  c #C4A28A",
"'  c #CCA389",
"]  c #D0A98E",
"[  c #CCAB94",
"{  c #CEAE98",
"}  c #CCB19F",
"|  c #CEB6A6",
" . c #CFB9AA",
".. c #D1BCAE",
"X. c #CFC3BC",
"o. c #D0C1B6",
"O. c #C6C6C6",
"+. c #CEC7C2",
"@. c #CDC9C6",
"#. c #CCCCCC",
"$. c None",
/* pixels */
"$.$ # @ @ @ @ @ @ @ @ @ @ @ # @ @ @ @ @ @ @ @ @ @ @ @ @ @ # $ $.",
"$ # ^ ( O.#.#.#.#.#.#.#.#.#.#.#.#.#.#.#.#.#.#.#.#.#.#.O.( ^ @ $ ",
"# ^ #.#.#.#.#.#.#.#.#.#.#.#.#.#.#.#.#.#.#.#.#.#.#.#.#.#.#.#.% # ",
"@ ) #.#.#.#.#.#.#.#.#.#.#.#.#.#.#.#.#.@.X.J B | #.@.#.#.#.#.( @ ",
"@ #.#.#.#.#.#.#.#.#.#.#.#.@.+.+. .' R w 7 > 3 z c C #.#.#.#.#.@ ",
"@ #.#.#.#.#.#.#.@.+.+.| P R q 5 , 3 e t e 2 a k k F #.#.#.#.#.@ ",
"@ #.#.#.O.X...{ E Z 6 - * e e e e e 3 3 e 2 a k j Y #.#.#.#.#.@ ",
"@ #.#.#.#.K = 2 3 e t e , t e e t e e e e 1 a j h W #.#.#.#.#.@ ",
"@ #.#.#.#.! r t e e e 1 ; e 3 3 , , , > , o > i y H #.#.#.#.#.@ ",
"@ #.#.#.O.P < 2 ; > , = O ; ; -   - > > , - e i e K #.#.#.#.#.@ ",
"@ #.#.#.#.S * > . - > , , 2 3 e ; t t t t 3 j k l ] #.#.#.#.#.@ ",
"@ #.#.#.#.! r y 1 t t y y t e e > t e e e 3 j k h { #.#.#.#.#.@ ",
"@ #.#.#.#.E 4 3 = 1 3 3 3 3 3 3 = 3 3 3 3 , a j z { #.#.#.#.#.@ ",
"@ #.#.#.#.M * : . - ; * & ; ; - . ; ; ; > . 2 y 4 ` #.#.#.#.#.@ ",
"@ #.#.#.#.L , 2 1 1 2 ; * 3 1 , > , 1 1 1 - y a p | #.#.#.#.#.@ ",
"@ #.#.#.#.Q r t i y y e 3 t t t y t e t t e k k x X.#.#.#.#.#.@ ",
"@ #.#.#.#.m = > - , 1 - - e e r t t t t t 3 k k x ..#.#.#.#.#.@ ",
"@ #.#.#.#.V > , o ; > & O : ; ; - > , 1 2 , s a d +.#.#.#.#.#.@ ",
"@ #.#.#.#.Y t y > e 3 3 1 1 1 ; O , : ; ; . e y 7 ..#.#.#.#.#.@ ",
"@ #.#.#.#.8 ; 2 = e t y y t t 3 : e e 3 3 : a s v #.#.#.#.#.#.@ ",
"@ #.#.#.#.m ; ; . - ; > 1 e t e , t e e e e k k v #.#.#.#.#.#.@ ",
"@ #.#.#.#.I e 3 1 1 1 & & ; ; = & e t t t e k k G #.#.#.#.#.#.@ ",
"@ #.#.#.#.+ , t y t t > > 3 1 - O - - : , , a i 0 #.#.#.#.#.#.@ ",
"@ #.#.#.#.[ ! Z > 1 t 2 3 e e e 3 3 2 , - . t i D #.#.#.#.#.#.@ ",
"@ #.#.#.#.#.#.X..._ Z O > t t e e e e 3 3 2 j k D #.#.#.#.#.#.@ ",
"# #.#.#.#.#.#.#.#.#.X. .Q Z < 2 e t e e e e k k T #.#.#.#.#.#.@ ",
"@ #.#.#.#.#.#.#.#.#.#.#.#.+..._ Z < 2 e e t k k D #.#.#.#.#.#.@ ",
"@ #.#.#.#.#.#.#.#.#.#.#.#.#.#.#.@.X.' A 6 > f D _ #.#.#.#.#.O.@ ",
"@ ( #.#.#.#.#.#.#.#.#.#.#.#.#.#.#.#.#.#.| N ..O.#.#.#.#.#.#./ @ ",
"# ~ #.#.#.#.#.#.#.#.#.#.#.#.#.#.#.#.#.#.#.#.#.#.#.#.#.#.#.#.$ # ",
"$ # ~ / O.#.#.#.#.#.#.O.#.#.#.#.#.#.#.#.#.#.#.#.#.#.#.O./ % @ $ ",
"$.$ # @ @ @ @ @ @ @ @ @ @ @ @ @ @ @ @ @ @ @ @ @ @ @ @ @ @ # $ $."
};
