/* XPM */
static char *dynamicaActivateX[] = {
/* columns rows colors chars-per-pixel */
"32 32 222 2 ",
"   c #010100",
".  c #020F00",
"X  c #051300",
"o  c #051800",
"O  c #0C1B00",
"+  c #101010",
"@  c #052400",
"#  c #0B2200",
"$  c #062D00",
"%  c #0D2B00",
"&  c #102200",
"*  c #1B2300",
"=  c #1F2800",
"-  c #063C00",
";  c #1E3700",
":  c #143C00",
">  c #212C00",
",  c #282D00",
"<  c #203600",
"1  c #373C00",
"2  c #383B00",
"3  c #222222",
"4  c #2F3621",
"5  c gray19",
"6  c #0C4200",
"7  c #0B4B00",
"8  c #184E00",
"9  c #0C5F00",
"0  c #1F5700",
"q  c #175F00",
"w  c #1C5C00",
"e  c #1A5F09",
"r  c #244200",
"t  c #224E00",
"y  c #2C4B00",
"u  c #374200",
"i  c #354A00",
"p  c #255400",
"a  c #2B5400",
"s  c #2D5E00",
"d  c #335300",
"f  c #3A5100",
"g  c #0C6300",
"h  c #136500",
"j  c #196200",
"k  c #136B00",
"l  c #1B7200",
"z  c #157B00",
"x  c #1C7C00",
"c  c #256400",
"v  c #2D6400",
"b  c #2B6C00",
"n  c #286508",
"m  c #356500",
"M  c #3E6A00",
"N  c #237100",
"B  c #2B7500",
"V  c #247B00",
"C  c #357100",
"Z  c #3D7500",
"A  c #347A00",
"S  c #397B00",
"D  c #404900",
"F  c #445600",
"G  c #485600",
"H  c #4F5C00",
"J  c #535300",
"K  c #464B18",
"L  c #484C1E",
"P  c #436200",
"I  c #4D6600",
"U  c #456D00",
"Y  c #4B6A00",
"T  c #5E6A00",
"R  c #4B7400",
"E  c #547400",
"W  c #5C7700",
"Q  c #567A00",
"!  c #477212",
"~  c #616A00",
"^  c #637C00",
"/  c #6C7B00",
"(  c #757A00",
")  c #5C5C34",
"_  c #4A652D",
"`  c #596120",
"'  c #42732E",
"]  c #417338",
"[  c #676634",
"{  c #74743A",
"}  c #454545",
"|  c #4C4C4C",
" . c #525252",
".. c #606060",
"X. c #6D6D6D",
"o. c #727272",
"O. c #7B7B7B",
"+. c #248600",
"@. c #2F8500",
"#. c #238C00",
"$. c #368000",
"%. c #3B8500",
"&. c #348F00",
"*. c #3B9400",
"=. c #319B00",
"-. c #478700",
";. c #4D8700",
":. c #428C00",
">. c #4E8900",
",. c #548600",
"<. c #598200",
"1. c #568E00",
"2. c #5D8E00",
"3. c #429A00",
"4. c #489A00",
"5. c #539300",
"6. c #5C9600",
"7. c #569900",
"8. c #5D9900",
"9. c #618300",
"0. c #6E8400",
"q. c #638C00",
"w. c #6D8B00",
"e. c #758B00",
"r. c #7E8D00",
"t. c #629400",
"y. c #6A9200",
"u. c #649C00",
"i. c #6A9D00",
"p. c #769000",
"a. c #799400",
"s. c #749E00",
"d. c #7A9C00",
"f. c #63831C",
"g. c #53A000",
"h. c #5DA100",
"j. c #65A100",
"k. c #6DA100",
"l. c #75A100",
"z. c #7CA200",
"x. c #7EAB00",
"c. c #6D8726",
"v. c #7C8E30",
"b. c #5D8550",
"n. c #7E9749",
"m. c #7D9668",
"M. c #849700",
"N. c #8B9600",
"B. c #849B00",
"V. c #8A9E00",
"C. c #919400",
"Z. c #909E00",
"A. c #9C9F00",
"S. c #8F8F12",
"D. c #83A400",
"F. c #8EA400",
"G. c #85AB00",
"H. c #8BAB00",
"J. c #94A700",
"K. c #92AD00",
"L. c #9BAB00",
"P. c #90B200",
"I. c #9BB300",
"U. c #A6A900",
"Y. c #A5B300",
"T. c #AEB400",
"R. c #B6B600",
"E. c #B5BA00",
"W. c #BABD00",
"Q. c #BDC100",
"!. c #BACA00",
"~. c #C3C600",
"^. c #C1CA00",
"/. c #CACC00",
"(. c #C9D600",
"). c #C6D900",
"_. c #CCDB00",
"`. c #D6D900",
"'. c #CFE200",
"]. c #DBE400",
"[. c #DAED00",
"{. c #E3ED00",
"}. c #EBEF00",
"|. c #E4F200",
" X c #ECF400",
".X c #898945",
"XX c #99984C",
"oX c #9E9E50",
"OX c #A4A94C",
"+X c #A3A352",
"@X c #ADAC57",
"#X c #A1AE5C",
"$X c #BBBB5E",
"%X c #989B6C",
"&X c #9DA46A",
"*X c #A6B477",
"=X c #CCCB66",
"-X c #CCCB7F",
";X c #818181",
":X c #8B8B8B",
">X c #909090",
",X c gray60",
"<X c #8AA285",
"1X c #AABB89",
"2X c #A2A2A2",
"3X c gray68",
"4X c #AABAA0",
"5X c #B3B3B3",
"6X c #BCBCBC",
"7X c #BBC397",
"8X c #BEC4AF",
"9X c #C8C9A5",
"0X c #C0C4BB",
"qX c #C7C9BD",
"wX c #CACABE",
"eX c #C3C3C3",
"rX c #CCCCCC",
"tX c #D0D0D0",
"yX c gray88",
"uX c gray94",
"iX c gray100",
"pX c None",
/* pixels */
"pXo.| } } } } } } } } } } } } } } } } } } } } } } } } } } | o.pX",
"o.| :X5XrXrXrXrXrXrXtXrXrXtXrXrXrXrXrXrXrXrXrXrXrXtXrXrX5X;X| o.",
"| :XrXrXrXrXrXrXrXrXrXrXrXrXrXrXrXrXrXtXrXrXrXtXrXrXrXrXrXrXO.| ",
"} 6XrXrXrXrXwX%XL ` #X7XrXrXrXrXrXrXrXrXrXrXrXrXrXrXrXrXrXrX5X} ",
"} rXrXrXrX) E._.L./ e.9.^ c.n.1X0XrXrXrXrXrXrXrXrXrXrXrXrXrXrX} ",
"} rXrXrXrX+X X|._.V.K.G.z.y.<.R U ! _ m.4XeXeXrXrXrXrXrXrXrXrX} ",
"} rXrXrXrX+X X|.).V.H.D.z.l.l.u.6.5.p s b n ' b.<X6XrXrXrXrXrX} ",
"} rXrXrXrXoX X|.(.M.K.D.z.l.i.u.6.5.Z :.&.$.V l 7 6 rXrXrXrXrX} ",
"} rXrXrXrX{ ~.(.r.D e.0.w.q.<.6.5.5.m S %.$.+.+.z g rXrXrXrXrX} ",
"} rXrXrXrX[ R._.Y.T e.^ W Y * P P M r p b c q l g 7 rXrXrXrXrX} ",
"} rXrXrXrX@X X{.[.K.I.P.G.x.E t.5.;.Z C B 0 % h 6 - rXrXrXrXrX} ",
"} rXrXrXrX+X X}.[.J.K.H.D.l.Q i.t.7.g.4.*.&.N #.z 9 rXrXrXrXrX} ",
"} rXrXrXrXXX{.{.'.r.F.D.d.s.P 2.5.>.-.%.A B 8 V k 7 rXrXrXrXrX} ",
"} rXrXrXrX.XJ.^.V.1 / ^ W E < P U U y p b 0 % q 6 $ rXrXrXrXrX} ",
"} rXrXrXrX+X~.].!.T M.p.w.9.Q <.,.,.a v A B N l g 7 rXrXrXrXrX} ",
"} tXrXrXrX$X X|.[.Y.I.P.G.x.x.k.u.h.-.:.3.*.=.#.z g rXrXrXrXrX} ",
"} rXrXrXrX$X}.|.[.K.I.P.H.x.x.i.6.5.m s A b w j 7 % rXrXrXrXrX} ",
"} rXrXrXrX$XW.{.[.r.B.e.w.^ U Y ;     & v c # X   o rXrXrXrXrX} ",
"} rXrXrXrX$XC.~.U., H ^ W 9.i U 3 uXuX3 t b + tXiX| :XrXrXrXrX} ",
"} rXrXrXrX=X/.|.N.5 } u D.z.E t.y  .iXtXO : >XiX>X. rXrXrXrXrX} ",
"} rXrXrXrX=X`. X2 8XiX  D.z.<.i.u.< 2XiX>X| iXtX+ $ rXrXrXrXrX} ",
"} tXrXrXrX=XU.( 1 eXiX  F I f P U d + tXiXuXuX5 7 g rXrXrXrXrX} ",
"} rXrXrXrXXX} O.;XyXiX;X;X..> U ,.1.r 5 iXiXo.6 j @ rXrXrXrXrX} ",
"} rXrXrXrX[ ;XiXiXiXiXiXiXeX* i.t.7.< ;XiXiX6Xo j ] tXrXrXrXrX} ",
"} tXrXrXrX$XJ     eXiX    = Y s.u.d 5 iXuX3XiXX. .tXrXrXrXrXrX} ",
"} rXrXrXrX=X~. X2 eXiX  G.D.s.t.d + yXiX} + uXiX5 X.rXrXrXrXrX} ",
"} rXrXrXrX=XR. X~ >XeX> a.9.E f.4 5XiX;X ...} iXyX+ 2XrXrXrXrX} ",
"} rXrXrXrX7XS.R.U.2 * G v.*X8XO...iXtX3 6XrX .;XiX2X| rXrXrXeX} ",
"} 6XrXrXrXrXwX9XOXK &XwXrXrXrX2X5 } + O.rXrX6X .5 } ,XrXrXrX3X} ",
"| ;XrXrXrXrXrXtXrXrXrXrXrXrXrXrX2X,X6XrXrXrXrXrX2X,XrXtXrXrXo.| ",
"o.} ;X3XeXrXrXrXrXrXrXrXrXrXrXrXrXrXrXrXrXrXrXrXrXrXrXeX3XO.} o.",
"pXo.| } } } } ) } } } } } } } } } } } } } } } } } } } } } | o.pX"
};
