/* XPM */
static char *dynamicaSetInitialState[] = {
/* columns rows colors chars-per-pixel */
"32 32 117 2 ",
"   c #663300",
".  c #6A3807",
"X  c #6A3A09",
"o  c #6C3C0C",
"O  c #6D3E0E",
"+  c #703900",
"@  c #794000",
"#  c #794D00",
"$  c #6F4112",
"%  c #714316",
"&  c #724619",
"*  c #794F26",
"=  c #7C542C",
"-  c #7F5932",
";  c #444444",
":  c gray27",
">  c #464646",
",  c #484848",
"<  c #494949",
"1  c gray30",
"2  c #4E4E4E",
"3  c #727272",
"4  c gray45",
"5  c gray47",
"6  c gray48",
"7  c #834600",
"8  c #8C4D00",
"9  c #835900",
"0  c #8C5900",
"q  c #965300",
"w  c #A05900",
"e  c #8C6600",
"r  c #966300",
"t  c #967300",
"y  c #AF6300",
"u  c #A06D00",
"i  c #B36600",
"p  c #BC6D00",
"a  c #A57200",
"s  c #A07E00",
"d  c #AF7C00",
"f  c #C27000",
"g  c #8C6C4C",
"h  c #927659",
"j  c #997F66",
"k  c #A58700",
"l  c #A98D00",
"z  c #AF9400",
"x  c #BCA600",
"c  c #D98000",
"v  c #DF8300",
"b  c #C69300",
"n  c #C69500",
"m  c #CB9800",
"M  c #E38600",
"N  c #EC8D00",
"B  c #EF8E00",
"V  c #F19000",
"C  c #F29000",
"Z  c #F69300",
"A  c #FA9500",
"S  c #FB9700",
"D  c #FF9900",
"F  c #C2AD00",
"G  c #DFAC00",
"H  c #C6B300",
"J  c #CBBA00",
"K  c #DFBF00",
"L  c #F1B200",
"P  c #F1BE00",
"I  c #F2BF00",
"U  c #D9CD00",
"Y  c #F6C000",
"T  c #F6C300",
"R  c #F4C400",
"E  c #F4C700",
"W  c #FAC700",
"Q  c #FFCC00",
"!  c #F1D500",
"~  c #FAD000",
"^  c #ECE600",
"/  c #EFE900",
"(  c #FFE500",
")  c #F1ED00",
"_  c #F4F100",
"`  c #FAF800",
"'  c #FBFA00",
"]  c yellow",
"[  c #9F8972",
"{  c #A6927F",
"}  c #808080",
"|  c #838383",
" . c #848484",
".. c #868686",
"X. c #898989",
"o. c #AC9C8C",
"O. c #B2A699",
"+. c gray67",
"@. c #AFAFAF",
"#. c #B9AFA6",
"$. c #B1B1B1",
"%. c gray70",
"&. c gray71",
"*. c #B6B6B6",
"=. c #B7B7B7",
"-. c #BFB9B2",
";. c gray74",
":. c #C6C2BF",
">. c #C5C5C5",
",. c #C6C6C6",
"<. c gray78",
"1. c #C8C8C8",
"2. c gray79",
"3. c #CACACA",
"4. c #CBCBCB",
"5. c gray80",
"6. c None",
/* pixels */
"6.3 1 : : : : , : : , : : , : : , : : , : : , : : , : : , 1 3 6.",
"3 1 ..&.3.5.5.5.5.5.5.5.5.5.5.5.5.5.5.5.5.5.5.5.5.5.5.<.%.| , 3 ",
"1 X.5.5.5.5.5.5.5.5.5.5.5.5.5.5.5.5.5.5.5.5.5.5.5.5.5.5.5.5.6 1 ",
": ;.5.5.5.5.5.5.5.5.5.5.5.5.5.5.5.5.5.5.5.5.5.5.5.5.5.5.5.5.&.: ",
": 5.5.5.5.5.5.5.5.5.5.5.4.4.4.4.5.5.5.5.5.5.5.5.5.5.5.5.5.5.5.: ",
": 5.5.5.5.5.5.5.o.O * g [ #.4.4.5.5.5.5.5.5.5.5.5.5.5.5.5.5.5.: ",
": 5.5.5.5.5.5.5.g n O H z #   - h o.-.5.5.5.5.5.5.5.5.5.5.5.5.: ",
": 5.5.5.5.5.5.5.O R R $ _ ] ] U x t # h 5.5.5.5.5.5.5.5.5.5.5.: ",
": 5.5.5.5.5.5.o.r Q Q T O _ ] ] ] ] ' k g :.5.5.5.5.5.5.5.5.5.: ",
", 5.5.5.5.5.5.g b Q Q Q E . ` ] ] ] ] ] z * :.5.5.5.5.5.5.5.5.: ",
": 5.5.5.5.5.5.o T Q Q Q Q ~ . ` ] ] ] ] ] z & #.5.5.5.5.5.5.5.: ",
": 5.5.5.5.5.o.r Q Q Q Q Q Q ~ . ` ] ] ] ] ] F o O.5.5.5.5.5.5.: ",
", 5.5.5.5.5.g b Q Q Q Q Q Q Q Q . / ^ ) ] ] ] J e { 5.5.5.5.5.: ",
": 5.5.5.5.5.o T Q Q Q Q Q Q Q W . % & $ ! ( ( ( K s g 5.5.5.5.: ",
": 5.5.5.5.o.r Q Q Q Q Q Q Q Q T O N N V D D D D D v   3.5.5.5.: ",
", 5.5.5.5.g n Q Q Q Q Q Q Q Q T . A D D D D D D D w o.5.5.5.5.: ",
": 5.5.5.5.o T Q Q Q Q Q Q Q T o Z D D D D D D D f - 5.5.5.5.5.: ",
": 5.5.5.5.& G Q Q Q Q Q Q Q W . A D D D D D D A 7 #.5.5.5.5.5.: ",
": 5.5.5.5.{ u Q Q Q Q Q Q W . A D D D D D D D w h 5.5.5.5.5.5.: ",
", 5.5.5.5.5.- m Q Q Q Q Q T o Z D D D D D D M . :.5.5.5.5.5.5.: ",
": 5.5.5.5.5.O.0 Q Q Q Q W . Z D D D D D D D q { 5.5.5.5.5.5.5.: ",
": 5.5.5.5.5.5.g d Q Q Q T o Z D D D D D D f g 5.5.5.5.5.5.5.5.: ",
", 5.5.5.5.5.5.:.O P Q Q L Z D D D D D D V 7 #.5.5.5.5.5.5.5.5.: ",
": 5.5.5.5.5.5.5.j a Q P $ V D D D D D D i j 3.3.5.5.5.5.5.5.5.: ",
": 5.5.5.5.5.5.5.5.& m L V D D D M f q + * >.5.5.5.5.5.5.5.5.5.: ",
", 5.5.5.5.5.5.5.5.O.0 % f i q + * h o.-.5.5.5.5.5.5.5.5.5.5.5.: ",
": 5.5.5.5.5.5.5.5.5.=   g [ o.:.5.5.5.5.5.5.5.5.5.5.5.5.5.5.5.: ",
": 3.5.5.5.5.5.5.5.5.5.5.:.5.5.5.5.5.5.5.5.5.5.5.5.5.5.5.5.5.>.: ",
": &.5.5.5.5.5.5.5.5.5.5.5.5.5.5.5.5.5.5.5.5.5.5.5.5.5.5.5.5.@.: ",
"1  .5.5.5.5.5.5.5.5.5.5.5.5.5.5.5.5.5.5.5.5.5.5.5.5.5.5.5.3.3 1 ",
"4 , } $.3.5.5.5.5.5.5.5.5.5.5.5.5.5.5.5.5.5.5.5.5.5.5.>.+.6 : 3 ",
"6.3 1 : : : : : : : : : : : : : : > > > : : : : : : : : : 1 3 6."
};
