/* XPM */
static char *bullet[] = {
/* columns rows colors chars-per-pixel */
"32 32 125 2 ",
"   c #010000",
".  c #090400",
"X  c #0D0900",
"o  c #0E0E0E",
"O  c #150B00",
"+  c #1B0C00",
"@  c #1E1100",
"#  c gray12",
"$  c #251400",
"%  c #2B1700",
"&  c #2C1800",
"*  c #371E00",
"=  c #462700",
"-  c #422800",
";  c #492D00",
":  c #502F00",
">  c #4C3200",
",  c #5D3500",
"<  c #5D3900",
"1  c #643B00",
"2  c #6C4700",
"3  c #6F4900",
"4  c #784300",
"5  c #7C4D00",
"6  c #454545",
"7  c #4C4C4C",
"8  c gray40",
"9  c #747474",
"0  c #797979",
"q  c #8D4C00",
"w  c #875600",
"e  c #8A5200",
"r  c #8D5B00",
"t  c #925D00",
"y  c #956100",
"u  c #9D6800",
"i  c #A56700",
"p  c #AD6E00",
"a  c #B36700",
"s  c #AF7100",
"d  c #B17300",
"f  c #B87400",
"g  c #B97A00",
"h  c #CC6601",
"j  c #CC6905",
"k  c #CC6C0B",
"l  c #C37A00",
"z  c #D07B00",
"x  c #DD7A00",
"c  c #CC6F12",
"v  c #CC7014",
"b  c #CC741C",
"n  c #E47F00",
"m  c #CC7722",
"M  c #CC7926",
"N  c #CC7C2B",
"B  c #CC7F32",
"V  c #C78300",
"C  c #CC8400",
"Z  c #CF8800",
"A  c #DC8600",
"S  c #DD8D00",
"D  c #DE9500",
"F  c #DB9F00",
"G  c #E68101",
"H  c #EA8401",
"J  c #ED8A01",
"K  c #F28C01",
"L  c #E49300",
"P  c #EC9101",
"I  c #E69F00",
"U  c #EC9C00",
"Y  c #F39400",
"T  c #FA9400",
"R  c #F29D00",
"E  c #FF9B00",
"W  c #F7A000",
"Q  c #FEA400",
"!  c #F6A800",
"~  c #FDA900",
"^  c #FFB400",
"/  c #FFB900",
"(  c #CC8136",
")  c #CC833B",
"_  c #FFC200",
"`  c #FFCD00",
"'  c gold",
"]  c #BF8E5C",
"[  c #BE9164",
"{  c #BD9369",
"}  c #BB9B7B",
"|  c #CC8640",
" . c #CC8D4D",
".. c #CC8F52",
"X. c #CC9055",
"o. c #CC945C",
"O. c #CC9965",
"+. c #CC9B6A",
"@. c #CC9E71",
"#. c #CCA176",
"$. c #CCA47C",
"%. c #838383",
"&. c #898989",
"*. c #BA9F83",
"=. c #ACACAC",
"-. c #B5ACA3",
";. c #B4B1AC",
":. c #B3B3B3",
">. c #BEBEBE",
",. c #CCA681",
"<. c #CCAA87",
"1. c #CCAA88",
"2. c #CCB195",
"3. c #CCB49D",
"4. c #CCB7A2",
"5. c #CCB8A5",
"6. c #CCBDAD",
"7. c #CCBFB1",
"8. c #CCC0B3",
"9. c #CCC5BD",
"0. c #C6C6C6",
"q. c #CCC6C0",
"w. c #CCC9C6",
"e. c #CCCCCC",
"r. c None",
/* pixels */
"r.9 7 6 6 6 6 6 6 6 6 6 6 6 6 6 6 6 6 6 6 6 7 6 6 6 6 6 6 7 9 r.",
"9 7 &.:.0.e.e.e.e.e.e.e.e.e.e.e.e.e.e.e.e.e.e.e.e.e.e.0.:.&.6 9 ",
"7 &.e.e.e.e.e.e.w.8.@.m h k  .3.w.e.e.e.e.e.e.e.e.e.e.e.e.e.0 7 ",
"6 >.e.e.e.e.w.5.o.b h W d 1 a k ) 1.9.e.e.e.e.e.e.e.e.e.e.e.:.6 ",
"6 e.e.e.e.9.+.k G T Q I >     < z x B 3.e.e.e.e.e.e.e.e.e.e.e.6 ",
"6 e.e.e.q.X.n T E Q Q r         1 ! K c 1.e.e.e.e.e.e.e.e.e.e.6 ",
"6 e.e.e.O.G E E Q ^ ! 5 X     $ C ^ E K c 2.e.e.e.e.e.e.e.e.e.6 ",
"6 e.e.4.j T E Y f s L U u & . w / Q T T J N 6.e.e.e.e.e.e.e.e.6 ",
"6 e.e.X.H E Q Z $ . * 2 U F t A j k j k j n O.e.w.w.w.e.e.e.e.6 ",
"6 e.8.v T E Q g         y ' I N @.#.#.#.@.+.O.o.o.o...o.$.o.e.6 ",
"6 e.O.G E E Q r       @ C U ( 6.e.e.e.e.e.e.4.k [ [ { [ h h e.6 ",
"6 e.v T E E E p > - $ : L v 2.e.e.e.e.e.e.e.q.( *.:.:.:.;.k e.6 ",
"6 e.h j E E E Q ! A e t P M 8.e.e.e.e.e.e.e.0.| } :.:.:.-.c e.6 ",
"6 e.v T E E E C 3 < - , S c 2.e.e.e.e.e.e.e.q.( *.:.:.:.;.j e.6 ",
"6 e.O.G E E Q i       O g U ( 5.e.e.e.e.e.e.4.k [ [ [ ] j h e.6 ",
"6 e.8.v T E Q V +       5 / J M +.#.@.@.@.O.O.o.O.X.X.O.,.O.e.6 ",
"6 e.e...H E Q D *   O ; l ` / Y h j j h j n +.w.e.w.e.e.e.e.e.6 ",
"6 e.e.4.j T E R p r p e 5 r y S Q E T E J B 7.w.e.e.e.e.e.e.e.6 ",
"6 e.e.e.+.n E E Q ~ L = . . O p / Q T K c 2.e.e.e.e.e.e.e.e.e.6 ",
"6 e.e.e.9...G T Q ~ C %     O d ^ E J v 1.e.e.e.e.e.e.e.e.e.e.6 ",
"6 e.e.e.e.9.+.k G E l $     . p R x B 3.e.e.e.e.e.e.e.e.e.e.e.6 ",
"6 e.e.e.e.e.e.5.o.b j 4 h h q k ) 1.9.e.e.e.e.e.e.e.e.e.e.e.e.6 ",
"6 e.e.e.e.e.e.e.w.8.#.M h c ..5.w.e.e.e.e.e.e.e.e.e.e.e.e.e.e.6 ",
"6 e.e.e.e.e.e.e.e.e.e.e.e.e.e.e.e.e.e.e.e.e.e.e.e.e.e.e.e.e.e.6 ",
"6 e.e.8     . e.8 # e.# 8 # 8 e.e.  =.e.e.      #       8 e.e.6 ",
"7 e.e.8 . 8   >.8 # e.# 8 # 8 e.e.  =.e.e.  6 8 =.=.  0 0.e.e.6 ",
"6 e.e.8       0.8 # e.# 8 # 8 e.e.  =.e.e.      =.e.  =.e.e.e.6 ",
"6 e.e.8 o =.o 8 0   =.. 0 # 6 =.0.  9 =.e.  9 =.0.e.  =.e.e.0.6 ",
"6 :.e.8       >.e.o   o e.#     8       =.      8 e.  =.e.e.=.6 ",
"7 %.e.e.e.e.e.e.e.e.e.e.e.e.e.e.e.e.e.e.e.e.e.e.e.e.e.e.e.e.9 7 ",
"9 6 %.:.0.e.e.e.e.e.e.e.e.e.e.e.e.e.e.e.e.e.e.e.e.e.e.0.=.0 6 9 ",
"r.9 7 6 6 6 6 6 6 6 6 6 6 6 6 6 6 6 6 6 6 6 6 6 6 6 6 6 6 7 9 r."
};
