/* XPM */
static char *dynamicaActivateRadial[] = {
/* columns rows colors chars-per-pixel */
"32 32 191 2 ",
"   c #010000",
".  c #0C0700",
"X  c #060B00",
"o  c #0E0C00",
"O  c #110B00",
"+  c #001000",
"@  c #021C00",
"#  c #141400",
"$  c #1A1400",
"%  c #101800",
"&  c #181C00",
"*  c #101010",
"=  c #141A13",
"-  c #241600",
";  c #211900",
":  c #2B1A00",
">  c #321E00",
",  c #022400",
"<  c #0A2300",
"1  c #013300",
"2  c #003B00",
"3  c #133C00",
"4  c #142014",
"5  c #1B3B1B",
"6  c #2E2600",
"7  c #362200",
"8  c #392300",
"9  c #3D2C00",
"0  c #253100",
"q  c #2F3400",
"w  c #3B3300",
"e  c #343900",
"r  c #393D00",
"t  c #24341D",
"y  c #212121",
"u  c #272C27",
"i  c #303030",
"p  c #412700",
"a  c #422800",
"s  c #492C00",
"d  c #443300",
"f  c #403C00",
"g  c #553300",
"h  c #5A3600",
"j  c #5E3A00",
"k  c #633C00",
"l  c #693F00",
"z  c #004400",
"x  c #004A00",
"c  c #0D4F00",
"v  c #1C4400",
"b  c #1F4B00",
"n  c #025300",
"m  c #0D5600",
"M  c #005B00",
"N  c #0E5B00",
"B  c #095A09",
"V  c #1D5200",
"C  c #1F4012",
"Z  c #125F12",
"A  c #244D00",
"S  c #3C4300",
"D  c #3A4C00",
"F  c #245500",
"G  c #235900",
"H  c #285900",
"J  c #345600",
"K  c #3D5700",
"L  c #375E00",
"P  c #2D5E12",
"I  c #006600",
"U  c #006D00",
"Y  c #106700",
"T  c #176D00",
"R  c #007200",
"E  c #007B00",
"W  c #117300",
"Q  c #2C6A00",
"!  c #306800",
"~  c #3A7E00",
"^  c #23671C",
"/  c #294125",
"(  c #204B20",
")  c #354035",
"_  c #344D34",
"`  c #345334",
"'  c #3A5032",
"]  c #3A5D3A",
"[  c #286C26",
"{  c #386F38",
"}  c #307130",
"|  c #454600",
" . c #514500",
".. c #5E4600",
"X. c #534F00",
"o. c #4B5400",
"O. c #6C4100",
"+. c #6C4D00",
"@. c #714400",
"#. c #734800",
"$. c #7A4A00",
"%. c #685700",
"&. c #725500",
"*. c #4F7500",
"=. c #557300",
"-. c #547C00",
";. c #696400",
":. c #7F6100",
">. c #726D00",
",. c #767700",
"<. c #797100",
"1. c #454545",
"2. c #4C4C4C",
"3. c #515151",
"4. c gray35",
"5. c #616161",
"6. c #6D6D6D",
"7. c #717171",
"8. c #797979",
"9. c #844F00",
"0. c #865100",
"q. c #8B5300",
"w. c #8C5E00",
"e. c #915700",
"r. c #9C5F00",
"t. c #8A6500",
"y. c #8E6B00",
"u. c #976500",
"i. c #936C00",
"p. c #827300",
"a. c #887100",
"s. c #977300",
"d. c #A56300",
"f. c #A96600",
"g. c #AD6900",
"h. c #B46C00",
"j. c #B96F00",
"k. c #A77000",
"l. c #A47B00",
"z. c #BC7100",
"x. c #C37500",
"c. c #CA7900",
"v. c #D17D00",
"b. c #008D00",
"n. c #158A00",
"m. c #1D8B00",
"M. c #009900",
"N. c #2B8600",
"B. c #3A8A00",
"V. c #309700",
"C. c #409900",
"Z. c #5C9900",
"A. c #638200",
"S. c #748100",
"D. c #759900",
"F. c #4D854B",
"G. c #528252",
"H. c #598151",
"J. c #588B57",
"K. c #5C945C",
"L. c #6B8D6B",
"P. c #6F9E6C",
"I. c #66A366",
"U. c #6FA165",
"Y. c #77A277",
"T. c #7FAD7F",
"R. c #869900",
"E. c #999200",
"W. c #AE9200",
"Q. c #A19900",
"!. c #C69800",
"~. c #818181",
"^. c #898989",
"/. c #909090",
"(. c #85A085",
"). c #8CAF89",
"_. c #97B697",
"`. c #A0A0A0",
"'. c gray68",
"]. c #A5BCA5",
"[. c #AEBCAD",
"{. c #B2B2B2",
"}. c #BDBDBD",
"|. c #BDC4BC",
" X c #C1C1C1",
".X c #CCCCCC",
"XX c #D0D0D0",
"oX c gray88",
"OX c gray94",
"+X c gray100",
"@X c None",
/* pixels */
"@X7.3.1.1.1.1.1.1.1.1.1.1.1.1.1.1.1.1.1.1.1.1.1.1.1.1.1.1.2.7.@X",
"7.2.^.{..X.X.X.X.X.XXX.X.XXX.X.XXX.X.XXX.X.XXX.X.XXXXX X{.^.2.7.",
"2.^..X.X.X.X.X.X.X.X.X.X.X.X.X.X.X.X.X.X.X.X.X.X.X.X.X.X.X.X8.2.",
"1.}..X.X.X.X.X.X.X.X.X.X.X.X.X.X.X.X.X_.K.( 5 L. X.X.X.X.X.X{.1.",
"1..X.X.X.X.X.X'.4.5.{..X.X X|.).F.[ M n M n R b.R _ .X.X.XXX.X1.",
"1..X.X.X.X.X.X4./.~.y = t P F G F 3 <   1 U b.M.M.J..X.X.X.X.X1.",
"1..X.X.X.X}.(.4 }.+X+X.X1.J =.0 y 7.'.+X  Y b.M.M.G..X.X.X.X.X1.",
"1..X.X.X.X2 z @  X+X+X7.q ,.X.3.+X+X+X+X1.v m.M.M.{ .X.X.X.X.X1.",
"1.XX.X.X.XM R <  X X+X7.7 s.i.9 i +X+X+X~.% H m.n.] .X.X.X.X.X1.",
"1..X.X.X.Xx N v ) $ {.OX* k 0.8 ~.+XXX.X|.o -.B.W ` .X.X.X.XXX1.",
"1..X.X.X.X1 3 J & w y OX{.> e.* OX+X1.- 5. .R.Z.V.J..X.X.X.X.X1.",
"1..X.X.X.Xc F A.;.l.j 6.OX* s `.+X/.s x.#.y.E.D.! J..X.X.X.X.X1.",
"1.XX.X X5.y 1.o. .u.g.g * g * OXOX* e.h.j.w.W.r 3.u '..X.X.X.X1.",
"1..X^.i 7.OX7.# o - k O.h q.a   i a : - - O -   +X/.y 8..X.X.X1.",
"1..Xi  X+X+XXX}. X'.3.h @.g.f.d.#.> {. X}. X X/.+X+XXXi 6..X.X1.",
"1.XX2.`.+X+XXX X X X/.g h.v.c.c.v.g /. XOX+X+X+X+X+X+XoX*  X.X1.",
"1..X`.2.5.+X1.$ $ : s O.l z.z.x.v.f.g > .       +X+X`.* 6..X.X1.",
"1..X.X.X3.5.1.| d 0.l y i s q.9.$.@.r.d.g.u.!.# XX1.2.`..X.X.X1.",
"1.XX.X.X.X3 L S.%.k.9 {.OXy e.q.- 1.8 q.q.7 a.S o ' .X.X.X.X.X1.",
"1..X.X.X.X@ A K r ..i +XOX* j.l 6.+X7.g g.&.E.D.B.P..X.X.X.X.X1.",
"1..X.XXX.X1 3 i y o XX+X7.h c.z.O oXOX* i.p.D.Z.N.I..X.X.X.X.X1.",
"1..X.X.X.XM m 1.+X{.+XXXo 0.q.#.> 3.+X~.w e A.B.n.I..X.X.X.XXX1.",
"1..X.X.X.X, M * +X+X+X5.6 &.t.+.s $  X+Xi ~.i T n I..X.X.X.X.X1.",
"1..X.X.X.X{ B X XX+X+X+X~.* >.<.<.r 2.+X+X+Xi U I I..X.X.X.X.X1.",
"1.XX.X.X.X.X.X) `.+X X~.1.* =.=.o.i oX+X+X+X  M.E I..X.X.X.X.X1.",
"1..X.X.X.X.X.X`.*   u / C b V Q Q * ~.OX+XXX@ M.E I..X.X.X.X.X1.",
"1..X.X.X.X.X.X.X X.X.X.X.X].P.^ B M 1 * 5./.z M.R I..X.X.X.X.X1.",
"1..X.X.X.X.X.X.X.X.X.X.X.X.X.X.X[.Y.} n 1 , R R Z T..X.X.X.X.X1.",
"1.}..X.X.X.X.X.X.X.X.X.X.X.X.X.X.X.X.X|.L.5 F.]..X.X.X.X.X.X'.1.",
"2.~..X.X.X.X.X.X.X.X.X.X.X.X.X.X.X.X.X.X.X.X.X.X.X.XXX.X.X.X7.2.",
"7.1.~.{..X.X.X.X.X.X.X.X.X.XXX.X.X.X.X.X.X.X.X.X.X.X.X X'.8.1.7.",
"@X7.2.1.1.1.1.1.1.1.1.1.1.1.1.1.1.1.1.1.1.1.1.1.1.1.1.1.1.3.7.@X"
};
