/* XPM */
static char *dynamicaCreatePassiveHull[] = {
/* columns rows colors chars-per-pixel */
"32 32 128 2 ",
"   c #732F01",
".  c #773101",
"X  c #7C3302",
"o  c #454545",
"O  c #4C4C4C",
"+  c #727272",
"@  c #797979",
"#  c #833601",
"$  c #883701",
"%  c #8B3901",
"&  c #953D02",
"*  c #993E01",
"=  c #9C4001",
"-  c #95430C",
";  c #A64301",
":  c #A94501",
">  c #B54901",
",  c #BB4C01",
"<  c #BE662B",
"1  c #AB673A",
"2  c #BD713E",
"3  c #C24E01",
"4  c #C95101",
"5  c #CA590D",
"6  c #D65701",
"7  c #D85701",
"8  c #DC5901",
"9  c #C15F1E",
"0  c #E55D01",
"q  c #CE631C",
"w  c #EC6001",
"e  c #FE6600",
"r  c #FF6F0E",
"t  c #FF7214",
"y  c #FF781D",
"u  c #CF6721",
"i  c #CE6C2A",
"p  c #D16B27",
"a  c #D16C29",
"s  c #D2702E",
"d  c #CD7235",
"f  c #D37434",
"g  c #D47A3D",
"h  c #FF7C24",
"j  c #FF7E28",
"k  c #B27145",
"l  c #BA7140",
"z  c #B77950",
"x  c #BF7F55",
"c  c #CA7F4E",
"v  c #D37D43",
"b  c #FF8634",
"n  c #FF8A3C",
"m  c #BD825B",
"M  c #CD814D",
"N  c #D58046",
"B  c #D6844D",
"V  c #CE8B5D",
"C  c #D68651",
"Z  c #D68A57",
"A  c #D68D5C",
"S  c #FF8E42",
"D  c #FF9046",
"F  c #FF934A",
"G  c #FF9751",
"H  c #FF9E5D",
"J  c #C08761",
"K  c #C38A64",
"L  c #C98D65",
"P  c #C6916E",
"I  c #D79161",
"U  c #D3966E",
"Y  c #D8966A",
"T  c #C99673",
"R  c #CE9B77",
"E  c #CA9A7A",
"W  c #D39A73",
"Q  c #D89D75",
"!  c #D19C79",
"~  c #D7A27D",
"^  c #FFA263",
"/  c #FFA569",
"(  c #FFAD76",
")  c #838383",
"_  c #898989",
"`  c gray68",
"'  c #B4B4B4",
"]  c gray74",
"[  c #CEA386",
"{  c #CFA68A",
"}  c #CFA98F",
"|  c #D7A583",
" . c #D7A98B",
".. c #CFAA92",
"X. c #D6AE94",
"o. c #D5B39D",
"O. c #FFB584",
"+. c #FFBA8A",
"@. c #FFBE92",
"#. c #D4B6A2",
"$. c #D3BBAA",
"%. c #D2BFB2",
"&. c #FFC096",
"*. c #FFC49C",
"=. c #CFC5BD",
"-. c #D1C0B5",
";. c #D0C3BA",
":. c #FFC7A1",
">. c #FFCBA6",
",. c #FFCDAC",
"<. c #FFD2B3",
"1. c #FFD5B9",
"2. c #FFD9BF",
"3. c #C6C6C6",
"4. c #CFC6C1",
"5. c #CDC9C6",
"6. c #CCCCCC",
"7. c #FFDBC3",
"8. c #FFDEC8",
"9. c #FFE1CC",
"0. c #FFE5D3",
"q. c #FFEADB",
"w. c #FFEEE1",
"e. c #FFF0E6",
"r. c #FFF3EA",
"t. c #FFF8F3",
"y. c #FFFCFA",
"u. c None",
/* pixels */
"u.+ O o o o o o o o o o o o o o o o o o o o o o o o o o o O + u.",
"+ O _ ' 3.6.6.6.6.6.6.6.6.6.6.6.6.6.6.6.6.6.6.6.6.6.6.5.' _ o + ",
"O _ 6.6.6.6.6.6.6.6.6.6.6.6.6.6.6.6.6.6.6.6.6.6.6.6.6.6.6.6.@ O ",
"o ] 6.6.6.6.6.6.6.6.6.6.6.6.6.6.6.6.6.6.6.6.6.6.6.6.6.6.6.6.' o ",
"o 6.6.6.6.6.6.6.6.6.6.6.6.6.6.6.6.6.6.6.6.6.6.6.6.6.6.6.6.6.6.o ",
"o 6.6.6.6.6.6.6.6.6.6.6.6.6.6.6.6.6.6.6.6.6.6.6.6.6.6.6.6.6.6.o ",
"o 6.6.6.6.6.6.6.6.6.6.6.=. .A u s g I ~ #.5.6.6.6.6.6.6.6.6.6.o ",
"o 6.6.6.6.6.6.6.6.-.| B g C | | k ! ~ Z g 5 s C Y  .-.6.6.6.6.o ",
"o 6.6.6.6.6.%.Q B v A  .;.6.X., h # =.6.6.6.$.| Y g q 5 q 6.6.o ",
"o 6.6.6.6.5.v I W { 5.6.4.P $ r @.3 # P ;.6.6.6...V . X.f 3.6.o ",
"o 6.6.6.6.Q A T : , . ..X 0 G +.@.O.F w # ..6.m > e , M Y 6.6.o ",
"o 6.6.6.4.q x 0 S D j 3 b :.<.1.,.,.*.@.S % ..= O./ > d #.6.6.o ",
"o 6.6.6.C i e S ; & D @.<.7.8.8.8.1.,.*.@.b X n @.> K f 5.6.6.o ",
"o 6.6.5.u . @.4 [ J y <.7.0.q.q.0.8.1.>.&.@.^ +.+.& Q A 6.6.6.o ",
"o 6.6.6.C & +.8 E m ( 1.8.q.r.t.w.0.2.,.*.@.@.@.H $ N | 6.6.6.o ",
"o 6.6.6.#.9 4 D & z ,.1.9.w.t.y.e.0.7.,.*.@.@.@.t . u -.6.6.6.o ",
"o 6.6.6.6.A c 6 H 6 >.1.9.q.r.r.w.9.7.,.*.@.@.@., R f 6.6.6.6.o ",
"o 6.6.6.6.$.f T : b :.<.7.9.0.q.0.8.<.>.@.@.@.h # f ~ 6.6.6.6.o ",
"o 6.6.6.6.6.A v V 1 D >.<.2.8.7.2.1.,.*.@.@.^ # d Y 6.6.6.6.6.o ",
"o 6.6.6.6.6.5.o.A g f +.>.,.<.<.,.,.*.@.@.O.v C Z 6.6.6.6.6.5.o ",
"o 6.6.6.6.6.6.6.5.$.f i O.*.:.:.:.&.@.@.O.v C B 4.6.6.6.6.6.6.o ",
"o 6.6.6.6.6.6.6.6.6.-.v A e O.@.@.@.O.t L Q g 6.6.6.6.6.6.6.6.o ",
"o 6.6.6.6.6.6.6.6.6.6.#.a W l $ % - 2 U Z B -.6.6.6.6.6.6.6.6.o ",
"o 6.6.6.6.6.6.6.6.6.6.6.o.v v C C B C A I =.6.6.6.6.6.6.6.6.6.o ",
"o 6.6.6.6.6.6.6.6.6.6.6.6.6.6.6.6.6.6.6.6.6.6.6.6.6.6.6.6.6.6.o ",
"o 6.6.6.6.6.6.6.6.6.6.6.6.6.6.6.6.6.6.6.6.6.6.6.6.6.6.6.6.6.6.o ",
"o 6.6.6.6.6.6.6.6.6.6.6.6.6.6.6.6.6.6.6.6.6.6.6.6.6.6.6.6.6.6.o ",
"o 6.6.6.6.6.6.6.6.6.6.6.6.6.6.6.6.6.6.6.6.6.6.6.6.6.6.6.6.6.3.o ",
"o ' 6.6.6.6.6.6.6.6.6.6.6.6.6.6.6.6.6.6.6.6.6.6.6.6.6.6.6.6.' o ",
"O ) 6.6.6.6.6.6.6.6.6.6.6.6.6.6.6.6.6.6.6.6.6.6.6.6.6.6.6.3.+ O ",
"+ o ) ' 5.6.6.6.6.6.6.6.6.6.6.6.6.6.6.6.6.6.6.3.6.6.6.3.` @ o + ",
"u.+ O o o o o o o o o o o o o o o o o o o o o o o o o o o O + u."
};
