/* XPM */
static char *dynamicaActivateChain[] = {
/* columns rows colors chars-per-pixel */
"32 32 150 2 ",
"   c black",
".  c #0E0E0E",
"X  c #1B1B1B",
"o  c #1C331C",
"O  c #2D391B",
"+  c #39391B",
"@  c gray15",
"#  c gray17",
"$  c #223A22",
"%  c #363626",
"&  c #353535",
"*  c #393939",
"=  c #005200",
"-  c #3A4F19",
";  c #006500",
":  c #006D00",
">  c #007B00",
",  c #0B7F0B",
"<  c #3D6600",
"1  c #284828",
"2  c #335933",
"3  c #396239",
"4  c #3E693E",
"5  c #3F713F",
"6  c #4C7E00",
"7  c #666600",
"8  c #7E7E00",
"9  c #405028",
"0  c #505028",
"q  c #5E5E2F",
"w  c #4F6232",
"e  c #506333",
"r  c #586C39",
"t  c #5D723D",
"y  c #626233",
"u  c #6C6C39",
"i  c #647D3F",
"p  c #74743E",
"a  c #454545",
"s  c #4C4C4C",
"d  c #515151",
"f  c gray37",
"g  c #416E41",
"h  c #417341",
"j  c #657D41",
"k  c #777740",
"l  c #7D7D41",
"z  c #626262",
"x  c #6C6C6C",
"c  c #737373",
"v  c #7B7B7B",
"b  c #008C00",
"n  c #009A00",
"m  c #00A300",
"M  c #00A900",
"N  c #0BA00B",
"B  c #00B300",
"V  c #00BC00",
"C  c #0BB30B",
"Z  c #2F852F",
"A  c #2F8B2F",
"S  c #2F902F",
"D  c #2F9A2F",
"F  c #2FA42F",
"G  c #528800",
"H  c #5B9700",
"J  c #5E9C00",
"K  c #5A8519",
"L  c #639D0B",
"P  c #66AA00",
"I  c #69AF00",
"U  c #6BB300",
"Y  c #72BE00",
"T  c #74A22F",
"R  c #78A82F",
"E  c #00C400",
"W  c #00CA00",
"Q  c #0BC30B",
"!  c #77C700",
"~  c #7ACB00",
"^  c #7AC30B",
"/  c #7FD300",
"(  c #668041",
")  c #6C8545",
"_  c #619461",
"`  c #669966",
"'  c #699C69",
"]  c #888800",
"[  c #979700",
"{  c #9C9C00",
"}  c #9D9D0B",
"|  c #ACAC00",
" . c #A6A608",
".. c #B3B300",
"X. c #BEBE00",
"o. c #9B9B2F",
"O. c #80B52F",
"+. c #A2A22F",
"@. c #A8A82F",
"#. c #B5B52F",
"$. c #86DF00",
"%. c #8ADE0B",
"&. c #88E200",
"*. c #8DEB00",
"=. c #92F400",
"-. c #96F900",
";. c #99FF00",
":. c #94F10B",
">. c #86C02F",
",. c #88C22F",
"<. c #C7C700",
"1. c #CBCB00",
"2. c #C3C30B",
"3. c #D3D300",
"4. c #DFDF00",
"5. c #E2E200",
"6. c #EBEB00",
"7. c #F4F400",
"8. c #FBFB00",
"9. c #F1F10B",
"0. c #C1C12F",
"q. c #848444",
"w. c #87A061",
"e. c #8DA666",
"r. c #8FA969",
"t. c #A5A566",
"y. c #A9A969",
"u. c #848484",
"i. c gray54",
"p. c #939393",
"a. c #9D9D9D",
"s. c #86B486",
"d. c #8BB78B",
"f. c #8DB88D",
"g. c #ACACAC",
"h. c #B4B4B4",
"j. c gray",
"k. c #A9C086",
"l. c #ADC38C",
"z. c #A5C5A5",
"x. c #ABC7AB",
"c. c #BDCDA5",
"v. c #BFCDAA",
"b. c #C3C38C",
"n. c #CDCDA5",
"m. c #C1CEAD",
"M. c #CECEAB",
"N. c #C4C4C4",
"B. c #CCCCCC",
"V. c None",
/* pixels */
"V.c s a a a a a a a a a a a a a s a a a a a a a a a a a a s c V.",
"c s u.h.B.B.B.B.B.B.B.B.B.B.B.B.B.B.B.B.B.B.B.B.B.B.B.B.h.u.a c ",
"s i.B.B.B.B.B.B.B.B.B.B.B.B.B.B.B.B.B.B.B.B.B.B.B.B.B.B.B.B.v s ",
"a j.B.B.B.B.B.B.B.B.B.B.B.B.B.B.B.B.B.B.B.B.B.B.B.B.B.B.B.B.h.a ",
"a B.B.B.B.B.B.B.B.B.B.B.B.B.B.B.B.B.B.B.B.. B.B.B.B.B.B.B.B.B.a ",
"a B.B.B.B.B.M.y.k y u y.M.B.p.c d z c g.B.* a.B.B.B.B.B.B.B.B.a ",
"a B.B.B.B.b.l 0.8.8.7.0.q % a c i.i.z # d f z B.B.B.B.B.B.B.B.a ",
"a B.B.B.M.q.9.7.6.5.5.5. .y M.B.B.B.B.B.x X & B.B.B.B.B.B.B.B.a ",
"a B.B.B.t.0.7.5.3.<.<.1.3.#.t.B.B.B.B.        w r r.m.B.B.B.B.a ",
"a B.B.B.y 7.4.<.X.......X.<.l B.B.B.B.l.j ,.;.-.-.>.j k.B.B.B.a ",
"a B.B.B.+ 6.3.X.| { [ { | X.y B.B.B.m.( :.=.*.&.$.&.%.j v.B.B.a ",
"a B.B.B.0 5.<...{ ] 8 ] { ..p B.B.B.e.,.*.&./ ~ ! ~ / O.e.B.B.a ",
"a B.B.B.t.#.<...[ 8 7 8 [ +.t.B.B.B.e =.$.~ Y U I U Y ~ j B.B.a ",
"a B.B.B.M.q.2...{ ] 8 ] } l n.B.B.B.O *./ Y P J H J P Y w B.B.a ",
"a B.B.B.B.b.l @.| { [ o.l b.B.B.B.B.9 &.~ U J G 6 G J U t B.B.a ",
"a B.B.B.B.B.n.y.k y k t.M.B.B.B.B.B.w.O.! I H 6 < 6 H T e.B.B.a ",
"a B.B.B.B.B.B.B.B.B.B.B.B.B.B.B.B.B.m.) ^ U J G 6 G L j c.B.B.a ",
"a B.B.B.B.B.B.B.B.B.B.B.B.B.B.B.B.B.B.l.j R P J H K j l.B.B.B.a ",
"a B.B.B.B.B.B.B.B.x.' g 2 3 ' x.B.B.B.B.c.e.j e - ) m.B.B.B.B.a ",
"a B.B.B.B.B.B.B.f.h F W W E F h s.B.B.B.B.B.B.g.* N.B.B.B.B.B.a ",
"a B.B.B.B.B.B.x.h Q E V B B B C h x.B.B.B.B.B.d v B.B.B.B.B.B.a ",
"a B.B.B.B.B.B.` F V B M m n m M D ` N.a p.N.z s N.B.B.B.B.B.B.a ",
"a B.B.B.B.B.B.2 E B m n b b b n m g x a a.a a j.B.B.B.B.B.B.B.a ",
"a B.B.B.B.B.B.o V M b b > > > b n o . @ # v B.B.B.B.B.B.B.B.B.a ",
"a B.B.B.B.B.B.1 B m b > : ; : , b $ # & z g.B.B.B.B.B.B.B.B.B.a ",
"s B.B.B.B.B.B._ D m b > ; = ; : S ' B.h.c g.B.B.B.B.B.B.B.B.B.a ",
"a B.B.B.B.B.B.x.h N b > : ; : b h z.B.B.B.B.B.B.B.B.B.B.B.B.B.a ",
"a B.B.B.B.B.B.B.f.h S b > > Z h f.B.B.B.B.B.B.B.B.B.B.B.B.B.N.a ",
"a h.B.B.B.B.B.B.N.z.' g 2 4 ` x.B.B.B.B.B.B.B.B.B.B.B.B.B.B.g.a ",
"d u.B.B.B.B.B.B.B.B.B.B.B.B.B.B.B.B.B.B.B.B.B.B.B.B.B.B.B.N.c d ",
"c a v h.B.B.B.B.B.B.B.B.B.B.B.B.B.B.B.B.B.B.B.B.B.B.B.N.g.v a c ",
"V.c s a a a a a a a a a a a a a a a a a a a a a a a a a a s c V."
};
