/* XPM */
static char *dynamicaCreateActiveHullArray[] = {
/* columns rows colors chars-per-pixel */
"32 32 190 2 ",
"   c #313131",
".  c #323232",
"X  c #006600",
"o  c #016701",
"O  c #036803",
"+  c #036903",
"@  c #046A04",
"#  c #056B05",
"$  c #076D07",
"%  c #0B610B",
"&  c #0D610D",
"*  c #0A6B0A",
"=  c #0B6B0B",
"-  c #0B710B",
";  c #0D730D",
":  c #0E740E",
">  c #0F750F",
",  c #106E10",
"<  c #136D13",
"1  c #147014",
"2  c #177117",
"3  c #177217",
"4  c #147A14",
"5  c #157B15",
"6  c #177D17",
"7  c #197319",
"8  c #1A731A",
"9  c #1B741B",
"0  c #1E751E",
"q  c #1F761F",
"w  c #217621",
"e  c #247824",
"r  c #267926",
"t  c #297B29",
"y  c #2C7C2C",
"u  c #327F32",
"i  c #377E37",
"p  c #444444",
"a  c gray27",
"s  c #464646",
"d  c #484848",
"f  c #494949",
"g  c gray30",
"h  c #4E4E4E",
"j  c gray36",
"k  c #6A6A6A",
"l  c #727272",
"z  c gray45",
"x  c gray47",
"c  c gray48",
"v  c #7C7C7C",
"b  c #1B811B",
"n  c #1C821C",
"m  c #1D831D",
"M  c #1F851F",
"N  c #208620",
"B  c #248A24",
"V  c #268C26",
"C  c #278D27",
"Z  c #2A902A",
"A  c #2D932D",
"S  c #2E942E",
"D  c #2F952F",
"F  c #358135",
"G  c #388238",
"H  c #3A843A",
"J  c #3E853E",
"K  c #359B35",
"L  c #369C36",
"P  c #399F39",
"I  c #3AA03A",
"U  c #3BA13B",
"Y  c #3EA43E",
"T  c #438843",
"R  c #448844",
"E  c #4C8C4C",
"W  c #528F52",
"Q  c #549054",
"!  c #599259",
"~  c #5E955E",
"^  c #42A842",
"/  c #43A943",
"(  c #44AA44",
")  c #45AB45",
"_  c #46AC46",
"`  c #4AB04A",
"'  c #4BB14B",
"]  c #4DB34D",
"[  c #50B650",
"{  c #51B751",
"}  c #52B852",
"|  c #53B953",
" . c #55BB55",
".. c #56BC56",
"X. c #57BD57",
"o. c #659865",
"O. c #669966",
"+. c #6A9B6A",
"@. c #6C9C6C",
"#. c #709E70",
"$. c #77A277",
"%. c #7DA47D",
"&. c #7EA57E",
"*. c #7FA67F",
"=. c #5AC05A",
"-. c #5BC15B",
";. c #5CC25C",
":. c #5DC35D",
">. c #5EC45E",
",. c #60C660",
"<. c #61C761",
"1. c #65CB65",
"2. c #67CD67",
"3. c #68CE68",
"4. c #69CF69",
"5. c #6AD06A",
"6. c #6BD16B",
"7. c #6DD36D",
"8. c #6FD56F",
"9. c #71D771",
"0. c #74DA74",
"q. c #75DB75",
"w. c #77DD77",
"e. c #78DE78",
"r. c #79DF79",
"t. c #7DE37D",
"y. c #7EE47E",
"u. c #808080",
"i. c gray51",
"p. c #838383",
"a. c #848484",
"s. c gray52",
"d. c #868686",
"f. c #898989",
"g. c #8D8D8D",
"h. c #8E8E8E",
"j. c gray56",
"k. c #929292",
"l. c #939393",
"z. c #959595",
"x. c gray60",
"c. c #9A9A9A",
"v. c #9B9B9B",
"b. c gray61",
"n. c gray62",
"m. c #9F9F9F",
"M. c #82A782",
"N. c #8BAB8B",
"B. c #97B197",
"V. c #97B297",
"C. c #99B299",
"Z. c #9AB39A",
"A. c #9BB49B",
"S. c #A0A0A0",
"D. c #A4A4A4",
"F. c gray67",
"G. c #AFAFAF",
"H. c #A4B9A7",
"J. c #A6B9A6",
"K. c #A7BAA7",
"L. c #A8BAA8",
"P. c #ACBCAC",
"I. c #B1B1B1",
"U. c #B2B2B2",
"Y. c gray70",
"T. c gray71",
"R. c #B6B6B6",
"E. c #B7B7B7",
"W. c #B9B9B9",
"Q. c gray73",
"!. c gray74",
"~. c #85EB85",
"^. c #B3C0B3",
"/. c #BAC3BA",
"(. c #BFC6BF",
"). c #C0C0C0",
"_. c #C1C1C1",
"`. c #C1C6C1",
"'. c gray77",
"]. c #C5C5C5",
"[. c #C6C6C6",
"{. c gray78",
"}. c #C8C8C8",
"|. c gray79",
" X c #CACACA",
".X c #CACBCA",
"XX c #CBCBCB",
"oX c #CBCCCC",
"OX c gray80",
"+X c None",
/* pixels */
"+Xl g a a a a d a a a d a a a a d a a d a a d a a d a a d g l +X",
"l g d.T. XOXOXOXOXOXOXOXOXOXOXOXOXOXOXOXOXOXOXOXOXOXOX[.Y.p.d l ",
"g f.OXOXOXOXOXOXOXOXOXOXOXOXJ.O.r X O 0 E O.C.(.OXoXoXOXOXOXc g ",
"a !.OXOXOXOXOXOXOXOXOXJ.! 7 X X X - S O X X X X * y oXOXOXOXT.a ",
"a OXOXOXOXOXOXOXOXOX(.* X $ X O Z ` ..( V O O X ; ; L.OXOXOXOXa ",
"a OXOXOXOXOXOXOXOXOXT # V K B } 1.5.1.,...( O 6 ( n M.OXOXOXOXa ",
"a OXOXOXOXOXOXOXOXOXO I M $ } 1.9.w.0.5.:.{ ^ ^ D G OXOXOXOXOXa ",
"a OXOXOXOXOXOXOXOXoXO ` ; - ;.5.e.~.t.8.<.} ] ] N #.OXOXOXOXOXa ",
"a OXOXOXOXOXOXOXOXOXR b A n =.3.0.t.e.8.,.{ ] ` > J.OXOXOXOXOXa ",
"d OXOXOXOXOXOXOXOXOXOXw 4 K ..,.7.8.8.1.X.] ] K O oXOXOXOXOXOXa ",
"a OXOXOXOXOXOXOXOXOXOXOX~ $ I ..;.<.,.X.} ] Y # C.OXJ.O.r X X % ",
"a OXOXOXOXOXOXOXOXOXOXOXoX`.8 I {  .{ ] ] Y F N.! 3 X X X - S O ",
"d OXOXOXOXOXOXOXOXOXOXOXOXOX(.1 5 ( ] ( m H ^.* X $ X X Z ` ..^ ",
"a OXOXOXOXOXOXOXOXOXoXoXJ.Q J.OX@.7 X r $.OXT $ V K B } 1.4.4.,.",
"a OXOXOXOXOXOXoX/.J.O.0 - S , J O.B.(.P.L.OXO I N $ } 1.9.w.0.5.",
"d OXOXOXOXOXC.y $ X O Z ' ../ V X X X ; ; J.O ` ; - ;.5.e.~.t.8.",
"   XOXOXOX*.# V K B } 1.5.1.<...( O 6 ( n M.R n A n -.3.q.y.r.6.",
"  f. XOXOX7 I M $ } 1.9.w.q.5.:.{ ^ ^ S 0 OXOXq 4 K  .<.6.8.8.1.",
"a z.h.OXOXX ` ; - ;.5.e.~.t.8.<.} ] ] B Q oXOXOX~ # I X.:.<.<.X.",
"a OXf.S.OX3 b A M -.1.w.y.e.6.<.} ] ` ; Z.OXOXOXOX`.9 P { }  .] ",
"a OX).d.Q.C.X 5 K  .,.5.8.6.1.=.] ] K O oXoXOXOXOXOX`.< 5 _ ] / ",
"a OXOXF.k.OXu X # P X.:.<.<.=.} ] Y + %.OXOXOXOXOXOXOXOX@.7 + % ",
"a OXOXOXh.Q.OX*.< X I }  .} ] ] I O +.oXOXOXOXOXOXOXOXOXOXOXOXa ",
"a OXOXOXD.x.OX).k i X 6 _ ] ^ n O $.oXoXOXOXOXOXOXOXOXOXOXOXOXa ",
"a OXOXOXT.k.OXu.x.`.e X O O X X *.OXOXOXOXOXOXOXOXOXOXOXOXOXOXa ",
"d OXOXOX{.x.D.d.oXOXOXOXoXoXOXOXOXOXOXOXOXOXOXOXOXOXOXOXOXOXOXa ",
"a OXOX[.).n.v Q.OXOXOXOXOXOXOXOXOXOXOXOXOXOXOXOXOXOXOXOXOXOXOXa ",
"a  X Xz.j d.u.h.U.OXOXOXOXOXOXOXOXOXOXOXOXOXOXOXOXOXOXOXOXOX].a ",
"a T. XQ.S.c b.h.n. XOXOXOXOXOXOXOXOXOXOXOXOXOXOXOXOXOXOXOXOXG.a ",
"g d.OX XOX'.OXOX XOXOXOXOXOXOXOXOXOXOXOXOXOXOXOXOXOXOXOXOX Xz g ",
"z d u.U. XOXOXOXOXOXOXOXOXOXOXOXOXOXOXOXOXOXOXOXOXOXOX[.F.c a z ",
"+Xl g a a a a a a a a a a a a a a a a a a a a a a a a a a g l +X"
};
